<svg width="133" height="160" viewBox="0 0 133 160" fill="none" xmlns="http://www.w3.org/2000/svg">
<path d="M37.3546 76.992L38.6947 105.38L63.5067 106.275L90.9987 106.051L91.6693 92.64L90.552 74.5347L38.248 74.3094L37.3546 76.992Z" fill="#006DC1"/>
<path d="M75.792 94.8427L58.7973 83.4134L42.0347 74.3267L38.248 74.3094L37.612 76.2147L52.5266 84.628L64.4613 91.808L77.4093 99.8014L88.7267 106.071L90.9987 106.051L91.104 103.937L75.792 94.8427Z" fill="white"/>
<path d="M90.552 74.5347L87.992 74.524L70.5453 83.932L53.528 95.324L38.6347 104.123L38.6947 105.38L42.396 105.515L51.896 100.276L64.8613 92.3147L76.8147 85.1587L90.7253 77.3533L90.552 74.5347Z" fill="white"/>
<path d="M90.636 75.8907L90.552 74.5347L90.164 74.5307L70.776 84.9027L52.956 96.7347L38.68 105.101L38.6946 105.38L39.5387 105.413L49.8693 99.764L63.4946 91.4653L76.0773 83.9947L90.636 75.8907Z" fill="#FF4127"/>
<path d="M76.7053 96.88L58.552 84.78L39.0666 74.3133L38.248 74.3093L37.908 75.324L53.1866 83.8627L65.9653 91.4813L79.7613 99.9187L90.932 106.051H90.9986L91.036 105.309L76.7053 96.88Z" fill="#FF4127"/>
<path d="M68.8813 106.229L68.7093 95.856L68.428 74.4387L60.8946 74.4067L60.72 87.2587L61.0226 100.409L61.1827 106.191L63.5067 106.275L68.8813 106.229Z" fill="white"/>
<path d="M38.2 94.928L46.3573 94.5413L65.272 94.744L91.556 94.9333L91.6693 92.64L91.2653 86.06L65.272 86.348H51.9173L37.8067 86.612L38.2 94.928Z" fill="white"/>
<path d="M38.12 93.2147L44.796 92.9907L67.584 93.164L91.6373 93.2853L91.6693 92.64L91.38 87.9387L67.5733 88.124H51.5427L37.8866 88.3027L38.12 93.2147Z" fill="#FF4127"/>
<path d="M67.624 106.243L67.4973 97.172L67.2454 74.4334L62.0774 74.412L61.932 86.92L62.2373 102.512L62.32 106.231L63.5067 106.275L67.624 106.243Z" fill="#FF4127"/>
<path d="M23.1333 0.394691L20.5147 9.61468C20.5147 9.61468 16.212 21.2534 16.068 21.6014C15.924 21.9467 13.7773 30.6853 13.7773 30.6853L18.5453 32.2627L28.8627 32.896L29.2387 31.0187L18.4 27.7254L21.0187 20.136L28.7547 22.4067L31.124 19.3227L22.3653 15.2707L25.328 6.19336L34.868 9.34935L35.84 6.36269L28.3627 2.1667L23.1333 0.394691Z" fill="white"/>
<path d="M41.8307 6.96L37.8467 17.5106L33.4987 29.264L30.9267 36.74L33.5573 38.2427L37.9947 28.5587L41.7747 37.7293L41.284 41.188L44.3187 42.0453L56.3907 12.0707L53.828 10.7333L46.6747 26.6106L43.8427 32.7573L40.0173 23.7027L44.4907 8.06801L41.8307 6.96Z" fill="white"/>
<path d="M66.7866 23.5907L69.2627 24.4853L70.0027 19.7747L67.528 17.2507L62.8053 17.1853L55.352 24.6614L51.828 33.776L50.8707 42.6L52.98 46.328L57.864 46.3267L59.7427 45.0734L57.8173 51.3267L60.1107 52.0094L65.0093 39.264L67.9013 40.4667L68.68 37.9427L60.0947 34.7747L59.5853 36.3267L61.908 38.244L60.1053 42.2427L56.4 43.0027L54.8173 39.632L57.5707 30.74L62.1147 21.78L65.2267 20.4987L66.584 21.4707L66.7866 23.5907Z" fill="white"/>
<path d="M78.7506 21.2453L74.748 31.516L69.664 44.0507L66.94 50.9187L73.328 54.8L77.5186 56.136L80.5027 48.968L78.472 47.9867L76.1506 52.5827L71.748 49.8013L82.056 22.756L78.7506 21.2453Z" fill="white"/>
<path d="M88.4506 47.8014L96.0959 36.604L92.68 49.6974L88.4506 47.8014ZM100.092 35.1494L100.843 29.764L98.0879 28.8894L89.316 40.836L81.7466 53.1507L79.3879 57.188L81.2373 57.956L86.2346 51.492L91.776 54.4774L90.9493 62L93.4559 62.5014L100.092 35.1494Z" fill="white"/>
<path d="M110.148 31.1973L103.776 44.5493L97.0959 63.2027L100.437 63.6453L103.817 56.5067L108.588 66.224L111.112 67.0027L122.155 37.552L120.005 36.52L115.144 46.572L110.187 60.1067L105.917 51.14L112.827 32.5827L110.148 31.1973Z" fill="white"/>
<path d="M124.204 65.5347L117.653 68.236L121.727 59.7547L127.301 47.0187L128.889 48.0867L130.011 52.8947L128.24 59.7547L124.204 65.5347ZM131.511 47.008L128.465 41.9427L125.209 40.3147L118.816 56.644L113.167 71.52L118.253 72.0107L127.769 66.7467L132.084 57.692L131.511 47.008Z" fill="white"/>
<path d="M2.3147 72.3293L2.99201 78.9373V97.1373L3.26001 115.607L3.53068 131.651L4.47336 145.943L4.34136 157.807L22.8094 159.423L30.36 158.751L31.1694 135.023L30.0907 118.035L29.5507 101.181L28.608 75.1627L23.4827 71.5227L2.3147 72.3293Z" fill="#D8AA4E"/>
<path d="M29.5506 101.181L28.608 75.1627L24.1253 71.9773L24.9666 81.4987L24.6986 97.5414L25.5067 124.103V140.819L25.6413 151.472L25.8666 159.151L30.36 158.751L31.1693 135.023L30.0906 118.035L29.5506 101.181Z" fill="#BF882E"/>
<path d="M2.99201 78.9374V97.1373L3.26001 115.607L3.53068 131.651L4.47336 145.943L4.34136 157.807L8.77469 158.196L8.52 131.112L7.98003 100.375L7.03602 80.9587L6.77336 72.1613L2.3147 72.3293L2.99201 78.9374Z" fill="#BF882E"/>
<path d="M25.9546 73.276L24.5906 72.3067L25.9546 73.276Z" fill="#BF882E"/>
<path d="M25.6413 151.472L25.5066 140.819V124.103L24.6986 97.5413L24.9666 81.4987L24.1253 71.9773L23.4826 71.5227L20.1573 71.648L21.0573 85.004L20.7893 106.033L21.7346 132.595L22.2453 159.375L22.8093 159.423L25.8666 159.151L25.6413 151.472Z" fill="#BF882E"/>
<path d="M27.3933 145.404L26.8573 120.999L26.3147 89.7227L26.6773 73.7894L24.1253 71.9773L24.9666 81.4987L24.6986 97.5414L25.5067 124.103V140.819L25.6413 151.472L25.8666 159.151L27.516 159.004L27.3933 145.404Z" fill="#9B7127"/>
<path d="M31.1693 135.023L30.0907 118.035L29.5506 101.181L28.608 75.1627L28.2027 74.8747V79.3414L28.3373 95.9227L28.608 119.248L29.5506 147.424L29.7947 158.803L30.36 158.751L31.1693 135.023Z" fill="#9B7127"/>
<path d="M23.844 143.561L23.5746 124.417L23.3053 112.912L22.9453 100.776L22.8573 87.6547L22.6 71.556L22.1586 71.572L22.4053 81.2733V96.9147L22.8573 113.449L23.1266 128.101L23.664 149.224L23.7493 159.341L24.188 159.303L23.844 143.561Z" fill="#9B7127"/>
<path d="M6.67732 158.009V142.661L6.31599 123.787L5.86797 105.901L5.59864 94.8467L5.05863 79.2973V72.2267L4.36664 72.252L4.61065 78.5307L5.50931 102.125L5.59864 112.641L5.95863 124.596L6.31599 143.561L6.14398 157.964L6.67732 158.009Z" fill="#9B7127"/>
<path d="M2.54266 79.5667H10.992L25.192 79.4747L29.328 81.8134V84.6894L24.8333 82.3534L19.1693 81.5427L8.02798 81.3627L2.63332 81.724L2.54266 79.5667Z" fill="#BF882E"/>
<path d="M24.568 82.3147L24.8333 82.3534L29.328 84.6894V81.8134L25.2546 79.512L24.568 82.3147Z" fill="#9B7127"/>
<path d="M10.992 79.5667H2.54266L2.58531 80.6294L11.9773 80.4654L20.6973 80.5547L24.7427 81.0947L29.328 83.5347V81.8134L25.192 79.4747L10.992 79.5667Z" fill="#F4BF62"/>
<path d="M24.8533 81.1534L29.328 83.5347V81.8134L25.2546 79.512L24.8533 81.1534Z" fill="#BF882E"/>
<path d="M2.45331 95.6533V96.644L24.6533 95.8347L30.0453 97.5414V96.372L24.6533 94.484L2.45331 95.6533Z" fill="#F4BF62"/>
<path d="M24.2027 95.8494L24.6533 95.8347L30.0453 97.5414V96.372L24.6533 94.484L24.2027 94.5107V95.8494Z" fill="#D8AA4E"/>
<path d="M2.272 99.7893L25.0133 98.9787L29.956 100.6V101.497L25.0133 99.9693L2.63333 100.508L2.272 99.7893Z" fill="#F4BF62"/>
<path d="M24.4733 99V99.9813L25.0133 99.9693L29.956 101.497V100.6L25.0133 98.9787L24.4733 99Z" fill="#D8AA4E"/>
<path d="M2.72398 113.631L2.54266 114.259L24.8333 112.821L30.4946 113.989L30.4053 113.271L24.8333 111.653L2.72398 113.631Z" fill="#F4BF62"/>
<path d="M2.724 116.237L24.8333 114.8L30.2267 115.517V116.325L24.8333 115.968L2.81335 116.867L2.724 116.237Z" fill="#F4BF62"/>
<path d="M24.8333 111.653L24.624 111.671L24.776 112.825L24.8333 112.821L30.4946 113.989L30.4053 113.271L24.8333 111.653Z" fill="#D8AA4E"/>
<path d="M24.6067 114.813L24.7014 115.973L24.8333 115.968L30.2267 116.325V115.517L24.8333 114.8L24.6067 114.813Z" fill="#D8AA4E"/>
<path d="M3.21732 133.135L23.4373 132.773L25.6853 132.729L31.2573 133.135L31.4387 133.941L25.5067 133.675L3.30534 134.079L3.21732 133.135Z" fill="#F4BF62"/>
<path d="M3.39599 136.64L3.30533 137.449L25.596 137.629L31.304 137.584L31.4387 136.819L25.5506 136.233L3.39599 136.64Z" fill="#F4BF62"/>
<path d="M25.6853 132.729L25.2613 132.74L25.2173 133.679L25.5067 133.675L31.4387 133.941L31.2573 133.135L25.6853 132.729Z" fill="#D8AA4E"/>
<path d="M25.2493 136.239L25.2733 137.627L25.596 137.629L31.304 137.584L31.4387 136.819L25.5506 136.233L25.2493 136.239Z" fill="#D8AA4E"/>
<path d="M7.62131 74.892L7.57733 77.812L8.96932 78.084L9.19465 75.7467L8.83466 74.6227L8.06932 74.3987L7.62131 74.892Z" fill="#9B7127"/>
<path d="M10.0467 75.0707L10.2293 77.9453H11.6666L11.8 75.476L11.0827 74.4427L10.0467 75.0707Z" fill="#9B7127"/>
<path d="M12.924 75.3413L13.0147 77.812L14.4973 77.724L14.6773 75.8813L14.092 74.6227L13.4627 74.4427L12.924 75.3413Z" fill="#9B7127"/>
<path d="M15.62 75.2054L15.844 77.14L15.8907 77.768L17.3733 77.6347L17.4173 75.792L16.968 74.6227L16.3387 74.5307L15.62 75.2054Z" fill="#9B7127"/>
<path d="M18.1387 75.3414L18.2267 77.588H19.5747L19.5307 74.892L18.7667 74.3067L18.2693 74.6227L18.1387 75.3414Z" fill="#9B7127"/>
<path d="M9.86664 82.892L10.54 82.848L10.6773 88.104L10.7666 93.4533L10.184 93.496L10.0026 88.1493L9.86664 82.892Z" fill="#9B7127"/>
<path d="M11.7107 82.756L11.9774 93.3174L12.788 93.3627L12.564 82.936L11.7107 82.756Z" fill="#9B7127"/>
<path d="M16.2947 82.936L16.6533 93.4533L17.3293 93.3627L17.148 82.804L16.2947 82.936Z" fill="#9B7127"/>
<path d="M18.3147 82.624C18.3147 82.756 18.5414 93.228 18.5414 93.228L19.0787 93.092L18.9454 82.6653L18.3147 82.624Z" fill="#9B7127"/>
<path d="M9.91333 101.767L10.184 111.744L10.992 111.653L10.6773 101.677L9.91333 101.767Z" fill="#9B7127"/>
<path d="M12.16 101.497L12.7893 111.653L13.7773 111.564L13.1946 101.315L12.16 101.497Z" fill="#9B7127"/>
<path d="M16.2506 101.139L16.608 111.115L17.3293 111.069L16.9226 101.139H16.2506Z" fill="#9B7127"/>
<path d="M18.2693 101.092L18.5413 111.024L19.1693 110.933L18.856 101.139L18.2693 101.092Z" fill="#9B7127"/>
<path d="M10.3613 118.572L10.7213 131.696L11.352 131.563L11.0827 118.483L10.3613 118.572Z" fill="#9B7127"/>
<path d="M12.2506 118.392L12.6093 131.739H13.1933L12.8787 118.213L12.2506 118.392Z" fill="#9B7127"/>
<path d="M16.8347 118.529L16.968 131.336L17.4627 131.292V118.529H16.8347Z" fill="#9B7127"/>
<path d="M18.5413 118.303L18.9453 131.563L19.7533 131.383L19.3493 117.989L18.5413 118.303Z" fill="#9B7127"/>
<path d="M11.0347 139.516L10.9467 153.265L11.7107 153.221L11.9347 139.425L11.0347 139.516Z" fill="#9B7127"/>
<path d="M12.9693 139.38L13.1933 153.852H13.8226L13.9133 139.425L12.9693 139.38Z" fill="#9B7127"/>
<path d="M16.9226 139.56L16.968 154.123L17.8226 153.94L17.732 139.607L16.9226 139.56Z" fill="#9B7127"/>
<path d="M19.2587 139.336L19.0347 154.256L20.1133 153.896L19.8907 139.293L19.2587 139.336Z" fill="#9B7127"/>
<path d="M28.1373 126.461L28.2707 130.1L28.472 144.46L28.876 159.085L36.292 158.952L45.528 158.143L53.2133 157.4L57.1227 157.875L57.592 156.863L56.6493 124.437L42.2907 124.371L31.64 124.911L28 125.448L28.1373 126.461Z" fill="#D8AA4E"/>
<path d="M41.956 147.763L41.752 136.977L41.6213 124.407L39.5427 124.511L39.7307 130.573L40.2693 138.324L40.404 147.693L40.7413 151.604L40.5387 156.796L40.684 158.569L42.336 158.423L41.956 147.763Z" fill="#BF882E"/>
<path d="M56.996 136.339L41.012 137.179L35.9546 137.312L28.3666 137.028L28.412 140.079L40.876 139.268L41.416 139.941L57.08 139.232L56.996 136.339Z" fill="#F4BF62"/>
<path d="M44.2453 156.661L28.8413 157.851L28.876 159.085L36.292 158.952L45.528 158.143L53.2133 157.4L57.1227 157.875L57.592 156.863L57.588 156.685L51.6613 156.459L44.2453 156.661Z" fill="#9B7127"/>
<path d="M56.6493 124.437L42.2907 124.371L31.64 124.911L28 125.448L28.1373 126.461L28.1387 126.543L33.7307 126.057L38.8533 126.192H43.64L56.6987 126.127L56.6493 124.437Z" fill="#9B7127"/>
<path d="M27.732 116.417V125.719L30.7653 125.517L42.224 125.113L57.056 125.181L56.1107 115.067L47.2813 115.001L33.46 115.405L27.932 115.741L27.732 116.417Z" fill="#4C4C7F"/>
<path d="M46.54 118.572L45.864 119.045L42.7627 123.696L36.292 123.965L27.732 124.883V125.719L30.7653 125.517L42.224 125.113L57.056 125.181L56.9493 124.056L50.2467 123.631L46.54 118.572Z" fill="#BF882E"/>
<path d="M39.596 124.169L41.752 124.035L41.8186 118.035L39.124 118.1L39.596 124.169Z" fill="#BF882E"/>
<path d="M39.596 111.968V118.369H41.416L41.5506 111.564L39.596 111.968Z" fill="#BF882E"/>
<path d="M40.2693 108.463L39.324 112.171L41.8866 112.035L40.2693 108.463Z" fill="#BF882E"/>
<path d="M35.4467 115.348L35.82 123.493H36.4253L36.488 115.317L35.4467 115.348Z" fill="#7472B2"/>
<path d="M32.7 115.452L33.7986 123.832L35.1453 123.631L34.3027 115.381L33.46 115.405L32.7 115.452Z" fill="#7472B2"/>
<path d="M32.1133 124.035L32.72 123.9L32.0133 115.495L31.148 115.545L32.1133 124.035Z" fill="#37375B"/>
<path d="M44.044 121.337L44.72 119.853L44.1813 115.092L42.752 115.135L44.044 121.337Z" fill="#37375B"/>
<path d="M50.988 123.225L52.336 123.36L51.9014 115.036L49.176 115.017L50.988 123.225Z" fill="#7472B2"/>
<path d="M53.2787 123.493L54.36 123.561L53.7173 115.049L52.3093 115.039L53.2787 123.493Z" fill="#7472B2"/>
<path d="M54.964 123.425H55.572L55.004 115.06L54.272 115.055L54.964 123.425Z" fill="#37375B"/>
<path d="M32.652 128.551L32.8546 135.897H33.6627L34.0693 128.887L33.46 128.08L32.652 128.551Z" fill="#9B7127"/>
<path d="M35.0093 129.089L35.348 136.1L36.564 135.967L36.36 129.224L36.0213 128.551L35.4827 128.619L35.0093 129.089Z" fill="#9B7127"/>
<path d="M37.5027 129.495L37.64 135.897H38.7187V129.157L37.9774 128.483L37.5027 129.495Z" fill="#9B7127"/>
<path d="M44.044 129.631L44.38 135.628L45.1227 135.495L45.1907 129.495L44.72 128.483L44.3133 128.551L44.044 129.631Z" fill="#9B7127"/>
<path d="M46.6733 129.829L47.0107 135.156L48.3573 134.887L47.8187 128.685L47.212 128.483L46.6733 129.829Z" fill="#9B7127"/>
<path d="M49.7067 134.685H51.1893L51.056 128.551L49.8387 128.012L49.5067 129.024L49.7067 134.685Z" fill="#9B7127"/>
<path d="M33.0573 153.087L34.3373 152.885V144.727L34.1347 142.437L33.0573 142.504L32.988 143.785L33.0573 153.087Z" fill="#9B7127"/>
<path d="M36.0213 152.953H37.1693L37.1013 144.123L36.628 142.301L35.7546 142.572L35.2813 144.393L35.6186 152.885L36.0213 152.953Z" fill="#9B7127"/>
<path d="M38.18 152.681L39.1933 152.616L39.324 142.976L38.4493 141.899L38.0467 142.64L38.18 152.681Z" fill="#9B7127"/>
<path d="M43.5733 152.549L44.72 152.347V146.885L44.9186 142.705L44.38 141.761L43.64 141.967V144.593L43.5733 152.549Z" fill="#9B7127"/>
<path d="M46.2693 152.347H47.9546L47.752 143.651L47.4813 141.899L46.4707 141.627L46.0667 143.109L46.2693 152.347Z" fill="#9B7127"/>
<path d="M49.368 152.347L50.7173 151.943L50.584 141.627L49.8387 140.685L48.964 140.953L49.368 152.347Z" fill="#9B7127"/>
<path d="M53.2133 157.4L54.3693 157.541L54.4933 152.279L54.4267 136.908L54.292 126.461L52.336 126.731L52.404 133L52.74 150.053L52.6787 157.453L53.2133 157.4Z" fill="#BF882E"/>
<path d="M8.116 34.4453V36.6027L8.3853 41.456L19.3053 41.3227L22.9453 43.884L23.3506 36.3347L18.3613 34.0414L8.116 34.4453Z" fill="#D8AA4E"/>
<path d="M19.4093 41.3947L22.9453 43.884L23.3506 36.3347L19.1973 34.4253L19.4093 41.3947Z" fill="#BF882E"/>
<path d="M8.47198 33.096L12.1586 26.2667L13.776 20.3347L14.2253 16.4707L15.1253 16.2907L16.3827 18.3587L18.2693 26.3574L20.3386 32.5574L23.3946 35.524L18.6306 33.4574L7.93597 33.816L8.47198 33.096Z" fill="#4C4C7F"/>
<path d="M23.3946 35.524L20.3386 32.5574L18.2693 26.3574L16.3827 18.3587L15.4066 16.752L16.024 20.8734L16.7453 26.2667L18.3613 31.5694L18.956 33.5987L23.3946 35.524Z" fill="#37375B"/>
<path d="M7.12396 33.2773L18.7213 32.648L24.296 35.256L23.3053 37.1414L19.2586 35.1653L8.02663 35.256H7.39597L7.12396 33.2773Z" fill="#4C4C7F"/>
<path d="M18.9839 35.1667L19.2586 35.1653L23.3053 37.1414L24.296 35.256L19.2893 32.9147L18.9839 35.1667Z" fill="#37375B"/>
<path d="M24.296 35.256L18.7213 32.648L7.12396 33.2773L7.26664 34.3107L13.4173 33.9067L19.0786 34.0853L23.7973 36.2014L24.296 35.256Z" fill="#7472B2"/>
<path d="M24.296 35.256L19.2893 32.9147L19.1293 34.108L23.7973 36.2014L24.296 35.256Z" fill="#4C4C7F"/>
<path d="M10.3387 31.6147L10.8787 30.4027L11.4853 31.6827L10.3387 31.6147Z" fill="#BF882E"/>
<path d="M13.44 31.48L13.9133 30.4027L14.856 31.6827L13.44 31.48Z" fill="#BF882E"/>
<path d="M16.472 30.0654L16.0693 31.2787L17.212 31.48L16.472 30.0654Z" fill="#BF882E"/>
<path d="M12.632 27.9067L12.1586 28.9867H12.8346L12.632 27.9067Z" fill="#BF882E"/>
<path d="M14.9227 27.3667L14.856 28.4467L15.664 28.3107L14.9227 27.3667Z" fill="#BF882E"/>
<path d="M14.2506 23.3907L13.6426 24.8067L14.6519 24.94L14.2506 23.3907Z" fill="#BF882E"/>
<path d="M17.62 39.9067L17.5507 37.344V36.132L16.4054 36.0627L15.9333 37.008L16.0014 38.9627L16.06 41.3614L17.62 41.3427V39.9067Z" fill="#9B7127"/>
<path d="M15.1733 41.3734L15.0573 37.816L14.856 35.9974H13.844L13.44 37.616L13.3787 41.3947L15.1733 41.3734Z" fill="#9B7127"/>
<path d="M12.496 36.7374L11.8906 36.0627L11.352 36.8054V39.0973L11.5173 41.4187L12.968 41.3987L12.496 36.7374Z" fill="#9B7127"/>
<path d="M10.5573 41.4294L10.676 37.344L10.272 35.9974H9.73198L9.46398 37.2094L9.34399 41.444L10.5573 41.4294Z" fill="#9B7127"/>
<path d="M2.78931 50.8933V57.1627L22.7427 57.2293L27.3266 59.5213L27.664 54.5333L22.9453 49.4773L4.67866 50.0173L2.78931 50.8933Z" fill="#BF882E"/>
<path d="M22.6986 57.2293H22.7426L27.3266 59.5213L27.664 54.5333L22.9813 49.5173L22.6986 57.2293Z" fill="#9B7127"/>
<path d="M5.95866 52.1747L5.89066 55.68L6.69733 55.4094L6.90267 52.1747H5.95866Z" fill="#705726"/>
<path d="M7.77734 52.108L7.98001 55.3427L8.72132 55.2747L8.65332 52.108H7.77734Z" fill="#705726"/>
<path d="M9.80264 51.9734L9.93464 55.2094L10.676 55.1414L10.7426 52.04L9.80264 51.9734Z" fill="#705726"/>
<path d="M11.552 52.108L11.688 54.9387H12.6973L12.768 52.1747L11.552 52.108Z" fill="#705726"/>
<path d="M13.5093 52.04L13.6427 54.8694L14.856 54.736L14.72 51.836L13.5093 52.04Z" fill="#705726"/>
<path d="M16.1374 51.904L15.9333 54.6693H17.212L17.08 51.836L16.1374 51.904Z" fill="#705726"/>
<path d="M18.0253 51.836V54.6693H19.1026V51.7027L18.0253 51.836Z" fill="#705726"/>
<path d="M7.84534 41.5907L4.74267 44.8267L1.84534 49.68L13.776 48.668L22.8093 49.0734L26.9213 52.7147L23.8866 44.22L19.508 41.928L17.2827 41.7267L7.84534 41.5907Z" fill="#7472B2"/>
<path d="M23.8866 44.22L19.6853 42.0213L22.7986 49.0734H22.8093L26.9213 52.7147L23.8866 44.22Z" fill="#4C4C7F"/>
<path d="M0.970642 49.0054L8.78796 48.5347L16.4053 48.196L22.1373 48.5347L22.8773 48.668L27.732 52.7813L28.1373 55.2747L27.192 55.2094L22.8773 50.8933L16.8093 50.2867L6.42797 50.624L2.72129 51.4333L1.37198 51.0293L0.970642 49.0054Z" fill="#9B7127"/>
<path d="M22.9787 48.7533L22.7173 50.876L22.8773 50.8933L27.192 55.2094L28.1373 55.2747L27.732 52.7813L22.9787 48.7533Z" fill="#705726"/>
<path d="M27.732 52.7813L22.8773 48.668L22.1373 48.5347L16.4053 48.196L8.78796 48.5347L0.970642 49.0054L1.21729 50.2494L7.03597 49.748L15.528 49.276L21.0573 49.612L22.7426 49.952L28.0653 54.8374L27.732 52.7813Z" fill="#BF882E"/>
<path d="M22.8227 50.024L28.0653 54.8374L27.732 52.7813L22.9787 48.7534L22.8227 50.024Z" fill="#9B7127"/>
<path d="M7.30533 40.7133L7.64267 42.1307L19.8453 42.6027L23.8866 44.76L23.956 42.8054L19.4387 40.3773L7.30533 40.7133Z" fill="#4C4C7F"/>
<path d="M19.364 40.38L19.5814 42.5907L19.8454 42.6027L23.8867 44.76L23.956 42.8054L19.4387 40.3773L19.364 40.38Z" fill="#37375B"/>
<path d="M6.29465 45.6374L5.75464 47.6573L7.03599 47.5907L6.90265 45.568L6.29465 45.6374Z" fill="#D8AA4E"/>
<path d="M11.0147 45.7027L10.8107 47.524L11.8226 47.4574L11.4853 45.6374L11.0147 45.7027Z" fill="#D8AA4E"/>
<path d="M14.9893 45.7027L14.652 47.2533H16.1373L15.596 45.6373L14.9893 45.7027Z" fill="#D8AA4E"/>
<path d="M19.5747 46.108L19.1027 47.4574L20.2493 47.524L20.1133 46.04L19.5747 46.108Z" fill="#D8AA4E"/>
<path d="M8.78797 42.8734L8.24933 44.76H9.86665L9.39864 42.7374L8.78797 42.8734Z" fill="#D8AA4E"/>
<path d="M13.2387 43.208L13.0347 44.8933H13.9787L13.6427 43.1414L13.2387 43.208Z" fill="#D8AA4E"/>
<path d="M17.888 43.2773L17.3506 44.9627L18.4947 45.0294L18.428 43.208L17.888 43.2773Z" fill="#D8AA4E"/>
<path d="M0.47467 56.556L5.41865 56.4667L19.98 56.016L23.484 55.6587L29.6866 60.692L29.056 76.5094L24.1147 72.464H22.1373L7.668 72.824L1.55465 73.2747L1.376 68.5987L0.47467 60.24V56.556Z" fill="#F4BF62"/>
<path d="M23.844 59.8813L24.0986 72.464H24.1147L29.056 76.5094L29.6866 60.692L23.844 55.9493V59.8813Z" fill="#D8AA4E"/>
<path d="M5.41864 56.4667L3.91467 56.4947L4.15865 60.78L4.84267 73.032L7.66799 72.824L20.9693 72.4947V65.8133L20.884 55.924L19.98 56.016L5.41864 56.4667Z" fill="#D8AA4E"/>
<path d="M4.79065 57.1853L5.23866 67.164L5.68798 72.1947L14.3173 71.7453L19.8013 71.656L20.428 61.2307L20.2506 56.9173H14.4973L7.93599 57.0947L4.79065 57.1853Z" fill="#705726"/>
<path d="M0.925323 58.264L1.104 60.96L1.64401 60.78V58.1747L0.925323 58.264Z" fill="#BF882E"/>
<path d="M2.272 58.0853V60.6013H2.81334L2.90133 58.1747L2.272 58.0853Z" fill="#BF882E"/>
<path d="M1.55463 66.084L1.82263 68.332L2.54265 68.2413V65.8133L1.55463 66.084Z" fill="#BF882E"/>
<path d="M3.17334 65.724V68.1507H3.62132L3.53066 65.724H3.17334Z" fill="#BF882E"/>
<path d="M21.5067 58.264L21.596 60.692H22.1373V58.1747L21.5067 58.264Z" fill="#BF882E"/>
<path d="M22.676 58.1747V60.5107L23.216 60.6013L23.3054 58.3547L22.676 58.1747Z" fill="#BF882E"/>
<path d="M21.5067 65.8133L21.4173 68.5107H21.956L22.2266 65.6333L21.5067 65.8133Z" fill="#BF882E"/>
<path d="M22.764 65.4533L22.4947 68.332L23.3947 68.2413L23.216 65.724L22.764 65.4533Z" fill="#BF882E"/>
<path d="M25.1133 73.2827L28.0587 75.692L27.888 64.8254L28.408 59.6533L25.024 56.9067L25.2813 65.0947L25.1133 73.2827Z" fill="#BF882E"/>
<path d="M5.59866 57.904L6.40667 71.2973L19.1693 70.8466L19.528 57.9947L7.936 57.816L5.59866 57.904Z" fill="#EF880C"/>
<path d="M13.328 58.444L9.73197 58.804L7.93598 59.8813L6.76531 62.2187L6.40665 65.1853L7.30665 67.792L9.91332 69.7707L12.4306 70.4893L15.036 70.3094L17.8226 67.7014L18.8107 64.6453V62.0387L16.9226 59.5213L15.036 58.804L13.328 58.444Z" fill="#FFEDCC"/>
<path d="M13.0147 59.5667L10.8573 59.972L8.69997 61.0947L7.93597 63.3427L8.24932 66.264L9.73197 68.332L12.1147 69.2307L14.9893 68.8253L16.6986 66.9827L17.4173 64.2867L17.3293 62.444L16.204 60.692L14.588 59.836L13.0147 59.5667Z" fill="#BF882E"/>
<path d="M11.8 60.0614L10.5866 60.5107L8.92397 61.3627L8.3853 62.8933L8.24933 64.0173L8.5213 65.7694L9.01333 66.7133L10.184 68.196L11.8906 68.7813L13.1946 68.8253L14.856 68.4667L16.1613 67.2067L16.7453 65.6787L17.148 64.0614L17.0133 62.5334L15.9346 60.916L14.452 60.0173L12.924 59.836L11.8 60.0614Z" fill="#FFEDCC"/>
<path d="M13.0147 61.276L10.6333 61.8133C10.6333 61.8133 9.95731 63.208 9.95731 63.3427C9.95731 63.4774 10.0467 65.6787 10.0467 65.6787L11.576 66.8467L13.4626 67.252L15.1266 66.264L15.9346 64.376L15.576 62.7574L14.1813 61.544L13.0147 61.276Z" fill="#BF882E"/>
<path d="M12.2947 61.68L11.036 61.948L10.2733 62.6694L10.1373 64.0614L10.316 65.4534L11.3053 66.308L12.4307 66.756L13.7333 66.8027L14.6333 66.264L15.3973 64.96L15.4853 63.8374L14.9893 62.5787L13.9133 61.7707L12.2947 61.68Z" fill="#FFEDCC"/>
<path d="M12.4307 58.804V60.2853L12.7453 60.24V58.804H12.4307Z" fill="#BF882E"/>
<path d="M12.6547 68.556L12.564 70.0827H12.8787L12.9693 68.556H12.6547Z" fill="#BF882E"/>
<path d="M16.6533 64.1507L18.5413 64.24L18.4506 64.6L16.608 64.4667L16.6533 64.1507Z" fill="#BF882E"/>
<path d="M6.72265 64.1507H8.608V64.556H6.63199L6.72265 64.1507Z" fill="#BF882E"/>
<path d="M7.26129 61.724L8.83463 62.2627L8.92395 61.86L7.4413 61.3213L7.26129 61.724Z" fill="#BF882E"/>
<path d="M9.41998 59.2974C9.41998 59.432 10.496 60.96 10.496 60.96L10.8573 60.736L9.82265 59.1187L9.41998 59.2974Z" fill="#BF882E"/>
<path d="M15.8907 59.432L14.9893 60.8707L15.216 61.0947L16.204 59.5214L15.8907 59.432Z" fill="#BF882E"/>
<path d="M17.7773 61.1853L16.2506 62.1747L16.5186 62.6227L17.9586 61.544L17.7773 61.1853Z" fill="#BF882E"/>
<path d="M9.14935 66.264L7.396 67.2067L7.48398 67.6107L9.32933 66.444L9.14935 66.264Z" fill="#BF882E"/>
<path d="M10.8573 67.9267L10.184 69.544L10.4507 69.6334L11.1253 67.9707L10.8573 67.9267Z" fill="#BF882E"/>
<path d="M14.6773 67.9707C14.7653 68.1054 15.844 69.1387 15.844 69.1387L16.0693 68.8254L14.8106 67.792L14.6773 67.9707Z" fill="#BF882E"/>
<path d="M15.9787 66.1733L17.7773 66.892L17.9586 66.5333L16.1613 65.724L15.9787 66.1733Z" fill="#BF882E"/>
<path d="M12.6973 63.5667L12.16 63.8374L12.2506 64.4667L12.836 64.5094L13.0573 63.8827L12.6973 63.5667Z" fill="#BF882E"/>
<path d="M11.62 60.6453L11.7107 61.8133L12.52 63.9734L12.7893 63.8827L11.62 60.6453Z" fill="#BF882E"/>
<path d="M12.6547 64.196L12.6973 68.1507H12.8787L13.0147 64.0173L12.6547 64.196Z" fill="#BF882E"/>
<path d="M41.012 137.179L40.1907 137.199L40.2694 138.324L40.2827 139.307L40.876 139.268L41.416 139.941L41.8067 139.924L41.7547 137.14L41.012 137.179Z" fill="#9B7127"/>
<path d="M54.4266 136.908L54.4213 136.476L52.4733 136.579L52.5293 139.437L54.4347 139.352L54.4266 136.908Z" fill="#9B7127"/>
<path d="M42.336 158.423L42.2774 156.812L40.5507 156.947L40.684 158.568L42.336 158.423Z" fill="#705726"/>
<path d="M54.392 156.564L52.6866 156.497L52.6786 157.453L53.2133 157.4L54.3693 157.541L54.392 156.564Z" fill="#705726"/>
<path d="M51.9987 124.348L54.1546 124.215L54.2226 118.213L51.528 118.281L51.9987 124.348Z" fill="#BF882E"/>
<path d="M51.9987 112.148V118.551H53.8173L53.952 111.744L51.9987 112.148Z" fill="#BF882E"/>
<path d="M52.672 108.64L51.7266 112.349L54.292 112.213L52.672 108.64Z" fill="#BF882E"/>
</svg>
