<svg width="227" height="149" viewBox="0 0 227 149" fill="none" xmlns="http://www.w3.org/2000/svg">
<path d="M73.874 75.5403L74.5016 70.8881L77.512 65.9679L81.3984 63.0975L84.9099 62.2788L90.0511 64.4652L93.4984 67.8491L95.3803 75.1283L73.874 75.5403Z" fill="#BA7545"/>
<path d="M86.7265 71.2308H80.3307L74.2995 72.3855L73.874 75.5403L95.3803 75.1283L94.9645 73.5199L91.9932 72.1559L86.7265 71.2308Z" fill="#FFAD65"/>
<path d="M74.5937 76.6668L75.064 87.7387L93.4046 88.048L95.4751 82.5121L95.5677 76.4584L89.1735 75.4345L81.5546 75.336L74.5937 76.6668Z" fill="#FFAD65"/>
<path d="M96.1328 74.8225L91.2421 74.4105L84.375 74.1012H78.262L72.1484 76.2559L73.7473 78.2037L76.9453 76.6668L84.7526 76.2559L92.7473 76.6668L95.5677 77.0772L96.1328 74.8225Z" fill="#7B402C"/>
<path d="M95.0303 73.7745L90.6787 72.6652L84.0937 72.5652L78.9203 72.2548L74.9713 73.1824L74.1547 73.4616L74.0339 74.3693L77.8864 73.1824H83.9047L89.9255 73.4865L93.2177 73.8975L95.2281 74.5335L95.0303 73.7745Z" fill="#BA7545"/>
<path d="M77.0406 66.0037L80.5183 65.284L84.375 65.184L88.0442 65.5917L90.7724 66.1027L92.3697 66.6199V65.696L87.9489 64.5693L84.6579 64.26H81.6484L78.5458 64.6704L77.0406 66.0037Z" fill="#7B402C"/>
<path d="M84.3751 59.0293L83.8115 60.3627L83.5303 62.5173L85.8803 62.7215L85.4099 59.6455L84.3751 59.0293Z" fill="#7B402C"/>
<path d="M84.3751 52.984V59.0293L85.0364 59.6455L85.3161 58.5188L84.3751 52.984Z" fill="#7B402C"/>
<path d="M81.4751 87.8464L86.374 87.9283L85.8803 80.0521L84.7527 78.8199L82.7771 78.6157L81.7421 80.0521L81.5547 83.9464L81.4751 87.8464Z" fill="#7B402C"/>
<path d="M80.2041 87.8293L79.8604 82.3053L79.3907 79.8439L77.7917 79.2293L76.4751 80.6627L76.3812 84.7641L76.2251 87.7584L80.2041 87.8293Z" fill="#7B402C"/>
<path d="M91.2281 88.0095L91.1473 82.9188L90.6787 80.1532L89.9255 79.0251L88.9844 79.1267L88.138 81.5855V84.7641L87.8213 87.9559L91.2281 88.0095Z" fill="#7B402C"/>
<path d="M85.8803 80.0521L84.7527 78.8199L82.7771 78.6157L81.7421 80.0521L81.5547 83.9464L81.4751 87.8464L83.1547 87.8745L83.2473 85.9975L83.4349 83.0215L84.7527 82.3053L86.0625 82.9491L85.8803 80.0521Z" fill="#523126"/>
<path d="M77.7917 79.2293L76.4751 80.6627L76.3812 84.7641L76.2251 87.7584L77.5104 87.7788V82.3053L78.1683 81.0745L79.6683 81.2892L79.3907 79.8439L77.7917 79.2293Z" fill="#523126"/>
<path d="M57.5703 77.4865L57.9469 81.4881L58.0417 91.7387L59.4521 91.6371L59.3568 83.3283L59.1693 77.2813L57.5703 77.4865Z" fill="#BA7545"/>
<path d="M54.1839 84.2548L54.5599 92.8641H55.5937L55.5 83.9464L54.1839 84.2548Z" fill="#BA7545"/>
<path d="M65.4713 76.0521V83.5371L65.7527 89.8949L66.8802 89.2772L66.5068 82.6095L66.4115 75.9464L65.4713 76.0521Z" fill="#BA7545"/>
<path d="M64.9079 73.8975H66.6937L67.5407 75.5403L64.8115 75.6403L64.9079 73.8975Z" fill="#BA7545"/>
<path d="M57.5703 75.1283L57.1937 76.6668L59.4521 76.7693L58.8855 75.0251L57.5703 75.1283Z" fill="#BA7545"/>
<path d="M53.9973 81.9985L53.526 83.7412L55.6901 83.4319L55.126 81.6892L53.9973 81.9985Z" fill="#BA7545"/>
<path d="M94.1588 87.4319L82.4011 87.0188L74.3115 86.9188H71.5833L57.7579 90.7147L53.4307 92.2521L53.9973 94.3012L55.2188 96.2521L55.126 108.965L55.0312 125.469L55.5 135.824L74.876 136.029L88.514 135.924L93.876 135.824L94.1588 87.4319Z" fill="#FFAD65"/>
<path d="M72.2421 126.908L72.1484 100.145L71.7145 86.9188H71.5833L57.7579 90.7147L53.4307 92.2521L53.9973 94.3012L55.2188 96.2521L55.126 108.965L55.0312 125.469L55.5 135.824L72.4765 136.007L72.2421 126.908Z" fill="#BA7545"/>
<path d="M74.3115 86.9188H71.5833L57.7579 90.7147L53.4307 92.2521L53.9973 94.3012L55.2093 96.2345L60.3932 94.7095L71.9609 91.6371L80.238 91.3293L94.1303 92.3829L94.1588 87.4319L82.4011 87.0188L74.3115 86.9188Z" fill="#BA7545"/>
<path d="M71.8708 91.6627L71.7145 86.9188H71.5833L57.7579 90.7147L53.4307 92.2521L53.9973 94.3012L55.2093 96.2345L60.3932 94.7095L71.8708 91.6627Z" fill="#7B402C"/>
<path d="M94.1432 90.0371L80.238 89.2772L71.6787 89.0693L70.6432 89.4797L62.9307 91.6371L54.2292 94.6704L54.6989 95.4215L57.9469 93.7892L64.2473 91.8403L71.8672 89.8949L94.1396 90.7772L94.1432 90.0371Z" fill="#7B402C"/>
<path d="M54.6989 95.4215L57.9469 93.7892L64.2473 91.8403L71.8125 89.9079L71.7855 89.072L71.6787 89.0693L70.6432 89.4797L62.9307 91.6371L54.2292 94.6704L54.6989 95.4215Z" fill="#523126"/>
<path d="M73.936 93.5855L73.7473 101.684L73.8412 110.296L73.6536 113.372L88.4203 113.985L91.5235 113.68L91.1473 93.6865L82.9645 93.1745L77.6979 92.8641L73.936 93.5855Z" fill="#BA7545"/>
<path d="M56.8193 97.8892L56.6292 102.708L56.724 111.116L56.6292 115.321L70.0797 113.474L70.362 106.605L69.986 93.5855L62.1787 95.9403L56.8193 97.8892Z" fill="#7B402C"/>
<path d="M75.1588 94.9173L74.9713 102.813L74.876 112.14L90.0193 112.651L90.1136 94.9173L85.0364 94.3012L78.8254 94.0985L75.1588 94.9173Z" fill="#FFAD65"/>
<path d="M57.7579 98.9147L61.4271 97.5813L65.8464 96.0439L68.6693 95.3267L69.1396 100.967L69.2328 110.091L68.8568 112.344L57.664 113.885L57.5703 108.653L57.7579 98.9147Z" fill="#BA7545"/>
<path d="M62.6473 99.4267L60.6745 101.377L59.4521 103.94L59.1693 112.651L67.5406 111.833L67.8213 105.885L66.9765 101.58L64.8114 99.7335L63.3073 98.8121L62.6473 99.4267Z" fill="#7B402C"/>
<path d="M76.0989 111.525V107.323L76.8527 102.297L77.2265 99.8403L80.4245 97.8892L82.5901 96.2521L83.8115 96.8627L86.2568 98.5037L88.0443 100.352L88.7969 102.605V111.833L76.0989 111.525Z" fill="#7B402C"/>
<path d="M88.0443 100.352L86.2568 98.5037L83.8115 96.8627L82.5901 96.2521L80.4245 97.8892L77.2265 99.8403L76.8527 102.297L76.0989 107.323V111.525L78.2787 111.577L78.4505 104.555L80.6136 101.377L84.564 100.145L88.4099 101.451L88.0443 100.352Z" fill="#523126"/>
<path d="M81.3656 105.17L81.1917 111.651L83.6536 111.708L83.9046 108.144L83.7177 105.067L81.3656 105.17Z" fill="#523126"/>
<path d="M61.5208 106.503L62.1786 102.503L63.3073 101.274L65.7125 100.503L64.8114 99.7335L63.3073 98.8121L62.6473 99.4267L60.6745 101.377L59.4521 103.94L59.1693 112.651L61.264 112.449L61.5208 106.503Z" fill="#523126"/>
<path d="M70.9255 126.085L70.6432 116.037L64.7177 116.14L57.1937 117.881V123.728L57.5459 135.849L71.2724 135.989L70.9255 126.085Z" fill="#7B402C"/>
<path d="M88.514 135.924L91.7787 135.865L91.0531 115.217L86.1631 115.421L76.1927 115.525L74.7812 115.831L75.1396 136.028L88.514 135.924Z" fill="#BA7545"/>
<path d="M156.955 75.5403L156.327 70.8881L153.316 65.9679L149.429 63.0975L145.917 62.2788L140.776 64.4652L137.328 67.8491L135.448 75.1283L156.955 75.5403Z" fill="#BA7545"/>
<path d="M144.101 71.2308H150.496L156.528 72.3855L156.955 75.5403L135.448 75.1283L135.864 73.5199L138.835 72.1559L144.101 71.2308Z" fill="#FFAD65"/>
<path d="M156.233 76.6668L155.763 87.7387L137.423 88.048L135.353 82.5121L135.26 76.4584L141.656 75.4345L149.273 75.336L156.233 76.6668Z" fill="#FFAD65"/>
<path d="M134.695 74.8225L139.585 74.4105L146.451 74.1012H152.568L158.68 76.2559L157.083 78.2037L153.883 76.6668L146.077 76.2559L138.081 76.6668L135.26 77.0772L134.695 74.8225Z" fill="#7B402C"/>
<path d="M135.799 73.7745L140.149 72.6652L146.736 72.5652L151.908 72.2548L155.859 73.1824L156.673 73.4616L156.797 74.3693L152.941 73.1824H146.921L140.904 73.4865L137.612 73.8975L135.601 74.5335L135.799 73.7745Z" fill="#BA7545"/>
<path d="M153.789 66.0037L150.308 65.284L146.451 65.184L142.785 65.5917L140.057 66.1027L138.459 66.6199V65.696L142.877 64.5693L146.171 64.26H149.18L152.285 64.6704L153.789 66.0037Z" fill="#7B402C"/>
<path d="M146.451 59.0293L147.019 60.3627L147.3 62.5173L144.948 62.7215L145.417 59.6455L146.451 59.0293Z" fill="#7B402C"/>
<path d="M146.451 52.984V59.0293L145.795 59.6455L145.513 58.5188L146.451 52.984Z" fill="#7B402C"/>
<path d="M149.353 87.8464L144.456 87.9283L144.948 80.0521L146.077 78.8199L148.051 78.6157L149.085 80.0521L149.273 83.9464L149.353 87.8464Z" fill="#7B402C"/>
<path d="M150.624 87.8293L150.967 82.3053L151.437 79.8439L153.036 79.2293L154.353 80.6627L154.448 84.7641L154.605 87.7584L150.624 87.8293Z" fill="#7B402C"/>
<path d="M139.599 88.0095L139.68 82.9188L140.149 80.1532L140.904 79.0251L141.844 79.1267L142.691 81.5855V84.7641L143.005 87.9559L139.599 88.0095Z" fill="#7B402C"/>
<path d="M144.948 80.0521L146.077 78.8199L148.051 78.6157L149.085 80.0521L149.273 83.9464L149.353 87.8464L147.675 87.8745L147.581 85.9975L147.392 83.0215L146.077 82.3053L144.765 82.9491L144.948 80.0521Z" fill="#523126"/>
<path d="M153.036 79.2293L154.353 80.6627L154.448 84.7641L154.605 87.7584L153.319 87.7788V82.3053L152.66 81.0745L151.163 81.2892L151.437 79.8439L153.036 79.2293Z" fill="#523126"/>
<path d="M173.259 77.4865L172.881 81.4881L172.789 91.7387L171.377 91.6371L171.472 83.3283L171.659 77.2813L173.259 77.4865Z" fill="#BA7545"/>
<path d="M176.644 84.2548L176.268 92.8641H175.233L175.327 83.9464L176.644 84.2548Z" fill="#BA7545"/>
<path d="M165.359 76.0521V83.5371L165.076 89.8949L163.947 89.2772L164.323 82.6095L164.417 75.9464L165.359 76.0521Z" fill="#BA7545"/>
<path d="M165.921 73.8975H164.136L163.289 75.5403L166.015 75.6403L165.921 73.8975Z" fill="#BA7545"/>
<path d="M173.259 75.1283L173.633 76.6668L171.377 76.7693L171.941 75.0251L173.259 75.1283Z" fill="#BA7545"/>
<path d="M176.832 81.9985L177.304 83.7412L175.139 83.4319L175.704 81.6892L176.832 81.9985Z" fill="#BA7545"/>
<path d="M136.671 87.4319L148.427 87.0188L156.517 86.9188H159.245L173.069 90.7147L177.397 92.2521L176.832 94.3012L175.609 96.2521L175.704 108.965L175.799 125.469L175.327 135.824L155.951 136.029L142.313 135.924L136.953 135.824L136.671 87.4319Z" fill="#FFAD65"/>
<path d="M158.584 126.908L158.68 100.145L159.113 86.9188H159.245L173.069 90.7147L177.397 92.2521L176.832 94.3012L175.609 96.2521L175.704 108.965L175.799 125.469L175.327 135.824L158.353 136.007L158.584 126.908Z" fill="#BA7545"/>
<path d="M156.517 86.9188H159.245L173.069 90.7147L177.397 92.2521L176.832 94.3012L175.619 96.2345L170.436 94.7095L158.867 91.6371L150.591 91.3293L136.699 92.3829L136.671 87.4319L148.427 87.0188L156.517 86.9188Z" fill="#BA7545"/>
<path d="M158.959 91.6627L159.113 86.9188H159.245L173.069 90.7147L177.397 92.2521L176.832 94.3012L175.619 96.2345L170.436 94.7095L158.959 91.6627Z" fill="#7B402C"/>
<path d="M136.687 90.0371L150.591 89.2772L159.149 89.0693L160.184 89.4797L167.897 91.6371L176.6 94.6704L176.129 95.4215L172.881 93.7892L166.581 91.8403L158.963 89.8949L136.689 90.7772L136.687 90.0371Z" fill="#7B402C"/>
<path d="M176.129 95.4215L172.881 93.7892L166.581 91.8403L159.015 89.9079L159.044 89.072L159.149 89.0693L160.184 89.4797L167.897 91.6371L176.6 94.6704L176.129 95.4215Z" fill="#523126"/>
<path d="M156.892 93.5855L157.083 101.684L156.987 110.296L157.176 113.372L142.408 113.985L139.305 113.68L139.68 93.6865L147.863 93.1745L153.131 92.8641L156.892 93.5855Z" fill="#BA7545"/>
<path d="M174.012 97.8892L174.197 102.708L174.104 111.116L174.197 115.321L160.748 113.474L160.467 106.605L160.843 93.5855L168.648 95.9403L174.012 97.8892Z" fill="#7B402C"/>
<path d="M155.671 94.9173L155.859 102.813L155.951 112.14L140.809 112.651L140.715 94.9173L145.795 94.3012L152.001 94.0985L155.671 94.9173Z" fill="#FFAD65"/>
<path d="M173.069 98.9147L169.403 97.5813L164.98 96.0439L162.16 95.3267L161.691 100.967L161.593 110.091L161.972 112.344L173.163 113.885L173.259 108.653L173.069 98.9147Z" fill="#BA7545"/>
<path d="M168.18 99.4267L170.156 101.377L171.377 103.94L171.659 112.651L163.289 111.833L163.005 105.885L163.853 101.58L166.015 99.7335L167.521 98.8121L168.18 99.4267Z" fill="#7B402C"/>
<path d="M154.729 111.525V107.323L153.976 102.297L153.6 99.8403L150.404 97.8892L148.24 96.2521L147.019 96.8627L144.572 98.5037L142.785 100.352L142.031 102.605V111.833L154.729 111.525Z" fill="#7B402C"/>
<path d="M142.785 100.352L144.572 98.5037L147.019 96.8627L148.24 96.2521L150.404 97.8892L153.6 99.8403L153.976 102.297L154.729 107.323V111.525L152.549 111.577L152.377 104.555L150.215 101.377L146.264 100.145L142.417 101.451L142.785 100.352Z" fill="#523126"/>
<path d="M149.461 105.17L149.639 111.651L147.173 111.708L146.921 108.144L147.111 105.067L149.461 105.17Z" fill="#523126"/>
<path d="M169.308 106.503L168.648 102.503L167.521 101.274L165.116 100.503L166.015 99.7335L167.521 98.8121L168.18 99.4267L170.156 101.377L171.377 103.94L171.659 112.651L169.564 112.449L169.308 106.503Z" fill="#523126"/>
<path d="M159.904 126.085L160.184 116.037L166.109 116.14L173.633 117.881V123.728L173.284 135.849L159.556 135.989L159.904 126.085Z" fill="#7B402C"/>
<path d="M142.313 135.924L139.049 135.865L139.775 115.217L144.667 115.421L154.637 115.525L156.045 115.831L155.688 136.028L142.313 135.924Z" fill="#BA7545"/>
<path d="M94.064 72.5308L92.8115 67.4736L93.436 61.1865L97.1989 55.0335L103.471 48.8797L109.489 45.4627L111.496 42.3199L113.628 37.9439L113.752 36.7131L114.88 36.9855L114.757 38.7627L116.888 42.8652L120.651 45.3267L124.791 47.7881L130.432 50.384L133.568 55.0335L136.327 62.4163L137.08 67.4736L136.701 72.2548L135.949 74.9949L127.423 74.0319L107.359 74.1736H96.9489L94.1891 73.6267L94.064 72.5308Z" fill="#FFAD65"/>
<path d="M111.844 41.6012L111.496 42.3199L109.489 45.4627L103.471 48.8797L97.1989 55.0335L93.436 61.1865L92.8115 67.4736L94.064 72.5308L94.1891 73.6267L96.9489 74.1736H96.9984L96.5729 66.5157L97.3245 61.4573L99.332 56.8095L104.097 50.384L110.868 45.3267L111.844 41.6012Z" fill="#FFD394"/>
<path d="M133.568 55.0335L130.432 50.384L124.791 47.7881L120.651 45.3267L116.888 42.8652L115.849 40.8652L116.385 43.2772L120.148 47.1027L127.047 50.384L131.937 57.0829L133.944 65.284L133.817 71.3001L133.18 74.6797L135.949 74.9949L136.701 72.2548L137.08 67.4736L136.327 62.4163L133.568 55.0335Z" fill="#FFD394"/>
<path d="M128.049 63.7813L121.653 63.3704L111.621 62.96L101.463 63.6455L92.9437 66.1412L92.8115 67.4736L94.064 72.5308L94.1891 73.6267L96.9489 74.1736H107.359L127.423 74.0319L135.949 74.9949L136.701 72.2548L137.08 67.4736L137.065 67.3693L132.689 65.284L128.049 63.7813Z" fill="#BA7545"/>
<path d="M94.1891 73.6267L96.9489 74.1736H96.9984L96.5729 66.5157L96.7959 65.0121L92.9437 66.1412L92.8115 67.4736L94.064 72.5308L94.1891 73.6267Z" fill="#FFAD65"/>
<path d="M133.817 71.3001L133.18 74.6797L135.949 74.9949L136.701 72.2548L137.08 67.4736L137.065 67.3693L133.932 65.8772L133.817 71.3001Z" fill="#FFAD65"/>
<path d="M105.476 46.9679L108.236 45.5985L111.496 45.3267L115.321 45.0865L119.741 46.0121L122.188 46.2163L124.161 46.9319L125.479 47.8559L123.221 47.548L118.331 46.6225L114.379 46.4199L111.181 46.2163L107.608 46.9319L105.632 47.548L105.476 46.9679Z" fill="#BA7545"/>
<path d="M114.003 40.884L115.949 41.0584L114.757 38.7627L114.88 36.9855L113.752 36.7131L113.628 37.9439L112.232 40.8095L114.003 40.884Z" fill="#BA7545"/>
<path d="M114.004 35.0745L113.252 35.8917L113.001 36.5788L113.252 37.26L114.067 37.9439L115.072 37.8761L115.573 37.3283V36.3027L115.195 35.5548L114.004 35.0745Z" fill="#BA7545"/>
<path d="M114.004 31.724L112.875 32.4745L112.751 34.0496L114.004 35.0745L115.008 35.2121L116.323 34.2532L116.449 33.024L115.509 31.724H114.004Z" fill="#BA7545"/>
<path d="M93.2177 71.2308L99.52 69.5907L105.821 69.184L116.167 69.3892L123.504 69.2855L133.285 70.9225L137.423 72.4627L136.295 79.7455L94.6276 78.7163L93.7812 74.4105L93.2177 71.2308Z" fill="#7B402C"/>
<path d="M123.504 69.2855L116.167 69.3892L105.821 69.184L99.52 69.5907L93.2177 71.2308L93.7812 74.4105L94.1953 76.524L99.424 75.7428L108.455 75.6403H119.083L126.607 76.1521L133.285 76.872L136.605 77.7251L137.423 72.4627L133.285 70.9225L123.504 69.2855Z" fill="#FFAD65"/>
<path d="M137.423 72.4627L133.285 70.9225L123.504 69.2855L116.167 69.3892L105.821 69.184L99.52 69.5907L93.2177 71.2308L93.7812 74.4105L94.0458 75.7548L98.8613 74.9225H105.537H115.225L125.855 75.2308L132.439 75.9464L136.693 77.1745L137.423 72.4627Z" fill="#BA7545"/>
<path d="M123.504 69.2855L116.167 69.3892L105.821 69.184L99.52 69.5907L93.2177 71.2308L93.5458 73.0829L99.1413 71.9491L111.276 71.3345L120.68 71.436L129.335 72.0496L137.175 74.0745L137.423 72.4627L133.285 70.9225L123.504 69.2855Z" fill="#7B402C"/>
<path d="M101.729 74.6157L101.683 73.336L102.059 72.2053H102.857L103.281 73.4865L103.421 74.4641L101.729 74.6157Z" fill="#523126"/>
<path d="M103.845 74.4641L103.987 72.9745L104.315 72.1559L104.973 72.1053L105.632 73.5403V74.4105L103.845 74.4641Z" fill="#523126"/>
<path d="M106.339 74.4641L106.431 72.9745L106.997 71.8985H107.653L108.22 73.1308V74.5652L106.339 74.4641Z" fill="#523126"/>
<path d="M109.253 74.5131V73.2308L109.817 72.2053L110.381 71.7985L111.041 72.4131L111.369 74.5652L109.253 74.5131Z" fill="#523126"/>
<path d="M112.124 74.5131L112.309 73.0788L112.779 72.1559L113.392 71.6412L114.051 72.1053C114.051 72.1053 114.192 73.0788 114.192 73.2308C114.192 73.3855 114.192 74.5652 114.192 74.5652L112.124 74.5131Z" fill="#523126"/>
<path d="M114.661 74.5652V73.336L114.852 72.1559L115.508 71.6949L116.308 71.8985L116.448 73.1308L116.543 74.5652H114.661Z" fill="#523126"/>
<path d="M97.5893 74.7693L97.544 73.4865L98.0613 72.5652L98.812 72.5147L99.1413 73.4865L99.3307 74.5131L97.5893 74.7693Z" fill="#523126"/>
<path d="M118.707 74.5131L118.659 73.4371L119.316 72.1053L119.929 71.7439L120.539 72.0012L120.728 74.6157L118.707 74.5131Z" fill="#523126"/>
<path d="M121.905 74.7173L122.188 73.336L122.657 72.4131L123.267 72.0012L124.02 72.2548L124.303 73.4371L124.397 74.6157L121.905 74.7173Z" fill="#523126"/>
<path d="M124.821 74.7173L125.055 73.5892L125.384 72.5652L125.995 72.3069L126.607 72.5147L126.749 73.6949L126.7 74.9225L124.821 74.7173Z" fill="#523126"/>
<path d="M129.616 75.2824L129.759 74.1012L130.416 73.2308L131.028 72.9745L131.261 73.6949L131.215 75.3865L129.616 75.2824Z" fill="#523126"/>
<path d="M131.639 75.3865L131.827 74.3627L132.297 73.3855L133.096 73.2813L133.425 74.0532L133.332 75.7428L131.639 75.3865Z" fill="#523126"/>
<path d="M136.373 79.2293L131.215 78.1532L126.091 78.2559L117.343 77.7412L107.089 77.6933L99.3773 77.7949L94.5729 78.4335L94.6276 78.7163L136.295 79.7455L136.373 79.2293Z" fill="#BA7545"/>
<path d="M92.1823 78.2037L100.365 78.3069H110.147L124.821 79.0251L137.893 79.6412L138.928 80.4616L139.399 86.7131L139.68 114.704V135.725L107.701 136.646L93.0287 135.924L93.124 134.697L92.8412 116.653L92.5584 95.0188L91.9932 79.8439L91.8063 78.6157L92.1823 78.2037Z" fill="#FFD394"/>
<path d="M124.821 79.0251L110.147 78.3069H100.365L92.1823 78.2037L91.8063 78.6157L91.9349 79.4573L95.0973 79.6412L101.588 79.5403L118.236 79.8439L126.983 80.1532L134.508 80.2559L138.884 80.4251L137.893 79.6412L124.821 79.0251Z" fill="#FFAD65"/>
<path d="M137.601 135.784L137.328 116.756L136.953 99.1215L136.107 82.6095L126.419 82.5121L113.627 82.2027L101.212 81.896L94.4391 81.9985L94.3453 92.2521L94.2527 107.323L94.5323 123.316V136.004L98.276 136.184L98.2027 132.237L98.0147 117.368L97.6386 97.2745L97.9187 85.4824L106.856 85.2772L115.885 85.1788L132.628 86.2027L133.472 101.58L133.944 120.241V135.891L137.601 135.784Z" fill="#BA7545"/>
<path d="M107.701 136.646L132.328 135.933L132.251 129.469L131.687 112.651L131.308 95.6345L130.559 88.048L127.361 87.948L120.024 87.3283L109.112 87.2283L99.8947 87.3283L99.612 97.5813V111.629L99.8013 127.212V136.262L107.701 136.646Z" fill="#BA7545"/>
<path d="M107.701 136.646L131.437 135.962L131.497 131.932L131.123 120.752L130.745 113.781L130.464 108.348L129.429 105.58L127.077 103.529L123.973 101.377L120.211 98.0975L116.919 94.6105L116.356 92.4584L115.979 91.9428L115.321 92.4584L115.037 95.124L111.933 98.3001L106.103 102.605L102.623 105.27L101.305 108.348L100.741 114.601L100.647 120.344L100.553 128.751V136.296L107.701 136.646Z" fill="#7B402C"/>
<path d="M100.835 88.2521L100.741 90.7146L100.365 94.6105V107.835L101.588 104.758L103.939 102.503L107.325 100.352L111.652 97.0668L114.003 94.1985L114.567 91.7387L114.756 90.6121L115.885 90.5053L117.107 90.9198L117.577 93.3788L120.024 96.3507L122.375 98.8121L126.139 101.377L129.524 103.94L130.651 105.682V98.5037L130.085 92.0455L129.711 88.972L124.632 88.46L116.731 87.948L111.276 88.148L104.223 88.2521H100.835Z" fill="#FFD394"/>
<path d="M100.271 114.704L106.103 115.011H118.801L125.008 115.321L131.308 114.909V116.346L117.672 116.14L107.42 116.037L100.179 115.933L100.271 114.704Z" fill="#BA7545"/>
<path d="M103.752 91.4293L103.375 91.8403L103.72 92.2521L104.033 91.9095L104.065 91.3975L103.752 91.4293Z" fill="#BA7545"/>
<path d="M105.821 92.3532L105.257 92.5584L105.319 93.1745L105.791 93.3788L106.135 92.8641L106.104 92.5267L105.821 92.3532Z" fill="#BA7545"/>
<path d="M107.169 90.6788L106.668 90.8491V91.1907L106.951 91.6371L107.388 91.5308L107.515 91.0532L107.169 90.6788Z" fill="#BA7545"/>
<path d="M107.325 95.7693L106.917 96.1455L107.044 96.6251L107.608 96.9308L107.921 96.0772L107.608 95.7012L107.325 95.7693Z" fill="#BA7545"/>
<path d="M103.156 96.0095L102.435 96.1824L102.497 97.1037L102.999 97.2428L103.564 96.6251L103.156 96.0095Z" fill="#BA7545"/>
<path d="M104.285 96.4521L104.065 96.7616L104.191 97.0345L104.693 97.1387L104.755 96.6251L104.535 96.3188L104.285 96.4521Z" fill="#BA7545"/>
<path d="M105.947 98.8464L105.445 99.4267L105.601 99.8027L106.104 100.077L106.448 99.4975L106.353 99.0532L105.947 98.8464Z" fill="#BA7545"/>
<path d="M111.088 93.1745L110.587 93.5147L110.868 94.0985L111.432 94.1627L111.527 93.5147L111.088 93.1745Z" fill="#BA7545"/>
<path d="M113.188 89.1412L112.812 89.448L113.031 89.9933L113.659 89.8949L113.567 89.1412H113.188Z" fill="#BA7545"/>
<path d="M110.211 89.4797L109.865 89.8267L110.117 90.4069L110.805 90.5053L111.088 89.7559L110.555 89.448L110.211 89.4797Z" fill="#BA7545"/>
<path d="M101.996 100.555L101.305 100.829L101.431 101.548L101.965 101.716L102.341 101.035L101.996 100.555Z" fill="#BA7545"/>
<path d="M123.128 90.7147L122.531 90.9521L122.408 91.7001L122.845 92.0797L123.723 91.6371L123.535 90.9865L123.128 90.7147Z" fill="#BA7545"/>
<path d="M124.915 93.4131L124.539 93.8573L124.883 94.3012L125.293 93.9267L125.196 93.5855L124.915 93.4131Z" fill="#BA7545"/>
<path d="M126.451 91.6371L126.012 92.0455L126.356 92.4215L126.733 92.1855V91.8069L126.451 91.6371Z" fill="#BA7545"/>
<path d="M127.484 93.548L127.077 93.96L127.297 94.6428H127.737L128.049 94.2679L127.987 93.8573L127.484 93.548Z" fill="#BA7545"/>
<path d="M129.273 90.8491L128.803 91.2917L129.209 91.8069L129.524 91.7001L129.617 91.124L129.273 90.8491Z" fill="#BA7545"/>
<path d="M125.667 89.5199L125.416 89.7559L125.667 90.4736L126.2 90.4069L126.356 89.8573L126.075 89.5532L125.667 89.5199Z" fill="#BA7545"/>
<path d="M120.527 91.8403L119.96 92.3199L120.117 92.9308L120.651 93.1387L121.027 92.5907L120.869 92.0455L120.527 91.8403Z" fill="#BA7545"/>
<path d="M118.925 89.3439L118.331 89.7225L118.676 90.3704L119.209 90.5745L119.396 89.8267L118.925 89.3439Z" fill="#BA7545"/>
<path d="M123.973 96.2163L123.692 96.4188L123.816 96.8308L124.256 96.7616L124.224 96.284L123.973 96.2163Z" fill="#BA7545"/>
<path d="M125.792 98.984L125.259 99.2933L125.511 100.112L126.012 100.007L126.293 99.2573L125.792 98.984Z" fill="#BA7545"/>
<path d="M128.425 96.9308L127.987 97.3412L128.301 97.9584H128.74L129.084 97.3095L128.896 97.0012L128.425 96.9308Z" fill="#BA7545"/>
<path d="M128.644 100.692L128.396 100.932L128.519 101.305C128.519 101.305 128.896 101.408 128.928 101.274C128.96 101.136 129.021 100.727 129.021 100.727L128.644 100.692Z" fill="#BA7545"/>
<path d="M114.187 106.649L114.239 104.863L114.164 102.513L112.875 103.323L112.064 106.62L114.187 106.649Z" fill="#523126"/>
<path d="M111.905 107.264L111.84 107.529L111.652 114.191L113.968 114.14L114.169 107.241L111.905 107.264Z" fill="#523126"/>
<path d="M120.307 106.751L120.305 106.605L118.852 103.358L118.964 106.729L120.307 106.751Z" fill="#523126"/>
<path d="M118.979 107.189L119.205 114.015L120.399 113.985L120.312 107.175L118.979 107.189Z" fill="#523126"/>
<path d="M114.559 107.239L114.435 114.128L118.468 114.035L118.417 107.193L114.559 107.239Z" fill="#523126"/>
<path d="M118.413 106.717L118.381 102.392L115.321 101.785L114.651 102.207L114.569 106.657L118.413 106.717Z" fill="#523126"/>
<path d="M117.765 131.776L117.764 131.719L114.471 131.679L114.439 136.451L117.873 136.352L117.765 131.776Z" fill="#523126"/>
<path d="M120.776 128.343L120.645 127.22L118.324 127.029L118.376 129.057L118.527 132.988L120.973 132.887L120.776 128.343Z" fill="#523126"/>
<path d="M117.755 131.008L117.672 125.316L117.677 125.013L114.336 125.056L114.332 125.469L114.472 131.008H117.755Z" fill="#523126"/>
<path d="M113.957 130.856L113.903 127.112H111.557V129.575L111.681 132.931L113.971 133.001L113.957 130.856Z" fill="#523126"/>
<path d="M118.236 123.677L118.305 126.301L120.555 126.412L120.211 123.42L118.424 121.267L118.301 121.231L118.236 123.677Z" fill="#523126"/>
<path d="M113.973 133.576L111.705 133.608L111.812 136.527L113.991 136.465L113.973 133.576Z" fill="#523126"/>
<path d="M118.549 133.628L118.653 136.331L121.121 136.26L121.007 133.66L118.549 133.628Z" fill="#523126"/>
<path d="M114.345 124.031L117.695 123.985L117.749 121.074L117.013 120.856L114.372 121.111L114.345 124.031Z" fill="#523126"/>
<path d="M113.893 126.292L113.861 124.188V121.163L112.779 121.267L111.557 123.933V126.375L113.893 126.292Z" fill="#523126"/>
<path d="M217.841 42.8507L220.744 43.8892L220.588 50.184L219.513 50.2892L219.392 47.6403L219.263 45.4881L218.321 45.5069L218.071 47.4584L218.04 50.4335L216.505 50.5855L216.392 48.4131L216.161 45.7507L215.313 45.6641L214.675 46.8027L214.816 50.7521L213.739 50.8573L213.861 48.9736L213.255 46.3157L212.795 46.9403L212.825 48.9917L212.856 50.9464L212.073 51.0225L211.828 43.372L217.841 42.8507Z" fill="#BA7545"/>
<path d="M220.845 42.384L220.547 39.3813L218.131 37.2387L215.985 36.4559L212.633 38.5679L212.183 41.996L215.201 42.3532L220.845 42.384Z" fill="#BA7545"/>
<path d="M215.985 36.4559L218.131 37.2387L220.547 39.3813L220.845 42.384L217.491 42.3627L217.139 37.9403L215.501 36.7616L215.985 36.4559Z" fill="#FFAD65"/>
<path d="M222.605 42.6251L220.332 41.7105L215.312 41.5283L212.552 41.4412L210.311 42.5788L210.715 44.2095L215.22 43.5797L219.236 43.7788L221.255 44.5641L222.605 42.6251Z" fill="#7B402C"/>
<path d="M216.048 32.3532L216.247 36.9975L215.501 36.7616L215.549 32.5012L216.048 32.3532Z" fill="#BA7545"/>
<path d="M220.364 51.8283L220.888 69.4548L221.42 87.6335L223.055 120.415L223.583 138.319L213.661 137.404L209.395 137.346L209.884 112.18L209.948 92.0772L211.155 64.5745L211.843 52.2559L216.977 51.7521L220.364 51.8283Z" fill="#BA7545"/>
<path d="M209.884 112.18L209.948 92.0772L211.155 64.5745L211.843 52.2559L213.917 52.0532L213.375 62.2095L212.379 103.109L212.308 137.387L209.395 137.346L209.884 112.18Z" fill="#7B402C"/>
<path d="M221.961 49.6428L221.44 52.3199L220.984 53.3521L218.436 52.9907L214.207 53.0693L211.201 53.4293L210.964 50.1532L215.285 49.8693L218.385 49.6069L221.961 49.6428Z" fill="#7B402C"/>
<path d="M222.287 76.8121L221.771 79.8985L217.059 79.3668L213.676 79.5335L210.115 80.5225L209.887 77.86L214.944 76.4319L219.364 76.4548L222.287 76.8121Z" fill="#7B402C"/>
<path d="M223.528 108.27L223.205 111.864L219.347 111.629L215.116 111.807L211.361 112.391L209.68 113.14L208.695 110.184L211.571 107.772L216.36 107.068L221.255 107.391L223.528 108.27Z" fill="#7B402C"/>
<path d="M218.385 49.6069L221.961 49.6428L221.805 50.4491H217.177L212.573 50.8428L211.04 51.2371L210.964 50.1532L215.285 49.8693L218.385 49.6069Z" fill="#BA7545"/>
<path d="M218.436 52.9907L214.207 53.0693L211.201 53.4293L211.144 52.6616L214.561 51.7293L218.979 51.4412L221.336 52.5507L220.984 53.3521L218.436 52.9907Z" fill="#523126"/>
<path d="M219.364 76.4548L222.287 76.8121L222.168 77.5267L219.565 77.1693L215.708 77.1371L212.051 77.9199L209.964 78.772L209.887 77.86L214.944 76.4319L219.364 76.4548Z" fill="#FFAD65"/>
<path d="M212.165 79.1532L215.071 78.4824L219.401 78.8131L221.879 79.2573L221.771 79.8985L217.059 79.3668L213.676 79.5335L210.115 80.5225L210.065 79.9559L212.165 79.1532Z" fill="#523126"/>
<path d="M216.36 107.068L221.255 107.391L223.528 108.27L223.472 108.877L220.797 108.116L215.337 107.908L212.152 108.787L208.864 110.697L208.695 110.184L211.571 107.772L216.36 107.068Z" fill="#FFAD65"/>
<path d="M211.155 111.268L214.155 110.491L219.976 109.87L223.337 110.392L223.205 111.864L219.347 111.629L215.116 111.807L211.361 112.391L209.68 113.14L209.389 112.27L211.155 111.268Z" fill="#523126"/>
<path d="M190.753 84.5157L192.595 85.1788L192.497 89.1761L191.815 89.2403L191.737 87.5584L191.653 86.1917L191.06 86.2027L190.899 87.4428L190.877 89.3335L189.903 89.4283L189.832 88.0496L189.688 86.36L189.148 86.3037L188.743 87.0267L188.831 89.5345L188.147 89.5985L188.225 88.4053L187.84 86.7173L187.548 87.1157L187.567 88.4188L187.585 89.66L187.088 89.7037L186.935 84.8428L190.753 84.5157Z" fill="#FFAD65"/>
<path d="M192.661 84.2188L192.472 82.3131L190.936 80.9521L189.575 80.4573L187.444 81.7985L187.16 83.9704L189.076 84.196L192.661 84.2188Z" fill="#FFAD65"/>
<path d="M189.575 80.4573L190.936 80.9521L192.472 82.3131L192.661 84.2188L190.529 84.2069L190.307 81.3985L189.267 80.6455L189.575 80.4573Z" fill="#BA7545"/>
<path d="M193.777 84.3704L192.335 83.7907L189.147 83.6761L187.393 83.6188L185.971 84.3439L186.225 85.3772L189.085 84.9772L191.639 85.1069L192.92 85.6037L193.777 84.3704Z" fill="#7B402C"/>
<path d="M189.613 77.8491L189.739 80.7985L189.267 80.6455L189.296 77.9412L189.613 77.8491Z" fill="#BA7545"/>
<path d="M192.357 90.2188L192.688 101.413L193.027 112.963L194.065 133.787L194.401 145.157L188.099 144.577L185.389 144.54L185.697 128.552L185.74 115.781L186.505 98.3173L186.943 90.4907L190.204 90.1704L192.357 90.2188Z" fill="#FFAD65"/>
<path d="M185.697 128.552L185.74 115.781L186.505 98.3173L186.943 90.4907L188.26 90.3584L187.916 96.8131L187.283 122.792L187.239 144.565L185.389 144.54L185.697 128.552Z" fill="#BA7545"/>
<path d="M193.369 88.8308L193.036 90.5293L192.749 91.1855L191.133 90.9573L188.443 91.0069L186.535 91.2387L186.383 89.1548L189.131 88.9745L191.097 88.8079L193.369 88.8308Z" fill="#BA7545"/>
<path d="M193.577 106.088L193.251 108.048L190.256 107.712L188.105 107.819L185.845 108.444L185.7 106.756L188.913 105.846L191.721 105.863L193.577 106.088Z" fill="#BA7545"/>
<path d="M194.365 126.072L194.161 128.355L191.709 128.204L189.023 128.319L186.639 128.687L185.567 129.164L184.941 127.289L186.768 125.752L189.811 125.309L192.92 125.513L194.365 126.072Z" fill="#BA7545"/>
<path d="M191.097 88.8079L193.369 88.8308L193.269 89.3439L190.328 89.3428L187.407 89.5917L186.433 89.8412L186.383 89.1548L189.131 88.9745L191.097 88.8079Z" fill="#FFAD65"/>
<path d="M191.133 90.9573L188.443 91.0069L186.535 91.2387L186.5 90.748L188.668 90.1573L191.475 89.9736L192.973 90.6788L192.749 91.1855L191.133 90.9573Z" fill="#7B402C"/>
<path d="M191.721 105.863L193.577 106.088L193.501 106.54L191.848 106.316L189.397 106.296L187.075 106.793L185.751 107.335L185.7 106.756L188.913 105.846L191.721 105.863Z" fill="#FFD394"/>
<path d="M187.147 107.576L188.992 107.149L191.745 107.362L193.316 107.644L193.251 108.048L190.256 107.712L188.105 107.819L185.845 108.444L185.813 108.085L187.147 107.576Z" fill="#7B402C"/>
<path d="M189.811 125.309L192.92 125.513L194.365 126.072L194.331 126.455L192.631 125.972L189.163 125.84L187.139 126.4L185.052 127.612L184.941 127.289L186.768 125.752L189.811 125.309Z" fill="#FFD394"/>
<path d="M186.505 127.974L188.411 127.484L192.109 127.088L194.244 127.419L194.161 128.355L191.709 128.204L189.023 128.319L186.639 128.687L185.567 129.164L185.384 128.612L186.505 127.974Z" fill="#7B402C"/>
<path d="M155.011 117.064L154.917 122.192L154.637 135.005H140.149L140.904 116.548L148.709 116.653L155.011 117.064Z" fill="#FFAD65"/>
<path d="M147.581 117.679L148.709 119.316L152.472 120.449L153.507 123.316L153.319 134.187L144.289 134.389L142.031 134.187V127.005L142.408 122.7L144.759 120.344L146.921 118.911L147.581 117.679Z" fill="#7B402C"/>
<path d="M143.611 121.497L144.759 120.344L146.921 118.911L147.581 117.679L148.709 119.316L152.472 120.449L153.507 123.316L153.319 134.187L151.596 134.225L151.529 129.981L151.627 126.392L149.461 122.396L143.611 121.497Z" fill="#523126"/>
<path d="M148.709 134.295L146.713 134.335L146.547 128.239H148.709V134.295Z" fill="#523126"/>
<path d="M172.507 119.012L172.413 124.652L172.507 134.596L166.863 135.107L160.655 135.005L161.22 125.777L161.312 117.267L166.675 117.679L172.507 119.012Z" fill="#BA7545"/>
<path d="M166.956 119.113L169.308 121.88L170.625 123.213L171.001 128.032L171.284 133.879L166.581 134.187L162.065 134.292L162.348 128.855L163.005 123.316L164.98 121.062L166.956 119.113Z" fill="#7B402C"/>
<path d="M163.94 122.253L164.98 121.062L166.956 119.113L169.308 121.88L170.625 123.213L171.001 128.032L171.284 133.879L169.603 133.987L169.685 125.982L167.804 122.085L163.94 122.253Z" fill="#523126"/>
<path d="M75.8161 117.064L75.9115 122.192L76.1927 135.005H90.6787L89.9255 116.548L82.1188 116.653L75.8161 117.064Z" fill="#FFAD65"/>
<path d="M83.2473 117.679L82.1188 119.316L78.3557 120.449L77.3213 123.316L77.5104 134.187L86.5391 134.389L88.7969 134.187V127.005L88.4203 122.7L86.0661 120.344L83.9047 118.911L83.2473 117.679Z" fill="#7B402C"/>
<path d="M87.2177 121.497L86.0661 120.344L83.9047 118.911L83.2473 117.679L82.1188 119.316L78.3557 120.449L77.3213 123.316L77.5104 134.187L79.2317 134.225L79.2969 129.981L79.2031 126.392L81.3656 122.396L87.2177 121.497Z" fill="#523126"/>
<path d="M82.1188 134.295L84.1156 134.335L84.2822 128.239H82.1188V134.295Z" fill="#523126"/>
<path d="M58.3213 119.012L58.4167 124.652L58.3213 134.596L63.9677 135.107L70.1745 135.005L69.6093 125.777L69.5156 117.267L64.1547 117.679L58.3213 119.012Z" fill="#BA7545"/>
<path d="M63.8708 119.113L61.5208 121.88L60.2041 123.213L59.8265 128.032L59.5459 133.879L64.2473 134.187L68.7631 134.292L68.4807 128.855L67.8213 123.316L65.8464 121.062L63.8708 119.113Z" fill="#7B402C"/>
<path d="M66.8907 122.253L65.8464 121.062L63.8708 119.113L61.5208 121.88L60.2041 123.213L59.8265 128.032L59.5459 133.879L61.2265 133.987L61.1448 125.982L63.026 122.085L66.8907 122.253Z" fill="#523126"/>
<path d="M11.6027 42.8507L8.70215 43.8892L8.85682 50.184L9.92975 50.2892L10.0547 47.6403L10.1823 45.4881L11.1224 45.5069L11.374 47.4584L11.4036 50.4335L12.9401 50.5855L13.0521 48.4131L13.2823 45.7507L14.1292 45.6641L14.7724 46.8027L14.6276 50.7521L15.7041 50.8573L15.5833 48.9736L16.1891 46.3157L16.6495 46.9403L16.6172 48.9917L16.587 50.9464L17.3708 51.0225L17.6156 43.372L11.6027 42.8507Z" fill="#BA7545"/>
<path d="M8.59894 42.384L8.89734 39.3813L11.314 37.2387L13.4573 36.4559L16.8115 38.5679L17.2604 41.996L14.2432 42.3532L8.59894 42.384Z" fill="#BA7545"/>
<path d="M13.4573 36.4559L11.314 37.2387L8.89734 39.3813L8.59894 42.384L11.9531 42.3627L12.3063 37.9403L13.9427 36.7616L13.4573 36.4559Z" fill="#FFAD65"/>
<path d="M6.84015 42.6251L9.11202 41.7105L14.1303 41.5283L16.8917 41.4412L19.1328 42.5788L18.7307 44.2095L14.2251 43.5797L10.2084 43.7788L8.19015 44.5641L6.84015 42.6251Z" fill="#7B402C"/>
<path d="M13.3959 32.3532L13.1979 36.9975L13.9427 36.7616L13.8948 32.5012L13.3959 32.3532Z" fill="#BA7545"/>
<path d="M9.07974 51.8283L8.55628 69.4548L8.02508 87.6335L6.38801 120.415L5.86041 138.319L15.7839 137.404L20.0495 137.346L19.5599 112.18L19.4932 92.0772L18.2891 64.5745L17.6027 52.2559L12.4677 51.7521L9.07974 51.8283Z" fill="#BA7545"/>
<path d="M19.5599 112.18L19.4932 92.0772L18.2891 64.5745L17.6027 52.2559L15.5287 52.0532L16.0693 62.2095L17.0661 103.109L17.1355 137.387L20.0495 137.346L19.5599 112.18Z" fill="#7B402C"/>
<path d="M7.48441 49.6428L8.00681 52.3199L8.46094 53.3521L11.0068 52.9907L15.238 53.0693L18.2432 53.4293L18.4817 50.1532L14.1588 49.8693L11.0584 49.6069L7.48441 49.6428Z" fill="#7B402C"/>
<path d="M7.15787 76.8121L7.67347 79.8985L12.3844 79.3668L15.7693 79.5335L19.3281 80.5225L19.5584 77.86L14.5 76.4319L10.0781 76.4548L7.15787 76.8121Z" fill="#7B402C"/>
<path d="M5.91827 108.27L6.23801 111.864L10.0989 111.629L14.3297 111.807L18.0833 112.391L19.764 113.14L20.7516 110.184L17.8724 107.772L13.086 107.068L8.19014 107.391L5.91827 108.27Z" fill="#7B402C"/>
<path d="M11.0584 49.6069L7.48441 49.6428L7.64067 50.4491H12.2683L16.8724 50.8428L18.4027 51.2371L18.4817 50.1532L14.1588 49.8693L11.0584 49.6069Z" fill="#BA7545"/>
<path d="M11.0068 52.9907L15.238 53.0693L18.2432 53.4293L18.2979 52.6616L14.8828 51.7293L10.4645 51.4412L8.1084 52.5507L8.46093 53.3521L11.0068 52.9907Z" fill="#523126"/>
<path d="M10.0781 76.4548L7.15787 76.8121L7.27707 77.5267L9.88027 77.1693L13.736 77.1371L17.3917 77.9199L19.4792 78.772L19.5584 77.86L14.5 76.4319L10.0781 76.4548Z" fill="#FFAD65"/>
<path d="M17.2787 79.1532L14.3751 78.4824L10.0417 78.8131L7.56613 79.2573L7.67346 79.8985L12.3844 79.3668L15.7693 79.5335L19.3281 80.5225L19.376 79.9559L17.2787 79.1532Z" fill="#523126"/>
<path d="M13.086 107.068L8.19014 107.391L5.91827 108.27L5.96974 108.877L8.64734 108.116L14.1068 107.908L17.2917 108.787L20.5797 110.697L20.7516 110.184L17.8724 107.772L13.086 107.068Z" fill="#FFAD65"/>
<path d="M18.2875 111.268L15.2891 110.491L9.46775 109.87L6.10681 110.392L6.23801 111.864L10.0989 111.629L14.3297 111.807L18.0833 112.391L19.764 113.14L20.0547 112.27L18.2875 111.268Z" fill="#523126"/>
<path d="M38.6917 84.5157L36.8489 85.1788L36.9469 89.1761L37.6276 89.2403L37.7073 87.5584L37.7875 86.1917L38.3855 86.2027L38.5459 87.4428L38.5651 89.3335L39.5407 89.4283L39.6136 88.0496L39.7579 86.36L40.2969 86.3037L40.7021 87.0267L40.6136 89.5345L41.2969 89.5985L41.2197 88.4053L41.6057 86.7173L41.8973 87.1157L41.8776 88.4188L41.8568 89.66L42.3541 89.7037L42.5088 84.8428L38.6917 84.5157Z" fill="#FFAD65"/>
<path d="M36.7839 84.2188L36.9713 82.3131L38.5068 80.9521L39.8688 80.4573L42 81.7985L42.2839 83.9704L40.3697 84.196L36.7839 84.2188Z" fill="#FFAD65"/>
<path d="M39.8688 80.4573L38.5068 80.9521L36.9713 82.3131L36.7839 84.2188L38.914 84.2069L39.1364 81.3985L40.1771 80.6455L39.8688 80.4573Z" fill="#BA7545"/>
<path d="M35.6651 84.3704L37.1093 83.7907L40.2979 83.6761L42.0511 83.6188L43.4751 84.3439L43.2197 85.3772L40.3584 84.9772L37.8063 85.1069L36.5235 85.6037L35.6651 84.3704Z" fill="#7B402C"/>
<path d="M39.8297 77.8491L39.7041 80.7985L40.1771 80.6455L40.1473 77.9412L39.8297 77.8491Z" fill="#BA7545"/>
<path d="M37.0901 90.2188L36.7568 101.413L36.4183 112.963L35.3792 133.787L35.0443 145.157L41.3453 144.577L44.0547 144.54L43.7464 128.552L43.7041 115.781L42.9391 98.3173L42.5027 90.4907L39.2412 90.1704L37.0901 90.2188Z" fill="#FFAD65"/>
<path d="M43.7464 128.552L43.7041 115.781L42.9391 98.3173L42.5027 90.4907L41.1849 90.3584L41.5287 96.8131L42.1615 122.792L42.2057 144.565L44.0547 144.54L43.7464 128.552Z" fill="#BA7545"/>
<path d="M36.0755 88.8308L36.4063 90.5293L36.6953 91.1855L38.3125 90.9573L41 91.0069L42.9079 91.2387L43.0615 89.1548L40.3151 88.9745L38.3464 88.8079L36.0755 88.8308Z" fill="#BA7545"/>
<path d="M35.8656 106.088L36.1953 108.048L39.1875 107.712L41.3385 107.819L43.5989 108.444L43.7448 106.756L40.5312 105.846L37.724 105.863L35.8656 106.088Z" fill="#BA7545"/>
<path d="M35.0807 126.072L35.2823 128.355L37.736 128.204L40.4219 128.319L42.8073 128.687L43.8751 129.164L44.5027 127.289L42.6745 125.752L39.6328 125.309L36.5235 125.513L35.0807 126.072Z" fill="#BA7545"/>
<path d="M38.3464 88.8079L36.0755 88.8308L36.1745 89.3439L39.1136 89.3428L42.0364 89.5917L43.012 89.8412L43.0615 89.1548L40.3151 88.9745L38.3464 88.8079Z" fill="#FFAD65"/>
<path d="M38.3125 90.9573L41 91.0069L42.9079 91.2387L42.9437 90.748L40.7751 90.1573L37.9688 89.9736L36.4729 90.6788L36.6953 91.1855L38.3125 90.9573Z" fill="#7B402C"/>
<path d="M37.724 105.863L35.8656 106.088L35.9437 106.54L37.5964 106.316L40.0479 106.296L42.3697 106.793L43.6937 107.335L43.7448 106.756L40.5312 105.846L37.724 105.863Z" fill="#FFD394"/>
<path d="M42.2969 107.576L40.4531 107.149L37.6989 107.362L36.1292 107.644L36.1953 108.048L39.1875 107.712L41.3385 107.819L43.5989 108.444L43.6292 108.085L42.2969 107.576Z" fill="#7B402C"/>
<path d="M39.6328 125.309L36.5235 125.513L35.0807 126.072L35.1136 126.455L36.814 125.972L40.2823 125.84L42.3047 126.4L44.3932 127.612L44.5027 127.289L42.6745 125.752L39.6328 125.309Z" fill="#FFD394"/>
<path d="M42.9375 127.974L41.0339 127.484L37.3349 127.088L35.2005 127.419L35.2823 128.355L37.736 128.204L40.4219 128.319L42.8073 128.687L43.8751 129.164L44.0599 128.612L42.9375 127.974Z" fill="#7B402C"/>
<path d="M0.510388 135.413L26.8464 135.144L53.4306 134.596L75.2526 134.868H104.095L128.425 135.144L150.748 134.868L172.507 134.596L200.911 135.144L226.243 135.413L226.492 148.812L166.549 148.265L118.644 148.812L45.4046 147.722L20.8265 147.993L0.00878906 147.722L0.510388 135.413Z" fill="#BA7545"/>
<path d="M226.243 135.413L200.911 135.144L172.507 134.596L150.748 134.868L128.425 135.144L104.095 134.868H75.2527L53.4307 134.596L26.8464 135.144L0.51039 135.413L0.420258 137.605H25.0901L58.4469 137.331L108.611 138.151L150.247 137.605L174.825 136.511L193.136 137.605L207.683 137.06L226.288 137.832L226.243 135.413Z" fill="#7B402C"/>
<path d="M178.716 135.52L197.024 135.929L218.468 136.2L226.269 136.803L226.243 135.413L200.911 135.144L172.507 134.596L150.748 134.868L128.425 135.144L104.095 134.868H75.2527L53.4307 134.596L26.8464 135.144L0.510398 135.413L0.476532 136.237L5.52866 136.475L28.4765 136.343L44.1527 136.2H64.0921L74.876 136.029L107.608 136.069L136.829 136.475L149.371 136.343L165.672 135.656L178.716 135.52Z" fill="#FFD394"/>
<path d="M132.721 0.96801L137.157 1.35466L132.311 19.6387L128.129 38.9881L124.772 38.796L127.669 17.624L132.721 0.96801Z" fill="white"/>
<path d="M143.08 2.91467L137.075 23.548L133.093 39.9679L136.072 40.4693L140.256 27.9584L146.356 40.8267L145.433 44.2428L149.253 46.1455L161.692 9.00399L157.327 7.93067L148.007 35.0745L142.021 21.3867L147.445 3.992L143.08 2.91467Z" fill="white"/>
<path d="M168.411 40.4403L160.033 43.0975L162.107 36.9069L168.624 16.008L171.048 16.9093L173.404 20.7747L172.543 34.0345L168.411 40.4403ZM176.751 15.9787L172.14 11.124L166.704 10.2827L161.669 25.5187L154.82 47.0283L158.212 48.9387L169.84 45.4455L178.131 31.6491L176.751 15.9787Z" fill="white"/>
<path d="M184.74 15.48L190.053 16.7107L184.031 36.4797L178.737 53.9147L174.672 52.7892L179.705 35.2736L184.557 19.2653L184.74 15.48Z" fill="white"/>
<path d="M194.059 41.3147L200.395 28.7627C200.395 28.7627 197.183 42.7173 197.192 43.148C197.199 43.5788 194.059 41.3147 194.059 41.3147ZM203.597 27.6251L204.283 20.8613L201.736 20.352C201.736 20.352 192.451 35.972 192.327 36.3616C192.208 36.7521 182.427 53.4985 182.427 53.4985L185.889 54.7225L191.644 45.4053L196.804 47.5855L196.284 58.3907L199.635 58.1521L203.597 27.6251Z" fill="white"/>
<path d="M27.4131 19.232L34.8047 51.4199L63.362 47.3215L94.7579 41.3917L92.7552 25.9147L87.7412 5.44267L27.8803 15.9827L27.4131 19.232Z" fill="white"/>
<path d="M80.7527 19.3706L90.7979 17.9267L87.7412 5.44265L27.8803 15.9827L27.4131 19.232L29.624 28.8641L45.5235 25.996L80.7527 19.3706Z" fill="#EF880C"/>
<path d="M34.8047 51.4199L63.362 47.3215L94.7579 41.3917L93.3011 30.1293L80.2484 32.66L54.5937 36.76L32.3604 40.7745L34.8047 51.4199Z" fill="#319E4A"/>
<path d="M65.3464 32.1439L64.1536 31.4251L62.5702 30.248L63.2073 30.4053L65.8896 30.4917L65.3464 32.1439ZM61.9453 30.3455L63.2317 31.2105L64.686 32.2053L65.1448 32.5521L64.0661 33.5251L62.8046 31.8225L61.9453 30.3455ZM63.2751 34.2403H62.6344L61.6937 31.1736L61.5208 30.3157L62.6527 32.2693L63.736 33.824L63.2751 34.2403ZM59.3369 34.0573L60.1312 32.1865L60.6735 31.2745L60.526 32.8985L60.362 34.236L59.6745 34.2345L59.3369 34.0573ZM57.1969 32.6532L59.1172 31.3053L60.7213 30.1319L59.7812 31.8079L58.8844 33.8188L57.4115 33.0412L57.1969 32.6532ZM56.9751 27.0704L58.4167 28.036L59.9245 29.0069L57.2197 28.6267L56.3932 28.3917L56.4469 27.7387L56.9751 27.0704ZM58.1719 25.5587L58.9115 25.3093L59.9306 27.2772L60.7588 28.8772L60.7708 28.9371L60.0417 28.4131L58.0016 26.8616L57.4167 26.5131L58.1719 25.5587ZM60.5079 27.6824L59.6754 26.0373L59.2604 25.192L59.9375 24.9667L60.5079 27.6824ZM61.4417 24.704L61.186 27.4491L61.0817 28.148L60.9167 27.3371L60.4573 24.7933L61.0323 24.5987L61.4417 24.704ZM65.0131 26.4949L62.4781 28.1521L63.1891 26.836L63.9115 25.3693L65.0131 26.4949ZM56.2344 30.2788L56.3385 29.0403L59.736 29.6069L58.2917 29.9293L56.2344 30.2788ZM59.914 30.1652L59.7073 30.3293L58.2344 31.3813L56.9609 32.2335L56.3046 31.0559L59.914 30.1652ZM61.9079 24.8187L63.2251 25.1507L61.488 28.7251L61.7917 26.2573L61.9079 24.8187ZM61.4339 32.3772L62.0598 34.2387L60.814 34.236L61.0016 32.0267L61.1598 30.9507L61.4339 32.3772ZM66.065 29.9532L63.2588 29.8464L62.2473 29.5881L66.0781 28.6824L66.1969 29.5532L66.065 29.9532ZM65.9921 28.0616L62.2724 29.0105L64.2751 27.6215L65.336 26.8225L65.9027 27.3985L65.9921 28.0616ZM64.1787 24.7413L61.0068 23.9413L57.7917 25.0187L55.8317 27.4975L55.5417 30.9824L56.9505 33.5147L59.5172 34.8652L63.5183 34.8745L65.7907 32.8215L66.8421 29.6131L66.5016 27.1069L64.1787 24.7413Z" fill="#006DC1"/>
</svg>
