<svg width="169" height="146" viewBox="0 0 169 146" fill="none" xmlns="http://www.w3.org/2000/svg">
<path d="M63.3907 59.6734H62.3203L61.6651 62.232L59.2251 64.076L54.762 67.764L52.9193 71.216L53.6344 75.7987L55.3584 78.6533L56.8473 79.4867L70.1145 79.248L71.3047 78.2973L73.2093 75.4414L72.6136 71.5133L70.1735 67.1094L67.3177 65.028L64.7005 62.5293L63.5693 61.3987L63.3907 59.6734Z" fill="#C8EDEA"/>
<path d="M64.164 61.9933L63.5693 61.3987L63.3907 59.6734H62.3203L61.7265 61.9933H64.164Z" fill="#41BFB5"/>
<path d="M63.5693 74.6667L63.2724 69.4907L62.736 65.3867L62.6745 63.2427L62.6172 60.148L62.1407 62.4106L61.4271 65.7413L61.6041 71.9893C61.6041 71.9893 61.8437 76.096 61.8437 76.2747C61.8437 76.4053 62.2057 78.3853 62.3917 79.3867L63.6745 79.3627L63.5693 74.6667Z" fill="#41BFB5"/>
<path d="M70.5312 70.3253L69.3995 66.9907L68.9505 66.2187L67.4349 65.1133L67.6156 65.3253L68.8656 68.1227L69.4609 71.0973L69.2812 73.7147L68.686 76.2747L68.0312 78.3573L67.3645 79.2987L68.8021 79.272L70.0531 76.988L70.7084 73.5973L70.5312 70.3253Z" fill="#41BFB5"/>
<path d="M70.1145 79.248L71.3047 78.2974L73.2093 75.4414L72.6136 71.5134L72.1484 70.672L72.436 72.524L72.138 75.56L70.9479 77.9987L69.8229 79.2534L70.1145 79.248Z" fill="#41BFB5"/>
<path d="M60.5953 76.8094L60 74.8453L59.5833 70.9773L60.1172 67.1094L60.2369 65.2067L61.3688 63.184L62.4984 60.684L62.0781 60.6147L61.6651 62.232L60.6719 62.9813L60.4151 63.5414L59.4047 64.7893L58.3932 67.764L58.4521 73.12L58.9297 77.4627L60.3421 79.424L61.2568 79.408L60.5953 76.8094Z" fill="#41BFB5"/>
<path d="M59.0573 79.448L57.6188 77.4627L57.1432 75.56L56.8473 72.048L57.1432 67.6453L58.3333 64.9694L58.9131 64.3347L56.8907 66.008L56.488 66.7534L55.7751 68.6587L55.4765 73.7747L56.2516 77.5827L58.2672 79.4614L59.0573 79.448Z" fill="#41BFB5"/>
<path d="M55.0016 77.1067L53.9896 73.9533V70.0867L55.3864 67.2507L54.762 67.764L52.9193 71.216L53.6344 75.7987L55.3584 78.6533L56.8473 79.4867L57.0156 79.484L55.0016 77.1067Z" fill="#41BFB5"/>
<path d="M66.486 66.7533L65.2943 63.956L63.9869 62.4694L63.2724 61.5173L63.0921 60.6254L62.736 60.684L62.8557 61.576L63.6875 63.3627L64.7579 66.8734L65.236 70.3813L65.6527 74.3107L65.236 77.3453L64.9427 79.3414L66.1937 79.3187L67.436 74.7267L67.3177 70.5027L66.486 66.7533Z" fill="#41BFB5"/>
<path d="M72.8604 73.156L71.9593 73.7747L68.2693 74.608L62.9151 74.7267L56.0131 74.2507L53.224 73.1787L53.6344 75.7987L55.3584 78.6533L56.8473 79.4867L70.1145 79.248L71.3047 78.2973L73.2093 75.4414L72.8604 73.156Z" fill="#A5CECA"/>
<path d="M53.224 73.1787L53.6344 75.7987L55.3584 78.6533L56.8473 79.4867L57.0156 79.484L55.0016 77.1067L53.9896 73.9533V73.472L53.224 73.1787Z" fill="#429B94"/>
<path d="M55.5364 74.068L56.2516 77.5827L58.2672 79.4614L59.0573 79.448L57.6188 77.4627L57.1432 75.56L57.0375 74.3214L56.0131 74.2507L55.5364 74.068Z" fill="#429B94"/>
<path d="M58.9297 77.4627L60.3421 79.424L61.2568 79.408L60.5953 76.8094L60 74.8453L59.9645 74.524L58.5953 74.428L58.9297 77.4627Z" fill="#429B94"/>
<path d="M61.7568 74.6453C61.8047 75.4787 61.8437 76.2013 61.8437 76.2747C61.8437 76.4053 62.2057 78.3853 62.3917 79.3867L63.6745 79.3627L63.5703 74.7133L62.9151 74.7267L61.7568 74.6453Z" fill="#429B94"/>
<path d="M67.436 74.7267L67.4349 74.6267L65.6027 74.6667L65.236 77.3453L64.9427 79.3414L66.1937 79.3187L67.436 74.7267Z" fill="#429B94"/>
<path d="M70.0531 76.988L70.6172 74.0787L69.1188 74.416L68.686 76.2747L68.0312 78.3573L67.3645 79.2987L68.8021 79.272L70.0531 76.988Z" fill="#429B94"/>
<path d="M72.8604 73.156L72.3385 73.516L72.138 75.56L70.9479 77.9987L69.8229 79.2534L70.1145 79.248L71.3047 78.2974L73.2093 75.4414L72.8604 73.156Z" fill="#429B94"/>
<path d="M62.6588 58.1387L61.836 58.8133L62.6588 59.5627L63.3333 59.2627L63.0339 58.3627L62.6588 58.1387Z" fill="#FFAA39"/>
<path d="M62.3792 52.72L62.7229 59.02L62.8099 52.72H62.3792Z" fill="#FFAA39"/>
<path d="M61.4286 53.928L63.5869 53.8414L63.5 54.4453L61.4286 54.3574V53.928Z" fill="#FFAA39"/>
<path d="M61.6875 56.084L63.414 56.688L63.5 57.2067L61.6875 56.516V56.084Z" fill="#FFAA39"/>
<path d="M91.7136 88.5294L104.684 85.5547V97.932L103.851 109.237L100.399 109.117L90.4036 93.8867L91.7136 88.5294Z" fill="#FF4127"/>
<path d="M140.384 82.5413L140.305 106.261L134.037 105.311L133.64 83.336L140.384 82.5413Z" fill="#FFA0A1"/>
<path d="M132.688 60.0894L131.975 62.628L129.276 65.484L125.628 68.6587L123.881 72.308V82.0667L129.593 84.2867L135.387 85.0014L140.781 84.524L144.193 82.384L145.224 73.736L141.177 68.1027L136.577 64.692L134.275 61.9147L133.404 59.7734L132.688 60.0894Z" fill="#FFA0A1"/>
<path d="M141.812 77.464C141.495 77.544 136.577 77.94 136.577 77.94L129.437 77.7814L123.881 76.02V82.0667L129.593 84.2867L135.387 85.0014L140.781 84.524L144.193 82.384L144.889 76.5347C143.657 76.912 142.007 77.4147 141.812 77.464Z" fill="#FF7B61"/>
<path d="M129.516 70.4827L127.532 73.4187L124.597 75.8774L122.929 78.8134L122.375 83.0174L124.437 86.588L128.641 88.016L130.625 87.46H135.225L136.656 87.6174L138.956 85.476L139.431 81.9854L138.005 77.7814L135.544 75.084L132.371 73.2587L130.545 70.88L130.308 69.848L129.675 69.7694L129.516 70.4827Z" fill="#BABA56"/>
<path d="M135.225 87.46L136.656 87.6174L138.956 85.476L139.431 81.9854L139.184 81.252L138.084 82.0667L132.611 83.5734L125.073 83.0174L122.585 81.4227L122.375 83.0174L124.437 86.588L128.641 88.016L130.625 87.46H135.225Z" fill="#A3A048"/>
<path d="M126.343 87.936L129.516 87.3L133.8 86.8254L136.813 87.38L136.895 99.2814L138.4 100.709L139.671 101.105L139.431 105.232L141.416 105.865L142.289 107.215L142.447 110.071L142.128 112.133L141.812 115.545L128.88 115.387L126.343 87.936Z" fill="#FF7B61"/>
<path d="M151.927 118.043H157.163L158.235 118.163L159.067 118.639L159.781 124.588L163.948 125.303L167.992 125.421L168.707 139.583L159.187 142.2L152.285 142.557L151.927 118.043Z" fill="#FF7B61"/>
<path d="M155.379 137.997L152.221 138.197L152.285 142.557L159.187 142.2L168.707 139.583L168.611 137.68L164.185 138.076L155.379 137.997Z" fill="#FF4127"/>
<path d="M159.812 124.593L159.679 142.064L168.707 139.583L167.992 125.421L163.948 125.303L159.812 124.593Z" fill="#FFA0A1"/>
<path d="M159.709 138.033L159.679 142.064L168.707 139.583L168.611 137.68L164.185 138.076L159.709 138.033Z" fill="#FF7B61"/>
<path d="M141.217 112.331L145.859 111.736L150.143 112.331L150.857 112.927L150.499 114.949L140.861 115.543L141.217 112.331Z" fill="#FF4127"/>
<path d="M140.504 113.877L146.096 113.997L149.785 114.116L152.523 114.831L153.236 116.853L153.473 143.628L147.405 143.865L141.693 144.104L140.504 113.877Z" fill="#FF7B61"/>
<path d="M58.8297 120.86L58.5912 144.104L60.8125 144.421L63.6683 144.343L69.7771 144.74L75.1718 145.612L81.677 144.66L92.625 144.819L101.194 144.104L108.573 145.532L127.296 145.771L142.527 145.176L143.12 144.463L143.836 118.281L143.953 114.353L129.675 113.64L115.633 113.284L105.875 112.568L87.1901 111.617L78.5036 117.329L67.9131 117.805L58.8297 120.86Z" fill="#FF4127"/>
<path d="M101.352 25.6987L95.8792 39.9787L93.4973 46.88L112.418 47L108.017 31.4107L105.992 24.9854L101.352 25.6987Z" fill="#F74931"/>
<path d="M98.6156 35.8133L102.177 25.572L101.352 25.6987L95.8792 39.9787L93.4973 46.88L94.9584 46.8907L98.6156 35.8133Z" fill="#E03500"/>
<path d="M97.8896 46.908L99.3369 46.9173L103.142 25.4227L102.027 25.5947L97.8896 46.908Z" fill="#E03500"/>
<path d="M102.238 46.9347L104.445 46.9493V25.2213L102.879 25.464L102.238 46.9347Z" fill="#E03500"/>
<path d="M105.458 25.0667L111.276 46.992L112.418 47L108.017 31.4107L105.992 24.9854L105.458 25.0667Z" fill="#E03500"/>
<path d="M100.281 16.6533L101.055 24.2107L106.232 24.2693L106.052 17.012L102.661 15.7013L100.281 16.6533Z" fill="#FF4127"/>
<path d="M105.051 24.256L106.232 24.2693L106.052 17.012L105.154 16.664L105.051 24.256Z" fill="#FF7B61"/>
<path d="M101.055 24.2107L101.589 24.2173L100.964 16.3813L100.281 16.6533L101.055 24.2107Z" fill="#FF7B61"/>
<path d="M100.163 24.924L100.638 24.0334L101.411 23.6174L104.325 23.7947L106.529 24.0334L106.766 24.924L106.708 26.6507L105.577 25.996L103.018 26.0547L100.816 27.0081L100.34 25.9361L100.163 24.924Z" fill="#FF7B61"/>
<path d="M100.638 24.0334L100.24 24.7814L101.768 24.2694L104.385 24.3894L106.76 24.9054L106.529 24.0334L104.325 23.7947L101.411 23.6174L100.638 24.0334Z" fill="#FFA0A1"/>
<path d="M105.457 25.2814H102.541L100.537 26.3827L100.816 27.0081L103.018 26.0547L105.577 25.996L106.708 26.6507L106.734 25.8574L105.457 25.2814Z" fill="#FF4127"/>
<path d="M102.72 8.92001L100.875 11.0027L98.9131 13.024L98.436 16.1187L99.5079 17.6067L100.816 17.428L102.423 16.8334L104.982 17.308L106.647 17.6667L107.482 16.1187L107.064 13.5014L105.101 11.1213L103.197 9.21734L102.72 8.92001Z" fill="#FFAA39"/>
<path d="M102.661 7.61063L102.007 8.1453L102.661 8.73999L103.197 8.50399L102.958 7.78797L102.661 7.61063Z" fill="#FFAA39"/>
<path d="M102.423 3.44535L102.661 7.78802L102.72 3.44535H102.423Z" fill="#FFAA39"/>
<path d="M101.768 4.27863L103.257 4.21997L103.197 4.63599L101.768 4.57599V4.27863Z" fill="#FFAA39"/>
<path d="M101.948 5.7667L103.138 6.18268L103.197 6.54004L101.948 6.06403V5.7667Z" fill="#FFAA39"/>
<path d="M106.885 15.9414L104.565 15.108C104.565 15.108 101.471 14.8694 101.292 14.8694C101.115 14.8694 99.4479 15.4054 99.4479 15.4054L98.8527 16.6987L99.5079 17.6067L100.816 17.428L102.423 16.8334L104.982 17.308L106.647 17.6667L107.252 16.5427L106.885 15.9414Z" fill="#D68525"/>
<path d="M90.3245 48.1907L94.1328 44.62L100.481 46.1267L103.413 42.24L107.858 45.888L114.442 46.2867L113.411 47.7133L113.491 56.8373L93.2588 56.1227V52.3947L90.3245 48.1907Z" fill="#FF7B61"/>
<path d="M113.411 47.7134L114.442 46.2867L107.858 45.888L103.413 42.24L100.481 46.1267L94.1328 44.62L90.3245 48.1907L92.1041 50.7387L94.8464 47.6347L100.716 48.6667L103.653 46.048L106.667 48.5867L113.418 48.5147L113.411 47.7134Z" fill="#FFA0A1"/>
<path d="M107.858 45.888L103.413 42.24L100.481 46.1267L94.1328 44.62L90.3245 48.1907L91.2145 49.464L94.2109 46.048L100.163 47.3173L103.413 43.588L107.301 46.8414L113.831 47.132L114.442 46.2867L107.858 45.888Z" fill="#FF7B61"/>
<path d="M94.8464 47.3173L95.0849 50.4907L95.2432 56.6773L95.7979 56.8373L95.9573 47.3173H94.8464Z" fill="#FFA0A1"/>
<path d="M100.796 47.6347L100.875 51.5213L101.194 56.9173L101.986 56.8373L101.828 47.3173L100.796 47.6347Z" fill="#FFA0A1"/>
<path d="M106.112 47.0787L106.031 56.996L107.064 56.9174V51.7587L107.301 47.4747L106.112 47.0787Z" fill="#FFA0A1"/>
<path d="M92.2281 55.648L93.8932 54.2987L95.5598 54.9334L98.0193 52.8694L100.082 52.632L101.906 53.268L103.413 55.2507L105.952 52.8694H107.936L110.318 54.2187L110.872 55.7253L112.695 54.4573L114.364 55.092L114.203 58.6613L113.648 69.292L113.569 71.196L99.8453 67.388L92.8636 68.1813L93.4973 64.2933L93.1005 58.8213L92.2281 55.648Z" fill="#FF7B61"/>
<path d="M96.2751 55.3294L97.862 53.664L99.4479 53.188L101.669 53.8227L103.018 55.648L102.701 55.8054L100.796 54.3773H98.6536L97.2265 55.1707L96.2751 55.964V55.3294Z" fill="#FFA0A1"/>
<path d="M103.892 55.608L105.715 54.18L106.984 53.784L108.531 54.2987L109.484 54.972L110.198 55.964V57.432L109.684 57.3134L109.048 55.7654L107.779 55.012L106.549 55.2107L104.328 56.164L103.892 55.608Z" fill="#FFA0A1"/>
<path d="M95.9584 58.5827L96.7109 57.076L98.1787 56.2027L100.64 56.2813L102.344 57.392L102.898 59.416L102.741 59.852H102.344L101.275 58.2267L100.399 57.748L98.8932 57.708L97.7823 58.0667L96.6312 58.9L95.9973 59.376L95.6807 59.06L95.9584 58.5827Z" fill="#FFA0A1"/>
<path d="M103.336 59.5334L103.375 59.9707L104.486 59.852L105.636 57.988L107.263 57.7894L108.175 58.5827L108.93 60.248L108.969 61.0027H109.286L109.325 59.06L108.492 57.1147L107.143 56.6L105.241 56.6387L104.209 57.6307L103.336 59.5334Z" fill="#FFA0A1"/>
<path d="M95.5224 63.0267L96.7917 61.0813L99.5287 60.884L101.669 61.6374L102.146 62.4307L102.225 63.82L102.186 64.7707L101.471 64.652L101.194 63.62L99.4099 62.4694L97.9817 62.5094L96.9099 63.144L96.4349 64.216H95.9584L95.5224 63.0267Z" fill="#FFA0A1"/>
<path d="M102.819 64.612L104.09 62.748L106.232 61.836L108.492 62.4307L108.81 63.9387L108.335 64.9694L106.549 63.9387L104.685 64.096L103.654 65.0094L102.819 64.612Z" fill="#FFA0A1"/>
<path d="M102.146 61.0427L102.463 61.7147L102.661 62.8267L103.018 63.0267L103.813 62.0747L104.287 61.2L103.615 60.6453L102.622 60.368L102.146 61.0427Z" fill="#FFA0A1"/>
<path d="M102.463 56.6387L102.939 57.432L103.138 58.344L103.414 58.1867L103.852 57.1547L103.892 56.4414L103.097 56.164L102.463 56.6387Z" fill="#FFA0A1"/>
<path d="M95.7484 67.8533L95.6807 64.4133L95.5598 60.964L95.6005 56.876L95.5693 54.9253L95.5598 54.9334L93.8932 54.2987L92.2281 55.648L93.1005 58.8213L93.4973 64.2933L92.8636 68.1813L95.7484 67.8533Z" fill="#FF4127"/>
<path d="M92.3656 56.1533L92.6693 57.248L92.8636 56.8373L94.1735 56.2427L95.4807 56.3213L95.4027 55.7267L94.2125 55.2507L92.9828 55.568L92.3656 56.1533Z" fill="#FF7B61"/>
<path d="M92.8593 57.9453L93.0781 58.7347L94.0546 58.7013L94.8084 59.9707L95.3636 59.6933L95.2432 59.2173L94.8464 58.1867L93.7369 57.392L92.8593 57.9453Z" fill="#FF7B61"/>
<path d="M93.4375 63.4627L94.0131 63.7387L94.5703 64.732L95.3636 64.652L95.1651 63.8987L94.2125 61.9947L93.3245 61.88L93.4375 63.4627Z" fill="#FF7B61"/>
<path d="M93.974 55.7653L92.9036 56.2413L92.5182 56.704L92.6693 57.248L92.8636 56.8373L94.1734 56.2427L95.4806 56.3213L95.4234 55.876L95.0849 55.8053L93.974 55.7653Z" fill="#F74931"/>
<path d="M95.0573 59.8466L94.6093 58.7413L94.0921 58.2267L93.3385 58.1867L92.9593 58.3067L93.0781 58.7347L94.0546 58.7013L94.8084 59.9707L95.0573 59.8466Z" fill="#F74931"/>
<path d="M94.5287 63.5813L93.9349 62.7867L93.3724 62.5627L93.4375 63.4627L94.0131 63.7387L94.5703 64.732L94.8245 64.7054L94.5287 63.5813Z" fill="#F74931"/>
<path d="M101.768 58.0667L100.58 57.2027L98.764 56.996L97.1579 57.7987L95.8245 59.204L95.9973 59.376L96.6312 58.9L97.7823 58.0667L98.8932 57.708L100.399 57.748L101.275 58.2267L102.344 59.852H102.661L101.768 58.0667Z" fill="#FF4127"/>
<path d="M101.502 63.5693L100.906 62.6173L99.2995 62.1133H97.6927L96.4729 62.7973L95.7771 63.724L95.9584 64.216H96.4349L96.9099 63.144L97.9817 62.5093L99.4099 62.4693L101.194 63.62L101.471 64.652L101.725 64.6933L101.502 63.5693Z" fill="#FF4127"/>
<path d="M108.939 59.3147L108.553 58.2761L107.569 57.3227C107.569 57.3227 106.44 57.2334 106.26 57.2334C106.082 57.2334 105.07 57.532 105.07 57.532L104.179 58.9894L103.884 59.9174L104.486 59.852L105.636 57.988L107.263 57.7894L108.175 58.5827L108.93 60.248L108.969 61.0027H109.058L108.939 59.3147Z" fill="#FF4127"/>
<path d="M108.76 64.0467L107.569 63.0947L106.41 62.8267L104.594 63.5107L103.106 64.748L103.654 65.0094L104.685 64.096L106.549 63.9387L108.335 64.9694L108.76 64.0467Z" fill="#FF4127"/>
<path d="M90.6417 68.7173L94.7473 66.8133L96.0573 66.1587L98.3177 66.04L102.364 66.6934L109.741 68.896L111.051 69.3107L110.931 79.6054L104.684 86.388L99.1511 88.7094L93.8557 89.7213L92.1891 89.0067L92.0703 78.7133L90.6417 68.7173Z" fill="#FF4127"/>
<path d="M104.684 86.388L110.931 79.6054L111.051 69.3107L109.741 68.896L102.364 66.6934L98.6823 66.0987L98.7927 72.584L99.388 80.26L99.1615 88.704L104.684 86.388Z" fill="#F74931"/>
<path d="M102.364 66.6933L98.3177 66.04L96.0573 66.1587L94.7473 66.8133L90.6417 68.7173L90.9079 70.5734L93.7943 68.7173L97.3656 67.884L98.7328 67.6453L101.411 68.4787L106.291 69.788L111.03 71.0267L111.051 69.3107L109.741 68.896L102.364 66.6933Z" fill="#F74931"/>
<path d="M102.364 66.6933L98.6823 66.0987L98.7084 67.6507L98.7328 67.6453L101.411 68.4787L106.291 69.788L111.03 71.0267L111.051 69.3107L109.741 68.896L102.364 66.6933Z" fill="#E03500"/>
<path d="M81.2812 81.5094V84.4453L81.5183 88.1747V89.284L87.1511 88.888L91.1172 88.9667L93.4973 89.2067L93.5765 81.984L87.7864 82.144L82.7084 81.8267L81.2812 81.5094Z" fill="#FF7B61"/>
<path d="M85.525 85.376L85.225 84.484L84.7708 84.128L84.0573 84.3667L83.9193 85.7933L84.0234 89.108L85.5797 88.9987L85.525 85.376Z" fill="#FFA0A1"/>
<path d="M87.665 84.068L86.953 84.8427L86.8984 88.9054L87.151 88.888L88.415 88.912L88.6197 86.3294L88.262 84.6627L87.665 84.068Z" fill="#FFA0A1"/>
<path d="M91.4751 84.2467L90.9391 84.7213L90.7251 88.9587L91.1172 88.9667L92.2473 89.0813V87.3414L92.1292 84.7213L91.4751 84.2467Z" fill="#FFA0A1"/>
<path d="M74.6953 105.231L77.789 94.6786L81.2812 88.5707L86.1978 88.1747L92.1484 88.4133L94.053 88.6493L98.4166 97.2187L101.906 105.071L102.146 112.055L74.6953 111.499V105.231Z" fill="#67C190"/>
<path d="M97.0286 94.4893L94.9234 90.3574L88.4202 89.9187L82.1526 90.1574L80.3202 90.2507L77.9026 94.484L85.8812 94.0427L94.4505 94.3627L97.0286 94.4893Z" fill="#319E4A"/>
<path d="M99.3724 99.1721L98.414 97.0867L97.3751 95.1081L90.5339 95.1214L84.5068 95.1987L77.5625 95.5027L76.4437 99.5027L82.9729 99.42C82.9729 99.42 90.986 99.4787 91.5407 99.4721C92.0964 99.4654 97.9677 99.4721 97.9677 99.4721L99.3724 99.1721Z" fill="#319E4A"/>
<path d="M101.906 105.071L99.665 100.027L92.2281 100.391L85.4844 100.312L79.0598 100.232L76.1754 100.179L74.6953 105.231V105.94L83.7396 105.865L93.5765 105.627L99.2093 105.388L101.917 105.325L101.906 105.071Z" fill="#319E4A"/>
<path d="M101.947 106.22L98.4166 106.341L91.9896 106.42L82.9453 106.659L74.6953 106.732V111.499L102.146 112.055L101.947 106.22Z" fill="#FF4127"/>
<path d="M79.2177 93.9453L81.7161 93.7667L84.6312 93.588L86.8932 93.5294L85.8213 91.1493L83.0849 90.4934L81.2412 91.1493L79.6937 92.9334L79.2177 93.9453Z" fill="#FF7B61"/>
<path d="M87.3688 93.5294L87.9036 91.5054L89.6901 90.316L91.7724 90.4933L93.2005 92.0414L93.3792 93.7067L87.3688 93.5294Z" fill="#FF7B61"/>
<path d="M83.4427 98.824L84.5729 96.3253L86.0599 95.3734H88.7979L90.5235 96.4427L91.3541 99.1813L83.4427 98.824Z" fill="#FF7B61"/>
<path d="M77.9088 104.893L78.6224 102.633L80.8245 100.967L83.1448 100.788L84.9297 101.323L86.2969 103.643L86.7735 105.131L77.9088 104.893Z" fill="#FF7B61"/>
<path d="M87.488 105.012L88.2021 102.336L89.8688 101.025L92.9026 100.907L94.6276 102.216L95.4026 104.893L87.488 105.012Z" fill="#FF7B61"/>
<path d="M96.7369 93.92L95.2994 91.1L94.2109 91.5654L93.8557 93.5294L96.7369 93.92Z" fill="#FF7B61"/>
<path d="M91.9505 99.0027L93.4973 99.0627L97.6041 99.0027L99.1328 98.828L98.4167 97.2187L97.5885 95.592L96.5323 95.552L94.8656 95.7307L93.2005 96.8627L91.9505 99.0027Z" fill="#FF7B61"/>
<path d="M77.3021 96.3453L76.5584 98.884H83.0271L82.7875 97.7533L81.3011 96.4427L79.0989 95.9694L77.3021 96.3453Z" fill="#FF7B61"/>
<path d="M99.388 100.491L98.1396 101.087L96.651 102.455L96.0573 104.833L99.686 104.656L101.682 104.564L99.8708 100.491H99.388Z" fill="#FF7B61"/>
<path d="M77.314 104.893L77.1953 103.881L76.5407 101.264L75.9912 100.812L74.7812 104.941L77.314 104.893Z" fill="#FF7B61"/>
<path d="M98.6156 101.74L97.4255 103.168L97.0312 104.787L99.686 104.656L101.682 104.564L100.163 101.144L98.6156 101.74Z" fill="#FF4127"/>
<path d="M88.0235 105.004L94.8333 104.903L94.3907 103.524L93.4973 102.513L91.9505 101.8L89.986 101.977L88.3812 103.524L88.0235 105.004Z" fill="#FF4127"/>
<path d="M95.3421 96.5027L93.7943 97.456L92.6292 99.0293L93.4973 99.0627L97.6041 99.0027L99.1328 98.828L98.4167 97.2187L98.0183 96.436L97.3063 96.1467L95.3421 96.5027Z" fill="#FF4127"/>
<path d="M83.9521 98.848L90.6927 99.152L90.5235 98.348L89.986 97.04L88.5 96.1467L86.5364 96.2067L84.9896 97.2187L83.9521 98.848Z" fill="#FF4127"/>
<path d="M81.9557 97.9907L81.3011 97.1587L79.5745 96.8L77.0807 97.0947L76.5584 98.884H82.224L81.9557 97.9907Z" fill="#FF4127"/>
<path d="M85.8317 105.107L84.9896 102.633L82.7281 101.859L80.3489 102.156L79.0391 103.584L78.6364 104.912L85.8317 105.107Z" fill="#FF4127"/>
<path d="M85.5849 92.1613L84.4541 91.448L82.6683 91.328L81.1806 92.1L79.8437 93.9L81.7161 93.7667L84.6312 93.588L86.1224 93.548L85.5849 92.1613Z" fill="#FF4127"/>
<path d="M92.7787 93.6907L92.6651 92.8147L91.9505 91.684L90.7604 91.088L88.9765 91.3867L87.9645 92.636L87.8349 93.5427L92.7787 93.6907Z" fill="#FF4127"/>
<path d="M57.5 80.4387V84.1867L57.9167 89.364L58.1547 91.0294L61.9047 91.7427L67.436 91.684L69.1615 90.792L68.9828 84.7214L69.0427 80.4387L65.236 79.308L61.012 79.4867L57.5 80.4387Z" fill="#FF4127"/>
<path d="M61.0172 79.4867L61.1251 91.596L61.9047 91.7427L66.5251 91.6947L66.262 79.612L65.236 79.308L61.0172 79.4867Z" fill="#FF7B61"/>
<path d="M68.512 80.2814L68.6224 91.0721L69.1615 90.792L68.9828 84.7214L69.0427 80.4387L68.512 80.2814Z" fill="#F74931"/>
<path d="M58.3932 84.008L58.1755 80.256L57.5 80.4387V84.1867L57.9167 89.364L58.1547 91.0293L58.764 91.1453L58.3932 84.008Z" fill="#F74931"/>
<path d="M59.4047 87.0427L59.2251 83.2947L59.3453 82.4027L60.0584 82.104L60.1771 83.056L60.1172 87.1027L59.4047 87.0427Z" fill="#FF7B61"/>
<path d="M63.3907 86.7453L63.4505 83.712L63.6276 82.104L64.164 81.984L64.5224 82.7L64.4625 86.6267L63.3907 86.7453Z" fill="#FFA0A1"/>
<path d="M67.0797 86.8054L67.0208 83.9507L67.0797 82.3414L67.5547 81.9254L67.9729 82.4627L67.8541 86.9254L67.0797 86.8054Z" fill="#FF7B61"/>
<path d="M57.3802 81.5094L60.9521 80.1414L63.5104 80.2L66.2464 80.26L68.9828 80.9147L70.5312 79.368V78.4747L67.6156 76.512L61.3084 76.5707L56.7864 78.5947L56.2516 79.4867L57.3802 81.5094Z" fill="#FF4127"/>
<path d="M56.7864 78.5947L56.7823 78.6L58.1969 81.196L60.9521 80.1414H60.9661L61.2536 76.5973L56.7864 78.5947Z" fill="#F74931"/>
<path d="M70.5312 78.868V78.4747L67.6156 76.512L67.3021 76.5147L66.2464 80.26L68.6823 80.8427L70.5312 78.868Z" fill="#F74931"/>
<path d="M70.5312 78.4747L67.6156 76.512L61.3084 76.5707L56.7864 78.5947L56.2516 79.4867L56.5729 80.0654L57.1432 79.1294L61.1891 77.2854H67.0797L70.1145 79.248L70.2672 79.632L70.5312 79.368V78.4747Z" fill="#F74931"/>
<path d="M56.7864 78.5947L56.7823 78.6L57.1057 79.192L57.1432 79.1293L61.1891 77.2853H61.1979L61.2536 76.5973L56.7864 78.5947Z" fill="#E03500"/>
<path d="M70.5312 78.4747L67.6156 76.512L67.3021 76.5147L67.0833 77.2894L70.1145 79.248L70.1328 79.2934L70.5312 78.868V78.4747Z" fill="#E03500"/>
<path d="M110.575 68.896L109.087 68.836L107.064 66.9907L106.291 64.196L106.825 60.2094L110.198 55.964L113.491 53.068L115.453 51.1054L116.465 49.0827L117.06 49.1414L118.072 51.3427L122.296 55.688L127.413 60.7427L127.948 64.3147L127.592 67.1094L125.449 69.4307L124.497 69.1934L121.404 68.1227L117.833 67.408L113.014 68.0027L110.575 68.896Z" fill="#D84035"/>
<path d="M110.099 68.776L110.218 73.0614L110.276 78.7134L116.881 79.1294L124.497 79.1894L124.915 68.7174L117.893 66.7534L111.586 67.884L110.099 68.776Z" fill="#FF4127"/>
<path d="M123.329 79.18L124.497 79.1894L124.915 68.7174L123.708 68.38L123.329 79.18Z" fill="#F74931"/>
<path d="M111.586 67.884L110.099 68.776L110.218 73.0613L110.276 78.7133L112.483 78.852L112.537 72.4653L112.87 67.6547L111.586 67.884Z" fill="#FF7B61"/>
<path d="M53.0375 93.7667L53.2161 90.9693L54.1084 88.7093L55.2396 88.7693L55.9531 87.5773L57.0235 86.8653L58.6303 87.876L60.0584 91.2667L61.1303 89.0653L62.974 87.8173L65.8896 88.0547L67.1396 89.84L68.0912 88.1147L69.6979 87.9947L71.0068 89.3053L72.3161 91.208L72.2552 94.54L55.5364 93.5293L53.6344 94.0053L53.0375 93.7667Z" fill="#FF7B61"/>
<path d="M69.6979 87.9947L68.0912 88.1147L67.1396 89.84L65.8896 88.0547L62.974 87.8173L61.1303 89.0653L60.0584 91.2667L59.2005 89.2293L59.4047 90.792L59.5833 91.8627L60.4151 91.9227L61.7839 89.4827L63.7473 88.5907L65.1156 88.888L66.4245 90.0787L66.7823 91.448L67.8541 89.4827L69.3401 88.7094L70.3516 89.2453L72.3115 91.52L72.3161 91.208L71.0068 89.3054L69.6979 87.9947Z" fill="#67C190"/>
<path d="M55.6547 89.1267L56.2516 87.876L57.8568 87.3893L57.0235 86.8653L55.9531 87.5773L55.2396 88.7693L54.1084 88.7094L53.8828 89.2813L54.6432 89.2453L55.1787 91.208V92.0414L55.6547 89.1267Z" fill="#67C190"/>
<path d="M56.6084 89.4227L55.9531 91.2667V93.5533L59.1651 93.748V92.1613L58.6901 89.9587L57.8568 88.7093L56.6084 89.4227Z" fill="#FF4127"/>
<path d="M66.2396 94.1761L66.0677 92.636L65.474 90.4934L64.0459 89.9587L62.3792 90.5534L61.5469 92.3387L61.314 93.8787L66.2396 94.1761Z" fill="#FF4127"/>
<path d="M69.6979 90.376L68.1494 90.732L67.4973 92.8747L67.5584 94.256L71.6598 94.504V92.8747L70.8281 91.0293L69.6979 90.376Z" fill="#FF4127"/>
<path d="M54.2875 91.5053L53.7527 90.4333L53.4079 90.4827L53.2161 90.9693L53.0375 93.7667L53.6344 94.0053L54.336 93.8293L54.2875 91.5053Z" fill="#FF4127"/>
<path d="M52.6807 93.6467L55.8932 92.636L59.6417 92.3387L67.3792 92.696H69.0427L73.2093 94.1227L72.6136 95.4334L72.7917 105.905L72.3751 115.425L66.3656 118.221L58.8688 119.172L54.4063 116.317L54.2281 110.071L54.1683 104.001L53.8708 96.8L53.6344 95.4334L52.6807 93.6467Z" fill="#FF7B61"/>
<path d="M72.6136 95.5013V95.4333L73.2093 94.1227L69.0427 92.696H67.3792L59.6417 92.3387L55.8932 92.636L52.6807 93.6466L53.6344 95.4333L53.6536 95.5533L55.6547 94.8387L59.2251 94.3027H62.9151L68.2109 94.956L72.6136 95.5013Z" fill="#F74931"/>
<path d="M69.0427 92.696H68.9063L68.1693 94.9507L68.2109 94.956L72.6136 95.5014V95.4334L73.2093 94.1227L69.0427 92.696Z" fill="#E03500"/>
<path d="M59.8031 94.3027H62.9151L67.3568 94.852L67.7631 92.696H67.3792L59.9593 92.3533L59.8031 94.3027Z" fill="#E03500"/>
<path d="M55.8932 92.636L55.0364 92.9067L55.6224 94.8507L55.6547 94.8387L59.2251 94.3027H59.2959L59.5251 92.348L55.8932 92.636Z" fill="#E03500"/>
<path d="M65.1156 95.1347L59.0469 94.8387L56.2516 95.4934L53.7188 95.9294L53.8708 96.8L54.1683 104.001L54.2281 110.071L54.4063 116.317L58.8688 119.172L66.3656 118.221L72.3751 115.425L72.7917 105.905L72.6292 96.3453L67.0797 95.4934L65.1156 95.1347Z" fill="#FFA0A1"/>
<path d="M67.7943 95.6014V99.836L67.8541 110.427L72.5661 111.029L72.7917 105.905L72.6292 96.3453L67.7943 95.6014Z" fill="#FF4127"/>
<path d="M65.1156 95.1347L59.7735 94.8734L59.9401 100.371L60.2369 110.367L67.3177 110.487L67.2031 95.5107L67.0797 95.4933L65.1156 95.1347Z" fill="#FF4127"/>
<path d="M59.1651 100.193L59.1104 94.8414L59.0469 94.8387L56.2516 95.4934L53.7188 95.9294L53.8708 96.8L54.1683 104.001L54.2281 110.071L54.2588 111.149L59.6417 110.308L59.1651 100.193Z" fill="#FF4127"/>
<path d="M68.0312 111.38L59.8203 111.2L54.2812 111.953L54.4063 116.317L58.8688 119.172L66.3656 118.221L72.3751 115.425L72.5183 112.136L68.0312 111.38Z" fill="#FF4127"/>
<path d="M67.8541 110.427L72.5661 111.029L72.7421 107.033L72.3161 103.405L70.8281 96.3853L70.2344 96.4427L68.8656 103.288L67.836 107.256L67.8541 110.427Z" fill="#FF7B61"/>
<path d="M64.3421 96.6827L64.2229 95.6107H63.5693L62.3792 100.728L60.9521 106.916L60.1937 108.905L60.2369 110.367L67.3177 110.487L67.3047 108.772L65.8896 103.467L64.3421 96.6827Z" fill="#FF7B61"/>
<path d="M59.5651 108.647L59.1651 107.868L57.4401 99.1214L56.6667 95.9694H56.1303L54.2084 108.163L54.2281 110.071L54.2588 111.149L59.6417 110.308L59.5651 108.647Z" fill="#FF7B61"/>
<path d="M55.7751 103.643L56.9645 103.524L57.1432 110.011H55.8333L55.7751 103.643Z" fill="#FFA0A1"/>
<path d="M63.3907 102.811L63.5104 109.533L65.1755 109.832L64.5807 102.633L63.3907 102.811Z" fill="#FFA0A1"/>
<path d="M69.8751 103.168L69.4609 109.892H70.7084L70.6495 102.989L69.8751 103.168Z" fill="#FFA0A1"/>
<path d="M117.935 51.0453L117.06 49.1414L116.465 49.0827L115.484 51.0453H117.935Z" fill="#319E4A"/>
<path d="M127.365 67.3547L127.592 64.0173L125.509 59.6734L122.117 56.7574L119.917 54.3773L118.132 51.9987L118.073 51.344L118.072 51.3427L117.06 49.1414L117.032 49.1387L117.179 51.3427L119.141 55.032L122 58.0667C122 58.0667 124.259 60.9214 124.319 61.1014C124.377 61.2814 125.924 63.8374 125.924 63.8374L126.343 66.336L126.113 68.712L127.365 67.3547Z" fill="#319E4A"/>
<path d="M119.619 58.008L116.94 53.9614L116.22 49.5734L115.548 50.9173L115.453 51.9987L116.644 55.032L117.655 57.5907L120.392 60.9213L122.356 63.956L123.071 66.9907L122.764 68.5934L124.221 69.0987L124.556 68.1227V65.444L123.011 61.636L119.619 58.008Z" fill="#319E4A"/>
<path d="M117.893 60.8027L116.108 58.1253L114.74 54.14L114.779 51.7813L114.09 52.4667L114.026 53.8427L114.203 55.568L115.036 58.1853L116.407 60.8653L118.251 62.9453L119.203 65.504L118.9 67.6213L120.645 67.9707L120.692 65.504L119.857 63.2427L117.893 60.8027Z" fill="#319E4A"/>
<path d="M117.775 66.276L116.108 63.6014L114.146 60.5054L113.431 56.46L113.68 52.88L113.491 53.068L112.813 53.6654L112.358 55.508C112.358 55.508 112.537 59.4947 112.537 59.7334C112.537 59.9694 113.787 63.42 113.787 63.42L116.048 66.336L116.254 67.604L117.807 67.412L117.775 66.276Z" fill="#319E4A"/>
<path d="M113.551 64.9694C113.491 64.7894 112.003 61.4587 112.003 61.4587L110.931 57.7694L111.83 54.5307L110.945 55.3067L110.218 58.7213L110.514 60.8027L111.526 64.6707L113.193 66.8734L113.53 67.94L114.897 67.7694C114.453 66.8654 113.594 65.1027 113.551 64.9694Z" fill="#319E4A"/>
<path d="M111.307 68.6267L112.413 68.2227C111.93 67.4373 111.325 66.444 111.289 66.336C111.228 66.1587 109.92 63.6014 109.92 63.6014L108.789 60.2694L109.754 56.524L108.241 58.428L107.957 59.1987L108.253 62.9453L110.276 67.408L111.307 68.6267Z" fill="#319E4A"/>
<path d="M110.221 68.8813L109.207 68.0027C109.207 68.0027 108.075 66.276 108.017 66.0987C107.957 65.92 106.885 62.8267 106.885 62.8267L107.211 59.7267L106.825 60.2093L106.291 64.196L107.064 66.9907L109.087 68.836L110.221 68.8813Z" fill="#319E4A"/>
<path d="M127.679 66.424L127.353 65.98L122.832 64.732L117.535 63.66L110.931 63.8987L106.478 64.872L107.064 66.9907L109.087 68.836L110.575 68.896L113.014 68.0027L117.833 67.408L121.404 68.1227L124.497 69.1934L125.449 69.4307L127.592 67.1094L127.679 66.424Z" fill="#BC2824"/>
<path d="M107.064 66.9907L109.087 68.836L110.221 68.8813L109.207 68.0027C109.207 68.0027 108.075 66.276 108.017 66.0987C107.988 66.0187 107.759 65.3533 107.514 64.6453L106.478 64.872L107.064 66.9907Z" fill="#3E8C5D"/>
<path d="M108.888 64.344L110.276 67.408L111.307 68.6267L112.413 68.2227C111.93 67.4373 111.325 66.444 111.289 66.336C111.245 66.2067 110.539 64.812 110.158 64.0667L108.888 64.344Z" fill="#3E8C5D"/>
<path d="M111.526 64.6707L113.193 66.8734L113.53 67.94L114.897 67.7694C114.453 66.8654 113.594 65.1027 113.551 64.9694C113.527 64.9027 113.315 64.4133 113.052 63.8227L111.321 63.884L111.526 64.6707Z" fill="#3E8C5D"/>
<path d="M117.775 66.276L116.177 63.708L114.07 63.784L116.048 66.336L116.254 67.604L117.807 67.412L117.775 66.276Z" fill="#3E8C5D"/>
<path d="M119.203 65.504L118.9 67.6213L120.063 67.8533L120.645 67.9707L120.692 65.504L120.209 64.2L118.595 63.8733L119.203 65.504Z" fill="#3E8C5D"/>
<path d="M122.523 64.668L123.071 66.9907L122.764 68.5934L124.221 69.0987L124.556 68.1227V65.444L124.447 65.1773L122.832 64.732L122.523 64.668Z" fill="#3E8C5D"/>
<path d="M126.113 68.712L127.365 67.3547L127.451 66.112L127.353 65.98L126.231 65.6694L126.343 66.336L126.113 68.712Z" fill="#3E8C5D"/>
<path d="M116.559 47.8267L115.575 48.632L116.559 49.5267L117.365 49.1693L117.007 48.0947L116.559 47.8267Z" fill="#FFAA39"/>
<path d="M116.201 41.556L116.315 48.1907L116.792 48.1307L116.649 41.556H116.201Z" fill="#FFAA39"/>
<path d="M115.215 42.8093L117.456 42.72L117.365 43.3466L115.215 43.2573V42.8093Z" fill="#FFAA39"/>
<path d="M115.484 45.048L117.276 45.676L117.365 46.2133L115.484 45.496V45.048Z" fill="#FFAA39"/>
<path d="M115.573 70.5027L115.633 76.8694H116.287L116.525 70.8587L116.228 70.264L115.573 70.5027Z" fill="#FFA0A1"/>
<path d="M118.368 70.5027V76.8694H119.499L119.439 71.0374L119.084 70.1453L118.368 70.5027Z" fill="#FFA0A1"/>
<path d="M121.045 71.336L121.165 77.0467L122.296 77.1067V73.656L122.237 71.396L121.641 70.68L121.045 71.336Z" fill="#FFA0A1"/>
<path d="M113.728 70.7414L113.846 76.6907L112.716 76.8694L112.479 71.216L112.658 70.3813L113.193 70.1453L113.728 70.7414Z" fill="#FFA0A1"/>
<path d="M103.077 92.9947V97.9907L102.779 106.857L130.864 107.748L130.567 102.336L130.388 93.588L129.912 92.576L123.901 91.1493L108.017 91.2667L103.077 92.9947Z" fill="#FF4127"/>
<path d="M108.372 103.049L108.313 96.1466L108.471 91.264L108.017 91.2667L103.077 92.9947V97.9907L102.779 106.857L108.479 107.039L108.372 103.049Z" fill="#FF7B61"/>
<path d="M108.969 107.053L117.775 107.332V91.196L108.969 91.2613V107.053Z" fill="#FF7B61"/>
<path d="M125.569 107.581V101.204L125.964 91.6387L123.901 91.1493L118.391 91.1893L118.132 93.5293L118.368 99.0027L118.257 107.349L125.569 107.581Z" fill="#FF7B61"/>
<path d="M130.864 107.748L130.567 102.336L130.388 93.588L129.912 92.576L126.365 91.7347L126.164 96.5027L126.107 107.597L130.864 107.748Z" fill="#F74931"/>
<path d="M130.567 102.336L130.536 100.843L130.271 100.073L129.675 96.7427L129.139 95.2547L126.936 101.025L126.124 104.244L126.113 106.253L127.472 102.036L128.841 97.1587L129.615 99.4787L129.912 102.275L130.699 104.765L130.567 102.336Z" fill="#FF4127"/>
<path d="M125.569 105.489L125.213 104.776L123.901 100.728L122.712 96.3853L121.82 93.8867L121.879 93.232L121.344 93.4093L119.677 99.4786L118.667 102.572L118.307 103.568L118.276 106.063L119.024 103.941L120.751 97.5147L121.344 95.3133L121.761 95.3733L123.249 100.549L124.319 104.239L125.152 106.203L125.569 106.797V105.489Z" fill="#FFA0A1"/>
<path d="M117.775 104.008L116.345 101.92L115.158 98.1107L113.966 94.3627L113.193 93.172L111.289 98.348L109.979 102.633L108.969 104.656V106.717L109.444 105.905L110.931 101.977L113.253 95.016L114.264 97.456L115.276 101.264L116.584 104.179L117.775 106.092V104.008Z" fill="#FFA0A1"/>
<path d="M106.052 93.7667L105.697 93.4694L103.553 101.264L102.88 103.896L102.779 106.857L102.891 106.86L103.673 103.524L105.697 95.1947L106.647 99.3L108.376 103.192L108.372 103.049L108.356 100.903L107.539 99.0027L106.052 93.7667Z" fill="#FFA0A1"/>
<path d="M105.279 99.896L104.982 105.489L105.932 105.548L106.232 99.896H105.279Z" fill="#FFA0A1"/>
<path d="M112.658 99.0627L112.537 105.012L113.846 104.776L113.728 99.0627H112.658Z" fill="#FFA0A1"/>
<path d="M121.045 99.4786L120.631 105.608L122.059 105.548L121.939 99.5373L121.045 99.4786Z" fill="#FFA0A1"/>
<path d="M128.364 100.967L128.068 106.203H128.841L129.139 100.907L128.364 100.967Z" fill="#FF7B61"/>
<path d="M105.397 83.1173L106.825 79.6053L108.313 78.1786L112.597 77.9987L122.652 78.5947L125.032 79.0693L126.463 81.748L126.936 85.0786L128.841 84.8427L129.795 85.7933L130.805 88.0547L131.041 92.9333L130.388 94.54L126.58 92.636L117.893 92.3987H110.872H106.708L102.661 93.7667L101.411 91.3867L101.055 85.7933L101.292 84.008L103.018 83.056L104.209 82.82L105.397 83.1173Z" fill="#67C190"/>
<path d="M105.992 82.8787L107.004 80.6174L108.195 79.1894L109.504 78.8907L111.051 79.308L112.181 81.4507L110.158 81.688L108.789 82.82L107.184 86.2094L106.529 83.9507L105.992 82.8787Z" fill="#FF4127"/>
<path d="M102.303 83.8907L101.768 84.7827L101.649 87.8174L101.708 89.8987L106.589 87.6387L106.052 85.496L104.922 83.712L103.435 83.532L102.303 83.8907Z" fill="#FF4127"/>
<path d="M112.418 82.0453L109.859 82.7587L108.61 84.4254L107.837 86.8654V87.2813L110.514 87.1027H113.551H115.513L114.919 84.128L113.668 82.5813L112.418 82.0453Z" fill="#FF4127"/>
<path d="M116.465 86.984L117.297 84.2467L118.785 82.7L120.692 82.4627L122.375 83.0173L123.901 84.7827L124.14 87.5773L121.761 87.4014L117.833 87.1027L116.465 86.984Z" fill="#FF4127"/>
<path d="M115.87 85.2574L115.453 83.4133L114.381 81.9254L114.919 80.2L115.93 78.832L117.297 78.7133L118.548 79.308L119.499 81.688L118.072 82.224L116.94 83.1747L115.87 85.2574Z" fill="#FF7B61"/>
<path d="M121.761 81.868L122.473 80.2L124.081 79.368L125.032 79.9627L125.865 82.164L126.224 84.6627V85.2573L124.855 86.8054L124.617 84.7213L123.963 83.472L122.652 82.4027L121.761 81.868Z" fill="#FF4127"/>
<path d="M128.483 85.5547L126.757 85.7347L125.569 86.9253L125.213 87.5773H126.699L128.188 88.472L129.795 89.1853L130.448 89.7213L130.209 87.5187L129.317 86.0893L128.483 85.5547Z" fill="#FF4127"/>
<path d="M131.041 92.9333L130.944 90.904L128.128 89.2453L126.463 88.5907L124.497 88.1747L121.701 88.1147L115.692 87.9347L110.218 87.8173L107.539 87.9947L104.03 89.4227L101.365 90.6573L101.411 91.3867L102.661 93.7667L106.708 92.3987H110.872H117.893L126.58 92.636L130.388 94.54L131.041 92.9333Z" fill="#FF4127"/>
<path d="M131.041 92.9333L131.012 92.2786L127.472 90.256L125.389 89.5427L116.168 88.9453L109.087 88.8293L105.101 90.256L101.647 91.8347L102.661 93.7667L106.708 92.3987H110.872H117.893L126.58 92.636L130.388 94.54L131.041 92.9333Z" fill="#F74931"/>
<path d="M128.247 86.8054L126.936 86.7453L126.303 87.5773H126.699L128.188 88.472L129.795 89.1853L129.555 88.0547L128.247 86.8054Z" fill="#FF7B61"/>
<path d="M126.224 84.6627L125.865 82.164L125.032 79.9627L124.081 79.368L122.473 80.2L121.761 81.868L122.371 82.2334L123.544 81.272L124.377 81.3907L125.152 82.82L125.213 84.068L125.512 86.0627L126.224 85.2573V84.6627Z" fill="#FF7B61"/>
<path d="M123.071 85.7347L122.356 84.2467L120.751 83.3547L119.024 84.008L117.775 85.2573L117.208 87.048L117.833 87.1027L118.279 87.136L118.428 86.6867L118.964 85.1987L120.332 84.7827L121.82 85.496L122.14 87.428L123.207 87.508L123.071 85.7347Z" fill="#FF7B61"/>
<path d="M118.548 79.308L117.297 78.7133L115.93 78.832L114.919 80.2L114.381 81.9254L114.667 82.3214L115.633 80.4387L116.644 79.7853L118.251 80.4987L118.781 81.9574L119.499 81.688L118.548 79.308Z" fill="#FF4127"/>
<path d="M114.561 85.5547L113.846 84.008L112.597 82.8787L110.931 83.1747L109.146 85.3173L108.592 87.232L109.808 87.1493L110.456 85.2574L111.347 84.4254L112.358 84.128L113.728 85.5547L113.772 87.1027H114.862L114.561 85.5547Z" fill="#FF7B61"/>
<path d="M110.693 79.9027H109.504L108.492 80.1414L107.482 81.868L106.444 83.7787L106.529 83.9507L106.784 84.8333L108.195 82.164L109.146 80.736L110.276 81.0333L110.5 81.648L111.442 81.5373L110.693 79.9027Z" fill="#FF7B61"/>
<path d="M105.635 86.448L104.445 84.5427L103.375 84.604L102.603 85.02L102.423 87.8173L102.599 89.4867L103.439 89.0973L103.314 87.6973L103.614 86.032L104.445 86.2094L105.262 88.2533L106.148 87.8427L105.635 86.448Z" fill="#FF7B61"/>
<path d="M101.431 106.977L103.892 106.181L109.762 105.627H114.601L121.107 105.944L125.787 106.261L128.961 106.896L131.659 107.452L131.975 109.593L131.499 114.116L105.954 113.243L103.413 110.625L101.431 109.037V106.977Z" fill="#319E4A"/>
<path d="M128.961 106.896L125.787 106.261L121.107 105.944L114.601 105.627H109.762L103.892 106.181L101.431 106.977V109.037L103.413 110.625L103.625 110.84L110.078 109.673L116.267 109.356L124.121 109.832L128.008 110.467L131.783 111.409L131.975 109.593L131.659 107.452L128.961 106.896Z" fill="#FF4127"/>
<path d="M128.961 106.896L125.787 106.261L121.107 105.944L114.601 105.627H109.762L103.892 106.181L101.431 106.977V109.037L101.654 109.216L105.715 107.928L114.442 107.532L124.201 108.087L129.277 108.96L131.943 109.897L131.975 109.593L131.659 107.452L128.961 106.896Z" fill="#FFA0A1"/>
<path d="M58.1547 117.805L58.2735 121.613L64.3421 119.948L69.6979 119.233L81.3604 119.828L88.9765 112.451H96.9479L106.468 113.521L106.112 112.331L101.828 108.641L85.0479 108.045L81.3604 109.117L77.7891 111.617L72.9115 112.688L67.436 113.877L58.1547 117.805Z" fill="#67C190"/>
<path d="M81.3604 109.117L78.4964 111.123L81.1953 119.82L81.3604 119.828L88.9375 112.489L85.186 108.052L85.0479 108.045L81.3604 109.117Z" fill="#319E4A"/>
<path d="M67.4751 113.869L67.436 113.877L58.1547 117.805L58.2735 121.613L64.3421 119.948L67.1276 119.576L67.4751 113.869Z" fill="#319E4A"/>
<path d="M92.8636 111.339L88.4203 111.736L80.8844 118.956L79.9323 119.115L70.0156 118.479L66.3672 118.876L62.7969 119.589L58.2448 120.695L58.2735 121.613L64.3421 119.948L69.6979 119.233L81.3604 119.828L88.9765 112.451H96.9479L106.468 113.521L106.206 112.645L101.035 111.816L92.8636 111.339Z" fill="#319E4A"/>
<path d="M58.2735 121.613L64.3421 119.948L67.1276 119.576L67.1745 118.787L66.3672 118.876L62.7969 119.589L58.2448 120.695L58.2735 121.613Z" fill="#3E8C5D"/>
<path d="M88.3557 111.799L80.9183 118.923L81.1953 119.82L81.3604 119.828L88.9375 112.489L88.3557 111.799Z" fill="#3E8C5D"/>
<path d="M75.2516 98.408H74.5364L69.5391 115.464L74.6953 116.893L80.9625 115.464L77.9088 104.893L75.2516 98.408Z" fill="#5D6B22"/>
<path d="M71.9751 116.139L74.8099 98.408H74.5364L73.9844 100.296L72.7317 108.165L71.5079 116.009L71.9751 116.139Z" fill="#D68525"/>
<path d="M75.2516 98.408H74.6693L74.5172 106.619L74.4047 116.812L74.6953 116.893L75.0068 116.823L75.2307 106.619L75.3369 98.616L75.2516 98.408Z" fill="#D68525"/>
<path d="M76.7771 104.833L75.3672 98.6907L75.2516 98.408H74.9307L77.4323 109.475L79.064 115.897L79.5459 115.787L76.7771 104.833Z" fill="#D68525"/>
<path d="M59.8604 132.997L59.9401 129.268L60.4151 126.571L63.4297 123.24L65.6527 121.336L68.9828 121.255L71.2041 121.812L71.1251 127.127L67.3177 129.031L61.3688 132.204L59.8604 132.997Z" fill="#E03500"/>
<path d="M105.319 112.369L110.635 112.529L120.233 112.927L127.372 113.164L132.212 113.64L131.975 120.78L129.039 120.7L122.375 120.145L113.491 119.985L107.874 119.76L105.635 119.669L105.319 112.369Z" fill="#FF7B61"/>
<path d="M107.874 119.76L110.082 119.851L110.158 116.496L109.207 114.593H108.095L107.617 116.099L107.479 119.744L107.874 119.76Z" fill="#E03500"/>
<path d="M113.827 119.993L113.886 117.131L113.253 115.305L112.537 114.751L111.825 115.464L111.665 117.607L111.728 119.915L113.491 119.985L113.827 119.993Z" fill="#E03500"/>
<path d="M117.6 120.06L117.535 117.209L117.219 115.543L116.425 114.831L115.474 115.624L115.158 117.607V120.016L117.6 120.06Z" fill="#E03500"/>
<path d="M119.677 115.068L119.28 116.257L119.043 118.163L119.237 120.089L121.107 120.123C121.107 119.004 121.107 116.829 121.107 116.655C121.107 116.416 120.549 115.148 120.549 115.148L119.677 115.068Z" fill="#E03500"/>
<path d="M125.073 116.177C125.073 115.941 124.677 114.989 124.677 114.989L123.644 115.941L122.772 117.607L123.052 120.201L125.283 120.388C125.22 119.177 125.073 116.364 125.073 116.177Z" fill="#E03500"/>
<path d="M127.611 116.099L127.215 117.685L127.007 120.532L129.039 120.7L129.151 120.703L129.516 117.209L128.721 115.305L127.611 116.099Z" fill="#E03500"/>
<path d="M120.233 112.927L110.635 112.529L105.319 112.369L105.364 113.399L111.665 114.195H119.28L126.74 114.353L132.169 114.972L132.212 113.64L127.372 113.164L120.233 112.927Z" fill="#F74931"/>
<path d="M102.215 144.303L101.986 123.952L101.591 123.079L99.2891 123.873L95.165 126.095L94.5287 135.377L94.6735 144.648L101.194 144.104L102.215 144.303Z" fill="#E03500"/>
<path d="M108.573 145.532L111.552 145.571L110.555 126.095L108.888 125.779L107.617 126.333L106.589 130.776L106.825 137.836L106.609 145.153L108.573 145.532Z" fill="#E03500"/>
<path d="M147.405 143.865L150.991 143.725L150.619 127.919L149.269 126.649L146.969 126.729L145.383 128.316L144.748 136.725L144.675 143.98L147.405 143.865Z" fill="#FF4127"/>
<path d="M49.626 104.357L48.4349 104.439L47.1667 105.705L42.3265 119.829H59.7812L56.8473 113.799L51.3708 106.421L49.626 104.357Z" fill="#5D6B22"/>
<path d="M47.1667 105.705L42.3265 119.829H42.9079L46.2943 109.515L47.4677 105.405L47.1667 105.705Z" fill="#D68525"/>
<path d="M45.9948 119.829H46.9932L48.3803 104.493L47.7979 105.076L45.9948 119.829Z" fill="#D68525"/>
<path d="M50.0224 106.66L49.7292 104.481L49.626 104.357L49.1172 104.393L49.8636 109.911L51.3125 119.829H52.4792L50.0224 106.66Z" fill="#D68525"/>
<path d="M56.8473 113.799L51.3708 106.421L49.7021 104.448L51.9255 108.008L54.5459 111.737L56.9246 115.624L58.5677 119.829H59.7812L56.8473 113.799Z" fill="#D68525"/>
<path d="M41.2177 119.511L44.3907 118.243L47.5625 118.083L53.7527 118.243L58.3527 118.4L59.7812 118.797L60.0193 120.463L59.3844 121.495L59.0661 136.251V144.58H49.4677L46.0563 144.819L43.5183 143.629L42.3265 130.301L41.9307 121.495L41.2177 119.511Z" fill="#FF7B61"/>
<path d="M41.2177 119.511L41.9307 121.495L42.3265 130.301L43.5183 143.629L46.0235 144.804L45.5016 131.648L44.7864 120.621L44.4817 118.237L44.3907 118.243L41.2177 119.511Z" fill="#FF4127"/>
<path d="M58.3527 118.4L53.7527 118.243L47.5625 118.083L44.3907 118.243L41.2177 119.511L41.9307 121.495L41.9349 121.572L44.7864 120.621L48.8317 120.385L59.6495 121.065L60.0193 120.463L59.7812 118.797L58.3527 118.4Z" fill="#FF4127"/>
<path d="M44.4817 118.237L44.3907 118.243L41.2177 119.511L41.9307 121.495L41.9349 121.572L44.7864 120.621L44.4817 118.237Z" fill="#F74931"/>
<path d="M57.4063 144.58L57.5584 130.617L56.1303 130.459V129.348L57.0849 128.636L56.6084 126.809L55.4183 126.176L53.2751 126.809L53.0375 129.111H51.4521V128.157L50.5781 126.413L49.1495 126.253L47.5625 127.207V129.665H48.1979L48.1188 131.411H47.1667L47.8803 137.836L48.1787 144.671L49.4677 144.58H57.4063Z" fill="#E03500"/>
<path d="M51.0531 128.715L53.4349 128.792L53.5131 130.38H51.0531V128.715Z" fill="#FF4127"/>
<path d="M75.2516 122.447V125.619L75.4098 127.525L79.376 128.001L81.9932 127.841L81.5973 122.288L79.6937 121.256H77.2344L75.2516 122.447Z" fill="#E03500"/>
<path d="M86.6745 124.509L93.3385 119.432L95.8792 117.607L95.4027 115.624L94.8464 114.593L91.7527 114.275L88.5 114.671L87.4677 116.655L86.5964 118.876L86.6745 124.509Z" fill="#E03500"/>
<path d="M114.76 125.064L114.919 133.633L115.236 137.68L122.615 136.807L122.456 124.112L119.917 123.716L114.76 125.064Z" fill="#F74931"/>
<path d="M120.075 124.429L115.553 125.619L115.87 136.885L121.9 136.012L121.66 124.668L120.075 124.429Z" fill="#FF4127"/>
<path d="M118.329 127.364L118.251 132.601H119.361L119.439 127.127L118.329 127.364Z" fill="#FF7B61"/>
<path d="M131.341 125.381L131.183 137.361L138.084 137.6L137.449 125.46L131.341 125.381Z" fill="#F74931"/>
<path d="M132.528 126.651L132.451 132.601L132.293 136.171L136.895 136.329L136.497 129.984L136.417 126.731L132.528 126.651Z" fill="#FF4127"/>
<path d="M94.5287 135.377L94.664 133.408L86.6745 133.475L72.9489 133.315L67.4765 136.647L64.2229 140.059L58.6312 140.127L58.5912 144.104L60.8125 144.421L63.6683 144.343L69.7771 144.74L75.1719 145.612L81.6771 144.66L92.6251 144.819L94.6735 144.648L94.5287 135.377Z" fill="#FF7B61"/>
<path d="M73.2683 138.867L72.8708 134.821L70.7292 135.932L66.6839 139.184L64.0651 141.804L63.6104 144.344L63.6683 144.343L69.7771 144.74L73.5531 145.349L73.2683 138.867Z" fill="#E03500"/>
<path d="M100.095 144.196L101.194 144.104L100.095 144.196Z" fill="#FF7B61"/>
<path d="M106.609 145.153L106.825 137.836L106.699 134.063L102.094 133.496L102.215 144.303L101.194 144.104L108.254 145.472V145.471L106.609 145.153Z" fill="#FF7B61"/>
<path d="M140.861 139.74L137.685 139.979L130.944 139.74L123.724 140.059H111.269L111.552 145.571L110.548 145.556L127.296 145.771L142.527 145.176L143.12 144.463L143.245 139.9L140.861 139.74Z" fill="#FF7B61"/>
<path d="M111.586 67.884L110.099 68.776L110.131 70.008L112.418 68.6587L116.82 67.9427L119.559 68.1227L123.485 69.2533L124.875 69.716L124.915 68.7173L117.893 66.7533L111.586 67.884Z" fill="#F74931"/>
<path d="M112.418 68.6587L112.806 68.5947L112.87 67.6547L111.586 67.884L110.099 68.776L110.131 70.008L112.418 68.6587Z" fill="#FF4127"/>
<path d="M124.915 68.7173L123.708 68.38L123.676 69.316L124.875 69.716L124.915 68.7173Z" fill="#E03500"/>
<path d="M82.7084 81.8267L81.2812 81.5093V83.4933H82.4697L85.6432 83.5733L88.5781 83.8106H90.6417L93.5615 83.42L93.5765 81.984L87.7864 82.144L82.7084 81.8267Z" fill="#FF4127"/>
<path d="M82.7084 81.8267L81.2812 81.5094V82.376L82.0729 82.5414L85.0104 82.8573L89.2927 82.9373H91.9896L93.5713 82.576L93.5765 81.984L87.7864 82.144L82.7084 81.8267Z" fill="#F74931"/>
<path d="M78.5036 80.4387L81.3011 81.8067L82.6093 82.164L85.2864 82.4027L89.6901 82.52L92.8437 82.284L94.2708 81.4507L95.9973 78.1786L95.9375 73.3573L93.3792 70.68L90.2839 67.408L87.488 63.956L86.8932 62.588L85.4661 65.028L83.2041 67.7067L79.6344 70.3253L77.7307 74.132L77.7891 77.4627L78.5036 80.4387Z" fill="#FFAA39"/>
<path d="M92.9584 75.348L92.1292 74.964L90.689 73.908L91.0584 73.18L91.5078 72.18L93.1406 73.12L93.5693 73.3573L92.9584 75.348ZM94.2708 76.5707L95.1562 76.7013L94.7473 77.4627L94.263 78.968L93.915 78.8907L92.5494 78.2093L92.9026 76.988L93.1666 76.032L94.2708 76.5707ZM93.6838 80.7747L92.486 80.4987L91.9202 80.284L92.2473 79.248L92.3864 78.776L94.126 79.396L93.6838 80.7747ZM91.6026 80.1653L89.8084 79.4867L88.7005 78.8173L88.7369 78.4747L89.3401 76.7547L91.7136 78.5347L92.0817 78.6653L92.0702 78.7133L91.6026 80.1653ZM91.026 81.9613L90.7604 81.868L88.453 81.0453L88.6417 79.328L89.3333 79.7853L91.415 80.6773L91.439 80.6827L91.026 81.9613ZM86.953 77.7613L85.6718 76.6213L86.725 74.3747L87.9036 75.6787L89.025 76.52L88.5614 77.4627L88.3984 78.6333L86.953 77.7613ZM88.0849 80.9147L85.8213 79.5467L84.913 78.7933L85.4505 77.2067L85.4661 77.2267L88.3306 79.12L88.0849 80.9147ZM87.9661 82.412L87.1901 82.104L84.5729 81.2133L84.1969 81.0106L84.2145 80.8547L84.8062 79.1093L87.5494 81.1533L88.0494 81.3427L87.9661 82.412ZM83.8792 80.8427L82.014 79.844L81.3385 79.3507L81.4781 78.7733L82.2682 76.428L84.0374 78.5347L84.3688 78.7827L83.8792 80.8427ZM80.8557 78.9973L80.4677 78.7133L79.3958 77.5827L78.75 76.4267L79.2177 75.024L80.3021 73.348L81.2412 75.2027L81.7917 75.86L81.7161 76.0347L80.8557 78.9973ZM81.1806 71.9893L81.6328 71.636L82.5478 73.5973L82.6917 73.7733L81.9453 75.504L81.1208 74.3106L80.514 73.0213L81.1806 71.9893ZM83.3828 70.264L83.3973 70.2533L84.2604 71.5493L83.2041 72.584L82.9218 73.2373L82.3114 72.2867L81.8917 71.4333L83.3828 70.264ZM85.1005 68.8907L85.225 69.1333L85.939 69.9067L84.5937 71.224L83.9781 70.5027L83.686 70.02L85.1005 68.8907ZM85.4661 68.5973L86.5494 67.8L87.388 68.864L86.1874 69.6827L85.703 69.1333L85.3984 68.6507L85.4661 68.5973ZM87.488 67.1093L87.8688 66.756L88.9193 67.612L88.7369 67.9427L87.6822 68.664L86.953 67.8253L86.7942 67.6213L87.488 67.1093ZM90.3073 68.2747L88.9453 69.8147L88.1417 69.1933L87.8516 68.8573L88.7978 68.1813L89.0584 67.7173L90.3073 68.2747ZM89.5702 76.096L90.4896 74.292L91.9505 75.4413L92.8021 75.8573L92.7838 75.916L92.238 78.0533L91.0584 77.4627L89.5478 76.16L89.5702 76.096ZM87.3688 73.0013L87.9306 72.0773L88.6197 72.8227L90.2265 74.084L89.3073 75.9507L88.4401 75.2027L86.9984 73.792L87.3688 73.0013ZM86.4426 69.9693L87.1312 69.3707L87.551 69.0733L87.7864 69.3707L88.7084 70.084L88.0234 70.8587L87.7536 71.3467L87.0729 70.68L86.4426 69.9693ZM85.703 72.524L84.7874 71.4507L84.8708 71.336L86.1926 70.1867L87.5693 71.68L86.6104 73.412L85.703 72.524ZM85.1016 76.7707L84.513 78.1787L84.4573 78.4147L83.7396 77.82L82.375 76.1147L83.025 74.1867L85.1016 76.7707ZM84.8098 75.8573L83.3828 73.9533L83.2005 73.6693L83.2041 73.656L84.4806 71.88L84.513 71.9293L86.3245 73.9307L86.1797 74.1907L85.301 76.292L84.8098 75.8573ZM91.177 71.9893L91.2057 72.0053L90.7604 73.0013L90.414 73.7053L89.453 73.0013L88.1448 71.7267L89.0052 70.312L91.177 71.9893ZM94.0702 73.0733L94.4984 71.8533L94.1448 71.4827L93.7161 72.876L93.2005 72.584L91.7292 71.6853L92.5677 69.8213L92.3073 69.548L91.4322 71.5027L89.986 70.6213L89.238 70.04L90.165 69.0133L90.7344 68.4653L91.2969 68.7173L91.4254 68.6173L90.6926 67.8387L90.6822 67.8507L89.2906 67.3053L89.665 66.644L89.5302 66.476L89.1188 67.24L89.0964 67.2293L88.1666 66.4733L88.4401 66.2187L88.7536 65.5187L88.5494 65.2653L88.262 66.0987L87.975 66.3173L87.488 65.92L86.3584 64.6707L86.1093 63.9267L85.7432 64.5547L85.763 64.612L87.1312 66.1587L87.6406 66.572L86.6005 67.368L85.9426 66.516L85.2306 65.3053L84.9932 65.5867L85.8213 66.8733L86.3568 67.5547L86.0016 67.8253L85.2396 68.4L84.5729 67.348L84.236 66.4853L83.9964 66.768L84.9541 68.6147L83.5016 69.712L82.5693 68.1707L82.1917 68.448L83.1901 69.9467L82.8473 70.2053L81.7213 71.0867L80.8948 69.4L80.6666 69.5667L81.4697 71.2867L80.6458 71.9293L80.2874 72.5427L79.4306 70.7293L79.2057 71.18L80.0781 72.9027L78.8021 75.084L78.513 76L77.9677 75.024L77.7344 74.3693L77.7516 75.3L78.3645 76.4693L77.9036 77.936L78.0901 78.72L78.2672 77.88L78.5921 76.9L79.5172 78.6533L80.7412 79.4773L80.4609 81.396L80.8046 81.564L81.2292 79.8053L82.7874 80.8547L83.7656 81.324L83.6208 81.9253V82.2533L84.0364 82.2907L84.1354 81.5027L85.8812 82.3413L86.1614 82.4253L88.5937 82.4907L88.4817 81.5053L90.2265 82.164L90.9645 82.424L92.0754 82.3413L91.475 82.1253V81.688L91.7682 80.7573L93.6302 81.1773L93.551 81.8707L93.9182 81.6573L93.9792 81.2573L94.3306 81.3373L94.525 80.9693L94.0478 80.8573L94.4245 79.46L95.2536 79.588L95.4453 79.2213L94.5406 79.0267L94.689 78.4747L95.6734 76.776L95.9806 76.8213L95.975 76.3907L95.9062 76.376L95.9729 76.2587L95.9593 75.2L95.3948 76.256L94.4505 76.0347L93.3125 75.5106L93.6754 74.1907L93.9026 73.5467L94.6276 73.9533L95.9489 74.252L95.9426 73.8013L95.1041 73.656L94.0702 73.0733Z" fill="#778E3F"/>
<path d="M95.9729 76.2533L94.0339 78.0587L89.8084 78.6533L85.2251 78.5347L80.4079 77.404L78.0869 76.512L77.7672 76.1093L77.7891 77.4627L78.5036 80.4387L81.3011 81.8067L82.6093 82.164L85.2864 82.4027L89.6901 82.52L92.8437 82.284L94.2708 81.4507L95.9973 78.1786L95.9729 76.2533Z" fill="#D68525"/>
<path d="M84.2145 80.8547L84.8063 79.1093L87.5495 81.1533L88.0495 81.3427L87.9661 82.412L87.1901 82.104L84.5729 81.2133L84.1969 81.0106L84.2145 80.8547ZM88.6417 79.328L89.3333 79.7853L91.4151 80.6773L91.4391 80.6827L91.026 81.9613L90.7604 81.868L88.4531 81.0453L88.6417 79.328ZM92.2473 79.248L92.3864 78.776L94.126 79.396L93.6839 80.7747L92.486 80.4987L91.9203 80.284L92.2473 79.248ZM78.5921 76.9L79.5172 78.6533L80.7412 79.4773L80.4609 81.396L80.6145 81.472L80.8047 81.564L81.2292 79.8053L82.7875 80.8547L83.7656 81.324L83.6208 81.9253V82.2533L83.9489 82.284L84.0364 82.2907L84.1355 81.5027L85.8812 82.3413L86.1615 82.4253L86.724 82.4413L88.5937 82.4907L88.4817 81.5053L90.2265 82.164L90.9645 82.424L91.2421 82.4027L92.0755 82.3413L91.4751 82.1253V81.688L91.7683 80.7573L93.6303 81.1773L93.5511 81.8707L93.9183 81.6573L93.9792 81.2573L94.3307 81.3373L94.4427 81.1253L94.5251 80.9693L94.0479 80.8573L94.4245 79.46L95.2536 79.588L95.2995 79.5L95.4453 79.2213L94.5407 79.0267L94.6891 78.4747L95.6735 76.776L95.9807 76.8213L95.9792 76.7573L95.9751 76.3907L95.9063 76.376L95.9729 76.2587V76.2533L94.8213 77.3253L94.7473 77.4627L94.2631 78.968L93.9151 78.8907L92.6396 78.2547L91.5459 78.4093L91.7136 78.5347L92.0817 78.6653L92.0703 78.7133L91.6027 80.1653L89.8084 79.4867L88.7005 78.8173L88.7229 78.6253L88.3995 78.6173L88.3984 78.6333L88.3672 78.6173L87.5339 78.596L88.3307 79.12L88.0849 80.9147L85.8213 79.5467L84.9131 78.7933L85.0183 78.484L84.4729 78.3573L84.4573 78.4147L84.3557 78.3307L83.7464 78.1867L84.0375 78.5347L84.3688 78.7827L83.8792 80.8427L82.014 79.844L81.3385 79.3507L81.4781 78.7733L81.8281 77.736L81.2604 77.604L80.8557 78.9973L80.4677 78.7133L79.3959 77.5827L78.9921 76.86L78.3229 76.6027L77.9036 77.936L78.0901 78.72L78.2672 77.88L78.5921 76.9Z" fill="#5D6B22"/>
<path d="M85.9427 64.2547L87.488 64.196L87.6651 62.588L87.0729 62.172L86.1208 62.4107L85.9427 64.2547Z" fill="#778E3F"/>
<path d="M87.0036 60.748L86.1807 61.4227L87.0036 62.172L87.6787 61.872L87.3792 60.9747L87.0036 60.748Z" fill="#FFAA39"/>
<path d="M86.724 55.3293L87.0703 61.6293L87.1563 55.3293H86.724Z" fill="#FFAA39"/>
<path d="M85.7751 56.5373L87.9307 56.452L87.8464 57.0547L85.7751 56.968V56.5373Z" fill="#FFAA39"/>
<path d="M86.0339 58.696L87.7588 59.3L87.8464 59.816L86.0339 59.1254V58.696Z" fill="#FFAA39"/>
<path d="M8.51934 48.8533L3.8776 39.8227L5.8688 37.896L8.55214 37.8507L12.0964 40.792L11.9948 45.74L8.51934 48.8533ZM30.8031 62.8213L15.6041 48.8227L17.8412 43.74L13.5079 35.7507L6.77187 33.5947L0.046936 39.2093L5.85267 50.412L15.8812 70.8373L18.6355 68.732L11.1364 52.7253L28.4453 65.4213L30.8031 62.8213Z" fill="white"/>
<path d="M14.8527 30.5707L21.0208 43.2987L29.2693 55.4094L34.764 55.5974L37.3115 51.56L38.5355 47.9547L42.7864 54.2893L45.25 52.656L31.0407 23.836L27.8896 25.4467L35.724 43.664L33.8193 49.1014L30.7448 50.508L26.7995 45.2147L17.4573 28.872L14.8527 30.5707Z" fill="white"/>
<path d="M42.4521 15.9053L44.4932 18.5213L42.1927 23.4627L43.9255 29.092L48.5052 33.9253L54.7265 39.0213L57.1511 46.5307L56.3281 52.4853L53.2188 54.9227L51.7005 53.084L53.2907 48.8054L50.0563 42.8493L44.126 37.2813L39.6527 29.3573L38.5088 20.584L42.4521 15.9053Z" fill="white"/>
<path d="M53.2864 10.776L55.0511 13.5173L52.1484 17.888L52.4557 22.988L55.8489 26.3374L62.1693 30.5414L65.8115 36.6493L67.4792 42.1387L66.7917 46.172L62.936 50.3054L61.1276 48.9374L63.236 43.576L61.6136 36.712L57.8489 32.1813L52.9027 28.0227L49.1093 22.3227L48.762 16.396L50.5964 13.0213L53.2864 10.776Z" fill="white"/>
<path d="M57.1292 11.0454L59.264 14.9694L61.1448 14.276L71.1432 33.5307L73.9828 38.992L71.764 41.5294L73.5495 43.5854L79.4271 38.6987L78.1979 36.3854L76.1787 37.1414L64.7907 12.2694L66.9151 8.42136L64.7969 6.01202L57.1292 11.0454Z" fill="white"/>
<path d="M81.4807 22.8814L76.4869 6.06804L86.4245 21.1254L81.4807 22.8814ZM76.664 0.917358L72.9541 2.78269L76.138 18.2294L82.0651 35.9667L85.2787 34.4974L83.1563 26.172L88.6703 23.816L95.1875 30.2987L97.1917 28.0267L76.664 0.917358Z" fill="white"/>
<path d="M1.70842 90.3334L12.8552 108.391L29.3844 99.9974L47.2604 89.904L42.8464 80.9014L35.5651 69.4813L1.32135 88.26L1.70842 90.3334Z" fill="#006DC1"/>
<path d="M34.1917 79.3987L40.0052 76.4453L35.5651 69.4813L1.32135 88.26L1.70842 90.3334L5.04268 95.7374L14.1251 90.7067L34.1917 79.3987Z" fill="white"/>
<path d="M12.8552 108.391L29.3844 99.9974L47.2604 89.904L44.0479 83.352L36.6292 87.5894L21.8688 95.384L9.16931 102.42L12.8552 108.391Z" fill="#FF4127"/>
</svg>
