<svg width="46" height="40" viewBox="0 0 46 40" fill="none" xmlns="http://www.w3.org/2000/svg">
<g clip-path="url(#clip0_2_9)">
<path d="M22.891 12.8261C22.533 12.8258 22.1867 12.6989 21.9137 12.4681C21.6407 12.2372 21.4586 11.9173 21.3998 11.5652C20.9987 9.17392 19.8999 6.57826 19.0017 4.74131L16.8063 8.80001C16.611 9.14422 16.2882 9.39836 15.9071 9.50785C15.526 9.61735 15.117 9.57348 14.768 9.38567C14.419 9.19785 14.1577 8.88105 14.0403 8.5033C13.9229 8.12554 13.9587 7.71694 14.1401 7.36522L17.6806 0.821743C17.8101 0.589684 17.9983 0.395478 18.2265 0.258432C18.4546 0.121386 18.7148 0.0462745 18.9811 0.0405593C19.2474 0.0348442 19.5105 0.0987239 19.7444 0.225854C19.9782 0.352984 20.1747 0.538937 20.3141 0.765222C20.4471 0.982614 23.5843 6.26522 24.3843 11.0674C24.4174 11.263 24.4115 11.4631 24.367 11.6564C24.3224 11.8497 24.2401 12.0324 24.1247 12.1939C24.0092 12.3554 23.863 12.4927 23.6943 12.5978C23.5257 12.7029 23.3379 12.7739 23.1417 12.8065C23.0589 12.8204 22.975 12.8269 22.891 12.8261Z" fill="#231815"/>
<path d="M1.58712 39.8217C1.34957 39.8194 1.11586 39.7617 0.904595 39.6534C0.693325 39.5451 0.510327 39.3891 0.370176 39.1979C0.230025 39.0066 0.136589 38.7853 0.0973048 38.5517C0.0580205 38.3181 0.0739754 38.0786 0.143897 37.8522L6.46617 18.0696C6.91126 16.67 7.63413 15.374 8.59176 14.2587L8.02712 3.98695C7.99797 3.50505 8.11767 3.02583 8.37009 2.61386C8.62252 2.2019 8.99554 1.877 9.43887 1.68298C9.8822 1.48895 10.3745 1.43511 10.8495 1.52873C11.3244 1.62234 11.7592 1.8589 12.0952 2.20652L19.7255 10.4261L35.9628 10.95C37.3464 10.9956 38.7061 11.3218 39.9591 11.9086C41.2121 12.4953 42.3321 13.3304 43.2509 14.363C44.1696 15.3955 44.8679 16.6037 45.303 17.9141C45.7382 19.2245 45.9012 20.6095 45.782 21.9848C45.5679 24.4829 44.477 26.8257 42.7013 28.6008C40.9255 30.3759 38.5788 31.4695 36.074 31.6891L12.529 33.7717L2.35015 39.6196C2.11835 39.7534 1.85496 39.8232 1.58712 39.8217ZM11.149 5.63478L11.6483 14.7217C11.6591 14.9288 11.6273 15.1359 11.555 15.3303C11.4826 15.5247 11.3712 15.7023 11.2275 15.8522C10.3669 16.7381 9.72435 17.8112 9.35044 18.987L4.21413 35.0587L11.2994 30.9891C11.4892 30.8782 11.7015 30.8113 11.9208 30.7935L35.8015 28.6804C37.5975 28.5244 39.2806 27.7409 40.5538 26.4682C41.8269 25.1954 42.6084 23.5152 42.7604 21.7239C42.8444 20.7568 42.7299 19.7828 42.4239 18.8613C42.1178 17.9398 41.6266 17.0902 40.9803 16.3643C40.3339 15.6384 39.546 15.0515 38.6646 14.6394C37.7832 14.2273 36.8268 13.9986 35.8538 13.9674L18.9843 13.4217C18.7838 13.4149 18.5867 13.3688 18.4042 13.286C18.2216 13.2032 18.0572 13.0853 17.9204 12.9391L11.149 5.63478Z" fill="#231815"/>
<path d="M7.30114 20.4348C7.30114 20.4348 16.8042 21.6304 16.8238 23.237C16.8434 24.8435 6.55991 22.7544 6.55991 22.7544L7.30114 20.4348Z" fill="#231815"/>
<path d="M5.2911 25.2174C5.2911 25.2174 14.7941 26.413 14.8138 28.0196C14.8334 29.6261 4.54987 27.537 4.54987 27.537L5.2911 25.2174Z" fill="#231815"/>
<path d="M23.8371 24.3174C25.2374 24.3174 26.3726 23.1855 26.3726 21.7891C26.3726 20.3928 25.2374 19.2609 23.8371 19.2609C22.4369 19.2609 21.3017 20.3928 21.3017 21.7891C21.3017 23.1855 22.4369 24.3174 23.8371 24.3174Z" fill="#231815"/>
<path d="M37.066 23.0109C37.7426 23.0109 38.2912 22.4639 38.2912 21.7891C38.2912 21.1144 37.7426 20.5674 37.066 20.5674C36.3893 20.5674 35.8408 21.1144 35.8408 21.7891C35.8408 22.4639 36.3893 23.0109 37.066 23.0109Z" fill="#231815"/>
<path d="M31.0882 31.5217C30.8781 31.5212 30.6747 31.4481 30.5126 31.315C30.3504 31.1818 30.2395 30.9968 30.1987 30.7913C27.8267 18.787 34.9818 12.0739 35.287 11.7957C35.3748 11.7151 35.4776 11.6527 35.5895 11.6118C35.7015 11.5709 35.8204 11.5524 35.9396 11.5573C36.0587 11.5623 36.1757 11.5906 36.2839 11.6406C36.3921 11.6906 36.4893 11.7614 36.57 11.8489C36.6507 11.9364 36.7134 12.0389 36.7544 12.1506C36.7954 12.2622 36.814 12.3808 36.809 12.4996C36.8041 12.6184 36.7757 12.7351 36.7255 12.8429C36.6753 12.9508 36.6044 13.0478 36.5166 13.1283C36.2375 13.387 29.815 19.4717 31.982 30.4413C32.0281 30.6771 31.9785 30.9215 31.844 31.1208C31.7095 31.3201 31.5012 31.4581 31.2648 31.5043C31.2065 31.5155 31.1474 31.5213 31.0882 31.5217Z" fill="#231815"/>
<path d="M13.8523 7.00652C13.8523 7.00652 13.6648 11.8043 15.0775 14.2935C19.4748 13.4978 19.8258 13.5 19.8258 13.5L17.5803 9.60218" fill="#231815"/>
</g>
<defs>
<clipPath id="clip0_2_9">
<rect width="46" height="40" fill="white"/>
</clipPath>
</defs>
</svg>
