<svg width="46" height="40" viewBox="0 0 46 40" fill="none" xmlns="http://www.w3.org/2000/svg">
<g clip-path="url(#clip0_147_20)">
<mask id="mask0_147_20" style="mask-type:luminance" maskUnits="userSpaceOnUse" x="0" y="0" width="46" height="40">
<path d="M46 0H0V40H46V0Z" fill="white"/>
</mask>
<g mask="url(#mask0_147_20)">
<path d="M22.891 12.8261C22.533 12.8258 22.1867 12.6989 21.9137 12.4681C21.6407 12.2372 21.4586 11.9173 21.3998 11.5652C20.9987 9.1739 19.8999 6.57824 19.0017 4.74129L16.8063 8.79999C16.611 9.1442 16.2882 9.39834 15.9071 9.50783C15.526 9.61733 15.117 9.57346 14.768 9.38565C14.419 9.19783 14.1577 8.88103 14.0403 8.50328C13.9229 8.12552 13.9587 7.71692 14.1401 7.3652L17.6806 0.821728C17.8101 0.589669 17.9983 0.395463 18.2265 0.258417C18.4546 0.121371 18.7148 0.0462593 18.9811 0.0405441C19.2474 0.034829 19.5105 0.0987087 19.7444 0.225839C19.9782 0.352969 20.1747 0.538922 20.3141 0.765207C20.4471 0.982599 23.5843 6.2652 24.3843 11.0674C24.4174 11.263 24.4115 11.4631 24.367 11.6564C24.3224 11.8497 24.2401 12.0324 24.1247 12.1939C24.0092 12.3554 23.863 12.4927 23.6943 12.5978C23.5257 12.7029 23.3379 12.7739 23.1417 12.8065C23.0589 12.8204 22.975 12.8269 22.891 12.8261Z" fill="#F6F6F6"/>
<path d="M1.58724 39.8217C1.34969 39.8194 1.11598 39.7617 0.904717 39.6534C0.693447 39.5451 0.510449 39.3891 0.370298 39.1979C0.230147 39.0066 0.136711 38.7853 0.0974269 38.5517C0.0581426 38.3181 0.0740975 38.0786 0.144019 37.8522L6.46629 18.0696C6.91138 16.67 7.63425 15.374 8.59188 14.2587L8.02724 3.98692C7.99809 3.50502 8.11779 3.0258 8.37021 2.61383C8.62264 2.20187 8.99566 1.87697 9.43899 1.68295C9.88232 1.48892 10.3746 1.43508 10.8496 1.5287C11.3245 1.62231 11.7593 1.85887 12.0953 2.20649L19.7256 10.4261L35.9629 10.95C37.3465 10.9956 38.7062 11.3218 39.9592 11.9086C41.2122 12.4953 42.3322 13.3304 43.251 14.363C44.1697 15.3955 44.868 16.6037 45.3031 17.9141C45.7383 19.2245 45.9013 20.6095 45.7821 21.9848C45.568 24.4829 44.4771 26.8257 42.7014 28.6008C40.9256 30.3759 38.5789 31.4695 36.0741 31.6891L12.5291 33.7717L2.35027 39.6196C2.11847 39.7534 1.85508 39.8232 1.58724 39.8217ZM11.1491 5.63475L11.6484 14.7217C11.6592 14.9288 11.6274 15.1359 11.5551 15.3303C11.4827 15.5247 11.3713 15.7023 11.2276 15.8522C10.367 16.7381 9.72447 17.8112 9.35056 18.987L4.21425 35.0587L11.2995 30.9891C11.4893 30.8782 11.7016 30.8113 11.9209 30.7935L35.8016 28.6804C37.5976 28.5244 39.2807 27.7409 40.5539 26.4682C41.827 25.1954 42.6085 23.5152 42.7605 21.7239C42.8445 20.7568 42.73 19.7828 42.424 18.8613C42.1179 17.9398 41.6267 17.0902 40.9804 16.3643C40.334 15.6384 39.5461 15.0515 38.6647 14.6394C37.7833 14.2273 36.8269 13.9986 35.8539 13.9674L18.9844 13.4217C18.7839 13.4149 18.5868 13.3688 18.4043 13.286C18.2217 13.2032 18.0573 13.0853 17.9205 12.9391L11.1491 5.63475Z" fill="#F6F6F6"/>
<path d="M7.30129 20.4348C7.30129 20.4348 16.8043 21.6304 16.8239 23.237C16.8435 24.8435 6.56006 22.7544 6.56006 22.7544L7.30129 20.4348Z" fill="#F6F6F6"/>
<path d="M5.29128 25.2174C5.29128 25.2174 14.7943 26.413 14.814 28.0196C14.8336 29.6261 4.55005 27.537 4.55005 27.537L5.29128 25.2174Z" fill="#F6F6F6"/>
<path d="M23.8372 24.3174C25.2375 24.3174 26.3727 23.1855 26.3727 21.7891C26.3727 20.3928 25.2375 19.2609 23.8372 19.2609C22.437 19.2609 21.3018 20.3928 21.3018 21.7891C21.3018 23.1855 22.437 24.3174 23.8372 24.3174Z" fill="#F6F6F6"/>
<path d="M37.066 23.0109C37.7426 23.0109 38.2912 22.4639 38.2912 21.7891C38.2912 21.1144 37.7426 20.5674 37.066 20.5674C36.3893 20.5674 35.8408 21.1144 35.8408 21.7891C35.8408 22.4639 36.3893 23.0109 37.066 23.0109Z" fill="#F6F6F6"/>
<path d="M31.0883 31.5217C30.8782 31.5212 30.6748 31.4481 30.5127 31.315C30.3505 31.1818 30.2396 30.9968 30.1988 30.7913C27.8268 18.787 34.9819 12.0739 35.2871 11.7957C35.3749 11.7151 35.4777 11.6527 35.5896 11.6118C35.7016 11.5709 35.8205 11.5524 35.9397 11.5573C36.0588 11.5623 36.1758 11.5906 36.284 11.6406C36.3922 11.6906 36.4894 11.7614 36.5701 11.8489C36.6508 11.9364 36.7135 12.0389 36.7545 12.1506C36.7955 12.2622 36.8141 12.3808 36.8091 12.4996C36.8042 12.6184 36.7758 12.7351 36.7256 12.8429C36.6754 12.9508 36.6045 13.0478 36.5167 13.1283C36.2376 13.387 29.8151 19.4717 31.9821 30.4413C32.0282 30.6771 31.9786 30.9215 31.8441 31.1208C31.7096 31.3201 31.5013 31.4581 31.2649 31.5043C31.2066 31.5155 31.1475 31.5213 31.0883 31.5217Z" fill="#F6F6F6"/>
<path d="M13.8525 7.0065C13.8525 7.0065 13.665 11.8043 15.0777 14.2935C19.475 13.4978 19.826 13.5 19.826 13.5L17.5805 9.60216" fill="#F6F6F6"/>
</g>
</g>
<defs>
<clipPath id="clip0_147_20">
<rect width="46" height="40" fill="white"/>
</clipPath>
</defs>
</svg>
