<svg width="337" height="337" viewBox="0 0 337 337" fill="none" xmlns="http://www.w3.org/2000/svg">
<path d="M336.659 168.543C336.659 261.507 261.298 336.869 168.334 336.869C75.3695 336.869 0.00817871 261.507 0.00817871 168.543C0.00817871 75.5799 75.3695 0.217265 168.334 0.217265C261.298 0.217265 336.659 75.5799 336.659 168.543Z" fill="#2CDBFE"/>
<path d="M195.178 260.582C146.748 255.298 78.9144 243.554 45.8877 284.009C76.577 316.546 120.076 336.869 168.333 336.869C232.502 336.869 288.278 300.957 316.678 248.14C281.057 265.25 235.177 264.392 195.178 260.582Z" fill="#03BEEB"/>
<path d="M224.781 9.92872C229.48 25.79 231.338 42.4607 229.693 59.2461C226.816 91.8434 204.765 118.689 176.002 134.029C124.23 160.873 66.7065 173.337 30.2745 227.026C25.3345 233.943 22.0918 241.65 20.6998 249.451C27.6158 262.042 36.1065 273.639 45.8878 284.01C78.9145 243.554 146.748 255.298 195.178 260.582C235.177 264.393 281.057 265.25 316.678 248.139C329.421 224.439 336.658 197.338 336.658 168.542C336.658 95.382 289.977 33.1327 224.781 9.92872Z" fill="#2CDBFE"/>
<path d="M224.781 9.92868C207.135 3.64735 188.136 0.21801 168.333 0.21801C144.892 0.21801 122.573 5.01403 102.296 13.6714C102.245 18.9354 101.893 24.2247 101.221 29.5247C94.5092 84.174 49.4492 117.73 19.7279 162.79C10.5426 176.349 5.5599 191.106 4.20923 206.058C7.71056 221.429 13.3132 235.999 20.6999 249.451C22.0919 241.65 25.3346 233.943 30.2746 227.026C66.7066 173.337 124.231 160.873 176.003 134.029C204.765 118.689 226.816 91.8434 229.693 59.246C231.339 42.4607 229.48 25.79 224.781 9.92868Z" fill="#5FEAFE"/>
<path d="M101.221 29.525C101.893 24.2236 102.245 18.9356 102.296 13.6716C42.1587 39.3476 0.00799561 99.021 0.00799561 168.542C0.00799561 181.44 1.46266 193.994 4.20933 206.058C5.56 191.106 10.5427 176.349 19.728 162.79C49.4493 117.729 94.5093 84.173 101.221 29.525Z" fill="#7FF4FF"/>
<path d="M261.783 187.47C278.344 173.275 317.38 166.178 300.819 141.336C288.989 123.592 247.588 117.678 262.967 92.8363C266.535 86.8883 269.131 80.791 270.585 74.863C269.892 74.415 269.165 74.019 268.439 73.6697C265.549 72.283 262.375 71.2803 260.049 69.0763C259.068 68.1456 258.257 67.015 257.127 66.2736C254.011 64.2323 249.888 65.8176 246.532 67.435C244.016 68.6483 241.144 70.3643 240.985 73.1536L241.239 72.1683C240.504 79.9136 236.695 87.3256 230.824 92.4323C228.016 94.875 224.643 96.955 223.072 100.331C221.501 103.706 223.167 108.854 226.888 108.927C227.776 108.944 228.673 108.67 229.545 108.844C232.868 109.507 232.501 115.334 235.711 116.419C238.343 117.31 240.557 114.175 241.127 111.456C241.697 108.738 241.244 101.464 242.088 99.559C242.573 98.467 243.813 97.8043 244.957 98.151C246.624 98.6536 247.008 100.71 247.136 102.404C247.525 107.582 247.915 112.759 248.305 117.936C244.187 116.832 241.363 121.942 240.183 126.039C237.144 121.123 229.9 119.42 224.988 122.468C223.504 126.496 221.399 131.09 217.205 132.006C215.7 132.335 213.972 132.164 213.273 134.323C212.831 135.691 213.145 137.163 213.871 138.403C215.047 140.41 215.839 144.334 213.396 145.215C209.432 142.998 203.761 144.824 201.837 148.938C199.913 153.051 202.144 158.575 206.385 160.198C208.097 160.852 210.148 160.883 211.663 159.847C212.671 159.158 213.336 158.083 213.973 157.042L220.085 147.036C220.652 146.107 221.344 145.247 222.2 144.574C225.515 141.971 228.023 143.895 230.168 145.676C233.241 148.226 236.583 151.796 236.639 155.446C236.653 156.496 237.839 157.123 238.78 156.659L241.411 155.363C242.98 154.59 243.691 152.712 242.981 151.111C241.483 147.723 243.844 143.446 245.625 146.015C247.407 148.584 248.767 151.531 251.171 153.531C252.876 154.951 255.381 155.682 257.433 155.151C258.609 154.846 259.903 155.251 260.547 156.28C261.92 158.474 264.559 159.955 267.172 160.54C270.667 161.324 274.32 160.979 277.859 161.535C278.456 163.643 278.264 165.966 277.329 167.946C271.005 171.406 262.711 170.962 256.859 166.707C255.969 166.062 254.719 166.004 253.84 166.664C251.905 168.115 254.788 170.916 253.22 172.024C248.085 170.288 242.951 168.554 237.816 166.82C236.771 166.467 235.653 166.06 235.027 165.152C234.296 164.092 234.447 162.671 234.049 161.447C232.791 157.563 227.141 157.592 223.484 159.412C219.828 161.23 216.184 164.128 212.168 163.386C210.845 163.14 209.541 162.496 208.219 162.738C206.885 162.979 205.887 164.056 204.991 165.074C201.651 168.866 198.311 172.659 194.972 176.45C190.321 181.73 185.476 187.414 184.401 194.367C182.772 204.902 190.531 214.886 199.755 220.228C201.763 221.392 203.92 222.424 206.232 222.635C212.521 223.2 235.077 233.099 236.264 237.167C237.531 241.496 238.807 245.999 238.099 250.454C237.584 253.699 236.028 256.774 235.989 260.06C235.961 262.58 236.831 265.012 237.689 267.38L244.281 285.587C245.068 287.762 246.227 289.814 247.843 291.468C255.648 299.459 264.707 293.232 269.915 286.471C273.777 281.456 276.825 275.815 278.905 269.836C279.549 267.986 280.121 266.063 281.301 264.498C283.068 262.151 286.027 260.847 287.543 258.331C290.311 253.742 287.048 247.95 287.121 242.591C287.189 237.67 290.033 233.512 293.499 229.824C285.209 223.634 275.205 218.627 265.332 214.676C254.687 209.944 252.32 194.567 261.783 187.47Z" fill="#4EA428"/>
<path d="M335.874 184.598C336.388 179.243 336.651 173.814 336.651 168.324C336.651 131.343 324.724 97.146 304.508 69.3713C302.733 70.8725 301.451 71.9872 301.245 72.2539C300.987 72.5859 300.583 72.7726 300.175 72.8819C299.115 73.1664 298.003 72.9915 296.895 72.8172C295.692 72.6279 294.493 72.4394 293.37 72.8406C292.217 73.2519 291.385 74.2001 290.554 75.1457C289.689 76.1311 288.827 77.1138 287.606 77.4833C285.859 78.0113 283.79 76.8526 283.329 75.0873C281.507 75.9006 279.349 77.3233 279.75 79.2779C279.85 79.7635 280.106 80.1936 280.362 80.6239C280.613 81.0456 280.864 81.4675 280.969 81.9419C281.285 83.3772 280.231 84.5986 279.224 85.765C279 86.0257 278.777 86.2836 278.573 86.5406C278.104 87.131 277.69 87.7964 277.277 88.4604C276.287 90.0519 275.302 91.6356 273.573 92.1606C271.986 92.6419 270.114 91.9006 269.287 90.4619C268.461 89.0259 268.762 87.0353 269.977 85.9059C270.568 85.3562 271.334 84.9969 272.091 84.6422C273.193 84.1255 274.274 83.6186 274.761 82.5473C275.073 81.8593 275.055 81.0633 274.895 80.3246C274.395 77.9793 272.645 76.1939 270.585 74.8633C269.13 80.7913 266.535 86.8886 262.966 92.8366C253.096 108.782 266.618 116.929 280.698 125.412C288.554 130.145 296.583 134.982 300.819 141.337C312.626 159.046 296.175 167.737 279.755 176.411C273.143 179.904 266.537 183.394 261.782 187.47C252.321 194.567 254.686 209.945 265.333 214.677C275.206 218.627 285.21 223.633 293.499 229.825C294.935 228.295 296.477 226.845 297.975 225.458C303.083 220.726 296.734 211.281 296.423 210.871L291.009 203.749C286.426 197.718 281.721 191.398 279.21 184.361C278.63 182.737 280.77 181.531 281.879 182.85L295.913 199.537C297.062 200.905 298.487 202.046 300.137 202.733C304.15 204.405 305.707 202.765 307.267 201.123C307.528 200.849 307.788 200.574 308.061 200.315C309.642 198.809 311.612 197.826 313.578 196.845C314.171 196.549 314.763 196.253 315.345 195.943C318.125 194.463 320.886 192.401 321.545 189.217C321.874 187.623 321.434 185.91 320.341 184.705C318.814 183.017 317.253 183.268 315.69 183.52C315.367 183.572 315.043 183.624 314.719 183.659C309.141 184.265 314.483 179.409 320.157 180.645C321.68 180.977 323.254 181.226 324.831 181.475C328.728 182.091 332.645 182.711 335.874 184.598Z" fill="#5EB535"/>
<path d="M53.5912 94.0198C48.4526 111.636 63.3579 121.054 80.2139 129.622C80.6672 128.67 81.3272 127.902 82.3006 127.45C87.7432 124.925 96.8366 123.205 96.6366 117.084C96.4366 110.964 97.0339 111.812 101.427 110.768C105.822 109.724 110.842 108.061 114.269 105.341C117.695 102.622 120.378 98.2478 125.702 100.457C131.025 102.666 135.897 100.2 135.629 97.1238C135.361 94.0464 136.955 89.2291 141.07 91.0958C145.183 92.9624 152.741 87.2504 147.085 79.1331C141.427 71.0171 149.554 71.1238 144.075 69.3518C138.597 67.5784 136.369 77.7598 134.375 70.3344C132.381 62.9104 130.434 59.6718 124.869 62.2971C119.305 64.9238 126.675 70.4944 121.079 73.4571C115.482 76.4184 114.465 79.9358 109.673 82.7504C104.881 85.5638 102.75 84.2278 102.782 80.3891C102.814 76.5504 103.329 70.0464 95.5352 68.8411C87.7419 67.6358 93.6899 62.2224 97.6726 61.9291C101.655 61.6358 111.015 55.9878 114.789 56.6904C118.563 57.3944 126.515 55.7904 126.103 53.0384C125.691 50.2864 122.021 43.8291 116.702 46.2531C111.383 48.6771 104.605 49.8304 98.3166 47.0758C94.3526 45.3384 92.0259 47.0824 89.1326 47.6224C90.5032 69.3678 58.2579 76.5224 53.5912 94.0198Z" fill="#5EB535"/>
<path d="M155.438 218.361C146.724 212.661 137.857 208.528 131.888 207.16C125.918 205.79 129.518 204.782 126.061 198.46C122.605 192.137 115.581 193.493 113.482 188.318C111.958 184.56 108.606 181.702 103.164 179.581C94.9368 189.87 85.6475 198.72 92.6275 211.128C104.457 230.054 142.309 233.604 129.298 258.444C123.369 269.642 115.616 283.04 113.781 295.778C116.289 295.342 118.81 294.354 119.733 290.844C121.877 282.69 134.845 281.796 131.453 271.298C128.06 260.801 145.608 267.469 149.608 255.313C153.606 243.157 148.822 241.225 155.073 236.178C161.324 231.133 164.153 224.062 155.438 218.361Z" fill="#5EB535"/>
<path fill-rule="evenodd" clip-rule="evenodd" d="M88.2911 316.657C87.6803 313.898 87.5272 310.941 87.3723 307.95C87.1755 304.149 86.9759 300.293 85.8309 296.721C82.8789 287.51 83.9896 278.35 87.4403 262.525C90.5069 248.459 87.6749 247.394 87.0083 247.33C86.8336 247.313 86.6603 247.274 86.4923 247.227C74.5149 243.919 72.0483 233.119 71.5643 229.706C71.4669 229.025 71.1709 228.386 70.7083 227.877C60.3163 216.458 65.2376 203.539 70.8669 199.002C75.5458 195.232 75.2002 190.977 74.9736 188.186C74.9212 187.541 74.8752 186.974 74.8989 186.51C75.0243 184.037 72.6336 181.885 70.5576 183.491C68.4816 185.099 63.5989 184.175 60.9323 180.189C59.3396 177.806 58.6663 174.262 58.2081 171.851C57.8996 170.227 57.6887 169.117 57.3603 169.222C56.5443 169.482 49.6283 169.718 48.0136 165.381C47.5443 164.122 47.0109 163.237 46.4896 162.615C45.6043 161.561 44.1403 161.175 42.8389 161.625C35.4031 164.187 29.9491 158.199 26.0807 153.952C25.903 153.757 25.7286 153.566 25.5576 153.379C23.6981 151.35 24.2815 150.398 24.9623 149.287C25.7787 147.955 26.735 146.394 23.7869 142.474C20.9506 138.703 19.7621 133.32 18.8065 128.992C17.9401 125.068 17.2651 122.011 15.7269 121.809C13.2064 121.476 15.0556 128.423 16.2392 132.868L16.2392 132.868C16.5752 134.13 16.8574 135.191 16.9709 135.826C17.4843 138.702 18.1349 145.995 16.6909 145.743C15.2456 145.491 13.7003 141.613 13.4683 139.33C13.3865 138.521 13.6582 137.873 13.9189 137.252C14.3936 136.122 14.8319 135.077 13.0349 133.299C10.2496 130.545 9.48427 129.115 10.4803 122.318C11.0639 118.331 9.79113 116.653 8.63934 115.947C18.385 86.7786 35.8989 61.1664 58.7252 41.5661C61.1877 41.8942 63.5064 42.1432 65.6912 42.3778C72.7528 43.136 78.4156 43.744 83.0163 46.3886C85.5469 47.8432 87.4363 47.9379 89.1323 47.6219C89.9022 59.8365 80.0656 67.4479 70.4682 74.8743C62.9795 80.6689 55.6363 86.3509 53.5909 94.0193C48.4536 111.637 63.3576 121.054 80.2136 129.622C79.0188 132.129 79.328 135.967 79.5741 139.021C79.7568 141.288 79.9047 143.124 79.3776 143.666C77.8723 145.215 76.5363 143.843 76.4016 137.05C76.2669 130.258 69.9443 130.211 65.9829 130.281C64.5338 130.306 63.439 130.577 62.42 130.829C60.6525 131.267 59.113 131.648 56.3483 130.593C51.9883 128.929 48.7709 130.651 47.2149 133.891C46.7383 134.883 46.1839 135.582 45.5938 136.325C44.2578 138.008 42.739 139.921 41.5256 145.997C39.8916 154.171 44.1527 155.334 49.2012 156.713C49.5615 156.811 49.9258 156.911 50.2923 157.014C54.3758 158.163 54.9512 154.364 55.3724 151.583C55.5185 150.618 55.646 149.776 55.8949 149.306C56.8629 147.479 64.5803 149.467 64.3643 151.707C64.2367 153.021 63.5595 153.582 62.3789 154.558C61.5484 155.245 60.4689 156.138 59.1563 157.645C59.1394 157.664 59.1225 157.684 59.1055 157.704C59.0915 157.72 59.0773 157.736 59.0629 157.753C57.4949 159.581 58.2856 162.414 60.5656 163.19C65.4458 164.851 65.3258 165.601 64.8554 168.546C64.6173 170.037 64.2894 172.09 64.4749 175.107C64.8249 180.789 66.7073 180.421 69.1757 179.939C71.0527 179.572 73.2685 179.138 75.4069 181.249C77.8904 183.699 80.6422 182.196 83.996 180.364C87.3297 178.544 91.2583 176.399 96.1096 177.487C98.7736 178.083 101.112 178.782 103.163 179.581C102.301 180.659 101.427 181.722 100.562 182.774L100.561 182.775C93.1678 191.765 86.3798 200.02 92.6269 211.127C97.0501 218.204 105.112 223.131 112.792 227.825C125.653 235.685 137.444 242.892 129.298 258.445C128.679 259.613 128.041 260.805 127.391 262.018C121.816 272.431 115.424 284.369 113.78 295.779C113.14 295.891 112.5 295.966 111.888 296.038L111.888 296.038C109.329 296.34 107.255 296.584 107.628 299.166C108.029 301.931 106.545 301.802 105.149 301.681C103.709 301.556 102.363 301.439 103.271 304.509C104.263 307.863 102.822 309.767 101.682 311.273C100.767 312.482 100.046 313.435 100.932 314.678C101.336 315.244 101.773 315.748 102.188 316.226L102.188 316.226C103.819 318.107 105.106 319.59 102.627 322.863C102.486 323.05 102.38 323.237 102.307 323.426C97.5168 321.381 92.8408 319.121 88.2911 316.657Z" fill="#4EA428"/>
<g opacity="0.300003">
<g opacity="0.300003">
<path opacity="0.300003" d="M195.178 260.582C146.748 255.298 78.9144 243.554 45.8877 284.009C76.577 316.546 120.076 336.869 168.333 336.869C232.502 336.869 288.278 300.957 316.678 248.14C281.057 265.25 235.177 264.392 195.178 260.582Z" fill="#03BEEB"/>
</g>
</g>
<path d="M126.963 127.84H126.73C127.091 127.207 127.298 126.473 127.298 125.693C127.298 123.291 125.35 121.343 122.947 121.343C122.43 121.343 121.932 121.433 121.472 121.6C120.884 118.212 117.932 115.635 114.376 115.635C110.574 115.635 107.462 118.583 107.194 122.316C106.587 122.037 105.914 121.88 105.203 121.88C103.082 121.88 101.286 123.267 100.67 125.183C100.158 124.264 99.1763 123.641 98.0483 123.641C96.3923 123.641 95.0483 124.984 95.0483 126.641C95.0483 127.068 95.139 127.475 95.3003 127.843C93.5803 127.879 92.1963 129.283 92.1963 131.011C92.1963 132.763 93.6163 134.183 95.3683 134.183H126.963C128.715 134.183 130.135 132.763 130.135 131.011C130.135 129.26 128.715 127.84 126.963 127.84Z" fill="white"/>
<path d="M197.081 34.2653H196.847C197.209 33.6307 197.415 32.8987 197.415 32.1173C197.415 29.7147 195.467 27.768 193.065 27.768C192.547 27.768 192.051 27.8587 191.59 28.0253C191.001 24.6373 188.05 22.06 184.494 22.06C180.691 22.06 177.579 25.008 177.311 28.7413C176.705 28.4613 176.031 28.3053 175.321 28.3053C173.199 28.3053 171.403 29.692 170.787 31.608C170.275 30.6893 169.294 30.0667 168.166 30.0667C166.509 30.0667 165.166 31.4093 165.166 33.0667C165.166 33.4933 165.257 33.9 165.418 34.268C163.698 34.304 162.314 35.708 162.314 37.436C162.314 39.188 163.734 40.608 165.485 40.608H197.081C198.831 40.608 200.253 39.188 200.253 37.436C200.253 35.684 198.831 34.2653 197.081 34.2653Z" fill="white"/>
<path d="M219.359 174.526H219.042C219.533 173.664 219.814 172.667 219.814 171.606C219.814 168.338 217.165 165.688 213.897 165.688C213.193 165.688 212.517 165.812 211.89 166.039C211.091 161.431 207.075 157.926 202.239 157.926C197.066 157.926 192.833 161.934 192.47 167.014C191.646 166.634 190.727 166.419 189.762 166.419C186.877 166.419 184.434 168.306 183.597 170.912C182.898 169.662 181.565 168.815 180.031 168.815C177.777 168.815 175.95 170.642 175.95 172.895C175.95 173.476 176.074 174.03 176.294 174.53C173.954 174.579 172.071 176.487 172.071 178.839C172.071 181.222 174.002 183.154 176.385 183.154H219.359C221.742 183.154 223.673 181.222 223.673 178.839C223.673 176.458 221.742 174.526 219.359 174.526Z" fill="white"/>
<path d="M60.195 39.4868C61.0516 40.8699 61.5926 42.4692 61.7176 44.184C61.9003 44.168 62.083 44.1586 62.2696 44.1586C65.7323 44.1586 68.539 46.9653 68.539 50.428C68.539 51.028 68.4536 51.6066 68.2963 52.156H68.6563C71.1803 52.156 73.227 54.2026 73.227 56.7266C73.227 59.252 71.1803 61.2973 68.6563 61.2973H38.2336C44.8713 53.3738 52.225 46.0705 60.195 39.4868Z" fill="white"/>
<path d="M152.904 267.042H152.544C152.701 266.493 152.786 265.913 152.786 265.313C152.786 261.85 149.98 259.043 146.517 259.043C146.33 259.043 146.148 259.054 145.965 259.07C145.573 253.693 141.09 249.451 135.613 249.451C130.769 249.451 126.701 252.767 125.554 257.254C124.613 256.769 123.546 256.493 122.414 256.493C118.792 256.493 115.825 259.302 115.573 262.861C114.789 262.065 113.698 261.57 112.492 261.57C110.104 261.57 108.168 263.505 108.168 265.893C108.168 266.291 108.226 266.675 108.328 267.042H107.365C104.841 267.042 102.794 269.087 102.794 271.613C102.794 274.137 104.841 276.182 107.365 276.182H152.904C155.428 276.182 157.474 274.137 157.474 271.613C157.474 269.087 155.428 267.042 152.904 267.042Z" fill="white"/>
<path d="M273.068 301.101H257.478C254.953 301.101 252.906 299.056 252.906 296.532C252.906 294.007 254.953 291.961 257.478 291.961H258.438C258.338 291.595 258.28 291.211 258.28 290.812C258.28 288.424 260.216 286.489 262.604 286.489C263.81 286.489 264.901 286.984 265.685 287.78C265.937 284.221 268.904 281.413 272.528 281.413C273.658 281.413 274.725 281.688 275.665 282.173C276.813 277.688 280.881 274.371 285.725 274.371C289.804 274.371 293.331 276.723 295.028 280.144C288.354 287.769 281.003 294.786 273.068 301.101Z" fill="white"/>
<path fill-rule="evenodd" clip-rule="evenodd" d="M1.63263 192.862C4.38464 189.031 8.87894 186.536 13.9563 186.536C21.9563 186.536 28.5043 192.73 29.0763 200.585C29.3416 200.562 29.6109 200.548 29.8829 200.548C34.9403 200.548 39.0403 204.646 39.0403 209.705C39.0403 210.581 38.9136 211.426 38.6843 212.229H39.2109C42.8976 212.229 45.8869 215.218 45.8869 218.905C45.8869 222.592 42.8976 225.581 39.2109 225.581H9.6302C5.91905 215.112 3.21441 204.167 1.63263 192.862Z" fill="white"/>
<path d="M314.154 83.4936H263.468C259.782 83.4936 256.792 80.5043 256.792 76.8176C256.792 73.131 259.782 70.1416 263.468 70.1416H264.874C264.727 69.607 264.64 69.0456 264.64 68.463C264.64 64.975 267.468 62.1483 270.955 62.1483C272.719 62.1483 274.311 62.8723 275.456 64.0363C275.827 58.8376 280.158 54.735 285.451 54.735C287.103 54.735 288.66 55.1376 290.035 55.8456C290.283 54.877 290.624 53.9457 291.048 53.0618C299.847 62.271 307.611 72.4772 314.154 83.4936Z" fill="white"/>
</svg>
