<svg width="118" height="157" viewBox="0 0 118 157" fill="none" xmlns="http://www.w3.org/2000/svg">
<path d="M60.2344 25.808L53.474 46.4147L50.7604 58.68L54.9115 62.8947L60.0459 62.9787L66.1396 58.1627L65.4287 66.348L67.7084 68.0294L70.3917 67.1507L70.0088 62.692L74.8984 39.552L77.8489 27.1534L74.4896 26.544L69.6459 43.4307L65.8193 52.5813L59.7683 57.2173L56.2927 54.4907L58.0364 43.7027L63.764 25.6987L60.2344 25.808Z" fill="white"/>
<path d="M98.6208 33.4267L95.7292 36.9147L88.9869 34.928L85.4047 39.5853L86.7251 46.1654L91.0869 55.556L88.9115 66.4307L84.2265 71.3907L78.2432 70.5374L74.1312 64.432L76.2907 62.2894L81.1484 64.3947L84.2855 62.48L85.814 52.592L81.9573 45.4094L81.3031 36.8974L85.4828 29.728L90.1355 28.368L94.5797 29.6147L98.6208 33.4267Z" fill="white"/>
<path d="M101.347 60.0853L103.112 56.1387L109.069 42.3667L106.811 61.388L101.347 60.0853ZM112.555 34.6533L107.419 34.5694L99.3516 52.0173L91.9573 70.9533L90.9255 73.5547L95.7604 74.896L100.516 64.4453L106.565 65.8867L108.943 78.4147L113.985 77.1467L112.555 34.6533Z" fill="white"/>
<path d="M63.6771 79.6507L60.9115 108.149L85.5208 112.627L112.968 116.379L115.575 103.103L117.077 84.8893L64.9573 77.1067L63.6771 79.6507Z" fill="white"/>
<path d="M117.077 84.8893L64.9573 77.1067L63.8505 79.308L77.2708 81.1027L97.664 84.388L111.896 86.3693L116.921 86.7627L117.077 84.8893Z" fill="#FF4127"/>
<path d="M116.775 88.5587L107.993 87.6773L92.8688 85.604L77.2448 82.984L63.5052 81.4254L63.236 84.208L68.3255 84.7667L80.1703 86.1294L96.2969 88.7014L108.207 90.192L116.548 91.3014L116.775 88.5587Z" fill="#FF4127"/>
<path d="M116.383 93.308L100.964 91.2173L80.9964 88.408L66.7875 86.2627L63.0599 86.0067L62.8161 88.5227L73.9505 89.78L92.0817 92.736L109.049 95.196L116.136 96.288L116.383 93.308Z" fill="#FF4127"/>
<path d="M115.952 98.528L102.061 96.7413L81.3333 92.9107L68.764 91.42L62.5989 90.7667L62.3636 93.1893L73.6527 94.684L96.0183 98.5853L111.923 100.975L115.72 101.348L115.952 98.528Z" fill="#FF4127"/>
<path d="M115.513 103.411L104.844 102.012L90.3011 99.9027L78.1807 98.1467L66.8489 96.0893L62.138 95.5067L61.9047 97.9027L69.9817 99.512L89.6276 102.277L105.392 105.061L114.933 106.371L115.513 103.411Z" fill="#FF4127"/>
<path d="M114.433 108.913L89.1823 104.772L66.1224 101.1L61.664 100.384L61.3584 103.543L79.4131 106.16L98.0287 109.189L109.766 111.304L113.848 111.895L114.433 108.913Z" fill="#FF4127"/>
<path d="M109.473 113.324C109.231 113.288 96.7875 111.483 96.7875 111.483L75.2979 108.368L61.1328 105.865L60.9115 108.149L85.5208 112.627L112.968 116.379L113.492 113.707C111.7 113.54 109.61 113.343 109.473 113.324Z" fill="#FF4127"/>
<path d="M87.0531 80.4054L64.9573 77.1067L63.6771 79.6507L62.3636 93.1893L73.6527 94.684L84.8011 96.632L87.0531 80.4054Z" fill="#006DC1"/>
<path d="M68.2448 79.0307L67.3803 78.9627L67.2281 78.392L66.9323 78.9267L66.2109 78.8694L66.6875 79.3694L66.3412 79.9947L67.0323 79.736L67.6937 80.1267L67.5068 79.4307L68.2448 79.0307Z" fill="white"/>
<path d="M71.5677 79.512L70.7031 79.4453L70.5495 78.8747L70.2536 79.408L69.5323 79.352L70.0104 79.8507L69.664 80.4773L70.3541 80.22L71.0172 80.6093L70.8281 79.912L71.5677 79.512Z" fill="white"/>
<path d="M74.8906 79.9933L74.025 79.9253L73.8708 79.3573L73.5765 79.8907L72.8557 79.8333L73.3333 80.332L72.9844 80.96L73.6754 80.7L74.3385 81.0907L74.151 80.3933L74.8906 79.9933Z" fill="white"/>
<path d="M78.2125 80.476L77.3473 80.408L77.1937 79.8387L76.8995 80.372L76.1771 80.3147L76.6547 80.8133L76.3073 81.4414L76.9984 81.1827L77.6615 81.572L77.4729 80.8747L78.2125 80.476Z" fill="white"/>
<path d="M81.5339 80.9573L80.6703 80.8893L80.5172 80.3173L80.2213 80.8533L79.5 80.796L79.9765 81.2947L79.6303 81.9227L80.3213 81.6654L80.9844 82.0533L80.7959 81.3573L81.5339 80.9573Z" fill="white"/>
<path d="M84.8568 81.4387L83.9921 81.3707L83.8385 80.8027L83.5427 81.3347L82.8229 81.2787L83.3011 81.776L82.9531 82.4054L83.6432 82.1467L84.3063 82.5347L84.1188 81.8387L84.8568 81.4387Z" fill="white"/>
<path d="M69.6172 80.992L68.7526 80.9133L68.6057 80.344L68.3046 80.872L67.5833 80.808L68.0546 81.3133L67.7021 81.9374L68.3958 81.684L69.053 82.0813L68.874 81.3813L69.6172 80.992Z" fill="white"/>
<path d="M72.9323 81.5094L72.0693 81.4307L71.9219 80.8587L71.6208 81.392L70.8995 81.3267L71.3724 81.8307L71.0193 82.4533L71.7136 82.2L72.3708 82.5987L72.1901 81.8987L72.9323 81.5094Z" fill="white"/>
<path d="M76.25 82.0267L75.3864 81.9467L75.238 81.376L74.9391 81.9067L74.2177 81.844L74.6891 82.348L74.336 82.9707L75.0302 82.7173L75.6874 83.116L75.5068 82.416L76.25 82.0267Z" fill="white"/>
<path d="M79.5677 82.544L78.7031 82.4653L78.5563 81.896L78.2552 82.424L77.5339 82.3613L78.0068 82.864L77.6536 83.488L78.3464 83.236L79.0052 83.6347L78.8255 82.936L79.5677 82.544Z" fill="white"/>
<path d="M82.8844 83.06L82.0208 82.9813L81.874 82.412L81.5713 82.9414L80.8516 82.8773L81.3245 83.3813L80.9688 84.004L81.6631 83.7533L82.3213 84.148L82.1407 83.4493L82.8844 83.06Z" fill="white"/>
<path d="M67.814 82.336L66.9505 82.2573L66.8021 81.6867L66.5016 82.2187L65.7803 82.152L66.2516 82.656L65.8959 83.2787L66.5912 83.028L67.2484 83.428L67.0703 82.7253L67.814 82.336Z" fill="white"/>
<path d="M71.1292 82.8613L70.2656 82.7813L70.1188 82.2106L69.8177 82.7413L69.0964 82.6733L69.5677 83.18L69.2125 83.804L69.9079 83.5533L70.5651 83.9507L70.3855 83.252L71.1292 82.8613Z" fill="white"/>
<path d="M74.4453 83.384L73.5806 83.3053L73.4349 82.7333L73.1328 83.264L72.4131 83.1987L72.8828 83.7027L72.5303 84.3253L73.2229 84.0747L73.8803 84.472L73.7021 83.7733L74.4453 83.384Z" fill="white"/>
<path d="M77.762 83.908L76.8973 83.828L76.7527 83.256L76.4489 83.7867L75.7292 83.7227L76.1989 84.224L75.8453 84.8507L76.5391 84.5973L77.1969 84.9973L77.0172 84.2987L77.762 83.908Z" fill="white"/>
<path d="M81.0781 84.432L80.2136 84.352L80.0677 83.7813L79.7656 84.312L79.0443 84.244L79.514 84.7507L79.1615 85.3733L79.8557 85.12L80.5131 85.52L80.3333 84.82L81.0781 84.432Z" fill="white"/>
<path d="M84.3932 84.9533L83.5303 84.8747L83.3828 84.304L83.0817 84.8347L82.3604 84.7694L82.8317 85.272L82.4781 85.8947L83.1719 85.6453L83.8297 86.0427L83.6495 85.3427L84.3932 84.9533Z" fill="white"/>
<path d="M67.1719 85.3547L66.3084 85.264L66.1703 84.6907L65.862 85.2147L65.1417 85.1387L65.6057 85.6507L65.2432 86.268L65.9401 86.0294L66.5921 86.4347L66.4235 85.732L67.1719 85.3547Z" fill="white"/>
<path d="M70.4807 85.92L69.6188 85.8307L69.4792 85.2587L69.1693 85.784L68.4505 85.708L68.9151 86.22L68.5521 86.84L69.25 86.5947L69.9027 87.0027L69.7317 86.3014L70.4807 85.92Z" fill="white"/>
<path d="M73.7891 86.4893L72.9255 86.3987L72.7875 85.8253L72.4792 86.3533L71.7588 86.2773L72.2229 86.7853L71.8604 87.4067L72.5573 87.164L73.2109 87.572L73.0407 86.8694L73.7891 86.4893Z" fill="white"/>
<path d="M77.0989 87.0574L76.236 86.968L76.0964 86.3934L75.7875 86.9214L75.0677 86.8427L75.5323 87.3574L75.1693 87.9734L75.8672 87.732L76.5183 88.1387L76.3489 87.4374L77.0989 87.0574Z" fill="white"/>
<path d="M80.4062 87.6253L79.5426 87.5334L79.4046 86.9627L79.0973 87.4867L78.376 87.412L78.8412 87.9213L78.4781 88.54L79.1754 88.3027L79.8265 88.7067L79.6578 88.008L80.4062 87.6253Z" fill="white"/>
<path d="M83.7145 88.196L82.8527 88.1013L82.7145 87.5307L82.4047 88.0573L81.686 87.9787L82.1495 88.4907L81.7875 89.108L82.486 88.8653L83.1364 89.2747L82.9677 88.5747L83.7145 88.196Z" fill="white"/>
<path d="M69.2188 84.2054L68.3557 84.1267L68.2073 83.556L67.9063 84.088L67.1849 84.0213L67.6563 84.5267L67.3031 85.1493L67.9973 84.896L68.6563 85.2947L68.474 84.5947L69.2188 84.2054Z" fill="white"/>
<path d="M72.5355 84.72L71.6719 84.644L71.5235 84.072L71.224 84.6027L70.5027 84.54L70.9751 85.044L70.6208 85.6667L71.315 85.4133L71.974 85.8107L71.7917 85.112L72.5355 84.72Z" fill="white"/>
<path d="M75.8527 85.24L74.988 85.1614L74.8412 84.5894L74.5407 85.12L73.8193 85.0547L74.2917 85.5574L73.9391 86.184L74.6328 85.9307L75.2891 86.328L75.1093 85.6294L75.8527 85.24Z" fill="white"/>
<path d="M79.1703 85.756L78.3063 85.6773L78.1588 85.1067L77.8584 85.6374L77.1364 85.5747L77.6084 86.0773L77.2536 86.7014L77.9489 86.4507L78.6068 86.8453L78.4255 86.1453L79.1703 85.756Z" fill="white"/>
<path d="M82.4869 86.2734L81.6224 86.1947L81.4751 85.6227L81.1745 86.1534L80.4531 86.0907L80.9255 86.5947L80.5713 87.2187L81.2672 86.9654L81.9245 87.3627L81.7432 86.6627L82.4869 86.2734Z" fill="white"/>
<path d="M66.7693 88.4547L65.9079 88.364L65.7693 87.7893L65.4593 88.3173L64.7396 88.2427L65.2041 88.7533L64.8412 89.3707L65.5391 89.132L66.1901 89.5374L66.0208 88.8347L66.7693 88.4547Z" fill="white"/>
<path d="M70.0797 89.0227L69.2161 88.9334L69.0765 88.36L68.7693 88.8867L68.0479 88.8107L68.5131 89.3213L68.1494 89.9387L68.8473 89.696L69.5 90.1053L69.3306 89.4027L70.0797 89.0227Z" fill="white"/>
<path d="M73.388 89.5893L72.5251 89.5014L72.3864 88.9253L72.0781 89.452L71.3584 89.376L71.8213 89.8867L71.4593 90.5093L72.1563 90.2667L72.8084 90.6733L72.638 89.9733L73.388 89.5893Z" fill="white"/>
<path d="M76.6969 90.16L75.8333 90.0667L75.6953 89.4934L75.3864 90.0227L74.6667 89.944L75.1303 90.4574L74.7672 91.0747L75.4645 90.832L76.1172 91.2414L75.9479 90.5374L76.6969 90.16Z" fill="white"/>
<path d="M80.0052 90.7253L79.1432 90.6373L79.0036 90.064L78.6953 90.5893L77.9751 90.5147L78.4391 91.0227L78.0755 91.6413L78.7751 91.4L79.4255 91.808L79.2568 91.1053L80.0052 90.7253Z" fill="white"/>
<path d="M83.3125 91.296L82.4505 91.204L82.3125 90.632L82.0036 91.1573L81.2823 91.0827L81.7484 91.5893L81.3855 92.2093L82.0817 91.9707L82.7344 92.376L82.564 91.676L83.3125 91.296Z" fill="white"/>
<path d="M68.8161 87.3054L67.9531 87.2267L67.8047 86.6547L67.5052 87.188L66.7839 87.1227L67.2552 87.6254L66.9027 88.2507L67.5964 88L68.2552 88.3974L68.0745 87.696L68.8161 87.3054Z" fill="white"/>
<path d="M72.1344 87.8227L71.2693 87.7453L71.1224 87.1747L70.8213 87.7054L70.1005 87.64L70.5729 88.1453L70.2197 88.7667L70.9131 88.5173L71.5713 88.9133L71.3896 88.2107L72.1344 87.8227Z" fill="white"/>
<path d="M75.4521 88.3387L74.586 88.2627L74.4391 87.6933L74.1396 88.2213L73.4183 88.156L73.8896 88.66L73.5364 89.2853L74.2307 89.032L74.8896 89.428L74.7084 88.7307L75.4521 88.3387Z" fill="white"/>
<path d="M78.7682 88.856L77.9036 88.78L77.7568 88.208L77.4557 88.7387L76.7344 88.6733L77.2073 89.1813L76.8526 89.804L77.5469 89.5507L78.2057 89.944L78.025 89.2493L78.7682 88.856Z" fill="white"/>
<path d="M82.0849 89.3734L81.2213 89.296L81.0729 88.7254L80.7724 89.2534L80.0521 89.192L80.5235 89.6947L80.1703 90.3187L80.8645 90.0667L81.5224 90.4654L81.3412 89.764L82.0849 89.3734Z" fill="white"/>
<path d="M66.2005 91.3893L65.3385 91.2987L65.1989 90.7253L64.8917 91.252L64.1703 91.176L64.6364 91.6867L64.2724 92.304L64.9697 92.0613L65.6224 92.4707L65.4531 91.7667L66.2005 91.3893Z" fill="white"/>
<path d="M69.5088 91.9573L68.6473 91.8653L68.5079 91.2933L68.2005 91.816L67.4807 91.744L67.9437 92.252L67.5807 92.8733L68.2787 92.632L68.9307 93.0373L68.7604 92.3373L69.5088 91.9573Z" fill="white"/>
<path d="M72.8193 92.5253L71.9557 92.4334L71.8177 91.8614L71.5088 92.3867L70.7875 92.3107L71.2536 92.8213L70.8907 93.4387L71.5869 93.196L72.2396 93.6053L72.0693 92.9027L72.8193 92.5253Z" fill="white"/>
<path d="M76.1276 93.092L75.264 93.0014L75.126 92.428L74.8177 92.9547L74.0964 92.8787L74.5615 93.3893L74.1989 94.0067L74.8959 93.764L75.5479 94.1733L75.3776 93.4733L76.1276 93.092Z" fill="white"/>
<path d="M79.436 93.66L78.5729 93.5693L78.4349 92.996L78.126 93.52L77.4062 93.4467L77.8697 93.96L77.5079 94.5774L78.2057 94.3347L78.8568 94.744L78.6875 94.04L79.436 93.66Z" fill="white"/>
<path d="M82.7448 94.228L81.8812 94.1373L81.7432 93.564L81.4349 94.0893L80.7145 94.0174L81.1797 94.5253L80.8161 95.144L81.5131 94.9027L82.1667 95.308L81.9948 94.608L82.7448 94.228Z" fill="white"/>
<path d="M68.2473 90.2387L67.3844 90.1627L67.2369 89.5893L66.936 90.1213L66.2145 90.056L66.686 90.5587L66.3333 91.1867L67.0271 90.9333L67.686 91.3293L67.5052 90.632L68.2473 90.2387Z" fill="white"/>
<path d="M71.5651 90.756L70.7021 90.676L70.5531 90.108L70.2527 90.64L69.5312 90.5774L70.0036 91.0774L69.6495 91.6987L70.3437 91.4494L71.0027 91.848L70.8213 91.1467L71.5651 90.756Z" fill="white"/>
<path d="M74.8828 91.272L74.0183 91.1947L73.8697 90.6267L73.5693 91.1547L72.8473 91.0894L73.3213 91.5947L72.9677 92.22L73.6615 91.968L74.3203 92.3627L74.1396 91.6654L74.8828 91.272Z" fill="white"/>
<path d="M78.1989 91.7907L77.3349 91.712L77.1874 91.1413L76.888 91.6733L76.165 91.608L76.6364 92.1133L76.2854 92.736L76.9781 92.4827L77.6364 92.8813L77.4557 92.1813L78.1989 91.7907Z" fill="white"/>
<path d="M81.5156 92.308L80.6527 92.2307L80.5052 91.66L80.2041 92.1894L79.4828 92.124L79.9541 92.6294L79.6016 93.2534L80.2959 93.0014L80.9531 93.3974L80.7724 92.6987L81.5156 92.308Z" fill="white"/>
<path d="M35.7588 42.6587L43.1396 39.272L44.8568 38.0867L44.8516 37.284L41.6511 38.296L35.6797 40.4373L35.7588 42.6587Z" fill="#075A62"/>
<path d="M33.6251 38.0453L37.9151 33.9414L41.7855 31.568L42.0364 32.1187L38.9688 34.612L34.6188 38.8414L33.6251 38.0453Z" fill="#075A62"/>
<path d="M29.7307 37.0253L32.4557 30.0907L34.2854 27.0547L35.336 27.2947L33.8948 32.7987L31.9573 37.6267L29.7307 37.0253Z" fill="#075A62"/>
<path d="M25.3527 37.6747C25.3505 37.4307 23.3995 32.2574 23.3995 32.2574L22.4984 27.264L23.2995 27.012L24.4964 30.1507L26.1344 34.9534L26.7724 37.48L25.3527 37.6747Z" fill="#075A62"/>
<path d="M22.7708 38.988L19.7839 35.6787L16.1755 31.8173L14.9964 30.9613L14.4469 31.584L17.1917 35.6973L20.6145 39.624L21.7307 40.3573L22.7708 38.988Z" fill="#075A62"/>
<path d="M19.7719 42.4667L13.8917 40.2267L9.50159 39.024L9.25879 39.5214L14.526 42.5054L19.0459 44.3867L19.7719 42.4667Z" fill="#075A62"/>
<path d="M23.6563 54.0147L23.3636 56.7974L25.8317 60.2094L28.5364 60.9667L30.724 60.4974L31.4453 56.028L23.6563 54.0147Z" fill="#147D7F"/>
<path d="M23.5547 54.9813L26.1839 56.648L29.5833 58.6947L31.0172 58.6827L31.4453 56.028L23.6563 54.0147L23.5547 54.9813Z" fill="#075A62"/>
<path d="M21.4151 47.8867L21.874 51.2773L23.0661 53.9227L25.1755 55.3867L31.112 57.012L32.9505 55.2707L33.7855 51.128L34.4427 48.4067L34.7317 45.692L34.4088 43.8414L28.5355 42.28L25.2751 43.848L21.4151 47.8867Z" fill="#62CCBA"/>
<path d="M26.6145 55.7813L26.4088 55.38L25.0912 52.4267L24.0172 48.9787L23.7751 45.4187L21.4151 47.8867L21.874 51.2773L23.0661 53.9227L25.1755 55.3867L26.6145 55.7813Z" fill="#38AD97"/>
<path d="M32.0869 55.5227L30.7927 55.7787L28.1989 55.3054L25.2307 54.524L22.7041 53.12L23.0661 53.9227L25.1755 55.3867L31.112 57.012L32.9505 55.2707L32.9557 55.2387L32.0869 55.5227Z" fill="#147D7F"/>
<path d="M26.1041 47.5414L27.2084 46.6107L28.6276 46.6L29.4984 47.5787L27.4625 47.5347L26.2292 47.7293L26.1041 47.5414Z" fill="#147D7F"/>
<path d="M31.4099 47.3187L32.3917 46.572L34.0615 46.9907L33.6979 47.98L32.2136 47.56L31.4099 47.3187Z" fill="#147D7F"/>
<path d="M29.5193 50.3574L30.5052 50.1654L31.3724 50.528L31.3125 50.836L29.4594 50.7267L29.5193 50.3574Z" fill="#147D7F"/>
<path d="M28.6745 52.956L30.1527 52.5133L30.8317 52.444L31.8203 52.808L31.7604 53.1773L30.1547 52.944L28.6745 52.956Z" fill="#147D7F"/>
<path d="M28.8636 53.264L30.0375 53.8094L31.2724 53.6133L31.7021 53.492L31.6448 53.736L30.7177 53.9893L29.7943 54.0573L28.8636 53.264Z" fill="#147D7F"/>
<path d="M31.112 57.012L32.9505 55.2707L33.7855 51.128L34.4427 48.4067L34.7317 45.692L34.4088 43.8414L33.9792 43.728L34.0511 45.572L33.7631 48.2893L32.8063 52.4307L32.2672 54.7787L30.9271 56.96L31.112 57.012Z" fill="#38AD97"/>
<path d="M29.6527 43.136L28.5521 44.6867L26.3995 45.8734L23.6328 47.0667L22.1588 47.8813L21.0599 49.6787L19.6901 48.1467L18.6224 45.5614L23.8265 40.0907L29.1901 39.1907L35.9307 41.2374L35.7057 44.0773L35.1041 46.0587L32.1953 45.092L30.3333 43.44L29.6527 43.136Z" fill="#38AD97"/>
<path d="M35.1041 46.0587L35.2787 45.48L34.5407 44.9494L32.5599 44.2867L31.3177 43.124L29.9541 42.4534L29.0323 42.832L27.4349 44.016L25.4688 45.264L23.012 46.5174L21.474 47.4534L20.6875 49.264L21.0599 49.6787L22.1588 47.8813L23.6328 47.0667L26.3995 45.8734L28.5521 44.6867L29.6527 43.136L30.3333 43.44L32.1953 45.092L35.1041 46.0587Z" fill="#147D7F"/>
<path d="M18.8151 46.5493L21.936 43.008L24.3281 41.076L28.8265 39.9947L32.2251 40.5853L35.8803 42.472L36.7907 40.4294L34.3031 37.9787L29.6651 36.6534L25.3464 36.9347L22.2735 38.6227L19.3369 42.1L17.936 44.5173L18.8151 46.5493Z" fill="#075A62"/>
<path d="M29.6651 36.6533L25.3464 36.9347L22.2735 38.6227L19.3369 42.1L17.936 44.5173L18.0156 44.7027L20.3213 41.6014L22.7708 38.988L25.9079 37.608L28.8688 37.4014L31.4036 37.8773L34.25 39.0907L35.8636 40.1894L36.5713 40.92L36.7907 40.4294L34.3031 37.9787L29.6651 36.6533Z" fill="#38AD97"/>
<path d="M33.1172 38.812L32.5938 40.3773L32.8812 40.4573L33.488 39.0147L33.1172 38.812Z" fill="#38AD97"/>
<path d="M33.7771 39.0933L33.2536 40.6613L33.7093 41.028L34.3568 39.5014L33.7771 39.0933Z" fill="#38AD97"/>
<path d="M34.7708 39.8267L34.2855 41.1054L34.5755 41.268L35.1407 39.9054L34.7708 39.8267Z" fill="#38AD97"/>
<path d="M31.3453 38.2467L31.0271 39.9374L31.4807 40.016L31.8803 38.3654L31.3453 38.2467Z" fill="#38AD97"/>
<path d="M32.2084 38.4867L31.8099 40.136L32.0973 40.1333L32.5807 38.6493L32.2084 38.4867Z" fill="#38AD97"/>
<path d="M30.8073 38.004L30.5729 39.6947L29.9964 39.5307L30.1891 37.9253L30.8073 38.004Z" fill="#38AD97"/>
<path d="M29.4063 37.7694L29.2136 39.6213L28.638 39.5853L28.5 37.6094L29.4063 37.7694Z" fill="#38AD97"/>
<path d="M27.9255 37.7786L28.0625 39.6293L27.4469 39.7973L27.1432 37.704L27.9255 37.7786Z" fill="#38AD97"/>
<path d="M26.362 37.872L26.75 40.0907L26.1745 40.2627L25.7073 38.0853L26.362 37.872Z" fill="#38AD97"/>
<path d="M24.8864 38.3773L25.3917 40.2654L24.9417 40.3947L24.4751 38.5467L24.8864 38.3773Z" fill="#38AD97"/>
<path d="M24.0235 38.6707L24.5713 40.5173L24.0375 40.7293L23.4079 38.924L24.0235 38.6707Z" fill="#38AD97"/>
<path d="M22.4688 39.9174L23.4255 41.4334L22.8932 41.724L21.9781 40.2907L22.4688 39.9174Z" fill="#38AD97"/>
<path d="M21.0407 41.3253L21.9964 42.6387L21.5052 42.9294L20.6719 41.78L21.0407 41.3253Z" fill="#38AD97"/>
<path d="M26.4088 55.38L26.1328 54.7614L25.2307 54.524L22.7041 53.12L23.0661 53.9227L25.1755 55.3867L26.6145 55.7813L26.4088 55.38Z" fill="#075A62"/>
<path d="M32.0869 55.5227L31.7735 55.5827L30.9271 56.9587L31.112 57.012L32.9505 55.2707L32.9557 55.2387L32.0869 55.5227Z" fill="#075A62"/>
<path d="M41.8688 71.5014L44.4521 74.8667L47.7672 77.9507L43.6136 85.0227L42.0208 79.9147L41.2396 73.1533L41.8688 71.5014Z" fill="#38AD97"/>
<path d="M43.3151 81.7974L45.0953 77.4173L46.4713 74.196L46.8803 73.6974L47.2875 73.2014L49.512 73.2667L53.8073 74.7213L58.8473 76.824L58.0355 78.5574L58.4531 79.2974L55.2197 87.64L51.0703 94.5867L50.4131 94.9254L48.2631 93.868L43.3855 91.3533L43.3151 81.7974Z" fill="#8FEADD"/>
<path d="M58.4531 79.2974L58.0355 78.5574L58.8473 76.824L58.0797 76.5014L57.4541 78.068L57.7084 78.6414L57.5495 79.6334L56.0131 83.5147L53.3385 89.4654L51.0599 93.356L49.7464 93.7774L45.3636 91.4987L43.3776 90.4107L43.3855 91.3533L48.2631 93.868L50.4131 94.9254L51.0703 94.5867L55.2197 87.64L58.4531 79.2974Z" fill="#38AD97"/>
<path d="M53.7307 86.7827L55.6407 86.0907L56.6953 86.7627L57.6312 88.1173L57.3255 88.3667L55.8385 87.76L53.7969 87.3413L53.7307 86.7827Z" fill="#62CCBA"/>
<path d="M56.6172 84.356L54.9469 84.3067L53.7188 85.1173L53.7229 85.7974L55.3932 85.972L56.8776 86.328L57.5 86.82L58.2369 86.2573L58.414 85.2694L56.6172 84.356Z" fill="#62CCBA"/>
<path d="M56.9729 82.4374L54.874 82.6387L54.4469 83.32L54.9453 83.9347L57.2917 83.9187L58.5953 84.584L58.8984 83.9054L57.4079 82.62L56.9729 82.4374Z" fill="#62CCBA"/>
<path d="M56.9573 80.2747L56.4677 80.8973L57.527 82.1867L58.7084 83.2893L59.3854 82.7893L58.3193 80.8187L56.9573 80.2747Z" fill="#62CCBA"/>
<path d="M6.39587 153.783L6.76561 149.116L11.8973 148.804L17.6989 148.077L28.5131 149.095L43.3708 149.121L49.7281 150.308L50.0224 153.597L50.0407 156.069L34.3697 155.772L19.512 155.611L6.39587 153.783Z" fill="#38AD97"/>
<path d="M34.3697 155.772L50.0407 156.069L50.0224 153.597L49.8245 151.395L45.1495 152.127L39.6104 152.168L28.8031 151.971L16.236 151.105L9.48174 150.879L6.73441 149.515L6.39587 153.783L19.512 155.611L34.3697 155.772Z" fill="#147D7F"/>
<path d="M43.2369 152.14L43.0989 155.939L48.5479 156.04L48.6057 151.585L45.0677 152.127L43.2369 152.14Z" fill="#075A62"/>
<path d="M12.0937 47.1694L15.626 49.9587L20.2421 53.28L21.3307 54.4427L22.2197 55.8067L23.5755 56.4133L25.8265 59.4133L29.1406 60.28L30.4869 59.7227L30.814 58.2107L33.3792 58.056L33.7093 57.1614L34.9234 56.808L37.4297 57.7493L40.2213 60.816L42.3984 62.996L42.3046 65.4654L42.9729 70.492L42 72.964L42.8213 74.6067L44.9806 86.4747L46.7907 99.8107L47.1797 103.741L48.9792 115.889L50.1719 118.988L48.836 120.827L48.2109 121.655L48.4729 132.717L48.4349 139.851L48.5849 147.712L48.3369 151.097L46.5355 150.837L44.1026 150.761L41.9417 150.777C41.9417 150.777 38.4254 150.168 38.1546 150.168C37.8854 150.168 26.7213 150.34 26.7213 150.34L23.9245 149.72L18.3412 149.583L14.736 149.059L10.4219 150.277L9.06772 149.832L10.3177 148.085L12.6417 145.965L14.4973 141.105L15.6005 132.137C15.6005 132.137 15.8489 129.119 15.8464 128.752C15.8437 128.387 16.262 123.717 16.262 123.717L14.4255 119.253L14.2109 114.316L14.4677 112.577L15.3516 110.376L15.2213 104.799L13.9932 97.2174L13.986 96.1213L12.5323 94.3974L11.8803 91.4747L12.2265 89.4627L14.0172 88.076L13.086 83.968L12.1547 80.0427L10.7057 78.864L9.51825 76.4054L10.3959 73.3813L9.66398 71.7414L7.31505 70.9334L4.77599 68.3014L3.85412 65.5654L3.03025 63.56L2.57025 62.2813L7.76039 57.948L11.1969 47.4974L12.0937 47.1694Z" fill="#62CCBA"/>
<path d="M36.3604 143.231L36.2943 146.613L36.0312 148.171L36.9479 148.345L37.0068 144.141L36.3604 143.231Z" fill="#147D7F"/>
<path d="M40.8948 138.077L40.6473 141.736L39.764 146.04L39.5079 148.509L40.1484 148.416L40.6735 145.301L41.3812 142.371L41.4505 139.077L41.5271 137.157L40.8948 138.077Z" fill="#147D7F"/>
<path d="M39.0912 141.473L38.4661 143.488L38.3932 146.051L38.2265 148.247L38.5921 148.244L39.0224 144.673L39.4645 142.657L39.7229 140.371L39.0912 141.473Z" fill="#147D7F"/>
<path d="M32.8385 136.764L32.1328 140.247L31.9781 143.993L31.8084 145.916L31.7213 146.463L32.362 146.457L32.6057 142.253L34.0183 135.567L32.8385 136.764Z" fill="#147D7F"/>
<path d="M23.5156 149.723L23.8917 149.808L24.7724 146.332L25.9307 142.485L24.5625 142.861L24.0312 145.241L23.8724 148.353L23.4818 149.723H23.5156Z" fill="#147D7F"/>
<path d="M28.4307 146.673L29.4099 143.097L29.4677 138.436L28.2855 139.359L28.1292 142.925L27.514 146.311L26.4792 150.345C26.6251 150.34 26.8907 150.335 27.2412 150.329L28.4307 146.673Z" fill="#147D7F"/>
<path d="M30.1849 150.285L30.638 148.301L31.3412 144.548L32.0172 136.861L31.2875 137.321L30.8636 141.717L30.5251 145.376L29.5531 150.048L29.5079 150.296C29.7281 150.293 29.9541 150.288 30.1849 150.285Z" fill="#147D7F"/>
<path d="M33.4896 150.236C33.8099 150.231 34.124 150.225 34.4271 150.22L34.9099 144.701L36.1344 137.105L35.7516 134.821L34.2927 135.564L34.3193 139.129L33.8115 144.712L33.4896 150.236Z" fill="#147D7F"/>
<path d="M48.3541 120.556L43.7073 122.603L39.4375 126.475L37.5531 131.332L36.7516 134.359L36.7812 138.196L36.262 142.316L36.9099 143.225L38.8099 140.561L40.7084 137.529L42.9625 133.304L44.3021 128.819L45.5765 128.351L44.9697 132.649L44.9287 139.419L44.064 146.283L43.9375 150.761H44.0068L44.8281 150.785L44.7995 147.007L45.8557 141.241L46.0052 136.759L45.8864 132.92L46.9807 132.637L47.0797 133.641L46.7604 140.043L46.4255 144.163L45.7073 150.813L46.2552 150.832L46.7109 145.804L47.3245 141.96L47.5547 136.108L47.626 133.363L48.4437 133.103L48.4453 132.717L48.1807 121.655L48.5797 121.135L48.3541 120.556Z" fill="#147D7F"/>
<path d="M4.97817 7.30672L3.90363 10.8667L3.99123 14.1707L5.47923 16.9761L7.50363 17.5721L8.9099 17.56L10.9751 15.4654L11.736 10.6254L11.1703 8.67205L11.9593 7.62404L10.1875 8.00539L10.2656 10.3907L9.47817 11.5014L8.48443 9.36538L8.58497 6.60939L9.2959 3.36004L7.69377 1.96405L7.7031 3.18937L7.59897 5.57736L6.32817 7.66538L5.6027 8.95604L5.70843 6.50806L4.47403 5.35604L3.8031 5.54272L4.85057 6.32938L4.97817 7.30672Z" fill="#FFE36C"/>
<path d="M4.00786 8.33468L3.68492 9.62801L3.60932 10.868L2.97919 9.84933L3.42452 8.17602L3.91665 7.256L4.00786 8.33468Z" fill="#FFE36C"/>
<path d="M7.93604 1.65735L9.22817 2.56403L8.7891 1.04004L7.37604 0.498695L7.93604 1.65735Z" fill="#FFE36C"/>
<path d="M7.83068 12.1214L7.51041 10.2894L7.55215 7.53472L6.28388 9.86938L5.31255 10.9787L4.93601 9.69604L4.70215 11.2254L5.82295 13.8494L6.63281 15.8654L6.85521 17.3827L7.50361 17.5721L8.27508 17.5654C8.36721 16.8427 8.61201 15.3867 8.70935 15.2374C8.83068 15.0534 10.5912 12.8987 10.5912 12.8987L10.7631 11.6707L8.99481 12.4187L7.83068 12.1214Z" fill="#FFBF4D"/>
<path d="M9.25519 65.228L11.6599 61.78L13.2536 57.9987L13.4751 51.4813L13.1901 48.0347L12.0937 47.1693L11.1969 47.4973L7.76039 57.948L2.57025 62.2813L3.03025 63.56L3.85412 65.5653L4.77599 68.3013L5.85158 69.416L8.19372 67.9093L9.25519 65.228Z" fill="#38AD97"/>
<path d="M16.526 53.1053L16.3099 51.048L15.9697 50.8467L16.0427 51.532L16.4817 56.26L16.374 59.692L15.2578 64.2227L12.6693 70.416L11.0016 73.1027L10.3464 73.552L9.51825 76.4053L10.7057 78.864L12.1417 80.0307L13.4036 78.2973L15.3995 74.1653L16.3193 70.6627L17.5036 66.608L17.6703 61.736L17.5052 57.6227L16.526 53.1053Z" fill="#38AD97"/>
<path d="M13.1328 59.9213L12.3369 61.776L11.1364 63.9107L9.80107 65.9094L8.8708 68.2493L8.0036 69.42L9.07974 68.864L10.6145 66.5227L12.0131 63.6987L13.2109 61.4267L13.6631 58.612L13.1328 59.9213Z" fill="#38AD97"/>
<path d="M14.0817 51.0653L14.3724 53.876L14.388 56.2067L14.5287 56.8227L14.9339 56.82L15.0459 53.8027L14.624 51.6107L14.2109 50.3093L14.0817 51.0653Z" fill="#38AD97"/>
<path d="M16.3203 61.8147L15.7344 64.7694L14.4063 67.796L13.0183 71.9187L11.4828 74.2654L10.6771 74.8867L10.8864 75.7094L12.9557 72.6067L14.6156 68.48L15.5427 66.0734L16.4063 64.1467L16.8473 60.0294L16.3203 61.8147Z" fill="#147D7F"/>
<path d="M6.95413 70.5587L7.91827 67.0907L8.77347 63.8627L9.70307 61.796L9.43227 61.7294L8.6292 62.9014L7.70213 65.24L6.90787 67.644L5.888 69.4533L6.95413 70.5587Z" fill="#8FEADD"/>
<path d="M30.6926 78.3067L34.7656 71.9667L35.4806 68.1227L36.3084 61.464L37.1057 57.6294L34.9234 56.808L33.7093 57.1614L33.3792 58.056L33.3349 58.0587L33.4573 59.4267L32.8688 61.8987L30.3385 66.9934L23.0661 78.9107L18.2464 84.7773L14.4193 87.8907L13.9912 87.9667L14.0172 88.076L12.2265 89.4627L11.8802 91.4747L12.5322 94.3974L13.986 96.1213V96.1627L14.6806 95.9134L17.974 93.692L23.3516 90.2254L25.5573 87.1227L30.6926 78.3067Z" fill="#8FEADD"/>
<path d="M18.2907 63.1053L18.2473 66.6013L17.9339 70.0347L16.2197 75.668L14.9697 80.1373L14.3959 84.804L15.0755 85.2787L15.5208 81.504L16.3688 77.3813L17.6885 73.3267L18.7369 68.9987L18.9099 64.952L18.4844 62.0053L18.2907 63.1053Z" fill="#38AD97"/>
<path d="M20.0901 57.056L21.3437 59.6547L22.8803 63.4827L23.8656 67.04L25.8125 70.4547L26.5016 71L27.1823 70.24L25.3855 68.196L24.4099 66.352L23.1495 62.7947L22.1027 60.332L20.987 57.7347L20.0901 57.056Z" fill="#38AD97"/>
<path d="M24.0172 59.7027L24.486 60.2907L24.988 60.9294L27.1208 61.8054L29.25 62.268L30.6807 61.2294L31.7672 59.7813L33.0599 58.4014L32.862 59.2254L31.6364 60.6747L30.6197 62.1907L29.3907 62.8867L27.4688 62.488L25.6093 61.5414L24.3697 60.728L24.0172 59.7027Z" fill="#147D7F"/>
<path d="M25.2708 62.16L26.7907 63.5213L28.5088 64.2627L30.1547 64.3213L31.2527 64.1067L30.6396 64.6573L29.2693 64.944L27.4828 64.4094L26.5183 63.728L25.4115 62.64L25.2708 62.16Z" fill="#147D7F"/>
<path d="M22.6303 57.5173L23.2568 58.6787L23.0531 59.092L21.8724 57.0427L22.6303 57.5173Z" fill="#147D7F"/>
<path d="M21.7812 72.4734L20.5131 77.216L20.3995 80.5067L20.876 80.024L21.1937 76.7293L22.2005 73.636L22.3203 71.236L21.7812 72.4734Z" fill="#38AD97"/>
<path d="M36.3959 57.3627L35.4375 62.3627L34.2093 69.8453L32.0797 74.2493L26.4063 83.344L23.6027 87.752L20.7229 90.7227L17.2281 93.2853L13.6432 95.7147L13.986 96.1213V96.1627L14.6807 95.9134L17.974 93.692L23.3516 90.2254L25.5573 87.1227L30.6927 78.3067L34.7656 71.9667L35.4807 68.1227L36.3084 61.464L37.1057 57.6294L36.3959 57.3627Z" fill="#38AD97"/>
<path d="M20.8084 89.42L21.7516 87.0827L22.276 83.9907L22.6703 81.588L23.9521 78.5627L25.1651 75.8094L25.7161 76.0787L24.164 79.3813L23.224 82.1334C23.224 82.1334 23.1005 84.1214 23.1027 84.328C23.1027 84.532 22.3688 87.212 22.3688 87.212L20.8084 89.42Z" fill="#38AD97"/>
<path d="M23.2536 86.2467L24.4541 81.644L26.2787 77.928L28.7188 74.0014L30.4063 70.216L31.6745 65.6107L32.0713 63.8947L32.4115 63.4094L31.8177 66.5014L30.7484 70.3507L29.1292 73.8614L27.5036 76.8227L25.5391 80.0587L24.6651 82.532L23.2536 86.2467Z" fill="#38AD97"/>
<path d="M14.5615 88.78L16.5172 88.148L18.1937 86.9707L19.1292 85.5907L18.3896 85.8027L17.0495 87.1827L14.5615 88.78Z" fill="#147D7F"/>
<path d="M34.0953 59.1467L33.5817 63.952L32.9182 66.9067L31.9099 69.7253L32.0495 70.0667L32.8593 68.2787L34.1953 63.4667L34.7771 58.5933L34.0953 59.1467Z" fill="#38AD97"/>
<path d="M19.9098 90.5947L21.2448 88.4573L21.9625 84.7467L21.6849 84.132L20.0088 85.7213L17.3265 88.416L14.164 89.8787L12.026 90.6213L11.8802 91.4747L12.5322 94.3973L13.3114 95.3187L15.5442 93.916L19.9098 90.5947Z" fill="#38AD97"/>
<path d="M12.5235 94.356L16.9489 92.124L18.8864 89.2987L20.3604 87.64L19.6875 87.8493L16.736 90.5454L14.1839 92.4853L12.2812 93.2667L12.5235 94.356Z" fill="#147D7F"/>
<path d="M48.2109 121.655L48.836 120.827L50.1719 118.988L48.9792 115.889L47.1798 103.741L46.7907 99.8107L44.9807 86.4747L44.4088 83.3334L42.9964 79.86L41.3792 80.5573L42.4807 83.4307L43.8584 86.852L42.414 92.6187L40.814 95.376L40.1755 100.455L39.1312 105.261L34.4417 110.509L28.814 116.587L23.3031 120.327L19.5355 122.416L16.1156 123.365L16.262 123.717C16.262 123.717 15.8437 128.387 15.8464 128.752C15.8489 129.119 15.6005 132.137 15.6005 132.137L14.4974 141.105L12.6417 145.965L10.3177 148.085L9.06775 149.832L10.4219 150.277L14.736 149.059L15.487 149.168L19.1745 146.695L20.5068 144.215L27.6547 142.652L28.5885 141.001L30.4609 138.655L38.6667 133.931L39.4401 128.851L46.6839 122.077L48.2109 121.655Z" fill="#38AD97"/>
<path d="M34.5427 57.7493L36.3724 58.1014L38.7693 60.644L38.7803 62.0173L35.1969 59.5747L34.2735 58.4827L34.5427 57.7493Z" fill="#8FEADD"/>
<path d="M14.6276 122.176L16.2328 120.155L18.4584 116.663L22.1208 112.701L22.0364 113.433L19.2672 116.473L17.5713 118.592L16.6917 121.064L14.8995 122.543L14.6276 122.176Z" fill="#38AD97"/>
<path d="M16.6084 121.98L18.5729 119.863L19.5479 118.025L20.7188 117.925L20.276 118.753L19.2031 119.861L18.1292 120.965L16.6093 122.345L16.6084 121.98Z" fill="#38AD97"/>
<path d="M14.1547 119.253L15.7464 115.035L21.6473 109.597L27.8063 102.147L31.8047 94.804L34.2136 79.6067L34.1703 73.4773L33.8437 78.328L32.8161 85.468L31.4427 94.6213L27.8812 100.137L22.0833 107.491L19.3115 110.163L15.9088 112.931L13.6901 117.249L14.1547 119.253Z" fill="#38AD97"/>
<path d="M13.9183 111.392L16.4287 110.092L20.2708 105.952L24.9151 100.799L28.4807 95.6493L29.7031 90.7013L28.0183 94.0973L25.4375 98.504L22.138 102.739L17.488 107.163L13.0088 110.304L13.9183 111.392Z" fill="#38AD97"/>
<path d="M30.5885 79.4493L30.2473 83.1094L28.6448 88.8813L26.3828 91.9187L26.374 90.8187L28.8031 85.5907L30.0427 80.0933L30.5885 79.4493Z" fill="#8FEADD"/>
<path d="M39.1536 63.1107L38.4973 73.356L38.0417 85.9773L37.9297 95.58L35.9636 101.537L32.1041 111.532L35.2787 108.217L38.2735 104.811L39.9375 94.9253L39.7516 82.1253L39.7672 71.884L39.8751 61.6414L39.1536 63.1107Z" fill="#38AD97"/>
<path d="M34.4417 110.509L28.814 116.587L23.3031 120.327L19.5354 122.416L18.4984 122.704L17.2516 124.077L16.725 126.001L18.1745 127.089L18.186 128.551L16.2229 130.761L16.0531 132.311L20.2693 130.181L21.3541 130.813L21.3776 134.017L20.1448 137.863L18.4636 141.717L17.1344 144.741L15.8812 145.759L14.5406 146.96L17.775 145.931L18.836 143.455L20.4323 140.241L22.2812 134.373L22.9713 130.16L26.0104 127.212L27.7979 125.371L25.4453 136.087L22.7812 141.045L20.4541 143.075L20.5469 143.529L24.2229 141.217L25.6354 137.46L27.8401 131.037L29.5 124.353L30.4427 117.856L32.9437 115.001L35.1703 111.6L35.6458 109.163L34.4417 110.509Z" fill="#147D7F"/>
<path d="M25.736 140.931L29.5521 137.611L31.9036 133.936L35.4437 130.433L37.2579 128.411L37.4469 129.233L34.8193 132.723L32.1839 134.848L31.0088 136.687L29.4677 138.436L26.6484 140.649L25.736 140.931Z" fill="#147D7F"/>
<path d="M31.9219 136.403L34.7484 135.376L37.388 133.807L38.0068 130.783L36.3751 132.897L34.8297 134.097L31.9219 136.403Z" fill="#147D7F"/>
<path d="M45.9307 122.72L44.9521 117.931L44.7891 108.147L44.2787 100.925L43.6953 96.1787L43.2536 98.5587L43.2604 111.725L42.9479 118.952L43.4323 122.785L43.4505 125.007L45.9307 122.72Z" fill="#147D7F"/>
<path d="M40.7959 124.725L40.5693 118.692L40.6027 110.92L39.7265 103.613L39.6588 102.103L38.9625 105.261L38.762 105.485C38.8604 107.308 39.1536 112.807 39.1547 113.035C39.1579 113.308 38.7421 118.983 38.6536 119.256C38.564 119.529 38.2473 126.299 38.1588 126.759L37.988 128.311L40.6224 126.007L40.7959 124.725Z" fill="#147D7F"/>
<path d="M17.7672 132.851L15.3265 134.363L14.7995 138.647L19.1459 136.589L20.2031 133.657L19.8317 131.923L17.7672 132.851Z" fill="#147D7F"/>
<path d="M15.4781 139.911L14.6511 139.856L14.4973 141.105L17.1953 140.717L18.4469 139.431L18.4417 138.699L17.276 139.348L15.4781 139.911Z" fill="#147D7F"/>
<path d="M13.7344 143.105L13.4203 143.923L14.4287 144.124L16.0427 143.288L17.1156 142.187L14.8708 142.931L13.7344 143.105Z" fill="#147D7F"/>
<path d="M13.3656 146.603L14.7995 145.676L15.8708 144.384L15.5973 144.023L14.7943 144.759L13.3568 145.137L12.9437 145.176L12.6417 145.965L12.1536 146.413L13.3656 146.603Z" fill="#147D7F"/>
<path d="M15.5339 147.408L13.1937 147.699L11.0079 147.455L10.3177 148.085L9.94788 148.6L10.5912 148.813L12.8421 148.704L15.4479 148.048L15.5339 147.408Z" fill="#147D7F"/>
<path d="M38.7724 60.816L38.0036 60.68L36.2369 59.6667L35.086 58.6L34.7855 57.7973L34.5427 57.7493L34.2735 58.4827L35.1969 59.5747L38.7803 62.0173L38.7724 60.816Z" fill="#147D7F"/>
<path d="M11.0573 43.748L12.0781 45.6L12.4984 51.2947L11.7251 57.5733L10.4219 60.4L5.5312 64.0213L3.38027 63.204L1.16147 61.6213L1.1344 57.78L1.40787 52.0813L3.56507 45.4053L5.3844 44.1107L8.34373 43.5147L9.91827 43.4373L11.0573 43.748Z" fill="#147D7F"/>
<path d="M12.4984 51.2947L12.3473 49.124L11.7568 54.82L10.7979 58.5414L9.12083 60.816L6.76563 62.1547L4.51937 62.2147L3.09123 60.86L2.6027 58.728L2.76403 53.82L3.1719 50.5294L4.01563 47.2813L4.58177 45.0533L4.11977 45.4014L2.10057 52.0734L1.84644 57.7747L1.87604 61.616L3.95577 63.2L5.97137 64.0187L10.5547 60.3987L11.7751 57.5734L12.4984 51.2947Z" fill="#075A62"/>
<path d="M11.1417 43.748L10.0755 43.4374L8.59894 43.512L5.82547 44.108L5.44174 44.4L5.04427 46.32L4.27601 49.1427L4.32547 50.336L4.05627 56.656L4.54694 59.0853L5.06147 59.5094L7.49734 58.296L9.92347 56.0133L11.2344 52.292L11.6093 49.5574L11.3453 45.6347L11.4203 44.2853L11.1417 43.748Z" fill="#62CCBA"/>
<path d="M9.96972 28.6947L11.8401 29.2294L11.8505 30.6974L11.4661 32.292L10.5713 33.708L10.5323 36.0947L11.5797 47.4707L11.5511 51.3867L9.46359 56.632L5.05212 59.352L5.66399 46.2227L5.50359 44.396L6.01719 36.74L5.63439 30.804L5.44786 28.6054L7.19892 28.4694L9.96972 28.6947Z" fill="#38AD97"/>
<path d="M3.70575 17.2347L4.03028 19.6786L10.7604 19.384L10.9896 17.3613L6.39735 17.0293L3.70575 17.2347Z" fill="#38AD97"/>
<path d="M4.5817 19.6534L5.63437 19.608L5.39063 17.104L4.5625 17.168L4.5817 19.6534Z" fill="#075A62"/>
<path d="M8.38025 19.4893L9.48598 19.44L9.66398 17.2667L8.70932 17.1974L8.38025 19.4893Z" fill="#075A62"/>
<path d="M4.23596 22.7974L4.6937 26.652L5.11449 33.9307L5.76823 39.6787L8.40103 39.6587L9.56143 31.084L10.1693 22.3267L4.23596 22.7974Z" fill="#147D7F"/>
<path d="M6.31775 39.3694L7.72402 39.3587L7.55628 41.44L6.45415 41.268L6.31775 39.3694Z" fill="#075A62"/>
<path d="M4.4593 24.684L6.6969 24.372L9.14476 24.292L10.0235 24.4467L10.1693 22.3267L4.23596 22.7973L4.4593 24.684Z" fill="#075A62"/>
<path d="M2.04588 24.284L6.63028 23.6973L8.89321 23.56L11.8948 23.7213L12.7823 19.92L10.4505 18.9573L6.77601 18.5573L2.55628 19.0173L0.908813 19.64L1.03641 20.192L1.40788 20.8013L2.04588 24.284Z" fill="#38AD97"/>
<path d="M8.68228 19.7054L11.7552 19.4973L10.4505 18.9573L6.77602 18.5573L2.55628 19.0173L0.908813 19.64L1.03641 20.192L1.40788 20.8013L1.43748 20.9627L4.03228 20.168L8.68228 19.7054Z" fill="#147D7F"/>
<path d="M2.7464 28.1347L3.2412 28.864L4.89066 28.6067L7.40267 28.712L7.51933 28.1587L6.16507 27.0667L4.57653 27.3253L2.7464 28.1347Z" fill="#38AD97"/>
<path d="M3.43225 29.8413L5.14172 29.2786L7.16398 29.5093L7.47398 30.1173L7.35412 30.4853L4.72132 30.3227L3.49732 30.4533L3.43225 29.8413Z" fill="#38AD97"/>
<path d="M3.38123 31.496L5.70576 31.112L7.11563 31.4067L7.42709 32.076L7.18496 32.568L4.24643 32.4694L3.69536 32.3493L3.38123 31.496Z" fill="#38AD97"/>
<path d="M8.48444 26.2547L8.75004 29.1907L9.5547 30.288L10.5427 31.2587L11.0885 30.7654L11.0183 29.4187L10.2125 28.1387L9.52604 26.308L8.48444 26.2547Z" fill="#38AD97"/>
<path d="M5.64319 44.536L6.61039 45.428L8.25159 45.456L10.0355 43.0974L9.92705 44.8907L8.61879 46.5627L6.97812 46.4067L5.84892 45.388L5.64319 44.536Z" fill="#147D7F"/>
<path d="M12.0027 50.636L11.7251 45.1747L11.664 44.756L11.1417 43.748L11.0713 43.728L11.0036 43.7307L11.1407 46.3734L11.2917 50.5974L10.2917 53.976L9.24636 56.4187L6.8917 57.8453L5.12756 59.0094L4.6093 58.2867L4.3437 54.1507L4.70836 50.3907L5.26716 45.7347L5.5797 44.2947L5.25676 44.5387L4.26716 48.984L3.8193 52.572L3.49316 56.588L3.59116 59.276L4.8213 60.336L7.21876 59.2507L9.68596 57.44L11.4287 53.1587L12.0027 50.636Z" fill="#8FEADD"/>
<path d="M7.36719 153.92L19.2907 155.577L19.8792 151.356L16.236 151.105L9.48172 150.879L7.42025 149.853L7.36719 153.92Z" fill="#075A62"/>
</svg>
