<svg width="162" height="155" viewBox="0 0 162 155" fill="none" xmlns="http://www.w3.org/2000/svg">
<path d="M27.7227 12.6054L29.4893 10.4094L30.0626 8.21333L30.2067 0.432014L30.732 0.0013504L31.2093 8.26268L32.0693 10.1707L34.456 12.656L27.7227 12.6054Z" fill="#7C6E6A"/>
<path d="M35.4573 121.219L24.8573 121.363L27.1507 112.196L29.156 102.885L30.1587 96.5827L30.732 93.576L33.1653 93.8627H35.4573L37.892 106.321L42.0453 121.363L35.4573 121.219ZM68.1133 151.296L60.5213 136.972L53.0747 118.067L46.6293 99.876L43.192 83.4067L39.7533 59.2027L37.4627 35.8547L37.3187 18.956L36.8907 16.6654L25.8627 17.0947L26.0027 24.5414L26.1467 41.4427L26.0027 47.028V54.188L25.1453 66.936L23.9987 81.832L21.5653 95.152L18.8427 107.755L14.5453 119.641L9.104 135.825L1.22666 150.436L0.511993 152.585L1.51466 153.587L15.4053 154.016L16.84 148.287L19.4173 141.843L26.864 135.825L33.3093 133.677L38.0347 134.108L41.472 135.685L47.488 139.264L50.496 142.845L54.364 153.731L63.2453 154.16L68.6853 153.015L68.1133 151.296Z" fill="black"/>
<path d="M53.7906 147.284L50.2107 140.124L45.9147 135.971L42.0453 133.536L36.1747 131.675L29.872 131.817L23.284 134.539L16.84 142.845L13.7573 153.965L15.4053 154.016L16.84 148.287L19.4173 141.843L26.864 135.825L33.3093 133.677L38.0347 134.108L41.472 135.685L47.488 139.264L50.496 142.845L54.364 153.731L55.7346 153.797L53.7906 147.284Z" fill="#36312E"/>
<path d="M24.8573 121.363L27.1507 112.196L29.156 102.885L30.1587 96.5827L30.732 93.5761L31.5427 84.4094L32.116 70.66L32.784 58.1534L32.212 45.7401L31.5427 30.1761L31.0973 16.8907L25.8627 17.0947L26.0027 24.5414L26.1467 41.4427L26.0027 47.028V54.188L25.1453 66.936L23.9987 81.832L21.5653 95.152L18.8427 107.755L14.5453 119.641L9.104 135.825L1.22666 150.436L0.511993 152.585L1.51466 153.587L15.4053 154.016L16.84 148.287L19.2347 142.296L19.9893 138.477L24.2147 124.8L25.0293 121.36L24.8573 121.363Z" fill="#7C6E6A"/>
<path d="M54.364 153.731L63.2453 154.16L68.6853 153.015L68.1133 151.296L60.5213 136.972L53.0747 118.067L46.6293 99.876L43.192 83.4067L39.7533 59.2027L37.4626 35.8547L37.3186 18.956L36.8906 16.6654L31.944 16.8573L32.8786 33.4213L33.3093 50.3213L33.8813 61.9227L34.3106 74.0973L34.6706 84.196L35.528 92.788L35.4493 93.8627H35.4573L37.892 106.321L42.0453 121.363L41.896 121.359L42.7613 122.865L46.2706 132.748L48.636 138.191L49.772 141.983L50.496 142.845L54.364 153.731Z" fill="#7C6E6A"/>
<path d="M63.3733 154.133L61.0493 151.057L58.1827 145.328L53.0267 133.871L49.3027 123.653L45.58 113.819L42.8093 103.793L40.6133 94.1493L38.7987 81.2587L37.4627 66.4587L36.2213 50.6094L35.5533 36.668L35.0747 25.688V16.7347L34.5173 16.7573L34.6947 25.3067L35.0747 42.2067L36.508 63.0213L37.844 78.4893L40.136 94.436L43.192 108.759L48.348 123.272L53.2173 136.16C53.2173 136.16 59.424 149.624 59.424 149.912C59.424 150.111 61.2627 152.609 62.3907 154.119L63.2453 154.16L63.3733 154.133Z" fill="black"/>
<path d="M28.392 26.8334L29.5373 43.3507L28.772 62.9267L28.1053 76.008L26.196 91.7614L23.332 105.989L17.5066 125.087L12.2546 141.699L7.25598 153.765L8.44397 153.801L9.48531 150.676L13.3053 141.127L16.4573 131.484L20.0853 118.688L23.5213 107.804L25.2426 98.732L26.196 94.5307L26.768 91.8573L27.4373 86.416L28.5826 76.3907L29.06 67.508L29.4413 56.8147L30.0146 45.548L29.9186 40.7747L29.2506 29.8893L28.8026 16.9787L28.04 17.008L28.392 26.8334Z" fill="#36312E"/>
<path d="M12.3987 120.503L12.2547 125.516L18.9853 126.088L32.0213 126.375L45.056 125.945L55.796 125.371V120.788L38.8933 120.357H30.444L12.3987 120.503Z" fill="#36312E"/>
<path d="M45.34 123.511L31.448 123.796L12.316 123.384L12.2547 125.516L18.9853 126.088L32.0213 126.375L45.056 125.945L55.796 125.371V123.639L45.34 123.511Z" fill="#473D38"/>
<path d="M22.4227 121.219L37.6067 121.363L55.796 122.045V120.788L38.8933 120.357H30.444L12.3986 120.503L12.3733 121.353L22.4227 121.219Z" fill="#C4B7B3"/>
<path d="M15.2986 125.775L16.9146 125.912L17.1893 123.488L15.4533 123.451L15.2986 125.775Z" fill="black"/>
<path d="M19.8346 126.107L21.9626 126.153L21.8253 123.588L19.7867 123.544L19.8346 126.107Z" fill="black"/>
<path d="M22.7946 126.172L24.0187 126.199L24.1773 123.639L22.8973 123.611L22.7946 126.172Z" fill="black"/>
<path d="M27.2813 126.269L29.0147 126.308V123.743L27.2307 123.705L27.2813 126.269Z" fill="black"/>
<path d="M33.9533 126.311L35.9133 126.247L35.776 123.708L33.9533 123.744V126.311Z" fill="black"/>
<path d="M36.472 126.227L38.1067 126.173V123.659L36.52 123.691L36.472 126.227Z" fill="black"/>
<path d="M42.6747 126.023L44.652 125.959L44.5213 123.527L42.42 123.571L42.6747 126.023Z" fill="black"/>
<path d="M50.4587 125.656L50.6013 123.575L48.4107 123.548L48.604 125.756L50.4587 125.656Z" fill="black"/>
<path d="M53.7093 125.483L53.864 123.616L51.4787 123.587L51.8627 125.581L53.7093 125.483Z" fill="black"/>
<path d="M54.5066 126.948L46.4853 127.519L26.72 127.805L12.204 126.609L10.652 131.223L17.412 131.101L36.1746 130.672L57.9853 130.533L56.7706 127.451L54.5066 126.948Z" fill="#36312E"/>
<path d="M56.7706 127.451L54.5066 126.948L46.4853 127.519L44.4266 127.548L45.5133 130.613L57.9853 130.533L57.328 128.867L56.7706 127.451Z" fill="#C4B7B3"/>
<path d="M21.9427 93.0786L33.524 93.1466L38.3933 93.5053L45.2187 93.1213L44.5653 89.992L22.5213 89.9253L21.9427 93.0786Z" fill="#36312E"/>
<path d="M31.052 89.952L22.5213 89.9253L21.9427 93.0787L30.772 93.1307L31.052 89.952Z" fill="#C4B7B3"/>
<path d="M44.7053 90.66L44.5653 89.992L35.2466 89.964L35.528 92.788L35.4907 93.292L38.3933 93.5053L45.2186 93.1213L44.7053 90.66Z" fill="#C4B7B3"/>
<path d="M21.9947 85.5547L21.7067 88.992H28.296L45.34 89.2787V85.5547H31.5893H21.9947Z" fill="#36312E"/>
<path d="M21.9947 85.5547L21.9413 86.204L28.1533 86.7L45.34 86.5667V85.5547H31.5893H21.9947Z" fill="#C4B7B3"/>
<path d="M45.34 89.2787V88.3973L32.3067 88.1333L21.8013 87.876L21.7067 88.992H28.296L45.34 89.2787Z" fill="black"/>
<path d="M22.8547 131.387L23.9987 131.291L25.7667 134.92L24.764 135.255L22.8547 131.387Z" fill="#7C6E6A"/>
<path d="M22.0413 133.345L21.7067 134.06L23.6653 136.065L24.0467 135.492L22.0413 133.345Z" fill="#7C6E6A"/>
<path d="M43.2387 131.197L41.8547 133.871L42.2853 134.155L44.576 131.243L43.2387 131.197Z" fill="#7C6E6A"/>
<path d="M45.34 132.58L43.144 135.016L44.8613 135.923L46.2493 133.725L45.34 132.58Z" fill="#7C6E6A"/>
<path d="M41.904 131.101L40.9 133.44L39.9933 133.296L40.5667 131.101H41.904Z" fill="#7C6E6A"/>
<path d="M8.19734 139.932L15.7413 140.697L17.6013 141.127L16.4093 142.224L7.05334 141.127L8.19734 139.932Z" fill="black"/>
<path d="M4.09066 146.091L3.61331 147.189L14.4506 148.477L14.5453 147.332L7.95998 146.903L4.09066 146.091Z" fill="black"/>
<path d="M7.95999 139.168L13.4493 136.544L13.1627 137.403L8.52933 139.455L7.95999 139.168Z" fill="black"/>
<path d="M10.9173 132.533L13.3053 135.825L13.736 135.064L11.5867 131.625L11.0613 131.675L10.9173 132.533Z" fill="black"/>
<path d="M15.5973 136.4L21.0387 132.008L20.8493 132.819L19.1787 134.824L15.836 136.925L15.5973 136.4Z" fill="black"/>
<path d="M15.12 137.211L14.832 138.119L17.124 140.553H17.936L18.364 139.743L15.12 137.211Z" fill="black"/>
<path d="M49.732 137.64L50.0213 138.883L60.1413 137.737L59.8053 137.069L49.732 137.64Z" fill="#36312E"/>
<path d="M54.8893 146.999L55.4613 148.096L63.864 145.089L62.9586 143.944L54.8893 146.999Z" fill="#36312E"/>
<path d="M56.084 149.912L56.4653 150.817L65.9173 149.004L65.2987 147.953L56.084 149.912Z" fill="#36312E"/>
<path d="M57.752 152.727L57.8493 153.204L67.9227 152.153L67.4933 151.485L57.752 152.727Z" fill="#36312E"/>
<path d="M51.452 134.492L49.3027 136.972L49.7787 137.975H50.9267L51.9267 135.349L51.452 134.492Z" fill="black"/>
<path d="M46.9147 131.243L46.5333 131.675L51.9267 135.349L52.12 134.729L46.9147 131.243Z" fill="black"/>
<path d="M53.408 133.296L53.6973 133.917L57.036 131.101L55.7493 131.055L53.408 133.296Z" fill="black"/>
<path d="M54.124 134.395L54.028 135.064L59.3747 136.496V135.637L54.124 134.395Z" fill="black"/>
<path d="M41.712 117.303L41.9506 118.115L52.4546 118.257L52.024 117.017L48.872 117.209L41.712 117.303Z" fill="#36312E"/>
<path d="M39.516 108.472L39.7533 109.235L42.9533 109.044L46.1506 108.804L49.0627 108.852L48.5387 107.899L42.524 108.089L39.516 108.472Z" fill="black"/>
<path d="M37.272 100.212L37.416 100.928H40.5173L46.104 100.832L45.9613 100.117L40.0387 100.212H37.272Z" fill="black"/>
<path d="M38.8933 101.405L38.4653 101.836L43.956 105.941L47.6333 107.325L47.9173 106.705L43.6227 104.079L39.3733 101.643L38.8933 101.405Z" fill="#36312E"/>
<path d="M45.5293 101.453L40.0387 107.469L40.2307 107.803L46.2973 101.643L45.5293 101.453Z" fill="black"/>
<path d="M36.3627 95.008L40.0387 96.6786L40.4707 96.1067L36.6987 93.8627L36.3627 95.008Z" fill="#36312E"/>
<path d="M21.1826 99.3054V100.068L26.3867 100.451L28.7253 100.547L28.868 99.9253L21.1826 99.3054Z" fill="black"/>
<path d="M19.56 107.803L19.0826 109.044L22.2333 109.379H27.1026L27.248 108.472L24.0933 108.329L19.56 107.803Z" fill="#36312E"/>
<path d="M16.6 115.585L16.5507 116.587L20.3707 116.443C20.3707 116.443 24.9547 115.728 25.1933 115.68C25.4307 115.632 25.528 114.629 25.528 114.629L16.6 115.585Z" fill="#36312E"/>
<path d="M23.0453 105.224L19.7507 107.707L19.7013 106.753L22.7107 104.652L23.0453 105.224Z" fill="black"/>
<path d="M25.0027 103.457L25.0493 104.223L28.536 101.5L28.1053 101.024L25.0027 103.457Z" fill="#36312E"/>
<path d="M24.7147 104.843L24.3827 105.56L26.6267 107.899L27.2933 107.996L27.5333 107.087L24.7147 104.843Z" fill="#36312E"/>
<path d="M26.0027 97.156L25.8627 97.8734L28.772 99.4467L29.1067 98.636L26.0027 97.156Z" fill="black"/>
<path d="M26.3386 96.0587L26.1 96.536L26.9613 96.7747L29.968 94.4347L30.0146 93.72L29.1066 93.528L26.3386 96.0587Z" fill="#36312E"/>
<path d="M22.2333 94.3867C22.376 94.4347 24.5733 96.3933 24.5733 96.3933L24.8573 95.82L22.4227 93.624L22.2333 94.3867Z" fill="black"/>
<path d="M25.528 69.8013L25.3827 70.5627L28.0587 70.6107L31.3987 70.0387L31.2533 69.1787L25.528 69.8013Z" fill="#36312E"/>
<path d="M24.8107 78.68V79.8747H31.0653L30.9227 78.8707L24.8107 78.68Z" fill="#36312E"/>
<path d="M24.3827 82.1173L24.4293 82.928L30.636 82.8333L30.78 81.8787L24.3827 82.1173Z" fill="#36312E"/>
<path d="M34.7413 68.32L34.7907 69.4173L40.5173 69.4654V68.56L34.7413 68.32Z" fill="#36312E"/>
<path d="M26.4333 59.4894L26.3867 60.204L32.164 59.6787L32.116 58.916L26.4333 59.4894Z" fill="#36312E"/>
<path d="M34.456 58.724V59.5827L39.228 59.6334L39.0853 58.82L34.456 58.724Z" fill="black"/>
<path d="M26.4827 47.6973L26.5787 48.508L31.6387 48.2213L31.6867 47.4094L26.4827 47.6973Z" fill="#36312E"/>
<path d="M33.7853 47.3133V48.2214L38.0347 48.46V47.792L33.7853 47.3133Z" fill="#36312E"/>
<path d="M26.6266 38.2906L31.304 40.7747L31.2533 40.2973L26.816 37.4306L26.6266 38.2906Z" fill="#36312E"/>
<path d="M31.5893 48.9853L29.348 50.6093L29.584 51.4213L31.8293 49.844L31.5893 48.9853Z" fill="#36312E"/>
<path d="M26.5786 34.9014L26.672 35.8547L31.2533 35.7147L31.352 35.092L26.5786 34.9014Z" fill="#36312E"/>
<path d="M33.3093 35.092L33.3573 35.7147L37.0827 35.8547L36.9373 35.188L33.3093 35.092Z" fill="black"/>
<path d="M33.3093 34.0427L33.596 34.5187L36.8413 31.8453L36.556 31.32L33.3093 34.0427Z" fill="black"/>
<path d="M33.2133 30.4147L33.3093 31.1307L36.7453 31.0827L36.6987 30.508L33.2133 30.4147Z" fill="black"/>
<path d="M26.0027 24.5414L26.012 25.2267C27.188 25.268 30.7067 25.4027 30.8253 25.4027C30.9427 25.4027 35.704 24.9467 37.3693 24.788L37.3187 18.956L36.8907 16.6654L25.8627 17.0947L26.0027 24.5414Z" fill="#36312E"/>
<path d="M26.6786 25.2507C26.9293 25.26 27.2107 25.2694 27.5067 25.2814L27.8413 17.0174L26.7613 17.0574L26.6786 25.2507Z" fill="black"/>
<path d="M29.6067 25.3587C30.0093 25.3747 30.348 25.3854 30.568 25.3907L30.276 16.9227L29.2227 16.964L29.6067 25.3587Z" fill="black"/>
<path d="M31.812 25.3147C32.0573 25.292 32.328 25.2654 32.6293 25.2374L32.4573 16.8374L31.5146 16.8734L31.812 25.3147Z" fill="black"/>
<path d="M33.756 25.132C34.044 25.1054 34.336 25.076 34.6266 25.048L34.3333 16.7627L33.212 16.808L33.756 25.132Z" fill="black"/>
<path d="M35.9227 24.9254C36.1947 24.9 36.4506 24.876 36.6826 24.852L36.4387 16.6827L35.7173 16.7094L35.9227 24.9254Z" fill="black"/>
<path d="M25.2893 12.416L25.7173 15.7573L32.9747 15.4227L36.9373 15.6146L36.556 12.4627L35.3147 12.0347L26.1 11.9387L25.2893 12.416Z" fill="#36312E"/>
<path d="M28.0586 15.6493L28.464 11.964L26.1426 11.9387L26.3626 15.7267L28.0586 15.6493Z" fill="#7C6E6A"/>
<path d="M29.4293 15.5867L30.004 15.56L29.9333 11.9773L29.32 11.972L29.4293 15.5867Z" fill="#7C6E6A"/>
<path d="M33.4426 15.4467L34.2293 15.484L34.348 12.0213L33.3693 12.0133L33.4426 15.4467Z" fill="#7C6E6A"/>
<path d="M35.3987 15.54L36.9373 15.6147L36.556 12.4627L35.3147 12.0347H35.2893L35.3987 15.54Z" fill="#7C6E6A"/>
<path d="M24.8573 15.3747L25.0493 17.428L32.544 17.188L37.512 17.0946L37.5573 14.9933L31.6387 14.612L24.8573 15.3747Z" fill="#7C6E6A"/>
<path d="M12.204 126.609L10.652 131.223L17.412 131.101L22.304 130.989L23.3693 127.531L12.204 126.609Z" fill="#C4B7B3"/>
<path d="M17.7453 128.809L17.6013 129.669L21.4707 130.623L21.9466 129.717L17.7453 128.809Z" fill="black"/>
<path d="M16.0747 128.236L15.7413 129.141L11.6826 130.527L11.9693 129.717L16.0747 128.236Z" fill="black"/>
<path d="M50.6067 127.225L49.8627 127.279L51.108 130.577L51.8253 130.573L50.6067 127.225Z" fill="#7C6E6A"/>
<path d="M15.596 131.133L16.5626 131.115L17.7093 127.063L16.9027 126.996L15.596 131.133Z" fill="#7C6E6A"/>
<path d="M65.0813 105.163L66.2827 130.565L88.4853 131.365L113.088 131.165L113.689 119.164L112.689 102.963L65.8813 102.761L65.0813 105.163Z" fill="white"/>
<path d="M80.8533 114.12L81.1173 102.827L65.8813 102.761L65.0813 105.163L66.2827 130.565L80.9946 131.097L80.8533 114.12Z" fill="#006DC1"/>
<path d="M98.308 102.901L98.5986 118.62V131.284L113.088 131.165L113.689 119.164L112.689 102.963L98.308 102.901Z" fill="#FF4127"/>
<path d="M52.996 56.16L53.1253 70.8333L53.644 87.7187L53.7747 92.2627L57.412 91.612L57.0226 77.8467L63.9066 77.4573V72.7827L56.5026 72.1333L56.6333 61.0933L66.632 60.8333L66.372 53.82L52.996 56.16Z" fill="white"/>
<path d="M72.8653 58.1067L74.036 57.5867L76.6333 58.6267L78.8427 61.7427L78.192 65.5094L73.3866 68.108L72.8653 58.1067ZM76.244 71.224L81.9573 68.108L82.8667 60.8334L78.4506 54.7294L72.8653 54.0813L69.7493 54.6L69.4893 71.872V92.524L73.1267 92.392L73.3866 74.472L82.348 87.5867L84.8147 85.7694L76.244 71.224Z" fill="white"/>
<path d="M90.6587 75.12L93.6467 61.7427L95.464 74.472L90.6587 75.12ZM96.1133 59.4054L95.0747 53.692L92.476 53.9507L89.62 66.9387L86.372 84.86V87.328L88.84 87.1987L90.3987 79.4054H95.984L99.36 93.172L101.436 92.2627L96.1133 59.4054Z" fill="white"/>
<path d="M103.127 53.692L102.996 65.64L102.607 84.6013L102.996 86.6786L106.243 86.288L106.763 79.016L114.944 84.9907L117.023 83.8213L116.633 54.0813L114.424 53.82L113.125 78.3653L105.595 71.872V53.692H103.127Z" fill="white"/>
<path d="M134.555 60.704L136.761 59.5374L134.945 54.0813L130.271 51.7427L125.855 54.2094L123.255 63.432L123.516 77.328L128.192 86.0294L134.684 85.64L139.1 79.9254L139.879 75.12L137.283 74.9907L133.644 80.8347L130.399 82.0027L127.283 76.9387L127.54 61.8734L130.528 57.976L133.128 58.6267L134.555 60.704Z" fill="white"/>
<path d="M143.256 53.82L142.739 69.4067L142.607 85.64L144.556 87.848H157.541L158.061 85.12L147.541 82.7813V75.7693L156.113 74.7293V72.912L147.283 71.612L148.711 57.328L161.308 56.4173L161.179 53.692L143.256 53.82Z" fill="white"/>
</svg>
