<svg width="139" height="146" viewBox="0 0 139 146" fill="none" xmlns="http://www.w3.org/2000/svg">
<path d="M48.5227 108.716H52.116L54.4027 106.595L54.7293 104.633H57.6667L60.6053 103.656L62.076 100.716L48.3613 100.227L48.5227 108.716Z" fill="#FFAA39"/>
<path d="M60.6053 103.656L60.828 103.213L57.012 103.329H54.4026L52.932 104.475L51.3 106.757L48.4906 106.975L48.5226 108.716H52.116L54.4026 106.595L54.7293 104.633H57.6666L60.6053 103.656Z" fill="#D68525"/>
<path d="M99.792 108.716H96.1986L93.916 106.595L93.5866 104.633H90.6467L87.7093 103.656L86.24 100.716L99.956 100.227L99.792 108.716Z" fill="#FFAA39"/>
<path d="M87.7093 103.656L87.488 103.213L91.3013 103.329H93.916L95.3827 104.475L97.016 106.757L99.8266 106.975L99.792 108.716H96.1987L93.916 106.595L93.5866 104.633H90.6467L87.7093 103.656Z" fill="#D68525"/>
<path d="M21.0933 101.207H43.6267L43.464 105.777L22.2373 106.431L21.0933 101.207Z" fill="#7472B2"/>
<path d="M105.017 101.533L123.304 102.676L123.469 107.409L105.017 106.757V101.533Z" fill="#7472B2"/>
<path d="M15.0533 78.348V83.736L16.36 91.248L58.4853 89.776L78.0773 90.5933L110.079 89.776L128.201 90.756L129.835 83.2453L129.017 77.368L85.588 77.8573L69.5853 78.184L54.4026 77.5307L37.748 78.0213L23.544 78.184L15.0533 78.348Z" fill="#37375B"/>
<path d="M85.588 77.8574L69.5853 78.184L54.4026 77.5307L37.748 78.0214L23.544 78.184L15.0533 78.348V83.736L15.212 84.6494L33.8306 83.8987L65.832 83.4094L82.8106 83.572L94.4053 82.9187L112.692 83.572L122.815 83.4094H129.799L129.835 83.2453L129.017 77.368L85.588 77.8574Z" fill="#4C4C7F"/>
<path d="M113.019 87.98L82.8107 88.6333L54.24 87.98L27.2987 89.1227L16.0867 89.6853L16.36 91.248L58.4853 89.776L78.0774 90.5933L110.079 89.776L128.201 90.756L128.672 88.6L113.019 87.98Z" fill="#075A62"/>
<path d="M25.8293 84.2213L27.6573 84.1493L27.912 78.136L25.8293 78.1587V84.2213Z" fill="#D68525"/>
<path d="M29.148 84.0867L30.9547 84.0147L30.6867 78.1014L28.6187 78.1254L29.148 84.0867Z" fill="#D68525"/>
<path d="M33.764 83.9027L33.8867 78.0667L31.98 78.0867L32.1067 83.968L33.764 83.9027Z" fill="#D68525"/>
<path d="M35.0413 83.88L36.7053 83.8546L36.8266 78.032L34.9173 78.0533L35.0413 83.88Z" fill="#FFAA39"/>
<path d="M52.0986 83.6187L53.3747 83.5987L53.0133 77.572L51.972 77.6014L52.0986 83.6187Z" fill="#FFAA39"/>
<path d="M56.08 83.5574L56.4666 77.62L54.4373 77.532L54.6973 83.58L56.08 83.5574Z" fill="#FFAA39"/>
<path d="M57.6827 83.5347L59.4493 83.5067L59.3227 77.7427L57.8093 77.6787L57.6827 83.5347Z" fill="#FFAA39"/>
<path d="M63.3813 83.4453V77.9173L61.1226 77.82L61.2426 83.4787L63.3813 83.4453Z" fill="#FFAA39"/>
<path d="M80.7053 83.552L82.3213 83.5694V77.924L80.824 77.9534L80.7053 83.552Z" fill="#EF880C"/>
<path d="M84.408 83.4827L86.0933 83.388L86.2094 77.8494L85.588 77.8574L84.1747 77.888L84.408 83.4827Z" fill="#EF880C"/>
<path d="M89.0346 83.2213L89.156 77.8173L87.5893 77.8347L87.8386 83.2893L89.0346 83.2213Z" fill="#EF880C"/>
<path d="M90.284 83.152L92.2307 83.0427L92.0133 77.784L90.0493 77.808L90.284 83.152Z" fill="#EF880C"/>
<path d="M109.588 83.4614L111.624 83.5347L111.181 77.5694L109.588 77.588V83.4614Z" fill="#FFAA39"/>
<path d="M114.011 83.552L114.136 77.536L112.323 77.556L112.815 83.5707L114.011 83.552Z" fill="#FFAA39"/>
<path d="M115.465 83.5294L117.413 83.4947L117.291 77.5L115.465 77.52V83.5294Z" fill="#FFAA39"/>
<path d="M21.584 91.8987L22.0733 101.696H43.136L43.3 91.248L21.584 91.8987Z" fill="#4C4C7F"/>
<path d="M48.5227 91.084L48.3613 101.207L99.6293 102.349L99.1387 91.248H86.0773L65.9933 91.084H48.5227Z" fill="#4C4C7F"/>
<path d="M106.16 91.084L105.996 102.349L122.651 103.003L123.469 91.5747L106.16 91.084Z" fill="#4C4C7F"/>
<path d="M71.3813 94.1854L99.2906 94.6547L99.1386 91.248H86.0773L65.9933 91.084H48.5226L48.476 94.0267L71.3813 94.1854Z" fill="#EF880C"/>
<path d="M69.096 95.9827H65.668L63.2186 97.2867L62.7293 98.5934L66.8093 99.4094L71.2186 100.552L77.5866 100.227L80.5266 98.92L82.4853 98.4307L82.6493 96.96L80.0346 96.4721L76.116 95.9827H69.096Z" fill="#38AD97"/>
<path d="M72.5267 95L69.7507 95.1654L68.932 97.2867L69.5853 99.736L72.3613 100.879L75.1387 100.552L76.6067 98.4307L75.7893 95.492L72.5267 95Z" fill="#37375B"/>
<path d="M72.3613 95.9827L70.8933 97.6133L72.1973 98.5934L74.484 98.4307L74.1586 96.636L72.3613 95.9827Z" fill="#38AD97"/>
<path d="M24.032 96.7974L27.952 95.328L30.4013 93.2054L33.992 93.5334L35.464 95.6547L40.0333 97.2867V98.4307L35.464 97.9401L33.5027 100.552L30.2373 100.388L27.624 98.92L25.5027 97.9401L24.032 96.7974Z" fill="#38AD97"/>
<path d="M107.793 96.7973L110.568 95.492L112.528 93.8587L115.793 93.3694L118.08 94.676L119.384 96.308L121.671 97.1253V98.4307L119.712 98.268L119.057 99.9L116.284 101.369L113.671 101.696L111.548 99.4094L109.916 98.4307L107.305 97.4533L107.793 96.7973Z" fill="#38AD97"/>
<path d="M16.6867 92.3894L16.848 98.92V123.248L16.0307 142.516L24.8507 142.351L24.032 120.473L23.3773 103.003L22.8893 91.5747L16.6867 92.3894Z" fill="#FF4127"/>
<path d="M42.6467 90.9187L42.4814 102.349L42.6467 141.861L50.4827 142.351L49.3413 108.553L49.1773 90.756L42.6467 90.9187Z" fill="#FF4127"/>
<path d="M99.1386 91.248L98.976 101.533L99.1386 127.167L99.3026 142.679L107.793 142.841L106.975 109.696L107.14 91.084L99.1386 91.248Z" fill="#FF4127"/>
<path d="M121.999 91.5747V116.881L122.16 142.841L130.649 142.679L128.856 109.86L127.873 91.8987L121.999 91.5747Z" fill="#FF4127"/>
<path d="M15.0533 90.756L19.624 90.4294L44.6066 89.4507L68.6066 89.612L87.3826 89.7761L103.221 89.288H111.056L128.856 90.4294V92.7174L95.548 92.064L53.096 91.5747L38.7293 91.8987L15.5426 92.8787L15.0533 90.756Z" fill="#FFAA39"/>
<path d="M123.632 112.961L123.957 107.409L125.751 106.268L128.039 106.757L128.743 107.78L127.873 91.8987L121.999 91.5747V101.207V116.881L122.16 142.841L124.411 142.797L123.632 112.961Z" fill="#E03500"/>
<path d="M98.976 101.533L99.1386 127.167L99.3026 142.679L101.067 142.712L100.772 125.696L101.263 106.595L102.732 104.963L105.671 105.289L106.999 107.06L107.14 91.084L99.1386 91.248L98.976 101.533Z" fill="#E03500"/>
<path d="M43.6267 109.696L43.9533 102.841L47.3787 103.165L49.3093 105.201L49.1773 90.756L42.6467 90.9187L42.4814 102.349L42.6467 141.861L44.2613 141.963L43.6267 109.696Z" fill="#E03500"/>
<path d="M22.8893 91.5747L16.6867 92.3894L16.848 98.92V123.248L16.0307 142.516L16.9707 142.497L18.1533 121.451L18.48 110.021L20.1134 105.124L22.2373 103.492L23.496 106.145L23.3774 103.003L22.8893 91.5747Z" fill="#E03500"/>
<path d="M19.7893 127.329L19.4626 133.207L21.584 133.699L21.0933 127.656L19.7893 127.329Z" fill="#E03500"/>
<path d="M45.9133 127.983L46.24 132.884L47.8707 132.719L47.7067 127.656L45.9133 127.983Z" fill="#E03500"/>
<path d="M102.732 128.636V133.371H105.017L104.528 128.473L102.732 128.636Z" fill="#E03500"/>
<path d="M126.241 128.963L126.569 133.533L127.873 133.207L127.384 128.636L126.241 128.963Z" fill="#E03500"/>
<path d="M17.9907 91.4094L17.828 94.676L18.3187 97.94L19.624 98.5934L21.0933 97.2867L21.912 90.9187L17.9907 91.4094Z" fill="#EF880C"/>
<path d="M43.9533 90.756L44.28 94.8387L45.4226 97.2867L47.3787 97.1254L48.032 90.2654L43.9533 90.756Z" fill="#EF880C"/>
<path d="M100.772 89.776L100.608 94.8387L101.424 97.94H103.875L104.693 94.0213L105.017 89.1227L100.772 89.776Z" fill="#EF880C"/>
<path d="M123.14 89.612L123.632 93.8587L124.12 97.2867L126.407 97.7787L127.223 94.8387L126.895 89.9414L123.14 89.612Z" fill="#EF880C"/>
<path d="M73.9053 80.88L73.8253 79.5721L75.456 80.1427L77.4747 81.0414L77.008 81.9401H76.0773L74.604 81.5307L73.9053 80.88ZM69.6387 81.9401L68.2427 82.0214L67.0027 81.5307L66.6947 80.632L69.096 79.9787L70.5707 79.2454L70.804 80.88L69.6387 81.9401ZM82.8227 83.816L82.436 82.2667L80.5747 82.756L79.956 84.7147L78.4787 86.1854L76.0773 86.5934L75.1454 85.9401L75.6907 84.96L77.784 84.6347L79.4134 82.8374V81.1214L81.196 80.7974L82.5907 79.5721L82.9787 77.448L72.5853 77.696L72.1227 77.7761L71.8093 77.696L61.4173 77.448L61.8067 79.5721L63.2013 80.7974L64.9853 81.1214V82.8374L66.616 84.6347L68.7093 84.96L69.2507 85.9401L68.3227 86.5934L65.9173 86.1854L64.4413 84.7147L63.8213 82.756L61.9613 82.2667L61.5733 83.816L61.3427 85.0401L63.1253 86.1027L64.4413 88.552L68.3227 91.4094L71.8893 91.828V91.8987L72.1973 91.864L72.5107 91.8987V91.828L76.0773 91.4094L79.956 88.552L81.272 86.1027L83.056 85.0401L82.8227 83.816Z" fill="#FF4127"/>
<path d="M104.685 80.88L104.615 79.5721L106.169 80.1427L108.095 81.0414L107.649 81.9401H106.759L105.353 81.5307L104.685 80.88ZM100.615 81.9401L99.28 82.0214L98.0947 81.5307L97.8 80.632L100.095 79.9787L101.503 79.2454L101.725 80.88L100.615 81.9401ZM113.204 83.816L112.833 82.2667L111.055 82.756L110.463 84.7147L109.059 86.1854L106.759 86.5934L105.872 85.9401L106.391 84.96L108.389 84.6347L109.945 82.8374V81.1214L111.648 80.7974L112.98 79.5721L113.353 77.448L103.427 77.696L102.984 77.7761L102.688 77.696L92.7653 77.448L93.1333 79.5721L94.468 80.7974L96.1693 81.1214V82.8374L97.7267 84.6347L99.7267 84.96L100.245 85.9401L99.3547 86.5934L97.0587 86.1854L95.6507 84.7147L95.0613 82.756L93.2827 82.2667L92.912 83.816L92.6893 85.0401L94.3933 86.1027L95.6507 88.552L99.3547 91.4094L102.761 91.828V91.8987L103.057 91.864L103.355 91.8987V91.828L106.759 91.4094L110.463 88.552L111.723 86.1027L113.425 85.0401L113.204 83.816Z" fill="#FF4127"/>
<path d="M127.167 81.4054L127.096 80.0027L128.541 80.6147L130.331 81.5813L129.919 82.5453H129.093L127.784 82.1094L127.167 81.4054ZM123.381 82.5453L122.143 82.6347L121.041 82.1094L120.767 81.1427L122.9 80.44L124.207 79.6507L124.413 81.4054L123.381 82.5453ZM135.08 84.5654L134.735 82.8987L133.084 83.4254L132.532 85.5294L131.224 87.1094L129.093 87.548L128.265 86.8467L128.749 85.7947L130.605 85.4427L132.052 83.512V81.6694L133.636 81.3173L134.873 80.0027L135.216 77.7214L125.997 77.984L125.583 78.072L125.307 77.984L116.088 77.7214L116.432 80.0027L117.668 81.3173L119.252 81.6694V83.512L120.697 85.4427L122.556 85.7947L123.039 86.8467L122.213 87.548L120.08 87.1094L118.771 85.5294L118.221 83.4254L116.568 82.8987L116.224 84.5654L116.017 85.8813L117.601 87.0214L118.771 89.6547L122.213 92.7267L125.376 93.1734V93.252L125.652 93.2147L125.928 93.252V93.1734L129.093 92.7267L132.532 89.6547L133.703 87.0214L135.285 85.8813L135.08 84.5654Z" fill="#FF4127"/>
<path d="M47.2147 80.88L47.1413 79.5721L48.6947 80.1427L50.62 81.0414L50.176 81.9401H49.2867L47.88 81.5307L47.2147 80.88ZM43.1387 81.9401L41.8093 82.0214L40.624 81.5307L40.3267 80.632L42.624 79.9787L44.028 79.2454L44.252 80.88L43.1387 81.9401ZM55.7307 83.816L55.36 82.2667L53.584 82.756L52.9893 84.7147L51.584 86.1854L49.2867 86.5934L48.4 85.9401L48.9173 84.96L50.916 84.6347L52.472 82.8374V81.1214L54.1773 80.7974L55.5093 79.5721L55.8787 77.448L45.956 77.696L45.512 77.7761L45.2147 77.696L35.292 77.448L35.6627 79.5721L36.9933 80.7974L38.6973 81.1214V82.8374L40.2533 84.6347L42.2533 84.96L42.7693 85.9401L41.8813 86.5934L39.5853 86.1854L38.1787 84.7147L37.588 82.756L35.808 82.2667L35.4387 83.816L35.2173 85.0401L36.9213 86.1027L38.1787 88.552L41.8813 91.4094L45.2907 91.828V91.8987L45.5853 91.864L45.8813 91.8987V91.828L49.2867 91.4094L52.9893 88.552L54.2506 86.1027L55.9533 85.0401L55.7307 83.816Z" fill="#FF4127"/>
<path d="M20.6226 81.5427L20.5546 80.136L22 80.7507L23.7866 81.7173L23.3746 82.6813H22.552L21.244 82.244L20.6226 81.5427ZM16.8386 82.6813L15.6013 82.772L14.496 82.244L14.224 81.2787L16.3573 80.576L17.6626 79.788L17.868 81.5427L16.8386 82.6813ZM28.536 84.7L28.1933 83.032L26.5386 83.56L25.9893 85.6667L24.684 87.2453L22.552 87.6827L21.7226 86.9813L22.204 85.9267L24.0626 85.5787L25.508 83.6467V81.8054L27.0906 81.4547L28.3293 80.136L28.6733 77.8547L19.4533 78.1173L19.04 78.2054L18.764 78.1173L9.54395 77.8547L9.88793 80.136L11.128 81.4547L12.708 81.8054V83.6467L14.1546 85.5787L16.0133 85.9267L16.4946 86.9813L15.668 87.6827L13.5346 87.2453L12.2266 85.6667L11.6787 83.56L10.0266 83.032L9.68263 84.7L9.47595 86.0173L11.0573 87.1573L12.2266 89.7893L15.668 92.8627L18.8346 93.3107V93.388L19.108 93.3493L19.3827 93.388V93.3107L22.552 92.8627L25.9893 89.7893L27.1586 87.1573L28.7426 86.0173L28.536 84.7Z" fill="#FF4127"/>
<path d="M8.19464 73.2867L9.01333 77.8574L12.7666 78.184L24.1973 78.6734L38.0747 78.512L59.3 78.348L77.0986 78.6734L96.528 78.512L112.855 78.184H127.549L137.184 78.0214L138.327 72.7974L127.873 73.124L102.732 73.4493H75.4666L46.5653 72.96L26.808 73.4493L13.9107 73.2867H8.19464Z" fill="#9B7127"/>
<path d="M102.732 73.4493H75.4666L46.5653 72.96L26.808 73.4493L13.9107 73.2867H8.19464L8.29064 73.8147L19.1346 74.2653L51.9533 74.4293L82.6493 75.0813L120.037 74.104L138.207 73.3333L138.327 72.7973L127.873 73.124L102.732 73.4493Z" fill="#37375B"/>
<path d="M38.0747 78.512L59.3 78.348L77.0986 78.6734L96.528 78.512L112.855 78.184H127.549L137.184 78.0214L137.58 76.2094L113.671 75.8974L86.8933 76.5534L55.38 76.388H28.4413L8.69464 76.0813L9.01333 77.8574L12.7666 78.184L24.1973 78.6734L38.0747 78.512Z" fill="#BF882E"/>
<path d="M7.86798 71.4907L8.19464 73.2867L11.1346 73.612L23.2147 73.94L39.6266 73.8573L52.4413 73.612L73.6693 74.2654L97.996 74.104L118.405 73.776L138.976 73.4493V71.164L128.039 67.7347L112.855 55.1627L102.896 41.284L79.5453 41.6094L34.32 42.264L32.0333 48.4694L27.624 56.632L21.584 63.8147L7.86798 71.4907Z" fill="#38AD97"/>
<path d="M15.216 141.536H25.176L26.808 144.8L26.4813 145.616H14.0733L13.7466 144.639L15.216 141.536Z" fill="#D8AA4E"/>
<path d="M41.3387 141.208L51.1373 141.371L53.2587 145.453L52.6053 145.944L39.8707 145.781V144.473L41.3387 141.208Z" fill="#D8AA4E"/>
<path d="M98.324 141.861L108.284 142.025L109.588 144.639L109.424 145.616L97.344 145.453L97.18 144.149L98.324 141.861Z" fill="#D8AA4E"/>
<path d="M121.344 141.861H130.977L132.285 144.149V145.453L120.201 145.616V144.309L121.344 141.861Z" fill="#D8AA4E"/>
<path d="M13.7466 144.639L14.0733 145.616H26.4813L26.808 144.8L26.7186 144.62L13.8186 144.484L13.7466 144.639Z" fill="#BF882E"/>
<path d="M39.8707 145.781L52.6053 145.944L53.2587 145.453L53.056 145.063L39.8707 144.692V145.781Z" fill="#BF882E"/>
<path d="M97.18 144.149L97.344 145.453L109.424 145.616L109.588 144.639L109.479 144.417L97.244 144.024L97.18 144.149Z" fill="#BF882E"/>
<path d="M120.201 144.309V145.616L132.285 145.453V144.149L132.276 144.133L120.348 143.997L120.201 144.309Z" fill="#BF882E"/>
<path d="M34.32 42.264L32.0333 48.4693L27.624 56.632L24.8053 59.9867L22.4 64.796L19.624 69.532L16.5613 73.7587L19.4933 73.8387L22.564 70.184L28.2773 59.2453L31.8693 51.8973L34.5373 42.26L34.32 42.264Z" fill="#62CCBA"/>
<path d="M36.6826 42.2294L35.464 47.6534L33.1773 54.3467L29.4186 65.1227L24.712 73.932L27.9893 73.9147L30.5626 67.4094L34.6453 55.4894L37.4226 45.04L37.776 42.2134L36.6826 42.2294Z" fill="#62CCBA"/>
<path d="M41.992 42.1547L39.512 42.188L39.2173 44.5507L37.256 55.4894L34.6453 66.9174L31.6773 73.8987L34.7813 73.8814L37.9106 63L41.0146 49.2867L41.992 42.1547Z" fill="#62CCBA"/>
<path d="M44.0866 42.124L42.3186 55.9773L39.056 66.4294L36.9493 73.8707L39.6267 73.8574L40.1107 73.848L41.1773 68.0627L44.4427 54.672L45.904 42.0974L44.0866 42.124Z" fill="#62CCBA"/>
<path d="M48.372 42.0627L47.544 52.552L45.4226 62.3467L41.992 73.776L42.148 73.808L44.4 73.7667L47.0546 62.836L49.6653 50.264L49.804 42.0387L48.372 42.0627Z" fill="#62CCBA"/>
<path d="M54.176 41.9761L52.324 42.0027L52.116 45.2041L51.1373 55L48.688 64.9574L46.6147 73.7254L49.4426 73.6694L51.3 63.8147L53.9133 48.1414L54.176 41.9761Z" fill="#62CCBA"/>
<path d="M56.556 41.9427L55.708 50.264L53.9133 62.8361L51.3 73.4494L51.948 73.6227L52.4413 73.612L53.8693 73.656L55.38 68.0627L56.5253 60.8761L58.1573 47.164L58.2906 41.9187L56.556 41.9427Z" fill="#62CCBA"/>
<path d="M60.28 53.856L59.3 64.6334L57.5374 73.7694L60.296 73.8547L61.096 69.3667L62.076 58.428L62.7293 46.508L62.6067 41.8547L60.9933 41.88L60.28 53.856Z" fill="#62CCBA"/>
<path d="M65.0147 48.9587L64.196 63.98L63.5453 73.94L63.6693 73.9587L66.804 74.0533L66.6453 65.7747L66.9733 48.6293L66.5813 41.7987L64.8853 41.824L65.0147 48.9587Z" fill="#62CCBA"/>
<path d="M69.6467 41.7547L67.9827 41.7773L68.4427 59.7333L69.0893 74.1267L71.3453 74.1933L69.6467 41.7547Z" fill="#62CCBA"/>
<path d="M77.1307 74.2427L76.28 69.8573L74.1587 54.02L72.692 41.708L71.2667 41.7293L71.544 49.1213L73.5067 65.6106L74.3053 74.2613L77.1307 74.2427Z" fill="#62CCBA"/>
<path d="M80.1973 63.4907L77.5867 49.2867L77.1693 41.6454L75.0653 41.6761L75.9547 51.8974L78.0773 63.98L79.7333 74.2254L82.464 74.2067L80.1973 63.4907Z" fill="#62CCBA"/>
<path d="M80.5266 54.836L83.4653 65.2853L85.9866 74.1813L89.568 74.16L85.588 62.6747L81.8306 48.1414L81.136 41.588L79.5453 41.6094V48.3054L80.5266 54.836Z" fill="#62CCBA"/>
<path d="M83.9547 47.164L86.7307 57.4494L89.996 67.8987L92.464 74.14L95.8413 74.1174L94.8933 71.8174L89.832 60.552L85.7506 47.6534L85.1813 41.532L83.9547 41.5507V47.164Z" fill="#62CCBA"/>
<path d="M102.515 74.0307L94.8933 60.0613L91.1386 46.508L90.4573 41.4573L88.332 41.488L89.18 47.9787L90.812 54.5094L95.8746 67.5707L98.6666 74.0907L102.515 74.0307Z" fill="#62CCBA"/>
<path d="M104.693 68.224L98.8133 57.6107L94.8933 47.816L93.8053 41.4094L92.5 41.4294L94.0787 50.7533L97.996 59.2453L101.588 67.8987L104.221 71.5813L105.928 73.9747L108.969 73.9267L104.693 68.224Z" fill="#62CCBA"/>
<path d="M112.2 68.224L106.323 58.1027L100.772 46.02L99.5667 41.3307L97.7307 41.3574L98.648 45.6934L100.445 50.9187L103.711 59.0814L109.1 68.552L113.081 73.8627L116.896 73.7987L112.2 68.224Z" fill="#62CCBA"/>
<path d="M127.485 73.632L123.632 70.3467L117.751 63.1627L109.424 52.552L107.316 47.444L102.896 41.284L102.445 41.292L104.364 47.3254L108.447 54.5094L112.037 61.0414L117.916 68.388L122.959 73.704L127.485 73.632Z" fill="#62CCBA"/>
<path d="M25.5827 72.5507L28.524 72.4707L28.1133 71.0814L26.808 70.9987L25.5827 72.5507Z" fill="#075A62"/>
<path d="M32.1173 72.7973L35.136 72.7147L34.8093 71.3267L33.0133 71.2453L32.1173 72.7973Z" fill="#075A62"/>
<path d="M37.4226 72.388L40.4413 72.3067L39.9506 70.9987L39.1346 70.756L37.4226 72.388Z" fill="#075A62"/>
<path d="M42.4013 72.0627L44.8506 72.224L44.7693 70.5907L43.3 70.3467L42.4013 72.0627Z" fill="#075A62"/>
<path d="M47.0546 72.1414H49.7493L49.4213 71.0814L48.444 70.6747L47.0546 72.1414Z" fill="#075A62"/>
<path d="M51.5453 72.1414L54.484 71.9814L53.9933 70.836L52.8533 70.2667L51.708 70.92L51.5453 72.1414Z" fill="#075A62"/>
<path d="M57.7506 72.224L60.7693 72.3067L60.036 70.756L58.9733 70.5907L57.8333 71.0813L57.7506 72.224Z" fill="#075A62"/>
<path d="M63.708 72.1414L66.8933 72.224L66.4027 70.6747L65.3427 70.4307H64.5253L63.708 72.1414Z" fill="#075A62"/>
<path d="M68.932 72.388H71.2187L71.136 70.9987L69.9933 70.5907L69.1787 70.9987L68.932 72.388Z" fill="#075A62"/>
<path d="M74.1587 72.4707H76.932L76.28 71.3267L74.9733 70.9987L73.6693 71.736L73.5853 72.4707H74.1587Z" fill="#075A62"/>
<path d="M79.4626 72.6334H82.4027L81.996 71.2453L80.8533 71.0813L80.0347 71.2453L79.4626 72.6334Z" fill="#075A62"/>
<path d="M85.5053 72.5507L89.5066 72.6334L88.6906 71.2453L87.628 70.6747L86.4853 71.0813L85.5053 72.5507Z" fill="#075A62"/>
<path d="M91.9547 72.388L95.3827 72.0627L94.3213 70.92L92.5267 70.836L91.9547 72.388Z" fill="#075A62"/>
<path d="M107.712 71.652L106.323 70.2667L104.609 70.0187L104.2 71.8173L107.712 71.652Z" fill="#075A62"/>
<path d="M32.0333 40.412L30.836 43.8973L31.596 46.616L63.1627 46.2907L92.664 45.6387L108.664 45.9653L107.684 39.76L104.528 38.6734L86.5667 38.4533L44.8773 39.5427L32.0333 40.412Z" fill="#4C4C7F"/>
<path d="M86.5667 38.4534L44.8773 39.5427L32.0333 40.412L31.428 42.1747L48.252 40.9574L68.7147 40.304L104.853 40.0854L107.755 40.2107L107.684 39.76L104.528 38.6734L86.5667 38.4534Z" fill="#7472B2"/>
<path d="M76.0066 43.5694L48.796 44.332L31.1586 45.0507L31.596 46.616L63.1626 46.2907L92.664 45.6387L108.664 45.9653L108.285 43.5694H103.221H76.0066Z" fill="#37375B"/>
<path d="M101.043 42.3734L103.657 42.048L111.385 52.28L114.649 55.8707L122.16 61.4213L124.553 66.5374L117.697 67.0827L113.888 66.5374L110.732 62.4014L104.745 51.9533L101.916 46.1813L101.043 42.3734Z" fill="#075A62"/>
<path d="M123.321 63.896L122.16 61.4213L114.649 55.8707L111.385 52.28L103.657 42.048L102.709 42.1653L105.613 48.576L110.513 56.524L114.429 61.4213L116.936 63.38C116.936 63.38 122.16 64.032 122.597 64.032C122.703 64.032 122.973 63.98 123.321 63.896Z" fill="#62CCBA"/>
<path d="M113.829 66.4614L113.888 66.5374L117.697 67.0827L124.553 66.5374L124.013 65.38L122.269 63.0547L120.201 61.3133L115.629 61.4213L113.997 63.708L113.829 66.4614Z" fill="#38AD97"/>
<path d="M33.5573 42.808L31.3787 48.36L27.7866 55L24.088 59.68L21.584 62.5094L20.388 67.516H32.0333L34.32 58.7L36.7133 47.38L36.932 43.0254L33.5573 42.808Z" fill="#075A62"/>
<path d="M34.428 48.4694L35.9747 42.964L33.5573 42.808L31.3787 48.36L27.7866 55L24.088 59.68L21.584 62.5094L21.4933 62.8893L29.4186 62.4014L30.6186 61.0947L32.4693 55.652L34.428 48.4694Z" fill="#62CCBA"/>
<path d="M23.652 62.4014L20.4307 67.516H32.0333L32.0627 67.4054L30.944 63.708L29.4187 61.9667L26.3733 61.6374L23.652 62.4014Z" fill="#38AD97"/>
<path d="M1.38133 37.4453L14.248 53.524L29.1787 43.492L45.208 31.6627L39.896 23.512L31.536 13.3694L0.763977 35.4907L1.38133 37.4453Z" fill="white"/>
<path d="M22.1947 25.6547L16.8013 28.26L13.34 33.012L14.412 37.836L18.908 42.232L23.3533 42.1813L28.812 39.1547L30.696 34.8C30.696 34.8 29.6786 30.3093 29.324 29.82C28.9693 29.3307 26.716 26.4827 26.2053 26.2934C25.6947 26.104 22.1947 25.6547 22.1947 25.6547Z" fill="#FF4127"/>
<path d="M53.236 2.29602L51.4333 3.53469L55.3734 9.38668L58.9734 10.0614L62.3507 9.49869L62.6893 23.788L60.9987 29.0773L56.2747 31.328L53.124 31.4414L53.46 33.692L61.224 32.4533L65.1627 28.1773L66.6267 18.9507L65.6134 2.07069L62.576 4.54667L57.7374 4.88534L53.236 2.29602Z" fill="white"/>
<path d="M72.028 19.288L73.94 7.24798L77.0907 20.076L72.028 19.288ZM79.116 13.324L75.18 1.17197L71.8027 1.95999L68.764 19.288L67.64 33.1293L70.6774 32.9027L71.6893 23.452L78.7774 24.1267L81.592 33.2413L83.9547 32.116L79.116 13.324Z" fill="white"/>
<path d="M92.3946 18.9507L89.132 19.9627L89.0173 16.812L88.4573 5.89868L90.8186 5.67201L94.0813 7.81065C94.0813 7.81065 94.7573 13.4374 94.7573 13.7747C94.7573 14.112 92.3946 18.9507 92.3946 18.9507ZM96.6706 6.12267L90.9293 1.73331L85.1933 0.609352L85.3053 16.1373L86.5426 33.016L89.4693 32.5667V23.0013L95.2066 21.088L98.8093 13.6613L96.6706 6.12267Z" fill="white"/>
<path d="M104.097 19.4L106.349 7.02269L109.275 20.076L104.097 19.4ZM109.948 9.83603L107.473 0.272003L104.996 0.609373L101.959 14.112L99.2586 29.3027L98.8093 31.8907L101.735 32.3414L103.984 23.3387L109.611 23.9027L111.973 32.3414L114.112 31.5533L109.948 9.83603Z" fill="white"/>
<path d="M116.361 0.60935L116.473 13.5493L117.149 32.5667H120.301L120.189 22.4387L127.277 28.6293L127.389 32.5667L130.879 33.016L131.779 12.7613L131.216 0.60935L127.616 0.946654L127.277 21.9893L119.964 16.812L119.176 0.0466537L116.361 0.60935Z" fill="white"/>
</svg>
