<svg width="231" height="147" viewBox="0 0 231 147" fill="none" xmlns="http://www.w3.org/2000/svg">
<path d="M28.12 4.576L29.744 34.9975L56.344 35.7917L85.8107 35.3736L86.4413 20.9917L85.124 1.59334L29.06 1.69601L28.12 4.576Z" fill="white"/>
<path d="M76.568 13.1453L85.9267 13.4227L85.124 1.59333L29.06 1.696L28.12 4.576L28.604 13.6797L43.5067 13.5881L76.568 13.1453Z" fill="#FF4127"/>
<path d="M29.744 34.9975L56.344 35.7917L85.8107 35.3736L86.272 24.9079L74.008 25.1403L50.0467 24.8069L29.2067 24.936L29.744 34.9975Z" fill="black"/>
<path d="M58.156 17.5267L55.9173 16.5079L53.9853 17.5267L53.172 22.6105L54.8 22.2027L56.3253 21.2892L57.852 23.0173L57.952 24.0345H58.8667L59.072 23.0173L59.8853 21.4917L61.412 22.2027L62.5293 22.9173L62.836 20.1693L62.224 17.9319L60.088 16.7105L58.9693 14.5761L56.632 14.372L56.2226 15.0855L57.4427 15.2881L58.156 17.5267Z" fill="#EF880C"/>
<path d="M0.589294 110.158L1.09597 111.679L15.256 111.172L27.14 110.416L40.796 111.172L82.2653 111.679L106.541 111.172H128.036L151.048 111.679L151.301 108.897L145.991 101.311L125.507 77.5403L116.405 66.4121L114.635 64.3917L105.279 56.5507L89.852 39.1053L78.472 28.2319L73.4173 23.4267L71.6466 23.6788L61.784 34.8069L45.3453 56.3001L31.6933 74.0001L17.028 91.1975L0.589294 110.158Z" fill="#FFAD65"/>
<path d="M64.8186 34.5521L73.392 23.4293L71.6466 23.6788L61.784 34.8069L45.3453 56.3001L31.6933 74.0001L17.028 91.1975L0.589294 110.158L1.09597 111.679L3.91065 111.576L16.7733 93.472L29.4173 79.0559L39.0266 66.6693L54.956 46.6917L64.8186 34.5521Z" fill="#BA7545"/>
<path d="M97.944 53.0121L96.9333 51.4949L99.52 50.0412L89.852 39.1053L78.472 28.2319L73.4173 23.4267L71.6467 23.6788L61.784 34.8069L45.3453 56.3001L40.6653 62.3679H42.8173L48.1306 54.7813L52.6813 49.724L60.0147 49.9761V52.7584L59.508 56.3001L63.0493 57.5627V59.8387L73.6693 61.6079L75.9453 63.3772L79.484 60.0907L80.4946 57.0573L96.1747 58.0693L97.944 53.0121Z" fill="#FFD394"/>
<path d="M71.8987 83.8627L94.9107 83.3559L111.852 84.8736L112.107 86.3917L99.46 85.6319L86.8187 84.6199L71.1387 85.1267L71.8987 83.8627Z" fill="#FFD394"/>
<path d="M96.6827 89.6788H115.393L120.197 89.9319V91.448L109.324 91.1975L109.073 92.9668H96.9333L96.6827 89.6788Z" fill="#BA7545"/>
<path d="M26.3813 101.311L38.7733 101.815L41.8067 98.024L67.6013 97.7704L67.8533 99.0335L74.1747 99.5403L73.9227 101.564L41.304 100.045L39.0267 104.597L24.6133 105.357L26.3813 101.311Z" fill="#BA7545"/>
<path d="M13.7387 103.839L19.0506 103.333L19.556 101.057L13.2346 101.815L13.7387 103.839Z" fill="#BA7545"/>
<path d="M17.7853 104.345H24.1053L23.348 105.101L17.028 105.609L17.7853 104.345Z" fill="#BA7545"/>
<path d="M20.3134 100.3L20.568 102.321H24.6134L24.864 100.805L20.3134 100.3Z" fill="#BA7545"/>
<path d="M43.0733 103.839L42.5653 105.101H71.6467V103.839L55.7147 103.333L43.0733 103.839Z" fill="#BA7545"/>
<path d="M75.4387 103.333V105.101L91.368 105.609L91.1186 104.345L75.4387 103.333Z" fill="#BA7545"/>
<path d="M61.028 77.5403L81.7613 79.0559L81.2533 80.3225L60.2667 80.0679L61.028 77.5403Z" fill="#BA7545"/>
<path d="M93.9013 65.1507L110.083 65.9069L109.827 64.6439L93.3933 63.3772L93.9013 65.1507Z" fill="#BA7545"/>
<path d="M46.36 62.1147H57.9933L58.2453 63.6335L71.1387 65.4037L73.6693 67.6797H78.7267L73.9226 65.9069L71.8987 64.6439L60.0147 61.6079V60.0907H47.8773L46.36 62.1147Z" fill="#FFD394"/>
<path d="M50.9107 56.5507L50.66 57.8173H54.956L54.7053 56.3001L50.9107 56.5507Z" fill="#BA7545"/>
<path d="M29.4173 83.8627H41.5547L52.176 85.1267L53.188 86.3917H58.4933L58.2454 87.6548L27.14 86.6428L29.4173 83.8627Z" fill="#BA7545"/>
<path d="M62.796 86.6428V87.4012L69.6266 87.6548L69.1186 86.3917L62.796 86.6428Z" fill="#BA7545"/>
<path d="M81.7613 90.9412L81.0013 92.46L86.8187 92.9668L86.312 91.448L81.7613 90.9412Z" fill="#BA7545"/>
<path d="M115.9 97.7704L116.152 99.0335L137.393 100.805L141.185 99.5403L139.92 97.7704H115.9Z" fill="#BA7545"/>
<path d="M100.728 69.4491H107.047L110.587 70.2069V71.7283L100.221 70.7121L100.728 69.4491Z" fill="#FFD394"/>
<path d="M96.6827 69.7012L96.4253 70.9641H93.1387V69.7012H96.6827Z" fill="#BA7545"/>
<path d="M114.635 79.3095V80.5745H117.163V79.5641L114.635 79.3095Z" fill="#BA7545"/>
<path d="M41.5546 73.4949V74.7573H48.3813V73.4949H41.5546Z" fill="#BA7545"/>
<path d="M58.748 69.1975V70.4616L64.5653 70.9641V69.9521L58.748 69.1975Z" fill="#BA7545"/>
<path d="M19.8067 108.391L18.0387 113.703L18.7973 118.255L57.7373 119.519L76.4506 119.77L87.0693 126.091L94.152 130.389L98.7027 129.887L102.496 133.929L108.059 134.943L138.659 135.701L142.956 143.795L199.344 146.827L207.437 133.425L206.172 128.87L152.059 125.585L124.999 116.231L106.036 114.205L99.968 110.665H84.5413L30.428 108.641L19.8067 108.391Z" fill="#EF880C"/>
<path d="M32.4506 106.87L32.7026 111.424L104.013 111.929L103.508 109.907L95.672 109.148L72.1506 108.641L43.8306 107.379L32.4506 106.87Z" fill="#FFC280"/>
<path d="M174.309 143.539L145.484 141.517L142.956 139.241L139.416 133.929L108.817 131.148V129.125L100.979 127.608H92.8867L82.0134 121.033L76.4507 117.997L37.508 117.495L18.3973 115.863L18.7973 118.255L57.7373 119.519L76.4507 119.77L87.0693 126.091L94.152 130.389L98.7027 129.887L102.496 133.929L108.059 134.943L138.659 135.701L142.956 143.795L199.344 146.827L199.791 146.087L174.309 143.539Z" fill="#D17519"/>
<path d="M98.4493 115.472L100.979 106.115L111.852 105.609L119.187 105.357L124.999 105.609L135.369 101.311L143.207 97.5173L146.495 92.7121L148.012 87.6548L147.761 82.3464L145.737 80.3225V78.3001L147.253 75.7693L148.267 71.7283L156.104 57.5627L162.427 49.724L168.244 48.7131L177.597 47.9548L181.643 45.9319L183.415 46.6917L186.195 50.2319L192.771 52.2521L195.047 54.5293L196.309 56.0464L199.344 56.5507L203.643 61.1027L211.484 81.3335L210.471 83.3559L210.976 85.3788L207.943 86.896L206.68 88.1616V93.2199L205.921 98.5283L206.68 105.101L211.231 106.115L212.492 108.391L216.541 108.897L216.287 110.919L221.348 112.689V114.457L219.071 114.713L218.819 117.243L222.861 117.748L225.139 119.519V121.793L225.392 123.816L228.677 124.574L230.956 125.585L229.944 129.887L226.148 132.412L211.484 133.425L184.173 134.184L166.725 133.172L160.404 132.158L152.059 130.643H148.517L135.621 123.564L125.255 119.519L116.405 119.263L105.785 117.997L100.472 116.988L98.4493 115.472Z" fill="#933800"/>
<path d="M230.956 125.585L228.677 124.574L225.392 123.816L225.139 121.793V119.519L222.861 117.748L218.819 117.243L219.071 114.713L221.348 114.457V112.689L216.287 110.919L216.541 108.897L212.492 108.391L211.231 106.115L206.68 105.101L206.472 103.307L200.019 102.407L198.668 100.045L194.12 96.5037L190.072 89.4267L188.727 84.7053V82.8507L191.255 79.8147L192.771 75.9403L193.108 68.6892L194.289 66.836L195.467 62.4521L195.299 58.2387L193.951 56.5507L194.223 53.7037L192.771 52.2521L186.195 50.2319L183.415 46.6917L181.643 45.9319L177.597 47.9548L168.244 48.7131L164.657 49.336L164.787 52.5053L165.291 53.1797V57.3949L163.1 56.3829L161.416 57.0573L161.079 62.7907L161.919 67.1736L163.943 68.6892L165.629 68.0157L170.351 79.8147L170.18 81.8412L165.463 88.7521L154.504 91.448L143.805 96.6464L143.207 97.5173L135.369 101.311L124.999 105.609L119.187 105.357L111.852 105.609L100.979 106.115L98.4493 115.472L100.472 116.988L105.785 117.997L116.405 119.263L125.255 119.519L135.621 123.564L148.517 130.643H152.059L160.404 132.158L166.725 133.172L184.173 134.184L211.484 133.425L226.148 132.412L229.944 129.887L230.956 125.585Z" fill="#EF880C"/>
<path d="M207.437 133.425L206.172 128.87L152.059 125.585L124.999 116.231L106.036 114.205L99.968 110.665H99.7506L98.4493 115.472L100.472 116.988L105.785 117.997L116.405 119.263L125.255 119.519L135.621 123.564L148.517 130.643H152.059L160.404 132.158L166.725 133.172L184.173 134.184L207.368 133.539L207.437 133.425Z" fill="#D17519"/>
<path d="M177.684 133.805L181.288 134.017L181.172 127.355L176.903 127.096L177.684 133.805Z" fill="#B2510E"/>
<path d="M153.185 130.848L153.28 125.658L152.059 125.585L148.967 124.519L148.544 130.643H152.059L153.185 130.848Z" fill="#B2510E"/>
<path d="M140.637 126.315L141.009 121.764L138.729 120.975L138.917 125.372L140.637 126.315Z" fill="#B2510E"/>
<path d="M125.771 119.716L135.621 123.564L138.057 124.903L137.885 120.685L126.056 116.592L125.771 119.716Z" fill="#B2510E"/>
<path d="M109.264 118.413L116.405 119.263L118.231 119.317L118.7 115.557L108.92 114.516L109.264 118.413Z" fill="#B2510E"/>
<path d="M185.015 85.7188L189.475 87.3283L188.727 84.7053V82.8507L191.255 79.8147L192.771 75.9403L193.108 68.6892L194.289 66.836L195.467 62.4521L195.299 58.2387L193.951 56.5507L193.967 56.3745L192.603 56.2163H187.037L183.667 56.5507V58.9147L184.343 62.7907L187.208 63.2949L188.557 64.8121L186.701 67.0053L187.208 68.3532L185.351 69.7012L183.329 69.5345L179.285 70.8797V71.7283L181.475 71.3865L185.015 71.7283V72.7335L182.823 72.4012L180.972 73.4079L184.68 74.2521L184.343 76.2761L182.317 76.1079L176.587 77.4584L170.325 80.1157L170.18 81.8412L169.745 82.4824L176.753 81.1652L182.823 81.3335L184.343 83.3559L185.015 85.7188Z" fill="#B2510E"/>
<path d="M189.396 62.4559L189.232 66.1641L188.388 68.0157L191.927 67.3412L192.265 62.1147L189.396 62.4559Z" fill="#933800"/>
<path d="M185.015 57.3949L185.859 61.4428H187.544L186.027 57.0573L185.015 57.3949Z" fill="#933800"/>
<path d="M187.544 78.6371L181.98 77.1215H178.016L176.587 77.4584L182.653 78.8037L187.88 81.8412L188.952 82.5772L189.86 81.4907L187.544 78.6371Z" fill="#933800"/>
<path d="M185.859 73.9173L186.027 76.4439L188.893 77.2881L192.097 77.6573L192.771 75.9403L192.995 71.1573L192.771 71.2188L187.88 72.9037L185.859 73.9173Z" fill="#933800"/>
<path d="M182.317 64.3079L180.465 66.5001L182.317 66.836V64.3079Z" fill="#B2510E"/>
<path d="M181.98 61.4428L181.139 62.96L178.609 61.6079L177.092 60.9371L172.54 60.5975L173.384 58.4095L173.719 57.7335L178.947 55.8797L182.488 56.2163L182.653 58.2387L182.317 59.2507L181.98 61.4428Z" fill="#B2510E"/>
<path d="M168.832 73.5797L172.033 72.0627L177.765 71.0521V71.5559L172.099 72.5496L168.939 73.9387L168.832 73.5797Z" fill="#D17519"/>
<path d="M167.863 67.3641L172.54 65.9069H176.967L177.917 66.1001L177.725 66.5387L173.743 66.2907L170.771 66.9824L167.863 67.8053V67.3641Z" fill="#D17519"/>
<path d="M166.159 57.5627L170.264 56.5507L173.489 56.0464L174.941 56.1105L174.879 56.4892L171.024 56.8668L166.092 58.2573L166.159 57.5627Z" fill="#D17519"/>
<path d="M182.653 52.3173L181.961 54.2121L183.289 54.5907L183.415 52.5053L182.653 52.3173Z" fill="#D17519"/>
<path d="M163.943 68.6892L164.28 68.5573V64.9797L165.463 59.5865L165.259 57.3813L163.1 56.3829L161.416 57.0573L161.079 62.7907L161.919 67.1736L163.943 68.6892Z" fill="#B2510E"/>
<path d="M181.393 54.1507L182.567 46.3267L181.643 45.9319L180.476 46.5173L180.064 50.4199L180.128 53.5813L181.393 54.1507Z" fill="#D17519"/>
<path d="M198.501 70.0371L199.009 71.2188L203.392 70.7121L207.415 70.8308L206.569 68.648L198.501 70.0371Z" fill="#B2510E"/>
<path d="M201.029 81.1652L204.404 81.6704L211.116 82.0668L211.484 81.3335L210.599 79.0559L206.763 79.1412L200.523 79.8147L201.029 81.1652Z" fill="#B2510E"/>
<path d="M191.927 83.6949L192.095 85.0455L207.473 87.3627L207.943 86.896L210.976 85.3788L210.611 83.9215L195.299 82.5131L191.927 83.6949Z" fill="#B2510E"/>
<path d="M156.104 57.5627L148.267 71.7283L147.253 75.7693L145.791 78.2121L156.36 77.2881L157.876 69.7012L159.701 53.1027L156.104 57.5627Z" fill="#B2510E"/>
<path d="M153.323 80.1548L145.737 80.2949V80.3225L147.412 81.9975L152.648 81.1652L164.451 80.8283L164.787 79.9855L161.751 79.8147L153.323 80.1548Z" fill="#B2510E"/>
<path d="M160.74 83.0199L155.515 82.8507L147.819 83.5917L147.897 85.2627L161.245 84.2001L160.74 83.0199Z" fill="#B2510E"/>
<path d="M190.052 89.348L189.547 87.5829L188.893 87.9095H185.524L177.597 86.56L176.251 85.7188L167.364 85.9652L165.463 88.7521L164.843 88.9037L174.396 88.7521L183.331 88.9188L188.727 89.4267L190.052 89.348Z" fill="#D17519"/>
<path d="M147.823 94.6917L159.055 94.9865L172.205 95.4933L184.173 96.5037L192.095 96.6736L193.963 96.2308L191.513 91.9507L186.027 92.46L172.712 92.2907L164.28 91.2797L153.851 91.7668L147.823 94.6917Z" fill="#D17519"/>
<path d="M157.703 101.733L167.988 101.397L185.015 102.408L198.335 102.745L199.979 102.332L198.668 100.045L197.416 99.0679L191.759 99.2027L180.801 98.36L171.869 97.3491L152.816 97.1797L143.335 97.3345L143.207 97.5173L135.369 101.311L132.82 102.368L143.881 102.237L157.703 101.733Z" fill="#FFC280"/>
<path d="M202.716 115.051L216.541 115.892L218.943 116.008L219.071 114.713L221.348 114.457V112.689L216.287 110.919L216.423 109.839L208.956 109.148L184.173 107.127L158.552 106.453L134.78 106.62L127.697 106.453L125.333 105.472L124.999 105.609L119.187 105.357L111.852 105.609L100.979 106.115L100.052 109.539L122.641 111.846L139.163 110.835L148.097 110.158L174.228 112.856L202.716 115.051Z" fill="#D17519"/>
<path d="M163.268 121.117L197.827 121.625L225.179 122.107L225.139 121.793V119.519L223.948 118.589H215.361L200.189 117.58L162.933 115.217H151.132L137.14 115.892L141.861 118.589L152.312 121.288L163.268 121.117Z" fill="#FFC280"/>
<path d="M169.857 97.3335L156.535 97.2105L157.071 101.755L157.703 101.733L167.988 101.397L169.668 101.493L169.857 97.3335Z" fill="#D17519"/>
<path d="M172.113 101.64L176.039 101.872L175.943 97.8079L171.915 97.3532L172.113 101.64Z" fill="#D17519"/>
<path d="M179.032 92.372L172.712 92.2907L164.28 91.2797L153.851 91.7668L147.823 94.6917L159.055 94.9865L172.205 95.4933L179.032 96.072V92.372Z" fill="#FFC280"/>
<path d="M182.657 96.3761L184.173 96.5037L185.185 96.5283V92.448L182.657 92.4188V96.3761Z" fill="#B2510E"/>
<path d="M150.46 106.509L134.78 106.62L127.697 106.453L125.333 105.472L124.999 105.609L119.187 105.357L111.852 105.609L100.979 106.115L100.052 109.539L122.641 111.846L139.163 110.835L148.097 110.158L150.46 110.404V106.509Z" fill="#FFC280"/>
<path d="M154.165 109.148L153.712 110.74L163.607 111.76V110.665L161.245 109.148H154.165Z" fill="#B2510E"/>
<path d="M165.124 108.98L167.484 109.995L170.351 109.485L169.752 106.746L164.861 106.62L165.124 108.98Z" fill="#B2510E"/>
<path d="M183.113 113.543L187.061 113.846L187.179 107.37L184.173 107.127L182.741 107.087L183.113 113.543Z" fill="#FFC280"/>
<path d="M216.541 120.612L191.759 119.263L164.451 117.748H152.312L150.793 119.095L156.241 121.225L163.268 121.117L197.827 121.625L217.123 121.963L216.541 120.612Z" fill="#D17519"/>
<path d="M227.837 128.032L222.441 129.211L213.675 129.716L213.556 133.284L226.148 132.412L229.944 129.887L230.933 125.676L227.837 128.032Z" fill="#B2510E"/>
<path d="M65.8306 39.6105L65.9573 40.6215H70.76L71.1386 39.4824L65.8306 39.6105Z" fill="#FFAD65"/>
<path d="M67.2213 42.2652L67.472 43.6559L74.8053 44.0345V42.8975L74.1747 42.1403L67.2213 42.2652Z" fill="#FFAD65"/>
<path d="M79.4839 42.8975L80.3693 43.9095H83.2786L83.404 42.6455L79.4839 42.8975Z" fill="#FFAD65"/>
<path d="M75.188 39.6105L75.312 40.6215H77.208V39.6105H75.188Z" fill="#FFAD65"/>
<path d="M60.392 46.3105L60.2667 47.3225L68.1053 47.7027V46.0584L61.4053 45.6788L60.392 46.3105Z" fill="#FFAD65"/>
<path d="M82.52 48.8403V50.1037L91.748 50.736L92.128 48.7131L89.22 48.46L82.52 48.8403Z" fill="#FFAD65"/>
<path d="M66.8413 52.6345V54.0225L75.6933 54.6559V53.0121L72.1506 52.1283L66.8413 52.6345Z" fill="#FFAD65"/>
<path d="M74.3026 33.5403V34.9308L79.9893 34.8069L79.74 33.4147L74.3026 33.5403Z" fill="#FFAD65"/>
<path d="M95.1813 2.87733L95.828 15.0267L96.344 31.8069L96.6027 34.5855L110.82 34.2387V30.9975L100.223 29.8403L100.479 21.0439L105.263 20.8131V17.1105L100.091 16.5308L99.576 7.62133L108.235 6.58V2.87733H95.1813Z" fill="white"/>
<path d="M126.459 5.88401L125.035 7.736L121.029 6.11601L117.54 9.35867L116.507 19.6559L120.385 27.6403L124.389 27.7573L125.941 25.2105L126.072 21.3933L123.096 21.5069L122.323 17.1105L132.273 16.9933L132.404 19.5387L130.207 20.9267L130.335 34.5855L129.947 37.1308L127.232 36.9001L126.587 29.9559L122.709 32.6173L118.315 31.3455L113.92 25.4428L112.757 10.3973L116.377 0.446678L121.675 0.793342L126.459 5.88401Z" fill="white"/>
<path d="M133.048 1.13866L130.593 2.87734L137.572 19.424V30.072L137.444 35.048L140.804 34.8157L142.225 18.2668L150.753 2.18134L148.688 0.793335L140.288 13.8704L133.048 1.13866Z" fill="white"/>
<path d="M162.645 16.5308L156.96 18.036L156.441 6.232H158.639L161.999 7.50533L164.713 12.0187L162.645 16.5308ZM168.333 12.5973L166.136 4.38L160.965 2.06801L153.727 3.33866C153.727 3.68666 153.211 12.48 153.211 12.48L153.727 28.3345L154.245 34.8157L158.508 34.9308L158.38 21.8548L166.523 18.6157L168.333 12.5973Z" fill="white"/>
<path d="M169.365 2.75867C169.496 3.22267 169.752 5.88401 169.752 5.88401L178.929 6.58001L179.447 34.0069L182.289 34.1225L184.099 32.2693L182.679 6.58001L191.079 5.65333L190.819 3.22267L173.113 2.41468L169.365 2.75867Z" fill="white"/>
</svg>
