<svg width="210" height="138" viewBox="0 0 210 138" fill="none" xmlns="http://www.w3.org/2000/svg">
<path d="M180.037 7.484L179.919 10.2933L178.868 20.9387L204.721 23.6307L205.307 18.0147L206.008 11.112L202.38 8.88934L198.521 7.13468L192.087 5.84666L185.185 6.19868L180.037 7.484Z" fill="#FFAD65"/>
<path d="M178.947 9.86401L181.677 8.30535L185.341 7.91466L194.544 7.99334L198.989 8.92667L203.28 10.8L206.32 12.7493L206.087 13.3734L206.009 13.9973L203.669 12.2813L197.119 10.0973L188.772 9.24002L182.535 9.78667L179.336 11.736L178.947 9.86401Z" fill="#FFD394"/>
<path d="M206.087 13.3734L206.1 13.3347L203.904 11.736L201.096 10.6427L197.352 9.39601L191.269 8.53869L185.42 8.616L181.677 9.24002L179.14 10.7907L179.336 11.736L182.535 9.78667L188.772 9.24002L197.119 10.0973L203.669 12.2813L206.009 13.9973L206.087 13.3734Z" fill="#BA7545"/>
<path d="M198.521 7.1347L192.087 5.84668L185.185 6.1987L180.037 7.48402L180.001 8.34004L186.044 6.6667L191.033 6.51068L196.651 7.36804L201.096 9.00671L203.98 10.5667L205.951 11.6787L206.008 11.112L202.38 8.88936L198.521 7.1347Z" fill="#BA7545"/>
<path d="M202.889 13.5307L202.109 15.8694L201.719 20.9387L201.472 23.2907L203.324 23.4827L203.824 18.912L204.059 15.4014L203.512 13.608L202.889 13.5307Z" fill="#BA7545"/>
<path d="M200.605 23.2014L201.019 16.8054L201.251 14.1547L200.861 12.4387L199.769 11.8133L198.521 11.9707L198.053 12.828L197.585 12.672L197.743 11.6587L197.039 10.8787L195.637 10.7227L194.7 11.3467L194.233 12.984L193.997 16.8827L193.505 22.4627L200.605 23.2014Z" fill="#BA7545"/>
<path d="M192.395 22.3453L192.592 17.7414L193.063 13.6853L192.439 11.736L191.348 10.8787L190.021 11.2667L189.084 12.7493L188.616 17.7414L188.412 21.932L192.395 22.3453Z" fill="#7B402C"/>
<path d="M189.039 21.9973L189.631 14.6213L190.021 12.5933L191.191 11.9707L192.204 12.5933L193.008 14.1493L193.063 13.6853L192.439 11.736L191.348 10.8787L190.021 11.2667L189.084 12.7493L188.616 17.7414L188.412 21.932L189.039 21.9973Z" fill="#523126"/>
<path d="M187.123 21.7987L187.681 15.636L187.837 12.204L186.432 10.8L185.028 11.112L184.561 12.984L184.016 12.828L183.937 11.5027L183.236 10.956L181.832 11.58L180.973 13.3734L180.428 17.1947L179.955 21.052L187.123 21.7987Z" fill="#BA7545"/>
<path d="M185.611 21.64L185.888 17.2734V14.9334L184.483 13.5307L183.08 13.3734L181.677 16.416L181.313 21.1934L185.611 21.64Z" fill="#7B402C"/>
<path d="M184.483 13.5307L183.08 13.3734L181.677 16.416L181.313 21.1934L182.768 21.3453L183.003 18.1307L183.156 15.4787L184.172 14.6213L185.801 14.8453L184.483 13.5307Z" fill="#523126"/>
<path d="M199.769 17.7414L199.459 15.2467L197.975 14.4667H195.948L194.935 15.8694L194.153 19.0667L194.223 22.5374L199.421 23.0773L199.769 17.7414Z" fill="#7B402C"/>
<path d="M198.377 22.968L199.421 23.0773L199.769 17.7414L199.459 15.2467L197.975 14.4667H195.948L194.935 15.8694L194.78 16.5027L196.416 15.7133L198.755 16.572V18.676L198.377 22.968Z" fill="#523126"/>
<path d="M173.839 21.524L177.581 20.472L183.429 20.236L196.181 21.2893L202.499 22.2253L207.179 23.6307L208.815 24.916L208.465 32.7533L207.997 41.8787L206.944 57.6707L205.54 76.0373L204.02 99.552L202.616 118.035L166.701 114.293L170.328 73.932L171.615 56.736L172.668 39.7734L173.839 24.916V21.524Z" fill="#BA7545"/>
<path d="M202.499 22.2253L196.181 21.2893L183.429 20.236L177.581 20.472L173.839 21.524V24.916L173.337 31.2613L178.401 28.308L187.291 27.372L195.012 27.608L202.38 30.2973L207.061 32.168L208.428 33.4867L208.465 32.7533L208.815 24.916L207.179 23.6307L202.499 22.2253Z" fill="#523126"/>
<path d="M207.179 23.6307L202.499 22.2253L196.181 21.2893L183.429 20.236L177.581 20.472L173.839 21.524V24.916L173.013 35.3867H173.692L174.159 27.752L175.065 27.724V26.7293L174.54 26.6707L175.009 24.9747L176.528 23.9213L177.405 24.2733L177.816 26.32L177.112 26.7293V27.14L177.581 27.256L177.348 34.976L178.343 34.86L178.635 27.0813L179.336 26.9627L179.395 26.32L178.808 26.144L179.161 24.2733L180.213 23.5707L181.441 23.7453L181.852 25.2093L181.441 25.6773V26.0853L181.852 26.144L181.617 34.684L182.493 34.6253L182.729 26.028H183.372V25.0333L182.904 24.9747L183.547 23.1027L184.893 22.576L186.239 22.8693L186.999 23.7453L187.057 25.092L186.296 25.2093V25.7947L186.765 26.028V34.8013L187.64 34.7427L187.817 26.2027H188.461L188.343 25.4427L187.817 25.2093L188.227 23.4547L189.748 22.576L191.033 22.752L192.263 23.864L192.439 25.6173H191.855L191.796 26.32L192.263 26.436L192.087 34.86L193.199 34.9187L193.665 26.8466L194.251 26.7293L194.427 25.6173L193.9 25.4427L194.777 23.6307L196.24 23.22L197.585 23.336L198.815 24.3907L198.989 26.436L198.464 26.32L198.404 27.3133L198.696 27.4307L198.288 35.6786L199.047 35.7947L199.575 27.548L200.159 27.608L200.335 26.6707L199.808 26.3773L200.685 24.624L202.323 24.3907L203.903 25.092L204.721 26.2027L205.015 27.548L203.844 27.608L203.787 28.3667L204.663 28.66L204.079 36.9067L204.956 37.0827L205.599 28.952H206.417L206.36 28.0747L205.891 27.608L206.592 26.7293L207.704 26.6707L208.115 28.308H207.529V29.0106L208.172 29.2453L207.587 37.7253L208.2 37.9013L208.465 32.7533L208.815 24.916L207.179 23.6307Z" fill="#FFAD65"/>
<path d="M207.312 52.1387L207.997 41.8813L198.365 38.252L186.355 36.9267L178.401 37.004L173.643 37.5507L172.808 37.9787L172.668 39.7734L172.263 46.3027L175.437 44.8813L180.193 43.868L187.525 44.18L194.388 45.116L199.847 46.4414L203.589 48.468L207.312 52.1387Z" fill="#523126"/>
<path d="M207.143 54.6693L207.997 41.8787L208.077 40.3347L203.027 37.784L189.397 35.7373L175.009 35.5613L172.903 36.792L172.668 39.7733L171.899 52.1733H172.696L173.165 44.54L174.072 44.5107V43.5173L173.544 43.4587L174.013 41.7627L175.535 40.7093L176.411 41.06L176.821 43.1067L176.119 43.5173V43.9267L176.585 44.0427L176.355 51.764L177.348 51.6467L177.639 43.868L178.343 43.7507L178.401 43.1067L177.816 42.932L178.167 41.06L179.22 40.3587L180.447 40.5333L180.857 41.996L180.447 42.464V42.8733L180.857 42.932L180.623 51.472L181.501 51.4133L181.733 42.8147H182.377V41.82L181.911 41.7627L182.553 39.8907L183.899 39.364L185.244 39.656L186.004 40.5333L186.063 41.8787L185.303 41.996V42.5813L185.771 42.8147V51.5893L186.647 51.5307L186.823 42.9907H187.465L187.349 42.2293L186.823 41.996L187.233 40.2413L188.753 39.364L190.04 39.54L191.268 40.6507L191.445 42.4053H190.86L190.8 43.1067L191.268 43.224L191.093 51.6467L192.204 51.704L192.673 43.6333L193.256 43.5173L193.432 42.4053L192.907 42.2293L193.783 40.4173L195.247 40.0067L196.591 40.124L197.819 41.1773L197.996 43.224L197.469 43.1067L197.409 44.1013L197.701 44.2187L197.295 52.4667L198.053 52.5827L198.58 44.3347L199.165 44.3947L199.341 43.4587L198.815 43.1653L199.692 41.4107L201.329 41.1773L202.908 41.8787L203.727 42.9907L204.02 44.3347L202.849 44.3947L202.792 45.1547L203.668 45.4467L203.084 53.6947L203.961 53.8693L204.604 45.74H205.423L205.367 44.8613L204.897 44.3947L205.599 43.5173L206.712 43.4587L207.119 45.096H206.535V45.7987L207.179 46.032L206.592 54.5133L207.143 54.6693Z" fill="#FFAD65"/>
<path d="M206.219 67.1534L206.917 58.016L197.352 54.396L186.044 53.3827L176.139 53.7734L171.715 55.112L171.615 56.736L171.124 63.2987L174.891 61.492L182.065 60.5574L189.631 60.4787L196.181 61.7267L201.563 63.4427L203.98 65.0813L206.219 67.1534Z" fill="#523126"/>
<path d="M207.017 56.592L201.972 54.0453L188.343 51.9987L173.955 51.8227L171.844 53.056L171.615 56.736L170.739 68.4347H171.644L172.112 60.8027L173.019 60.7707V59.7773L172.492 59.7187L172.96 58.024L174.48 56.9707L175.36 57.32L175.768 59.3667L175.065 59.7773V60.188L175.535 60.304L175.3 68.0254L176.293 67.9094L176.585 60.1294L177.288 60.0107L177.348 59.3667L176.761 59.1934L177.112 57.32L178.167 56.6187L179.395 56.7947L179.804 58.256L179.395 58.7254V59.1347L179.804 59.1934L179.571 67.7334L180.447 67.6747L180.681 59.076H181.325V58.0813L180.857 58.024L181.501 56.152L182.847 55.6254L184.192 55.9173L184.952 56.7947L185.009 58.14L184.249 58.256V58.8414L184.716 59.076V67.8507L185.595 67.792L185.771 59.252H186.415L186.296 58.4894L185.771 58.256L186.179 56.5014L187.7 55.6254L188.985 55.8L190.215 56.912L190.392 58.6667H189.805L189.748 59.3667L190.215 59.484L190.04 67.9094L191.149 67.9667L191.619 59.8947L192.204 59.7773L192.379 58.6667L191.855 58.4894L192.731 56.676L194.193 56.268L195.537 56.3853L196.767 57.4387L196.941 59.484L196.416 59.3667L196.357 60.3627L196.651 60.4787L196.24 68.7267L197 68.844L197.527 60.596L198.112 60.656L198.288 59.7187L197.761 59.4267L198.639 57.6707L200.277 57.4387L201.856 58.14L202.675 59.252L202.967 60.596L201.797 60.656L201.74 61.416L202.616 61.708L202.029 69.956L202.908 70.132L203.552 62.0014H204.372L204.311 61.1227L203.844 60.656L204.545 59.7773L205.657 59.7187L206.067 61.3574H205.481V62.06L206.125 62.2934L205.54 70.7734L205.935 70.8853L206.944 57.6707L207.017 56.592Z" fill="#FFAD65"/>
<path d="M193.841 69.9173L181.597 68.7453L173.565 69.2933L170.599 70.3067L170.328 73.932L169.919 78.4733L177.153 76.6227L186.823 77.5587L196.651 78.1053L201.797 79.8987L205.124 82.4787L205.54 76.0373L205.712 73.784L193.841 69.9173Z" fill="#523126"/>
<path d="M200.919 69.8387L187.291 67.792L172.901 67.616L170.704 68.9014L170.328 73.932L169.403 84.2267H170.591L171.06 76.5934L171.967 76.5654V75.5707L171.44 75.5134L171.909 73.8147L173.427 72.7627L174.305 73.1134L174.716 75.16L174.013 75.5707V75.98L174.48 76.096L174.248 83.8174L175.241 83.7014L175.535 75.9214L176.236 75.8054L176.293 75.16L175.709 74.9867L176.06 73.1134L177.112 72.412L178.343 72.5867L178.751 74.0494L178.343 74.5187V74.9267L178.751 74.9867L178.517 83.5267L179.395 83.4667L179.629 74.8694H180.271V73.8747L179.804 73.8147L180.447 71.944L181.793 71.4187L183.139 71.7094L183.899 72.5867L183.957 73.932L183.196 74.0494V74.636L183.664 74.8694V83.6414L184.541 83.5854L184.716 75.044H185.361L185.244 74.284L184.716 74.0494L185.125 72.2947L186.647 71.4187L187.935 71.592L189.163 72.704L189.337 74.46H188.753L188.695 75.16L189.163 75.2787L188.985 83.7014L190.099 83.76L190.565 75.688L191.149 75.5707L191.325 74.46L190.8 74.284L191.679 72.4707L193.14 72.06L194.487 72.1774L195.713 73.232L195.889 75.2787L195.361 75.16L195.305 76.156L195.596 76.2734L195.187 84.5214L195.948 84.636L196.473 76.3907L197.057 76.448L197.235 75.5134L196.707 75.2187L197.585 73.4654L199.223 73.232L200.803 73.932L201.623 75.044L201.915 76.3907L200.745 76.448L200.685 77.208L201.563 77.5014L200.977 85.748L201.856 85.924L202.499 77.792H203.317L203.259 76.9174L202.792 76.448L203.493 75.5707L204.604 75.5134L205.015 77.1507H204.428V77.852L205.072 78.0854L204.488 86.568L204.853 86.672L205.54 76.0374L205.825 72.3147L200.919 69.8387Z" fill="#FFAD65"/>
<path d="M204.647 89.852L195.868 86.4494L182.691 84.2667L175.281 84.9693L169.431 86.2147L169.213 86.3294L168.487 94.4267L172.316 92.8453L179.257 92.456L189.397 93L196.337 94.5613L201.019 96.1974L204.065 98.8373L204.647 89.852Z" fill="#523126"/>
<path d="M199.516 85.2813L185.887 83.232L171.499 83.0573L169.396 84.2853L168.016 99.6693H169.188L169.655 92.036L170.563 92.0067V91.012L170.033 90.9533L170.504 89.2573L172.025 88.2053L172.901 88.556L173.311 90.604L172.609 91.012V91.4213L173.077 91.5387L172.844 99.26L173.839 99.1413L174.131 91.364L174.832 91.248L174.891 90.604L174.305 90.4267L174.656 88.556L175.709 87.8547L176.937 88.0293L177.348 89.492L176.937 89.96V90.3693L177.348 90.4267L177.112 98.968L177.991 98.9093L178.225 90.3107H178.868V89.3147L178.401 89.2573L179.043 87.3867L180.388 86.86L181.733 87.152L182.493 88.0293L182.553 89.3747L181.793 89.492V90.076L182.26 90.3107V99.0853L183.139 99.028L183.312 90.484H183.957L183.84 89.7267L183.312 89.492L183.723 87.7373L185.244 86.86L186.529 87.036L187.759 88.1467L187.935 89.9013H187.349L187.291 90.604L187.759 90.7187L187.584 99.1413L188.695 99.2L189.163 91.1307L189.748 91.012L189.923 89.9013L189.397 89.7267L190.275 87.912L191.736 87.5027L193.081 87.62L194.311 88.672L194.487 90.7187L193.959 90.604L193.9 91.596L194.193 91.7133L193.783 99.9613L194.544 100.079L195.071 91.8307L195.656 91.8893L195.831 90.9533L195.305 90.6613L196.181 88.9067L197.819 88.672L199.399 89.3747L200.217 90.484L200.511 91.8307L199.341 91.8893L199.281 92.6507L200.159 92.9427L199.575 101.191L200.452 101.364L201.095 93.2373H201.915L201.856 92.3573L201.387 91.8893L202.089 91.012L203.199 90.9533L203.611 92.5907H203.027V93.2947L203.668 93.528L203.084 102.009L203.816 102.219L204.02 99.552L204.771 87.9347L199.516 85.2813Z" fill="#FFAD65"/>
<path d="M203.579 105.363L196.651 102.437L187.212 100.8L179.883 100.097L172.707 100.721L167.751 102.616L167.031 110.628L171.771 108.755C171.771 108.755 178.791 108.288 179.024 108.208C179.257 108.131 187.992 108.443 187.992 108.443L195.168 110.392L200.472 111.719L202.972 113.355L203.579 105.363Z" fill="#523126"/>
<path d="M202.616 118.035L203.677 104.06L198.228 101.307L184.601 99.26L170.211 99.0853L167.948 100.407L166.701 114.293L167.979 114.424L168.368 108.063L169.276 108.033V107.039L168.749 106.98L169.216 105.285L170.737 104.232L171.615 104.583L172.025 106.631L171.321 107.039V107.448L171.791 107.567L171.571 114.8L172.561 114.903L172.844 107.391L173.544 107.273L173.603 106.631L173.019 106.455L173.371 104.583L174.421 103.88L175.651 104.057L176.06 105.519L175.651 105.987V106.396L176.06 106.455L175.825 114.993L176.704 114.936L176.937 106.337H177.581V105.343L177.112 105.285L177.756 103.413L179.101 102.887L180.447 103.179L181.208 104.057L181.264 105.401L180.507 105.519V106.104L180.973 106.337V115.112L181.852 115.053L182.027 106.513H182.669L182.553 105.753L182.027 105.519L182.435 103.763L183.957 102.887L185.244 103.063L186.472 104.173L186.647 105.928H186.063L186.004 106.631L186.472 106.747L186.296 115.169L187.408 115.228L187.875 107.156L188.461 107.039L188.636 105.928L188.109 105.753L188.985 103.94L190.451 103.529L191.796 103.647L193.024 104.699L193.199 106.747L192.673 106.631L192.615 107.624L192.907 107.743L192.496 115.989L193.256 116.105L193.783 107.859L194.368 107.917L194.544 106.98L194.019 106.689L194.895 104.932L196.532 104.699L198.112 105.401L198.931 106.513L199.223 107.859L198.053 107.917L197.996 108.677L198.871 108.969L198.288 117.216L199.165 117.393L199.808 109.263H200.628L200.568 108.385L200.1 107.917L200.803 107.039L201.915 106.98L202.323 108.617H201.74V109.32L202.38 109.555L201.803 117.951L202.616 118.035Z" fill="#FFAD65"/>
<path d="M173.485 23.0054L175.475 22.304L181.383 21.7187L187.524 22.0694L194.719 22.6534L201.211 23.18L205.481 24.2334L207.761 25.4614L208.991 26.1054L209.108 24.5267L207.001 23.18L203.844 22.0694L198.228 21.1334L189.28 20.256L182.787 19.672L178.751 19.964L175.416 20.548L173.427 21.2507L173.485 23.0054Z" fill="#FFD394"/>
<path d="M207.237 24.4094L205.54 23.5307L201.856 22.5374L194.895 21.7187L186.179 20.7827L177.405 20.9574L173.459 22.1414L173.485 23.0054L175.475 22.304L181.383 21.7187L187.524 22.0694L194.719 22.6534L201.211 23.18L205.481 24.2334L207.761 25.4614L208.991 26.1054L209.028 25.5867L207.237 24.4094Z" fill="#BA7545"/>
<path d="M172.433 35.288L174.891 34.5853L179.629 34.06L185.652 33.884L192.204 34.352L196.941 34.8213L202.557 35.932L205.072 36.4L208.639 37.8627L208.525 38.564L208.465 39.1493L206.36 38.096L202.205 36.9267L193.489 35.5227L186.004 35.2307L178.343 35.1133L172.549 36.2827L172.433 35.288Z" fill="#FFD394"/>
<path d="M207.996 38.0373L205.481 37.3347L200.803 36.224L194.777 35.3467L187.64 34.7427L179.16 34.8213L172.483 35.7027L172.549 36.2827L178.343 35.1133L186.004 35.2307L193.489 35.5227L202.205 36.9267L206.36 38.096L208.465 39.1493L208.525 38.564L208.541 38.4467L207.996 38.0373Z" fill="#BA7545"/>
<path d="M171.145 51.2573L174.772 50.612L181.852 50.2627L188.695 50.4373L194.836 50.848L199.808 51.724L204.488 52.8933L207.529 54.4734L207.355 56.1107L204.252 55.1173L199.397 53.9467L189.864 52.3693L180.681 52.1347L175.008 52.6027L171.321 53.2467L171.145 51.2573Z" fill="#FFD394"/>
<path d="M204.252 53.8307L200.861 52.8933L194.368 52.076L187.759 51.492L178.751 51.608L171.259 52.5373L171.321 53.2467L175.008 52.6027L180.681 52.1347L189.864 52.3693L199.397 53.9467L204.252 55.1173L207.355 56.1107L207.439 55.32L204.252 53.8307Z" fill="#BA7545"/>
<path d="M170.328 67.8107L173.485 66.64L180.681 66.4067L187.524 66.5827L193.489 67.284L198.813 68.1613L201.972 68.8054L206.36 70.3253L206.125 72.0227L199.925 70.032L189.748 68.6307L181.032 68.2187L174.54 68.396L170.152 69.5654L170.328 67.8107Z" fill="#FFD394"/>
<path d="M204.897 70.384L200.861 69.2133L193.841 67.9853L188.869 67.4014H182.669L176.471 67.5187L170.256 68.528L170.152 69.5654L174.54 68.396L181.032 68.2187L189.748 68.6307L199.925 70.032L206.125 72.0227L206.263 71.0213L204.897 70.384Z" fill="#BA7545"/>
<path d="M168.923 83.368L172.083 82.432L179.043 82.1987L186.704 82.432L191.325 82.668L197.176 83.3107L201.913 84.7733L205.189 86.412L205.072 88.4L201.504 86.7614L195.245 84.948L186.472 84.0107L178.867 83.896L172.257 84.5387L168.864 85.4174L168.923 83.368Z" fill="#FFD394"/>
<path d="M200.685 85.3573L196.883 84.0707L190.508 83.3107L181.852 83.136L173.661 83.3107L168.895 84.3934L168.864 85.4174L172.257 84.5387L178.867 83.896L186.472 84.0107L195.245 84.948L201.504 86.7614L205.072 88.4L205.133 87.364L200.685 85.3573Z" fill="#BA7545"/>
<path d="M167.344 99.3387L170.328 98.2267L178.517 97.584L186.12 97.7573L193.608 98.9867L199.107 100.273L204.079 102.029L203.961 103.665L197.819 101.677L186.704 99.688L177.463 99.22L169.451 100.039L167.463 100.857L167.344 99.3387Z" fill="#FFD394"/>
<path d="M198.988 101.093L193.14 99.8067L186.415 98.636L179.395 98.344L172.14 99.104L167.399 100.052L167.463 100.857L169.451 100.039L177.463 99.22L186.704 99.688L197.819 101.677L203.961 103.665L204.02 102.86L198.988 101.093Z" fill="#BA7545"/>
<path d="M165.529 114.252L171.908 115.248L192.379 117.236L203.609 118.581L202.028 137.883L163.016 137.768L163.835 126.771L165.529 114.252Z" fill="#FFD394"/>
<path d="M201.055 137.88L202.028 137.883L203.609 118.581L192.379 117.236L171.908 115.248L165.529 114.252L163.835 126.771L163.016 137.768L164.657 137.773L165.124 132.093L165.764 125.133L166.116 121.507L166.876 118.992L168.164 117.471L170.033 117.119L171.615 117.704L173.019 119.4L173.311 121.799L172.549 129.285L172.257 134.843L172.109 137.795L173.923 137.8L174.421 128.409L174.772 122.267L176.293 118.873L178.224 117.997L179.688 118.348L180.797 119.752L180.681 123.085L180.171 137.817L182.275 137.825L182.729 124.664C182.729 124.664 183.371 121.507 183.371 121.331C183.371 121.155 184.892 118.873 184.892 118.873L186.529 118.173L188.636 118.815L189.396 120.044L189.688 122.617L189.513 133.731L189.007 137.847L190.881 137.852L191.268 127.707L191.677 122.149L192.379 120.044L193.783 119.049L195.011 119.167L196.181 120.396L196.707 121.916V128.175L196.269 137.867L198.177 137.872L198.403 127.18L198.871 122.384L199.691 120.103L201.504 119.985L202.44 121.331L201.797 128.351L201.055 137.88Z" fill="#FFAD65"/>
<path d="M172.492 116.768L170.796 115.891L168.632 116.067L166.995 117.296L166 120.396L166.124 121.477L166.876 118.992L168.164 117.471L170.033 117.119L171.615 117.704L173.019 119.4L173.237 121.187L173.485 120.103L173.019 118.289L172.492 116.768Z" fill="#7B402C"/>
<path d="M178.343 116.592L176.411 117.471L175.184 119.459L174.716 121.331L174.791 122.227L176.293 118.873L178.224 117.997L179.688 118.348L180.797 119.752L180.743 121.313L181.089 118.64L180.037 117.119L178.343 116.592Z" fill="#7B402C"/>
<path d="M187.349 117.412L185.419 117.471L183.897 118.932L183.021 121.507L182.977 123.424C183.159 122.519 183.371 121.432 183.371 121.331C183.371 121.155 184.892 118.873 184.892 118.873L186.529 118.173L188.636 118.815L189.396 120.044L189.535 121.269L189.629 119.635L189.104 118.348L187.349 117.412Z" fill="#7B402C"/>
<path d="M194.601 117.997L193.081 118.056L191.912 119.284L191.501 121.565L191.601 123.168L191.677 122.149L192.379 120.044L193.783 119.049L195.011 119.167L196.181 120.396L196.632 121.7L196.825 120.103L196.124 118.756L194.601 117.997Z" fill="#7B402C"/>
<path d="M202.791 120.804L202.088 119.284L200.568 118.932L199.221 119.635L198.695 121.973L198.768 123.433L198.871 122.384L199.691 120.103L201.504 119.985L202.44 121.331L202.268 123.201L202.791 120.804Z" fill="#7B402C"/>
<path d="M164.479 118.992L167.169 119.459L166.584 121.565L164.245 121.097L164.479 118.992Z" fill="#BA7545"/>
<path d="M172.549 119.927L175.825 120.688L175.008 122.617L172.843 121.916L172.549 119.927Z" fill="#BA7545"/>
<path d="M180.388 120.337L180.447 122.384L183.371 122.441L183.897 120.745L180.388 120.337Z" fill="#BA7545"/>
<path d="M189.22 120.629L189.336 122.676L191.853 122.617L192.379 120.921L189.22 120.629Z" fill="#BA7545"/>
<path d="M196.24 121.272L196.416 122.969L199.107 123.085L199.397 121.448L196.24 121.272Z" fill="#BA7545"/>
<path d="M202.088 121.683L201.972 123.319L203.552 123.377L203.668 121.683H202.088Z" fill="#BA7545"/>
<path d="M202.045 122.285L203.612 122.509L203.668 121.683H202.088L202.045 122.285Z" fill="#FFD394"/>
<path d="M196.321 122.069L199.255 122.251L199.397 121.448L196.24 121.272L196.321 122.069Z" fill="#FFD394"/>
<path d="M189.271 121.532L192.12 121.756L192.379 120.921L189.22 120.629L189.271 121.532Z" fill="#FFD394"/>
<path d="M180.416 121.264L183.641 121.567L183.897 120.745L180.388 120.337L180.416 121.264Z" fill="#FFD394"/>
<path d="M172.699 120.94L175.508 121.436L175.825 120.688L172.549 119.927L172.699 120.94Z" fill="#FFD394"/>
<path d="M164.401 119.705L166.949 120.252L167.169 119.459L164.479 118.992L164.401 119.705Z" fill="#FFD394"/>
<path d="M170.093 117.937L170.503 118.056L171.849 120.16L171.791 120.688L169.917 122.852L169.509 122.793L167.695 120.629L167.753 119.927L170.093 117.937Z" fill="#FFAD65"/>
<path d="M177.991 118.932H178.575L179.804 121.272V121.683L177.873 123.377L177.463 123.319L175.885 121.741L175.943 121.272L177.991 118.932Z" fill="#FFAD65"/>
<path d="M186.355 119.167H186.704L188.343 121.448V121.916L186.88 124.313L186.355 124.255L184.249 121.916L184.307 121.448L186.355 119.167Z" fill="#FFAD65"/>
<path d="M194.192 119.752L194.601 119.809L195.888 121.859L195.831 122.267L194.368 124.549L193.959 124.489L192.379 122.032V121.565L194.192 119.752Z" fill="#FFAD65"/>
<path d="M200.685 120.571L201.035 120.629L201.797 122.325L200.745 124.781L199.516 122.441L200.685 120.571Z" fill="#FFAD65"/>
<path d="M170.152 118.756L168.456 120.277L169.743 121.973L171.088 120.337L170.152 118.756Z" fill="#7B402C"/>
<path d="M178.167 119.868L176.821 121.448L177.581 122.5L178.867 121.389L178.167 119.868Z" fill="#7B402C"/>
<path d="M186.415 120.277L185.069 121.683L186.529 123.261L187.524 121.683L186.415 120.277Z" fill="#7B402C"/>
<path d="M194.368 120.688L193.197 121.916L194.136 123.495L195.129 122.032L194.368 120.688Z" fill="#7B402C"/>
<path d="M200.861 121.448L200.335 122.267L200.745 123.377L201.153 122.384L200.861 121.448Z" fill="#7B402C"/>
<path d="M171.289 137.792L171.967 127.707L171.321 125.543L169.801 124.84L168.045 125.191L166.819 126.712L166.525 131.216L166.021 137.776L171.289 137.792Z" fill="#FFAD65"/>
<path d="M167.753 130.573L168.105 127.707L169.976 126.595L171.145 127.472V130.691L167.753 130.573Z" fill="#BA7545"/>
<path d="M166.173 130.457L169.157 130.221L172.083 130.457L171.967 131.156L166.232 131.099L166.173 130.457Z" fill="#7B402C"/>
<path d="M165.124 113.668H168.281L176.643 114.428L184.015 114.779L188.168 115.015L194.309 115.833L199.808 116.417L203.727 117.412L203.903 118.992L201.972 118.756L192.731 117.471L183.488 116.652L177.112 116.008L170.796 115.307L165.705 115.365L165.063 115.189L165.124 113.668Z" fill="#BA7545"/>
<path d="M170.913 114.487L181.383 115.481L192.495 116.301L199.691 117.353L203.824 118.296L203.727 117.412L199.808 116.417L194.309 115.833L188.168 115.015L184.015 114.779L176.643 114.428L168.281 113.668H165.124L165.084 114.599L170.913 114.487Z" fill="#FFD394"/>
<path d="M73.0813 76.0707L73.656 81.5133L80.44 81.4813L80.232 75.6747L75.8293 75.696L73.0813 76.0707Z" fill="#EF880C"/>
<path d="M128.483 88.604L126.505 88.3547L126.549 85.5027L128.604 85.9867L128.483 88.604ZM114.699 93.3067L114.417 91.948L114.585 88.7707L115.223 88.1387L117.061 88.3987L118.077 90.3L118.179 92.7507L118.225 93.54L114.699 93.3067ZM110.827 86.5134L108.064 86.0774L108.185 81.8614L110.889 82.1614L110.827 86.5134ZM154.336 118.541L153.555 108.38L153.7 99.852L152.931 91.8667L149.799 88.7974L140.429 85.0267L120.228 79.128L104.997 77.1974L85.1827 75.2894L84.2933 81.4667L91.4573 83.9734L92.652 105.568L112.844 109.471L115.345 135.233L121.217 135.752L141.393 136.568L154.417 137.053L154.943 131.605L154.336 118.541Z" fill="#D19859"/>
<path d="M132.433 101.76L131.932 136.184L141.393 136.568L154.417 137.053L154.943 131.605L154.336 118.541L153.555 108.38L153.7 99.852L152.931 91.8667L149.799 88.7974L140.429 85.0267L132.019 82.5707L132.433 101.76Z" fill="#B57245"/>
<path d="M154.943 131.605L154.336 118.541L153.555 108.38L153.7 99.852L152.931 91.8667L149.799 88.7974L146.079 87.3L146.771 108.412L147.037 136.78L154.417 137.053L154.943 131.605Z" fill="#B2510E"/>
<path d="M152.077 105.848L152.216 136.973L154.417 137.053L154.943 131.605L154.336 118.541L153.555 108.38L153.7 99.852L152.931 91.8667L151.775 90.7334L152.077 105.848Z" fill="#933800"/>
<path d="M153.015 92.732L152.931 91.8667L149.799 88.7973L140.429 85.0267L120.228 79.128L104.997 77.1973L85.1827 75.2893L85.0107 76.4773L89.0387 76.724L97.48 77.7773L113.08 79.5213L121.887 80.752L130.517 83.2547L140.067 86.4787L146.68 88.4453L153.015 92.732Z" fill="#B2510E"/>
<path d="M140.807 87.8387L140.828 92.0107L142.663 92.276L142.92 88.464L140.807 87.8387Z" fill="#933800"/>
<path d="M148.067 90.98L148.36 95.336L149.739 95.5093L150.088 91.8787L148.067 90.98Z" fill="#933800"/>
<path d="M112.212 111.471L119.551 111.801L133.404 113.463L141.204 114.788L148.917 117.203L153.419 118.636L154.888 119.356L155.797 117.808L154.693 116.091L148.539 114.577L141.381 112.973L131.743 111.292L123.856 110.693L117.8 110.085L111.292 110.384L112.212 111.471Z" fill="#FFAD65"/>
<path d="M151.852 116.739L145.332 115.043L137.712 113.169L127.528 111.764L117.161 110.723L111.793 110.976L112.212 111.471L119.551 111.801L133.404 113.463L141.204 114.788L148.917 117.203L153.419 118.636L154.888 119.356L155.309 118.64L151.852 116.739Z" fill="#933800"/>
<path d="M93.7893 92.948L97.3667 93.296L98.748 94.648L99.3133 98.0067L98.9827 105.811L93.2013 105.204L93.7893 92.948Z" fill="#933800"/>
<path d="M104.064 93.9907L102.327 95.3613L101.517 98.5413L101.275 105.892L107.696 106.679L107.847 99.1467L107.279 95.156L105.256 94.076L104.064 93.9907Z" fill="#933800"/>
<path d="M114.063 94.5827L111.224 95.3213L110.413 98.5907L110.083 107.032L114.213 107.649L117.053 107.727L117.287 97.8334L116.451 95.4787L114.063 94.5827Z" fill="#933800"/>
<path d="M123.237 95.3573L120.577 95.732L119.484 97.5533L118.704 107.719L125.035 108.236L125.559 101.973L124.708 96.8053L123.237 95.3573Z" fill="#933800"/>
<path d="M131.125 96.1387L129.571 97.0547L128.939 99.5053L128.417 106.135L128.613 108.583L135.036 109.553L134.909 101.659L134.435 97.7573L133.145 96.7654L131.125 96.1387Z" fill="#B2510E"/>
<path d="M142.595 97.9933L139.755 98.188L138.483 100.735L137.883 109.812L143.113 111.061L143.816 104.251L143.704 99.8933L142.595 97.9933Z" fill="#933800"/>
<path d="M147.551 98.6067L145.631 99.432L145.012 105.151L144.671 111.325L148.803 111.94L148.767 104.047L148.199 99.8747L147.551 98.6067Z" fill="#933800"/>
<path d="M152.508 99.8573L151.039 99.68L150.599 103.132L150.088 112.571L152.843 113.195L152.999 106.477L152.789 101.125L152.508 99.8573Z" fill="#933800"/>
<path d="M97.3666 93.296L93.7893 92.948L93.7533 93.656L96.5467 94.6614L97.3827 97.0187L97.3973 100.283L96.6253 105.565L98.9827 105.811L99.3133 98.0067L98.748 94.648L97.3666 93.296Z" fill="#B2510E"/>
<path d="M105.256 94.076L104.064 93.9907L103.308 94.5853L105.08 95.348L105.729 97.4307L105.572 103.061L105.357 106.393L107.696 106.679L107.847 99.1467L107.279 95.156L105.256 94.076Z" fill="#B57245"/>
<path d="M114.063 94.5827L111.224 95.3213L110.875 96.7213L113.245 96.4893L115.085 97.936L115.375 101.02L114.915 107.669L117.053 107.727L117.287 97.8334L116.451 95.4787L114.063 94.5827Z" fill="#B57245"/>
<path d="M125.035 108.236L125.559 101.973L124.708 96.8053L123.237 95.3573L120.577 95.732L119.769 97.0787L121.867 96.9973L123.341 98.1707L123.448 101.708L123.065 108.076L125.035 108.236Z" fill="#B2510E"/>
<path d="M134.909 101.659L134.435 97.7573L133.145 96.7654L131.125 96.1387L129.571 97.0547L129.191 98.536L130.584 98.2307L132.145 98.676L132.887 100.579L133.189 106.295L133.42 109.308L135.036 109.553L134.909 101.659Z" fill="#933800"/>
<path d="M141.444 110.661L143.113 111.061L143.816 104.251L143.704 99.8933L142.595 97.9933L139.755 98.188L138.972 99.752L140.129 99.64L141.968 100.901L142.249 102.712L141.989 106.164L141.444 110.661Z" fill="#D19859"/>
<path d="M147.551 98.6067L145.631 99.432L145.393 101.609L146.195 102.787C146.195 102.787 146.391 105.964 146.393 106.236C146.393 106.448 146.184 110.012 146.093 111.535L148.803 111.94L148.767 104.047L148.199 99.8747L147.551 98.6067Z" fill="#B57245"/>
<path d="M125.743 135.933L125.944 126.836L126.111 122.932L124.353 119.493L122.7 119.229L120.236 121.78L119.433 126.867L119.817 135.628L121.217 135.752L125.743 135.933Z" fill="#933800"/>
<path d="M133.589 134.516L134.091 123.805L133.529 121.357L131.509 120.187L130.136 121.099L128.96 124.373L128.524 129.639L128.057 136.029L133.547 136.251L133.589 134.516Z" fill="#933800"/>
<path d="M140.616 126.679L140.505 122.597L138.48 120.791L136.464 120.891L136.105 123.069L135.673 128.699L134.947 136.307L140.66 136.537L140.616 126.679Z" fill="#933800"/>
<path d="M147.609 136.8L147.521 133.092L147.488 125.56L146.283 122.571L144.809 121.307L143.436 122.131L142.624 124.764L142.365 128.58L142.317 136.603L147.609 136.8Z" fill="#B2510E"/>
<path d="M153.403 137.017L153.268 126.352L152.705 123.361L150.595 122.916L149.505 125.279L149.341 129.727L149.2 136.86L153.403 137.017Z" fill="#933800"/>
<path d="M122.7 119.229L121.195 120.788L122.893 121.585L123.639 124.032L123.521 135.844L125.743 135.933L125.944 126.836L126.111 122.932L124.353 119.493L122.7 119.229Z" fill="#B57245"/>
<path d="M131.509 120.187L130.136 121.099L129.761 122.136L131.061 122.913L131.532 125.633C131.532 125.633 131.115 133.659 131.144 136.155L133.547 136.251L133.589 134.516L134.091 123.805L133.529 121.357L131.509 120.187Z" fill="#B2510E"/>
<path d="M138.48 120.791L136.464 120.891L136.145 122.819L138.123 122.879L139.324 125.053L139.155 128.048L139.021 136.473L140.66 136.537L140.616 126.679L140.505 122.597L138.48 120.791Z" fill="#B2510E"/>
<path d="M147.609 136.8L147.521 133.092L147.488 125.56L146.283 122.571L144.809 121.307L143.436 122.131L143.007 123.524L144.085 123.58L145.284 124.843L145.844 126.928L145.956 131.467L145.979 136.739L147.609 136.8Z" fill="#933800"/>
<path d="M153.403 137.017L153.268 126.352L152.705 123.361L150.595 122.916L149.951 124.313L151.609 124.635L151.811 128.625L151.765 136.956L153.403 137.017Z" fill="#B57245"/>
<path d="M126.337 91.8947L126.264 95.8L126.476 102.513L125.957 109.32L127.149 109.408L128.376 96.696L128.356 91.7947L126.337 91.8947Z" fill="#FFAD65"/>
<path d="M135.8 95.7547L135.825 101.563L135.584 108.735L135.408 110.821L137.061 110.996L137.752 102.008L138.369 95.8333L138.083 93.2027L135.877 92.8507L135.8 95.7547Z" fill="#FFAD65"/>
<path d="M108.723 89.976L108.476 96.6027L108.067 107.224L109.351 107.4L110.475 92.3307L110.464 89.6067L108.809 88.9787L108.723 89.976Z" fill="#FFAD65"/>
<path d="M119.045 122.239L119.28 113.072L116.893 112.537L117.173 135.393L118.664 135.527L119.045 122.239Z" fill="#FFAD65"/>
<path d="M127.479 136.004L128.205 120.019L128.363 113.848L126.984 113.672L126.924 120.207L126.499 127.56L126.36 135.961L127.479 136.004Z" fill="#FFAD65"/>
<path d="M100 87.748L99.9293 92.1947L99.956 98.184L99.716 105.808L100.632 105.896L101.321 96L102.199 87.4667L100 87.748Z" fill="#FFAD65"/>
<path d="M88.5707 105.02L82.38 104.705L82.5947 98.4147L82.6453 97.6494L82.7267 96.9107L85.0267 95.3773L87.352 95.6093L88.9467 96.692L90.116 105.097L88.5707 105.02ZM73.6987 104.836L71.5107 104.723L70.6147 98.7107L72.8 94.948L75.7373 95.7814L77.084 96.6227L77.884 97.6494L78.468 104.967L73.6987 104.836ZM117.311 123.788L115.401 106.977L111.732 106.513L101.944 104.984L95.0933 104.529L94.3933 84.204L93.28 81.668L89.244 81.0814L76.892 80.5307L66.6227 80.5787L64.9133 81.432L65.2627 104.904L76.768 107.757L90.7053 134.8L98.9027 135.732L117.977 136.129L117.311 123.788Z" fill="#EF9D43"/>
<path d="M93.8733 105.02L95.088 104.344L94.3933 84.204L93.28 81.668L90.1773 81.2147L92.432 83.608L92.9747 95.3427L93.7493 104.052L93.8733 105.02Z" fill="#B2510E"/>
<path d="M115.853 136.085L117.977 136.129L117.311 123.788L115.401 106.977L114.239 106.832L115.853 136.085Z" fill="#D17519"/>
<path d="M65.9027 83.9693L79.1067 83.908L89.5013 83.984L91.9467 84.2147L91.584 85.0653L65.784 84.696L65.9027 83.9693Z" fill="#D17519"/>
<path d="M65.788 85.42L66.16 86.8693L81.5693 87.2867L86.5813 87.264L91.104 87.1227L91.1 86.1533L65.788 85.42Z" fill="#D17519"/>
<path d="M93.28 81.668L89.244 81.0813L76.892 80.5307L66.6227 80.5787L64.9133 81.432L64.9227 82.0573L70.4173 82.1333L77.876 81.9787L84.7227 82.1907L93.7333 82.7L93.28 81.668Z" fill="#D17519"/>
<path d="M99.34 124.112L98.8226 118.187L95.268 115.903L93.0667 115.791L90.512 118.707L89.6786 123.792L90.0187 133.463L90.7053 134.8L98.9027 135.732L99.728 135.745L99.34 124.112Z" fill="#B2510E"/>
<path d="M113.525 124.653L112.281 120.181L109.827 118.377L106.892 117.907L104.701 120.095L103.752 126.513L104.347 135.844L113.137 136.029L113.525 124.653Z" fill="#B2510E"/>
<path d="M99.728 135.745L99.34 124.112L98.8226 118.187L95.268 115.903L93.0666 115.791L90.512 118.707L90.1933 120.655L93.084 119.784L95.7813 121.588L96.8973 124.969L97.376 135.557L98.9026 135.732L99.728 135.745Z" fill="#D17519"/>
<path d="M113.137 136.029L113.525 124.653L112.281 120.181L109.827 118.377L106.892 117.907L104.701 120.095L104.464 121.708L107.883 120.687L110.219 123.699L110.601 127.331L110.151 135.964L113.137 136.029Z" fill="#D17519"/>
<path d="M90.032 93.7814L88.0667 91.3707L85.6213 91.26L83.0613 93.088L82.7267 96.9107L85.0267 95.3774L87.352 95.6094L88.9467 96.692L90.116 105.097L91.1853 105.151L90.032 93.7814Z" fill="#D17519"/>
<path d="M77.5613 93.596L75.716 91.1853L72.78 90.5933L69.9747 92.2987L69.1387 96.6573L69.296 104.644L71.5107 104.723L70.6147 98.7107L72.8 94.948L75.7373 95.7813L77.084 96.6227L77.884 97.6507L77.5613 93.596Z" fill="#D17519"/>
<path d="M76.64 106.668L85.2 106.752L95.2267 106.949L104.033 107.755L113.211 109.045L112.855 111.589L103.065 109.817L88.5133 109.156L78.7293 108.957L77.5027 107.876L76.64 106.668Z" fill="#FFC280"/>
<path d="M79.1027 110.168L88.1507 110.125L99.156 110.68L107.843 111.611L113.104 112.917L113.108 113.523L99.528 111.891L89.256 111.331L79.352 111.012L79.1027 110.168Z" fill="#FFC280"/>
<path d="M57.4013 69.6067L57.4267 75.2947L52.6493 75.2373L52.496 66.24L53.3413 63.9374L55.5347 62.2347L57.372 63.0493L57.4013 69.6067ZM46.3053 76.1907L42.6387 76.4907L42.62 72.456L42.3587 68.8267L43.3253 66.1614L45.156 65.3054L46.2613 66.5453L46.3053 76.1907ZM34.288 77.5387L33.924 69.3493L34.1573 66.6853L35.8667 65.9507L36.484 66.216L36.608 68.0067L36.7707 76.9614L34.288 77.5387ZM29.8093 78.564L28.3573 78.912L28.4253 70.0987L28.7867 69.008L29.588 69.188L29.776 71.3053L29.8093 78.564ZM91.536 128.987L83.6413 113.413L81.7667 104.348L76.6267 103.523L73.9133 98.0893L72.4053 89.14L71.5173 82.008L71.0067 77.0467L66.7147 74.0413L66.456 70.8974L65.6587 56.9867L60.508 53.256L54.52 53.8907L36.68 56.1467L22.028 60.8094L11.168 66.0627L1.90801 72.88L1.86133 89.8213L2.37467 95.384L3.95734 120.909L4.87467 134.819L34.952 134.564L59.284 134.817L80.8053 135.085L94.012 135.632L91.536 128.987Z" fill="#FFAD65"/>
<path d="M2.55863 54.6067L2.75997 58.5974L2.08264 70.9427L15.9786 61.9867L35.756 55.184L59.5866 52.536L52.364 36.7787L47.016 30.0853L44.9946 29.3667L38.7693 31.756L29.9826 35.424L15.8933 42.5654L6.93598 49.32L2.55863 54.6067Z" fill="#BA7545"/>
<path d="M52.364 36.7787L47.016 30.0853L45.048 29.388L48.1293 32.984L50.9173 41.14L55.628 52.9734L59.5866 52.536L52.364 36.7787Z" fill="#7B402C"/>
<path d="M1.10535 57.6987L6.58401 52.5907L15.3547 45.1107L23.0387 40.9027L33.2867 35.956L42.2574 32.468L46.4707 31.1773L49.0387 31.5294L49.028 29.168L45.1747 28.46L39.3093 29.5747L17.1627 39.2934L7.11067 47.1427L0.176001 54.7987L0.00134277 56.9773L1.10535 57.6987Z" fill="#7B402C"/>
<path d="M0.104004 57.044L1.10534 57.6987L6.584 52.5907L15.3547 45.1107L23.0387 40.9027L33.2867 35.956L42.2573 32.468L46.4707 31.1773L49.0387 31.5294L49.0333 30.2187L42.2507 30.832L34.7427 33.4067L23.3947 38.54L8.40133 48.5907L0.104004 57.044Z" fill="#523126"/>
<path d="M34.7533 36.0694L36.0973 35.8213L36.86 42.232L35.3933 42.4787L34.7533 36.0694Z" fill="#FFAD65"/>
<path d="M39.6387 34.596L39.9147 41.4907L40.8907 41.3654L40.7347 33.864L39.6387 34.596Z" fill="#FFAD65"/>
<path d="M44.276 32.8813L44.6787 40.6227L46.0213 40.1334L45.62 32.512L44.276 32.8813Z" fill="#FFAD65"/>
<path d="M26.3347 39.9787L26.8467 44.9387L28.6773 44.3253L28.4106 39.1227L26.3347 39.9787Z" fill="#FFAD65"/>
<path d="M2.09732 60.9014L7.456 55.916L18.7907 47.8773L24.5253 45.1933L31.8493 42.496L39.2987 40.7667L43.4533 40.024L48.3427 39.7613L48.224 40.728L48.104 41.456L37.72 43.196L28.44 45.8974L21.12 49.0773L15.144 52.7347L8.19866 58.3307L2.11065 63.5627L2.09732 60.9014Z" fill="#FFAD65"/>
<path d="M45.9 40.8613L40.648 41.8507L30.8773 44.0734L22.456 47.2547L15.748 51.16L7.34134 57.7294L2.104 62.3067L2.11066 63.5627L8.19867 58.3307L15.144 52.7347L21.12 49.0773L28.44 45.8974L37.72 43.196L48.104 41.456L48.204 40.8507L45.9 40.8613Z" fill="#7B402C"/>
<path d="M1.87466 65.8627L1.87865 66.8307L6.51199 63.6614L15.296 59.268L29.572 52.7907L38.2453 51.0573L46.0627 49.3294L52.172 48.576L52.288 47.364L46.912 47.996L36.528 49.9787L27.1253 52.44L19.5627 56.468L12.484 59.6427L6.14 62.8187L1.87466 65.8627Z" fill="#7B402C"/>
<path d="M27.1013 47.2347L28.812 46.864L29.0773 51.34L27.2426 51.712L27.1013 47.2347Z" fill="#FFAD65"/>
<path d="M35.6467 44.296L36.9893 43.9227L37.016 49.3694L35.792 49.6173L35.6467 44.296Z" fill="#FFAD65"/>
<path d="M40.0427 43.1853L41.0227 43.18L41.2907 48.504L39.824 48.752L40.0427 43.1853Z" fill="#FFAD65"/>
<path d="M44.808 42.4387L46.2746 42.1894L46.3 47.6334L45.0786 47.6387L44.808 42.4387Z" fill="#FFAD65"/>
<path d="M31.4973 45.7627L31.876 48.7867L34.076 48.536L33.696 45.392L31.4973 45.7627Z" fill="#523126"/>
<path d="M18.5586 51.0267L18.6946 53.688L16.8627 54.4214L16.7307 52.2427L18.5586 51.0267Z" fill="#523126"/>
<path d="M91.536 128.987L83.6413 113.413L81.7666 104.348L76.6266 103.523L73.9133 98.0893L72.4053 89.14L71.5173 82.008L71.0066 77.0467L66.7146 74.0413L66.456 70.8974L65.6586 56.9867L60.832 53.492L61.4946 55.4294L62.8786 64.2573L64.024 73.812L66.8506 77.068L69.9706 91.4533L72.3466 103.179L75.9026 105.584L79.9613 111.009L87.3746 128.523L90.996 135.508L94.012 135.632L91.536 128.987Z" fill="#BA7545"/>
<path d="M1.44666 79.2947L5.82133 73.348L12.8907 68.2334L22.7733 63.5907L34.1293 60.5147L50.3787 57.78L59.7893 57.0133L61.8707 57.3653L65.7973 60.6147L66.6467 59.2787L66.632 55.6493L65.2773 53.5987L60.868 51.924L58.176 51.5747L43.268 53.2147L35.692 54.216L27.6347 57.0347L15.3053 61.4453L8.72266 65.8307L3.356 68.76L1.53199 71.188L0.693319 74.6987L0.585327 78.3307L1.44666 79.2947Z" fill="#BA7545"/>
<path d="M60.868 51.924L60.3027 51.852L60.3893 54.348L61.1787 57.2493L61.8707 57.3653L65.7973 60.6147L66.6467 59.2787L66.632 55.6493L65.2773 53.5987L60.868 51.924Z" fill="#7B402C"/>
<path d="M60.868 51.924L58.176 51.5747L43.268 53.2147L35.692 54.216L27.6347 57.0347L15.3053 61.4453L8.72268 65.8307L3.35601 68.76L1.532 71.188L0.820007 74.1653L5.80933 70.688L16.66 63.74L27.0347 59.5787L37.4147 56.628L48.532 54.7627L58.068 54.7227L61.368 54.4653L66.6387 57.412L66.632 55.6493L65.2773 53.5987L60.868 51.924Z" fill="#FFAD65"/>
<path d="M60.868 51.924L60.3027 51.852L60.3893 54.348L60.4427 54.536L61.368 54.4654L66.6387 57.412L66.632 55.6494L65.2773 53.5987L60.868 51.924Z" fill="#BA7545"/>
<path d="M53.8333 57.4987L51.7227 57.2907L44.7547 57.804L36.4466 59.052L26.7973 61.2734L19.3506 63.9694L10.5693 68.4853L4.71865 72.8667L0.694641 78.4533L1.44664 79.2947L5.82132 73.348L12.8907 68.2334L22.7733 63.5907L34.1293 60.5147L50.3786 57.78L53.8333 57.4987Z" fill="#7B402C"/>
<path d="M22.2373 80.292L22.3173 71.0933L21.3253 68.196L19.736 67.84L18.8826 68.448L18.4013 70.3867L18.544 74.864L18.576 82.2427L22.2373 80.292Z" fill="#523126"/>
<path d="M16.0067 81.6507L16.0907 73.18L14.976 70.1587L12.9 70.2907L12.424 73.4373L12.9587 83.4787L16.0067 81.6507Z" fill="#7B402C"/>
<path d="M9.90399 84.2187L9.25864 76.4773L8.26932 73.82L6.55998 74.312L6.20532 77.216L6.24932 86.656L9.90399 84.2187Z" fill="#7B402C"/>
<path d="M22.3173 71.0933L22.076 70.3867L21.0933 71.0987L20.3813 75.7013L20.8053 81.0547L22.2373 80.292L22.3173 71.0933Z" fill="#7B402C"/>
<path d="M62.3213 103.707L62.0266 92.336L62.0053 87.2533L60.1626 85.324L55.512 84.5L52.4626 85.964L51.1346 89.4774L51.1986 104.241L62.3213 103.707Z" fill="#7B402C"/>
<path d="M46.5493 103.535L46.2533 92.0427L46.2293 86.3547L43.9 85.1547L41.336 86.136L40.008 89.7733L40.072 103.927L46.5493 103.535Z" fill="#7B402C"/>
<path d="M36.648 104.307L36.4787 93.6587L36.2067 87.6093L34.856 85.9213L33.024 86.5347L31.9373 89.324L31.8387 95.1307L31.7587 104.569L36.648 104.307Z" fill="#7B402C"/>
<path d="M29.5587 104.459L29.6373 94.78L29.7347 89.2107L28.992 87.1587L27.0347 87.1667L25.4493 87.9L24.9693 89.9613L24.7427 93.8334L24.6467 100.003L24.4253 105.208L29.5587 104.459Z" fill="#7B402C"/>
<path d="M56.784 95.6253L56.64 90.908L57.7213 86.544L60.6133 85.796L60.1626 85.324L55.512 84.5L52.4626 85.964L51.1346 89.4774L51.1986 104.241L56.9253 103.967L56.784 95.6253Z" fill="#523126"/>
<path d="M43.9 85.1547L41.336 86.136L40.008 89.7733L40.072 103.927L42.628 103.772L42.468 93.148L42.9467 90.7267L44.164 89.632L46.2453 90.2107L46.2293 86.3547L43.9 85.1547Z" fill="#523126"/>
<path d="M34.856 85.9213L33.024 86.5347L31.9373 89.324L31.8387 95.1307L31.7587 104.569L33.9267 104.453L33.688 98.3907L33.66 92.2213L34.5067 90.1587L36.3427 90.604L36.2067 87.6093L34.856 85.9213Z" fill="#523126"/>
<path d="M22.592 104.973L22.3013 94.6907L21.7946 90.5787L19.8333 89.7413L18.6147 90.7134L18.26 93.4974L17.8293 106.085L22.592 104.973Z" fill="#7B402C"/>
<path d="M15.748 105.973L15.8373 98.4707L16.184 93.8693L14.952 91.696L13.2413 91.8253L12.7613 94.2507L12.7773 98.0013L13.0627 106.711L15.748 105.973Z" fill="#7B402C"/>
<path d="M10.3747 107.085L10.4547 97.768L10.3187 94.6227L9.21198 93.4187L7.99197 94.148L6.90132 96.0893L6.56131 101.899L6.83732 109.037L10.3747 107.085Z" fill="#7B402C"/>
<path d="M27.0347 87.1667L25.4493 87.9L24.9693 89.9613L24.7427 93.8334L24.6467 100.003L24.4253 105.208L26.6107 104.888L26.3267 92.7373L27.2947 90.1907L29.7173 90.18L29.7347 89.2107L28.992 87.1587L27.0347 87.1667Z" fill="#523126"/>
<path d="M19.8333 89.7413L18.6147 90.7134L18.26 93.4974L17.8293 106.085L19.66 105.657L19.6213 97L19.6067 93.492L20.5773 91.9134L21.948 91.8294L21.7946 90.5787L19.8333 89.7413Z" fill="#523126"/>
<path d="M76.8013 115.147L73.864 114.912L71.6653 115.169L69.5946 116.692L68.8747 119.847L68.532 125.393L68.576 134.933L78.8373 135.061L78.5586 125.6L78.652 119.299L76.8013 115.147Z" fill="#523126"/>
<path d="M62.168 134.855L62.5506 127.584L62.2747 120.039L60.6626 115.393L58.0893 113.769L54.6666 114.288L52.8466 117.441L52.8733 123.351L52.7 134.751L59.284 134.817L62.168 134.855Z" fill="#523126"/>
<path d="M47.0547 134.692L47.012 125.073L46.8573 117.328L45.5 115.155L41.8307 114.569L40.612 115.663L39.4067 119.419L39.196 127.285L38.9147 134.605L47.0547 134.692Z" fill="#523126"/>
<path d="M34.952 134.564L36.804 134.585L36.9867 125.116L36.588 117.98L35.476 115.441L34.2533 115.449L33.0373 117.147L31.9507 119.816L32.352 127.56L32.168 134.588L34.952 134.564Z" fill="#523126"/>
<path d="M29.1426 134.615L29.8826 122.244L29.6133 116.681L28.5066 115.352L25.9426 115.971L24.6013 117.308L24.508 123.36L24.332 134.652L29.1426 134.615Z" fill="#523126"/>
<path d="M21.7027 134.677L22.5547 123.972L22.164 118.769L20.5707 117.688L18.3707 118.304L17.8973 121.451L17.8427 134.711L21.7027 134.677Z" fill="#523126"/>
<path d="M15.5106 134.729L15.464 124.365L15.1986 119.891L13.7253 118.447L12.0226 120.147L12.2813 123.415L12.332 134.757L15.5106 134.729Z" fill="#523126"/>
<path d="M9.23732 126.331L9.70131 120.764L8.10665 119.683L6.65065 122.109L6.54132 125.011L6.80131 134.805L9.48932 134.781L9.23732 126.331Z" fill="#523126"/>
<path d="M74.024 122.895L74.248 118.417L75.464 116.716L77.5347 116.792L76.8013 115.147L73.864 114.912L71.6653 115.169L69.5946 116.692L68.8747 119.847L68.532 125.393L68.576 134.933L73.8533 134.999L74.024 122.895Z" fill="#7B402C"/>
<path d="M61.4 117.519L60.6626 115.393L58.0893 113.769L54.6666 114.288L52.8466 117.441L52.8733 123.351L52.7 134.751L57.0826 134.797L57.02 121.156L57.496 118.128L59.448 116.911L61.4 117.519Z" fill="#7B402C"/>
<path d="M46.8573 117.328L45.5 115.155L41.8307 114.569L40.612 115.663L39.4067 119.419L39.196 127.285L38.9147 134.605L41.0653 134.629L41.008 122.196L42.0933 118.681L44.4133 117.704L46.892 119.041L46.8573 117.328Z" fill="#7B402C"/>
<path d="M34.3333 134.569L34.1573 121.139L35.0053 119.196L36.656 119.189L36.588 117.98L35.476 115.441L34.2533 115.449L33.0373 117.147L31.9507 119.816L32.352 127.56L32.168 134.588L34.3333 134.569Z" fill="#7B402C"/>
<path d="M29.6946 118.341L29.6133 116.681L28.5066 115.352L25.9426 115.971L24.6013 117.308L24.508 123.36L24.332 134.652L26.3813 134.637L26.2266 125.167L26.084 120.324L27.42 118.263L29.6946 118.341Z" fill="#7B402C"/>
<path d="M108.185 81.8613L110.889 82.1613L110.827 86.5107L112.011 86.696L112.167 80.704L108.224 80.5413L108.185 81.8613Z" fill="#B2510E"/>
<path d="M130.156 84.3467L126.579 83.7267L126.505 88.3547L126.549 85.5027L128.604 85.9867L128.483 88.604L126.505 88.3547L129.992 88.7947L130.156 84.3467Z" fill="#B2510E"/>
<path d="M119.835 93.6507L120.188 90.1987L118.981 87.6614L116.139 87.2214L115.223 88.1387L117.061 88.3987L118.077 90.3L118.179 92.7507L118.225 93.54L114.699 93.3067L119.835 93.6507Z" fill="#933800"/>
<path d="M52.2253 60.4333L50.4 62.4987L49.8146 68.3094L50.0893 75.2053L57.4266 75.2947L52.6493 75.2373L52.496 66.24L53.3413 63.9374L55.5346 62.2347L57.372 63.0493L57.3706 62.832L56.016 60.66L52.2253 60.4333Z" fill="#7B402C"/>
<path d="M42.62 72.456L42.3587 68.8267L43.3253 66.1613L45.156 65.3054L46.2613 66.5453L46.256 65.5414L44.8987 62.524L42.0827 61.8107L40.38 63.7547L40.0387 69.3227L40.072 76.7027L42.6387 76.4907L42.62 72.456Z" fill="#7B402C"/>
<path d="M34.632 63.296L32.8 63.788L32.0733 65.2453L31.5973 68.2707L31.6187 73.2294L32.008 78.0707L34.288 77.536L33.924 69.3493L34.1573 66.6853L35.8667 65.9507L36.484 66.216L36.608 68.0067L36.348 64.256L34.632 63.296Z" fill="#7B402C"/>
<path d="M28.3573 78.912L28.4253 70.0987L28.7867 69.008L29.588 69.188L29.776 71.3053L29.3907 66.9493L28.6507 65.6227L26.204 65.5133L24.6227 66.8493L24.68 79.7973L29.8093 78.564L28.3573 78.912Z" fill="#7B402C"/>
<path d="M64.5106 73.4467L56.684 73.4813L44.828 74.14L27.3586 77.364L11.6093 82.6387L3.19464 87.2733L1.00266 89.584L1.38265 92.364L2.1253 94.2973L4.07066 91.748L11.3907 88.2053L33.976 80.964L50.8453 79.8013L62.5826 79.628L67.3506 79.7267L71.388 80.312L72.604 78.856L71.7266 74.3827L64.5106 73.4467Z" fill="#BA7545"/>
<path d="M71.388 80.312L72.604 78.856L71.7266 74.3827L64.5106 73.4467L63.5547 73.4507L64.0266 74.9014L66.2213 79.7014L67.3507 79.7267L71.388 80.312Z" fill="#7B402C"/>
<path d="M72.032 75.9427L71.7266 74.3827L64.5106 73.4467L56.684 73.4814L44.828 74.14L27.3586 77.364L11.6093 82.6387L3.19464 87.2733L1.00266 89.584L1.15998 90.724L6.24932 86.656L15.764 82.2547L29.196 78.324L41.536 75.972L51.5573 75.32L59.748 74.8L63.5387 74.904L72.032 75.9427Z" fill="#FFC280"/>
<path d="M71.7266 74.3827L64.5106 73.4467L63.5547 73.4507L64.0266 74.9014L64.0573 74.968L72.032 75.9427L71.7266 74.3827Z" fill="#EF880C"/>
<path d="M72.4573 79.0333L68.568 78.5133L60.7426 78.424L43.6293 79.2267L33.4826 79.8773L18.832 84.42L6.86797 88.8307L1.52264 92.7253L2.1253 94.2973L4.07064 91.748L11.3906 88.2053L33.976 80.964L50.8453 79.8013L62.5826 79.628L67.3506 79.7267L71.388 80.312L72.4573 79.0333Z" fill="#7B402C"/>
<path d="M72.4573 79.0333L68.568 78.5133L65.6627 78.48L66.2213 79.7014L67.3507 79.7267L71.388 80.312L72.4573 79.0333Z" fill="#523126"/>
<path d="M1.948 109.423L12.692 105.865L31.3867 103.481L53.5173 103.023L61.708 102.981L72.7133 103.419L76.02 104.371L80.5707 110.401L70.4187 110.085L45.2333 110.077L25.5507 110.405L14.4333 112.515L7.10801 114.844L2.95601 116.073L1.948 109.423Z" fill="#BA7545"/>
<path d="M76.02 104.371L72.7133 103.419L61.708 102.981L53.5173 103.023L31.3867 103.481L12.692 105.865L1.948 109.423L2.39867 112.401L11.6053 108.896L22.476 106.668L35.6787 105.883L50.5933 105.815L66.6107 105.624L77.7933 106.721L76.02 104.371Z" fill="#FFC280"/>
<path d="M50.2373 107.996L38.7453 108.171L24.9333 109.197L12.3506 111.192L2.76398 114.809L2.95599 116.073L7.10799 114.844L14.4333 112.515L25.5506 110.405L45.2333 110.077L70.4186 110.085L80.5706 110.401L79.5346 109.029C76.7093 108.693 72.9666 108.26 72.368 108.261C71.392 108.265 50.2373 107.996 50.2373 107.996Z" fill="#7B402C"/>
<path d="M71.4893 12.128L77.5907 34.3466L97.376 30.648L119.087 25.5893L117.236 14.8613L113.137 0.737343L71.7213 9.84665L71.4893 12.128Z" fill="white"/>
<path d="M87.208 16.9173L85.2013 6.88132L71.7213 9.84665L71.4893 12.128L77.5907 34.3466L90.7026 31.896L87.208 16.9173Z" fill="#319E4A"/>
<path d="M100.416 3.53469L103.791 17.3734L106.303 28.568L119.087 25.5893L117.236 14.8614L113.137 0.737358L100.416 3.53469Z" fill="#FF4127"/>
<path d="M86.716 35.7853L86.448 49.2654L84.5907 66.5627L87.7573 66.8414L89.944 45.088L91.1387 35.932L86.716 35.7853Z" fill="white"/>
<path d="M93.912 37.1374L93.7506 40.5213L100.016 41.5054L96.924 65.8654L96.828 68.048L100.201 68.5787L103.888 42.0054L111.188 43.4813L111.833 40.9453L100.847 37.788L93.912 37.1374Z" fill="white"/>
<path d="M115.071 58.8254L118.717 47.416L120.528 59.464L115.071 58.8254ZM124.195 60.4787C124.247 60.1587 121 39.968 121 39.968L118.212 39.64L116.452 43.7614L107.429 68.9467L110.529 70.4227L114.015 62.396L121.124 63.516L123.079 72.2867L125.503 71.7894C125.503 71.7894 124.143 60.8013 124.195 60.4787Z" fill="white"/>
<path d="M132.184 40.2987C132.083 40.9427 129.096 59.9307 129.096 59.9307L128.671 72.836L142.459 74.676L143.415 72.5187L142.787 63.9533L140.567 63.9347L138.985 70.06L133.011 68.7933L135.36 43.656L135.333 40.684L132.184 40.2987Z" fill="white"/>
<path d="M145.196 42.344C145.145 42.6667 149.099 58.3493 149.099 58.3493L147.085 75.0747L151.423 75.7547L152.991 59.5107L161.963 44.8707L159.412 43.812L151.484 56.5267L148.617 41.784L145.196 42.344Z" fill="white"/>
</svg>
